<?xml version="1.0" encoding="utf-8"?>
<!-- Generator: Adobe Illustrator 23.0.3, SVG Export Plug-In . SVG Version: 6.00 Build 0)  -->
<svg version="1.1" xmlns="http://www.w3.org/2000/svg" xmlns:xlink="http://www.w3.org/1999/xlink" x="0px" y="0px"
	 viewBox="0 0 460 404" style="enable-background:new 0 0 460 404;" xml:space="preserve">
<style type="text/css">
	.st0{display:none;}
	.st1{display:inline;fill:#FFFFFF;}
	.st2{fill:#8FD8DE;}
	.st3{fill:#FCB8A5;}
	.st4{fill:#0F6693;}
	.st5{opacity:0.35;fill:#0F6693;}
	.st6{opacity:0.24;fill:#0F6693;}
	.st7{fill:#F5A692;}
	.st8{fill:#81276A;}
	.st9{fill:none;stroke:#FCB8A5;stroke-width:3;stroke-linecap:round;stroke-linejoin:round;stroke-miterlimit:10;}
	.st10{fill:#113159;}
	.st11{fill:#FFFFFF;}
	.st12{opacity:0.11;fill:#3863B1;}
	.st13{fill:#FCFCFC;}
	.st14{fill:none;stroke:#113159;stroke-width:3;stroke-linecap:round;stroke-linejoin:round;stroke-miterlimit:10;}
	.st15{fill:#FF7C89;}
	.st16{fill:#3863B1;}
	.st17{fill:none;stroke:#FFFFFF;stroke-width:2;stroke-miterlimit:10;}
	.st18{fill:#E83666;}
	.st19{fill:#7CB642;}
	.st20{fill:#FEC448;}
	.st21{font-family:'Montserrat-Bold';}
	.st22{font-size:25.5019px;}
	.st23{font-size:20.161px;}
	.st24{font-size:22.4091px;}
	.st25{letter-spacing:1;}
	.st26{font-size:20.5552px;}
</style>
<g id="Background" class="st0">
	<rect x="-20" y="-48" class="st1" width="500" height="500"/>
</g>
<g id="Objects">
	<path class="st2" d="M429.48,299.64h-32.55c3.8-3.81,6.16-9.05,6.16-14.82v-1.27c0-11.55-9.45-21-21-21h-8.26
		c-8.72-2.79-15.04-10.96-15.04-20.61v0c0-11.95,9.69-21.64,21.64-21.64h29.09c11.55,0,21-9.45,21-21v-1.27c0-11.55-9.45-21-21-21
		h-8.48c-11.95,0-21.64-9.69-21.64-21.64c0-11.95,9.69-21.64,21.64-21.64h3.73c11.55,0,21-9.45,21-21v-1.27c0-11.55-9.45-21-21-21
		h-7.82c-9.66-2.08-16.87-10.29-16.87-20.11c0-11.39,9.71-20.63,21.68-20.63h17.15c11.35,0,20.63-9.28,20.63-20.63v0
		c0-11.35-9.28-20.63-20.63-20.63H65.81c-11.35,0-20.63,9.28-20.63,20.63v0c0,11.35,9.28,20.63,20.63,20.63h29.34
		c11.97,0,21.68,9.24,21.68,20.63c0,9.82-7.21,18.03-16.87,20.11H53.18c-11.55,0-21,9.45-21,21v1.27c0,11.55,9.45,21,21,21h41.85
		c11.95,0,21.64,9.69,21.64,21.64c0,11.95-9.69,21.64-21.64,21.64H57.94c-11.55,0-21,9.45-21,21v1.27c0,11.55,9.45,21,21,21h16.48
		c11.95,0,21.64,9.69,21.64,21.64v0c0,9.65-6.32,17.82-15.05,20.61h-50.5c-11.55,0-21,9.45-21,21v1.27c0,11.55,9.45,21,21,21h32.55
		c-3.8,3.81-6.16,9.05-6.16,14.82v1.27c0,11.55,9.45,21,21,21h-1.17c11.95,0,21.64,9.69,21.64,21.64v0
		c0,11.95-9.69,21.64-21.64,21.64h32.97h240.06h32.97c-11.95,0-21.64-9.69-21.64-21.64v0c0-11.95,9.69-21.64,21.64-21.64h46.74
		c11.55,0,21-9.45,21-21v-1.27C450.48,309.09,441.03,299.64,429.48,299.64z"/>
	<g>
		<path class="st3" d="M353.52,218.91c0,0,1.16-17.38,5.79-20.85c4.63-3.48,30.12-2.32,30.12-2.32s8.11-19.69,11.58-18.54
			c3.48,1.16,2.32,4.63,2.32,4.63l-10.43,24.33l-30.12,11.58L353.52,218.91z"/>
		<path class="st3" d="M107.52,218.91c0,0-1.16-17.38-5.79-20.85c-4.63-3.48-30.12-2.32-30.12-2.32s-8.11-19.69-11.58-18.54
			c-3.48,1.16-2.32,4.63-2.32,4.63l10.43,24.33l30.12,11.58L107.52,218.91z"/>
		<polygon class="st4" points="184.57,387 178.23,264.28 240.02,264.28 238.44,387 		"/>
		<path class="st4" d="M89.52,215.84l15.84,69.43c0,0,3.17,11.3,17.43,11.3l64.96,6.46l-0.79-38.75h-60.99L106.94,211L89.52,215.84z
			"/>
		<polygon class="st4" points="276.46,387 282.8,264.28 236.85,264.28 238.44,387 		"/>
		<path class="st4" d="M371.52,215.84l-15.84,69.43c0,0-3.17,11.3-17.43,11.3l-64.96,6.46l0.79-38.75h60.99L354.09,211
			L371.52,215.84z"/>
		<path class="st5" d="M105.3,285l0.06,0.28c0,0,3.17,11.3,17.43,11.3l64.96,6.46L187.37,285H105.3z"/>
		<path class="st5" d="M273.66,285l-0.37,18.04l64.96-6.46c14.26,0,17.43-11.3,17.43-11.3l0.06-0.28H273.66z"/>
		<path class="st4" d="M276.32,388h23.79l32.18-40.91c0,0,6.8-9.57-2.17-20.66l-35.82-54.57l-29.64,24.98l38.35,47.43L276.32,388z"
			/>
		<path class="st4" d="M177.71,388h-23.79l-32.18-40.91c0,0-6.8-9.57,2.17-20.66l35.82-54.57l29.64,24.98l-38.35,47.43L177.71,388z"
			/>
		<path class="st6" d="M276.32,388h6.19c14.93-14.85,21.78-31.77,36.54-46.79l-45.69-51.69l-8.68,7.32l38.35,47.43L276.32,388z"/>
		<path class="st6" d="M182.78,291.29c-15.92,15.78-27.87,34.53-43.7,50.4c7.23,9.75,9.55,15.44,15.27,23.39
			c5.52,7.65,11.04,15.31,16.61,22.92h6.76l-26.7-43.73l38.35-47.43L182.78,291.29z"/>
		<rect x="220.52" y="242" class="st3" width="20" height="31"/>
		<polygon class="st7" points="240.52,273 220.52,247 240.52,242 		"/>
		<path class="st3" d="M252.52,248h-47c-9.9,0-18-8.1-18-18v-61c0-9.9,8.1-18,18-18h47c9.9,0,18,8.1,18,18v61
			C270.52,239.9,262.42,248,252.52,248z"/>
		<path class="st3" d="M252.52,248h-47c-9.9,0-18-8.1-18-18v-61c0-9.9,8.1-18,18-18h47c9.9,0,18,8.1,18,18v61
			C270.52,239.9,262.42,248,252.52,248z"/>
		<path class="st8" d="M267.52,159.09V205c0,9.9-8.1,18-18,18h-41c-9.9,0-18-8.1-18-18v-45.91c-1.89,2.85-3,6.25-3,9.91v61
			c0,9.9,8.1,18,18,18h47c9.9,0,18-8.1,18-18v-61C270.52,165.35,269.41,161.94,267.52,159.09z"/>
		<path class="st8" d="M249.67,236h-41.3c-2.67,0-4.85-2.18-4.85-4.85v-16.3c0-2.67,2.18-4.85,4.85-4.85h41.3
			c2.67,0,4.85,2.18,4.85,4.85v16.3C254.52,233.82,252.33,236,249.67,236z"/>
		<path class="st9" d="M240.52,220.25c0,6.9-5.6,9.5-12.5,9.5c-6.9,0-12.5-2.6-12.5-9.5"/>
		<ellipse class="st3" cx="230.52" cy="273" rx="14" ry="10"/>
		<g>
			<rect x="209.02" y="360" class="st10" width="43" height="19"/>
			<path class="st11" d="M274.84,386.67c-1.16-6-8.72-10.67-17.83-10.67h-53c-9.11,0-16.67,4.67-17.83,10.67H274.84z"/>
			<path class="st11" d="M279.52,364h-98c-9.9,0-18-8.1-18-18v-71c0-9.9,8.1-18,18-18h98c9.9,0,18,8.1,18,18v71
				C297.52,355.9,289.42,364,279.52,364z"/>
			<path class="st12" d="M290.37,260.69c-10.67,9.94-22.15,19.15-33,28.85c-13.63,12.19-27.17,24.48-40.79,36.69
				c-13.35,11.98-26.94,23.69-40.17,35.81c-0.32,0.29-0.64,0.59-0.97,0.88c1.9,0.69,3.94,1.08,6.07,1.08h98c9.9,0,18-8.1,18-18v-71
				C297.52,269.17,294.7,263.98,290.37,260.69z"/>
		</g>
		<path class="st8" d="M266.99,159c0,0-72.48,28-89.48,4c-18.97-26.79,1-38,5.94-40c4.85-1.96,19.28-6,27.84,12c0,0-5.35-13,6.43-16
			c11.78-3,21.42,18,21.42,18s14.99-10,26.77-3c11.78,7,8.57,23,8.57,26s-4.55,28.25-4.55,28.25L266.99,159z"/>
		<path class="st13" d="M175.52,134c0,0-2,11,3,20s15,16,30,14C208.52,168,179.52,172,175.52,134z"/>
		<path class="st13" d="M214.35,142.2c0,0-1.16,6.39,1.74,11.62c2.9,5.23,8.71,9.29,17.42,8.13
			C233.52,161.95,216.67,164.27,214.35,142.2z"/>
		<path class="st13" d="M239.28,143.28c0,0-0.8,4.41,1.2,8.02c2.01,3.61,6.02,6.42,12.03,5.62
			C252.52,156.92,240.88,158.53,239.28,143.28z"/>
		<g>
			<g>
				<circle class="st14" cx="204.81" cy="184.5" r="18.79"/>
				<circle class="st14" cx="253.28" cy="184.5" r="18.79"/>
			</g>
			<path class="st15" d="M229.52,204.5L229.52,204.5c-1.93,0-3.5-1.57-3.5-3.5v-23c0-1.93,1.57-3.5,3.5-3.5h0
				c1.93,0,3.5,1.57,3.5,3.5v23C233.02,202.93,231.44,204.5,229.52,204.5z"/>
			<path class="st14" d="M223.52,186.5c0-2.76,2.46-5,5.5-5c3.04,0,5.5,2.24,5.5,5"/>
			<circle class="st10" cx="205.52" cy="195" r="4"/>
			<circle class="st10" cx="254.52" cy="195" r="4"/>
			<circle class="st10" cx="184.52" cy="184" r="2"/>
			<circle class="st10" cx="273.54" cy="184.01" r="1.98"/>
		</g>
		<path class="st13" d="M191.52,225c0,0-2,17,14,18C205.52,243,191.52,239,191.52,225z"/>
		<path class="st13" d="M266.52,225c0,0,2,17-14,18C252.52,243,266.52,239,266.52,225z"/>
	</g>
	<g>
		<g>
			<g>
				<g>
					<rect x="26.52" y="95.35" class="st16" width="115" height="69.65"/>
					<rect x="26.52" y="95.35" class="st10" width="115" height="12.66"/>
					<line class="st17" x1="34.52" y1="117" x2="131.52" y2="156"/>
					<line class="st17" x1="131.1" y1="115.99" x2="34.93" y2="157.01"/>
				</g>
				<circle class="st18" cx="134.52" cy="101" r="2"/>
				<circle class="st19" cx="128.52" cy="101" r="2"/>
				<circle class="st20" cx="122.52" cy="101" r="2"/>
			</g>
			<g>
				<path class="st16" d="M388.52,152h-55c-3.85,0-7-3.15-7-7v-35c0-3.85,3.15-7,7-7h55c3.85,0,7,3.15,7,7v35
					C395.52,148.85,392.37,152,388.52,152z"/>
				<text transform="matrix(1 0 0 1 340.7412 134.9463)" class="st13 st21 st22">&lt;/&gt;</text>
			</g>
			<g>
				<g>
					<ellipse class="st11" cx="219.52" cy="67" rx="46" ry="32"/>
					<polygon class="st11" points="231.52,84 246.52,120 247.52,72 					"/>
				</g>
				<text transform="matrix(1 0 0 1 191.3355 73.3833)" class="st16 st21 st23">HTML</text>
			</g>
			<g>
				<g>
					<ellipse class="st11" cx="312.52" cy="196.2" rx="32" ry="22.26"/>
					<polygon class="st11" points="304.17,208.02 293.73,233.07 293.04,199.67 					"/>
				</g>
				<text transform="matrix(1 0 0 1 296.3354 202.3833)" class="st16 st21 st23">css</text>
			</g>
			<g>
				<text transform="matrix(1 0 0 1 125.7144 208.0391)"><tspan x="0" y="0" class="st11 st21 st24 st25">{</tspan><tspan x="10.11" y="0" class="st11 st21 st24">   }</tspan></text>
				<path class="st4" d="M146.85,196.65c-1.2,0-2.26,0.6-2.9,1.52c-0.64-0.92-1.7-1.52-2.9-1.52c-1.95,0-3.53,1.58-3.53,3.53
					c0,0.73,0.22,1.41,0.6,1.97c0.63,0.94,3.87,3.89,5.83,5.85c1.2-1.2,5.2-4.91,5.83-5.85c0.38-0.56,0.6-1.24,0.6-1.97
					C150.38,198.23,148.8,196.65,146.85,196.65z"/>
			</g>
		</g>
		<text transform="matrix(1 0 0 1 309.269 59.8311)" class="st11 st21 st26">www</text>
	</g>
	<g>
		<g>
			<line class="st17" x1="283.52" y1="85" x2="320.52" y2="85"/>
			<line class="st17" x1="294.52" y1="91" x2="331.52" y2="91"/>
		</g>
		<g>
			<line class="st17" x1="101.52" y1="32" x2="138.52" y2="32"/>
			<line class="st17" x1="112.52" y1="38" x2="149.52" y2="38"/>
		</g>
		<g>
			<line class="st17" x1="346.52" y1="319" x2="383.52" y2="319"/>
			<line class="st17" x1="357.52" y1="325" x2="394.52" y2="325"/>
		</g>
		<g>
			<line class="st17" x1="39.52" y1="285" x2="76.52" y2="285"/>
			<line class="st17" x1="50.52" y1="291" x2="87.52" y2="291"/>
		</g>
	</g>
	<rect x="78.29" y="386.18" class="st10" width="306" height="11.33"/>
</g>
<g id="Designed_by_freepik" class="st0">
</g>
</svg>
