<?xml version="1.0" encoding="utf-8"?>
<!-- Generator: Adobe Illustrator 23.0.3, SVG Export Plug-In . SVG Version: 6.00 Build 0)  -->
<svg version="1.1" id="Layer_1" xmlns="http://www.w3.org/2000/svg" xmlns:xlink="http://www.w3.org/1999/xlink" x="0px" y="0px"
	 viewBox="0 0 763.1 181.2" style="enable-background:new 0 0 763.1 181.2;" xml:space="preserve">
<style type="text/css">
	.st0{display:none;}
	.st1{display:inline;fill-rule:evenodd;clip-rule:evenodd;fill:#F9F3EA;}
	.st2{display:inline;}
	.st3{fill:#2586B7;}
	.st4{fill:#7ACCF4;}
	.st5{fill:#EFBB3A;}
	.st6{fill:#CE9411;}
	.st7{fill:#FFD473;}
	.st8{fill:#53A2D3;}
	.st9{fill:#F7EDEF;}
	.st10{fill:#E2D7DA;}
	.st11{fill:#FFFFFF;}
	.st12{fill:#71AA2E;}
	.st13{fill:#58871B;}
	.st14{fill:#AADD68;}
	.st15{fill:#D33346;}
	.st16{fill:#A82642;}
	.st17{fill:#E54C66;}
	.st18{fill:#9B1B31;}
	.st19{opacity:0.3;fill:#191919;enable-background:new    ;}
	.st20{fill:#191919;}
</style>
<g id="BACKGROUND" class="st0">
	<rect x="131.5" y="-159.4" class="st1" width="500" height="500"/>
</g>
<g id="OBJECTS">
	<g class="st0">
		<g class="st2">
			<g>
				<polygon class="st3" points="506.4,264.4 536.5,282.2 536.5,244.9 506.4,227.1 				"/>
				<polygon class="st3" points="536.5,282.2 594.9,263.6 594.9,226.3 536.5,244.9 				"/>
				<polygon class="st4" points="536.5,244.9 594.9,226.3 564.8,208.5 506.4,227.1 				"/>
			</g>
			<g>
				<rect x="564.7" y="221.2" class="st3" width="17.1" height="5.1"/>
				<g>
					<path class="st3" d="M564.7,226.3c0,2.1,3.8,3.8,8.5,3.8s8.5-1.7,8.5-3.8s-3.8-3.8-8.5-3.8S564.7,224.2,564.7,226.3z"/>
					<path class="st4" d="M564.7,221.2c0,2.1,3.8,3.8,8.5,3.8s8.5-1.7,8.5-3.8s-3.8-3.8-8.5-3.8S564.7,219.1,564.7,221.2z"/>
				</g>
			</g>
			<g>
				<rect x="549.3" y="211.6" class="st3" width="17.1" height="5.1"/>
				<g>
					<path class="st3" d="M549.3,216.7c0,2.1,3.8,3.8,8.5,3.8c4.7,0,8.5-1.7,8.5-3.8c0-2.1-3.8-3.8-8.5-3.8
						C553.2,212.9,549.3,214.6,549.3,216.7z"/>
					<path class="st4" d="M549.3,211.6c0,2.1,3.8,3.8,8.5,3.8c4.7,0,8.5-1.7,8.5-3.8s-3.8-3.8-8.5-3.8
						C553.2,207.7,549.3,209.5,549.3,211.6z"/>
				</g>
			</g>
			<g>
				<rect x="533.5" y="231.4" class="st3" width="17.1" height="5.1"/>
				<g>
					<path class="st3" d="M533.5,236.5c0,2.1,3.8,3.8,8.5,3.8c4.7,0,8.5-1.7,8.5-3.8s-3.8-3.8-8.5-3.8S533.5,234.4,533.5,236.5z"/>
					<path class="st4" d="M533.5,231.4c0,2.1,3.8,3.8,8.5,3.8c4.7,0,8.5-1.7,8.5-3.8c0-2.1-3.8-3.8-8.5-3.8S533.5,229.3,533.5,231.4
						z"/>
				</g>
			</g>
			<g>
				<rect x="518.7" y="222.4" class="st3" width="17.1" height="5.1"/>
				<g>
					<path class="st3" d="M518.7,227.6c0,2.1,3.8,3.8,8.5,3.8c4.7,0,8.5-1.7,8.5-3.8c0-2.1-3.8-3.8-8.5-3.8
						C522.5,223.7,518.7,225.5,518.7,227.6z"/>
					<path class="st4" d="M518.7,222.4c0,2.1,3.8,3.8,8.5,3.8c4.7,0,8.5-1.7,8.5-3.8c0-2.1-3.8-3.8-8.5-3.8
						C522.5,218.6,518.7,220.3,518.7,222.4z"/>
				</g>
			</g>
		</g>
		<g class="st2">
			<g>
				<polygon class="st5" points="448,283.1 478.1,300.9 478.1,263.6 448,245.8 				"/>
				<polygon class="st6" points="478.1,300.9 536.5,282.3 536.5,245 478.1,263.6 				"/>
				<polygon class="st7" points="478.1,263.6 536.5,245 506.5,227.2 448,245.8 				"/>
			</g>
			<g>
				<rect x="506.3" y="239.9" class="st6" width="17.1" height="5.1"/>
				<g>
					<path class="st6" d="M506.3,245c0,2.1,3.8,3.8,8.5,3.8c4.7,0,8.5-1.7,8.5-3.8s-3.8-3.8-8.5-3.8
						C510.1,241.2,506.3,242.9,506.3,245z"/>
					<path class="st7" d="M506.3,239.9c0,2.1,3.8,3.8,8.5,3.8c4.7,0,8.5-1.7,8.5-3.8s-3.8-3.8-8.5-3.8S506.3,237.8,506.3,239.9z"/>
				</g>
			</g>
			<g>
				<rect x="491" y="230.3" class="st6" width="17.1" height="5.1"/>
				<g>
					<path class="st6" d="M491,235.4c0,2.1,3.8,3.8,8.5,3.8c4.7,0,8.5-1.7,8.5-3.8s-3.8-3.8-8.5-3.8S491,233.3,491,235.4z"/>
					<path class="st7" d="M491,230.3c0,2.1,3.8,3.8,8.5,3.8c4.7,0,8.5-1.7,8.5-3.8s-3.8-3.8-8.5-3.8
						C494.8,226.4,491,228.2,491,230.3z"/>
				</g>
			</g>
			<g>
				<rect x="475.1" y="250.1" class="st6" width="17.1" height="5.1"/>
				<g>
					<path class="st6" d="M475.1,255.2c0,2.1,3.8,3.8,8.5,3.8c4.7,0,8.5-1.7,8.5-3.8c0-2.1-3.8-3.8-8.5-3.8S475.1,253.1,475.1,255.2
						z"/>
					<path class="st7" d="M475.1,250.1c0,2.1,3.8,3.8,8.5,3.8c4.7,0,8.5-1.7,8.5-3.8s-3.8-3.8-8.5-3.8S475.1,248,475.1,250.1z"/>
				</g>
			</g>
			<g>
				<rect x="460.3" y="241.1" class="st6" width="17.1" height="5.1"/>
				<g>
					<path class="st6" d="M460.3,246.3c0,2.1,3.8,3.8,8.5,3.8c4.7,0,8.5-1.7,8.5-3.8s-3.8-3.8-8.5-3.8
						C464.2,242.4,460.3,244.2,460.3,246.3z"/>
					<path class="st7" d="M460.3,241.1c0,2.1,3.8,3.8,8.5,3.8c4.7,0,8.5-1.7,8.5-3.8s-3.8-3.8-8.5-3.8
						C464.2,237.3,460.3,239,460.3,241.1z"/>
				</g>
			</g>
		</g>
		<g class="st2">
			<g>
				<polygon class="st5" points="448.1,245.7 478.2,263.5 478.2,226.2 448.1,208.4 				"/>
				<polygon class="st6" points="478.2,263.5 536.6,244.9 536.6,207.6 478.2,226.2 				"/>
				<polygon class="st7" points="478.2,226.2 536.6,207.6 506.6,189.8 448.1,208.4 				"/>
			</g>
			<g>
				<rect x="506.4" y="202.5" class="st6" width="17.1" height="5.1"/>
				<g>
					<path class="st6" d="M506.4,207.6c0,2.1,3.8,3.8,8.5,3.8c4.7,0,8.5-1.7,8.5-3.8s-3.8-3.8-8.5-3.8S506.4,205.5,506.4,207.6z"/>
					<path class="st7" d="M506.4,202.5c0,2.1,3.8,3.8,8.5,3.8c4.7,0,8.5-1.7,8.5-3.8s-3.8-3.8-8.5-3.8S506.4,200.4,506.4,202.5z"/>
				</g>
			</g>
			<g>
				<rect x="491.1" y="192.9" class="st6" width="17.1" height="5.1"/>
				<g>
					<path class="st6" d="M491.1,198c0,2.1,3.8,3.8,8.5,3.8c4.7,0,8.5-1.7,8.5-3.8c0-2.1-3.8-3.8-8.5-3.8
						C494.9,194.2,491.1,195.9,491.1,198z"/>
					<path class="st7" d="M491.1,192.9c0,2.1,3.8,3.8,8.5,3.8c4.7,0,8.5-1.7,8.5-3.8c0-2.1-3.8-3.8-8.5-3.8
						C494.9,189.1,491.1,190.8,491.1,192.9z"/>
				</g>
			</g>
			<g>
				<rect x="475.2" y="212.7" class="st6" width="17.1" height="5.1"/>
				<g>
					<path class="st6" d="M475.2,217.8c0,2.1,3.8,3.8,8.5,3.8c4.7,0,8.5-1.7,8.5-3.8c0-2.1-3.8-3.8-8.5-3.8
						C479,214,475.2,215.7,475.2,217.8z"/>
					<path class="st7" d="M475.2,212.7c0,2.1,3.8,3.8,8.5,3.8c4.7,0,8.5-1.7,8.5-3.8c0-2.1-3.8-3.8-8.5-3.8
						C479,208.8,475.2,210.6,475.2,212.7z"/>
				</g>
			</g>
			<g>
				<rect x="460.4" y="203.7" class="st6" width="17.1" height="5.1"/>
				<g>
					<path class="st6" d="M460.4,208.9c0,2.1,3.8,3.8,8.5,3.8c4.7,0,8.5-1.7,8.5-3.8s-3.8-3.8-8.5-3.8
						C464.2,205,460.4,206.8,460.4,208.9z"/>
					<path class="st7" d="M460.4,203.7c0,2.1,3.8,3.8,8.5,3.8c4.7,0,8.5-1.7,8.5-3.8s-3.8-3.8-8.5-3.8S460.4,201.6,460.4,203.7z"/>
				</g>
			</g>
		</g>
		<g class="st2">
			<g>
				<polygon class="st8" points="448.1,208.4 478.2,226.2 478.2,188.9 448.1,171.2 				"/>
				<polygon class="st3" points="478.2,226.2 536.6,207.6 536.6,170.3 478.2,188.9 				"/>
				<polygon class="st4" points="478.2,188.9 536.6,170.3 506.6,152.5 448.1,171.2 				"/>
			</g>
			<g>
				<rect x="506.4" y="165.2" class="st3" width="17.1" height="5.1"/>
				<g>
					<path class="st3" d="M506.4,170.3c0,2.1,3.8,3.8,8.5,3.8c4.7,0,8.5-1.7,8.5-3.8c0-2.1-3.8-3.8-8.5-3.8
						C510.2,166.5,506.4,168.2,506.4,170.3z"/>
					<path class="st4" d="M506.4,165.2c0,2.1,3.8,3.8,8.5,3.8c4.7,0,8.5-1.7,8.5-3.8c0-2.1-3.8-3.8-8.5-3.8
						C510.2,161.4,506.4,163.1,506.4,165.2z"/>
				</g>
			</g>
			<g>
				<rect x="491.1" y="155.6" class="st3" width="17.1" height="5.1"/>
				<g>
					<path class="st3" d="M491.1,160.7c0,2.1,3.8,3.8,8.5,3.8c4.7,0,8.5-1.7,8.5-3.8s-3.8-3.8-8.5-3.8
						C494.9,156.9,491.1,158.6,491.1,160.7z"/>
					<path class="st4" d="M491.1,155.6c0,2.1,3.8,3.8,8.5,3.8c4.7,0,8.5-1.7,8.5-3.8s-3.8-3.8-8.5-3.8S491.1,153.5,491.1,155.6z"/>
				</g>
			</g>
			<g>
				<rect x="475.2" y="175.4" class="st3" width="17.1" height="5.1"/>
				<g>
					<path class="st3" d="M475.2,180.5c0,2.1,3.8,3.8,8.5,3.8c4.7,0,8.5-1.7,8.5-3.8s-3.8-3.8-8.5-3.8
						C479,176.7,475.2,178.4,475.2,180.5z"/>
					<path class="st4" d="M475.2,175.4c0,2.1,3.8,3.8,8.5,3.8c4.7,0,8.5-1.7,8.5-3.8s-3.8-3.8-8.5-3.8
						C479,171.6,475.2,173.3,475.2,175.4z"/>
				</g>
			</g>
			<g>
				<rect x="460.4" y="166.5" class="st3" width="17.1" height="5.1"/>
				<g>
					<path class="st3" d="M460.4,171.6c0,2.1,3.8,3.8,8.5,3.8c4.7,0,8.5-1.7,8.5-3.8s-3.8-3.8-8.5-3.8S460.4,169.5,460.4,171.6z"/>
					<path class="st4" d="M460.4,166.5c0,2.1,3.8,3.8,8.5,3.8c4.7,0,8.5-1.7,8.5-3.8s-3.8-3.8-8.5-3.8S460.4,164.3,460.4,166.5z"/>
				</g>
			</g>
		</g>
		<g class="st2">
			<g>
				<polygon class="st9" points="448,171.2 478,189 478,151.7 448,133.9 				"/>
				<polygon class="st10" points="478,189 536.5,170.3 536.5,133.1 478,151.7 				"/>
				<polygon class="st11" points="478,151.7 536.5,133.1 506.4,115.3 448,133.9 				"/>
			</g>
			<g>
				<rect x="506.2" y="128" class="st10" width="17.1" height="5.1"/>
				<g>
					<path class="st10" d="M506.2,133.1c0,2.1,3.8,3.8,8.5,3.8c4.7,0,8.5-1.7,8.5-3.8s-3.8-3.8-8.5-3.8
						C510.1,129.3,506.2,131,506.2,133.1z"/>
					<path class="st11" d="M506.2,128c0,2.1,3.8,3.8,8.5,3.8c4.7,0,8.5-1.7,8.5-3.8c0-2.1-3.8-3.8-8.5-3.8
						C510.1,124.1,506.2,125.8,506.2,128z"/>
				</g>
			</g>
			<g>
				<rect x="490.9" y="118.4" class="st10" width="17.1" height="5.1"/>
				<g>
					<path class="st10" d="M490.9,123.5c0,2.1,3.8,3.8,8.5,3.8c4.7,0,8.5-1.7,8.5-3.8s-3.8-3.8-8.5-3.8S490.9,121.4,490.9,123.5z"/>
					<path class="st11" d="M490.9,118.4c0,2.1,3.8,3.8,8.5,3.8c4.7,0,8.5-1.7,8.5-3.8s-3.8-3.8-8.5-3.8S490.9,116.2,490.9,118.4z"/>
				</g>
			</g>
			<g>
				<rect x="475" y="138.2" class="st10" width="17.1" height="5.1"/>
				<g>
					<path class="st10" d="M475,143.3c0,2.1,3.8,3.8,8.5,3.8c4.7,0,8.5-1.7,8.5-3.8c0-2.1-3.8-3.8-8.5-3.8
						C478.9,139.5,475,141.2,475,143.3z"/>
					<path class="st11" d="M475,138.2c0,2.1,3.8,3.8,8.5,3.8c4.7,0,8.5-1.7,8.5-3.8c0-2.1-3.8-3.8-8.5-3.8
						C478.9,134.3,475,136,475,138.2z"/>
				</g>
			</g>
			<g>
				<rect x="460.3" y="129.2" class="st10" width="17.1" height="5.1"/>
				<g>
					<path class="st10" d="M460.3,134.4c0,2.1,3.8,3.8,8.5,3.8c4.7,0,8.5-1.7,8.5-3.8s-3.8-3.8-8.5-3.8S460.3,132.2,460.3,134.4z"/>
					<path class="st11" d="M460.3,129.2c0,2.1,3.8,3.8,8.5,3.8c4.7,0,8.5-1.7,8.5-3.8c0-2.1-3.8-3.8-8.5-3.8
						C464.1,125.4,460.3,127.1,460.3,129.2z"/>
				</g>
			</g>
		</g>
		<g class="st2">
			<g>
				<polygon class="st12" points="479.2,124.2 509.3,142 509.3,104.8 479.2,87 				"/>
				<polygon class="st13" points="509.3,142 567.7,123.4 567.7,86.1 509.3,104.8 				"/>
				<polygon class="st14" points="509.3,104.8 567.7,86.1 537.7,68.4 479.2,87 				"/>
			</g>
			<g>
				<rect x="537.5" y="81" class="st13" width="17.1" height="5.1"/>
				<g>
					<path class="st13" d="M537.5,86.2c0,2.1,3.8,3.8,8.5,3.8c4.7,0,8.5-1.7,8.5-3.8c0-2.1-3.8-3.8-8.5-3.8S537.5,84,537.5,86.2z"/>
					<path class="st14" d="M537.5,81c0,2.1,3.8,3.8,8.5,3.8c4.7,0,8.5-1.7,8.5-3.8c0-2.1-3.8-3.8-8.5-3.8
						C541.3,77.2,537.5,78.9,537.5,81z"/>
				</g>
			</g>
			<g>
				<rect x="522.2" y="71.4" class="st13" width="17.1" height="5.1"/>
				<g>
					<path class="st13" d="M522.2,76.6c0,2.1,3.8,3.8,8.5,3.8s8.5-1.7,8.5-3.8c0-2.1-3.8-3.8-8.5-3.8S522.2,74.4,522.2,76.6z"/>
					<path class="st14" d="M522.2,71.4c0,2.1,3.8,3.8,8.5,3.8s8.5-1.7,8.5-3.8s-3.8-3.8-8.5-3.8S522.2,69.3,522.2,71.4z"/>
				</g>
			</g>
			<g>
				<rect x="506.3" y="91.2" class="st13" width="17.1" height="5.1"/>
				<g>
					<path class="st13" d="M506.3,96.4c0,2.1,3.8,3.8,8.5,3.8c4.7,0,8.5-1.7,8.5-3.8s-3.8-3.8-8.5-3.8
						C510.1,92.5,506.3,94.2,506.3,96.4z"/>
					<path class="st14" d="M506.3,91.2c0,2.1,3.8,3.8,8.5,3.8c4.7,0,8.5-1.7,8.5-3.8s-3.8-3.8-8.5-3.8
						C510.1,87.4,506.3,89.1,506.3,91.2z"/>
				</g>
			</g>
			<g>
				<rect x="491.5" y="82.3" class="st13" width="17.1" height="5.1"/>
				<g>
					<path class="st13" d="M491.5,87.4c0,2.1,3.8,3.8,8.5,3.8c4.7,0,8.5-1.7,8.5-3.8s-3.8-3.8-8.5-3.8
						C495.3,83.6,491.5,85.3,491.5,87.4z"/>
					<path class="st14" d="M491.5,82.3c0,2.1,3.8,3.8,8.5,3.8c4.7,0,8.5-1.7,8.5-3.8s-3.8-3.8-8.5-3.8
						C495.3,78.5,491.5,80.2,491.5,82.3z"/>
				</g>
			</g>
		</g>
		<g class="st2">
			<g>
				<polygon class="st5" points="479.1,87 509.1,104.8 509.1,67.6 479.1,49.8 				"/>
				<polygon class="st6" points="509.1,104.8 567.6,86.2 567.6,48.9 509.1,67.6 				"/>
				<polygon class="st7" points="509.1,67.6 567.6,48.9 537.5,31.1 479.1,49.8 				"/>
			</g>
			<g>
				<rect x="537.3" y="43.8" class="st6" width="17.1" height="5.1"/>
				<g>
					<path class="st6" d="M537.3,48.9c0,2.1,3.8,3.8,8.5,3.8c4.7,0,8.5-1.7,8.5-3.8s-3.8-3.8-8.5-3.8
						C541.2,45.1,537.3,46.8,537.3,48.9z"/>
					<path class="st7" d="M537.3,43.8c0,2.1,3.8,3.8,8.5,3.8c4.7,0,8.5-1.7,8.5-3.8s-3.8-3.8-8.5-3.8
						C541.2,40,537.3,41.7,537.3,43.8z"/>
				</g>
			</g>
			<g>
				<rect x="522" y="34.2" class="st6" width="17.1" height="5.1"/>
				<g>
					<path class="st6" d="M522,39.3c0,2.1,3.8,3.8,8.5,3.8c4.7,0,8.5-1.7,8.5-3.8c0-2.1-3.8-3.8-8.5-3.8
						C525.8,35.5,522,37.2,522,39.3z"/>
					<path class="st7" d="M522,34.2c0,2.1,3.8,3.8,8.5,3.8c4.7,0,8.5-1.7,8.5-3.8s-3.8-3.8-8.5-3.8S522,32.1,522,34.2z"/>
				</g>
			</g>
			<g>
				<rect x="506.2" y="54" class="st6" width="17.1" height="5.1"/>
				<g>
					<path class="st6" d="M506.2,59.1c0,2.1,3.8,3.8,8.5,3.8c4.7,0,8.5-1.7,8.5-3.8c0-2.1-3.8-3.8-8.5-3.8
						C510,55.3,506.2,57,506.2,59.1z"/>
					<path class="st7" d="M506.2,54c0,2.1,3.8,3.8,8.5,3.8c4.7,0,8.5-1.7,8.5-3.8c0-2.1-3.8-3.8-8.5-3.8
						C510,50.2,506.2,51.9,506.2,54z"/>
				</g>
			</g>
			<g>
				<rect x="491.4" y="45.1" class="st6" width="17.1" height="5.1"/>
				<g>
					<path class="st6" d="M491.4,50.2c0,2.1,3.8,3.8,8.5,3.8c4.7,0,8.5-1.7,8.5-3.8c0-2.1-3.8-3.8-8.5-3.8
						C495.2,46.4,491.4,48.1,491.4,50.2z"/>
					<path class="st7" d="M491.4,45.1c0,2.1,3.8,3.8,8.5,3.8c4.7,0,8.5-1.7,8.5-3.8s-3.8-3.8-8.5-3.8
						C495.2,41.2,491.4,43,491.4,45.1z"/>
				</g>
			</g>
		</g>
		<g class="st2">
			<g>
				<polygon class="st15" points="479,49.9 509,67.7 509,30.4 479,12.6 				"/>
				<polygon class="st16" points="509,67.7 567.5,49.1 567.5,11.8 509,30.4 				"/>
				<polygon class="st17" points="509,30.4 567.5,11.8 537.4,-6 479,12.6 				"/>
			</g>
			<g>
				<rect x="537.3" y="6.7" class="st18" width="17.1" height="5.1"/>
				<g>
					<path class="st18" d="M537.3,11.8c0,2.1,3.8,3.8,8.5,3.8s8.5-1.7,8.5-3.8S550.5,8,545.8,8S537.3,9.7,537.3,11.8z"/>
					<path class="st17" d="M537.3,6.7c0,2.1,3.8,3.8,8.5,3.8s8.5-1.7,8.5-3.8s-3.8-3.8-8.5-3.8S537.3,4.6,537.3,6.7z"/>
				</g>
			</g>
			<g>
				<rect x="521.9" y="-2.9" class="st18" width="17.1" height="5.1"/>
				<g>
					<path class="st18" d="M521.9,2.2c0,2.1,3.8,3.8,8.5,3.8c4.7,0,8.5-1.7,8.5-3.8s-3.8-3.8-8.5-3.8S521.9,0.1,521.9,2.2z"/>
					<path class="st17" d="M521.9-2.9c0,2.1,3.8,3.8,8.5,3.8c4.7,0,8.5-1.7,8.5-3.8s-3.8-3.8-8.5-3.8C525.7-6.8,521.9-5,521.9-2.9z"
						/>
				</g>
			</g>
			<g>
				<rect x="506.1" y="16.9" class="st18" width="17.1" height="5.1"/>
				<g>
					<path class="st18" d="M506.1,22c0,2.1,3.8,3.8,8.5,3.8c4.7,0,8.5-1.7,8.5-3.8s-3.8-3.8-8.5-3.8S506.1,19.9,506.1,22z"/>
					<path class="st17" d="M506.1,16.9c0,2.1,3.8,3.8,8.5,3.8c4.7,0,8.5-1.7,8.5-3.8s-3.8-3.8-8.5-3.8S506.1,14.8,506.1,16.9z"/>
				</g>
			</g>
			<g>
				<rect x="491.3" y="7.9" class="st18" width="17.1" height="5.1"/>
				<g>
					<path class="st18" d="M491.3,13.1c0,2.1,3.8,3.8,8.5,3.8c4.7,0,8.5-1.7,8.5-3.8s-3.8-3.8-8.5-3.8
						C495.1,9.2,491.3,11,491.3,13.1z"/>
					<path class="st17" d="M491.3,7.9c0,2.1,3.8,3.8,8.5,3.8c4.7,0,8.5-1.7,8.5-3.8s-3.8-3.8-8.5-3.8C495.1,4.1,491.3,5.8,491.3,7.9
						z"/>
				</g>
			</g>
		</g>
		<g class="st2">
			<g>
				<polygon class="st9" points="506.1,4.2 536.1,22 536.1,-15.3 506.1,-33.1 				"/>
				<polygon class="st10" points="536.1,22 594.6,3.4 594.6,-33.9 536.1,-15.3 				"/>
				<polygon class="st11" points="536.1,-15.3 594.6,-33.9 564.5,-51.7 506.1,-33.1 				"/>
			</g>
			<g>
				<rect x="564.4" y="-39" class="st10" width="17.1" height="5.1"/>
				<g>
					<path class="st10" d="M564.4-33.9c0,2.1,3.8,3.8,8.5,3.8c4.7,0,8.5-1.7,8.5-3.8c0-2.1-3.8-3.8-8.5-3.8
						C568.2-37.7,564.4-36,564.4-33.9z"/>
					<path class="st11" d="M564.4-39c0,2.1,3.8,3.8,8.5,3.8c4.7,0,8.5-1.7,8.5-3.8s-3.8-3.8-8.5-3.8C568.2-42.9,564.4-41.1,564.4-39
						z"/>
				</g>
			</g>
			<g>
				<rect x="549" y="-48.6" class="st10" width="17.1" height="5.1"/>
				<g>
					<path class="st10" d="M549-43.5c0,2.1,3.8,3.8,8.5,3.8c4.7,0,8.5-1.7,8.5-3.8s-3.8-3.8-8.5-3.8C552.8-47.3,549-45.6,549-43.5z"
						/>
					<path class="st11" d="M549-48.6c0,2.1,3.8,3.8,8.5,3.8c4.7,0,8.5-1.7,8.5-3.8c0-2.1-3.8-3.8-8.5-3.8
						C552.8-52.5,549-50.7,549-48.6z"/>
				</g>
			</g>
			<g>
				<rect x="533.2" y="-28.8" class="st10" width="17.1" height="5.1"/>
				<g>
					<path class="st10" d="M533.2-23.7c0,2.1,3.8,3.8,8.5,3.8c4.7,0,8.5-1.7,8.5-3.8s-3.8-3.8-8.5-3.8
						C537-27.5,533.2-25.8,533.2-23.7z"/>
					<path class="st11" d="M533.2-28.8c0,2.1,3.8,3.8,8.5,3.8c4.7,0,8.5-1.7,8.5-3.8s-3.8-3.8-8.5-3.8
						C537-32.7,533.2-30.9,533.2-28.8z"/>
				</g>
			</g>
			<g>
				<rect x="518.4" y="-37.8" class="st10" width="17.1" height="5.1"/>
				<g>
					<path class="st10" d="M518.4-32.6c0,2.1,3.8,3.8,8.5,3.8c4.7,0,8.5-1.7,8.5-3.8c0-2.1-3.8-3.8-8.5-3.8
						C522.2-36.5,518.4-34.7,518.4-32.6z"/>
					<path class="st11" d="M518.4-37.8c0,2.1,3.8,3.8,8.5,3.8c4.7,0,8.5-1.7,8.5-3.8c0-2.1-3.8-3.8-8.5-3.8
						C522.2-41.6,518.4-39.9,518.4-37.8z"/>
				</g>
			</g>
		</g>
		<g class="st2">
			<g>
				<polygon class="st13" points="475.9,-23.5 505.9,-5.6 505.9,-42.9 475.9,-60.7 				"/>
				<polygon class="st13" points="505.9,-5.6 564.4,-24.3 564.4,-61.5 505.9,-42.9 				"/>
				<polygon class="st14" points="505.9,-42.9 564.4,-61.5 534.3,-79.3 475.9,-60.7 				"/>
			</g>
			<g>
				<rect x="534.1" y="-66.6" class="st13" width="17.1" height="5.1"/>
				<g>
					<path class="st13" d="M534.1-61.5c0,2.1,3.8,3.8,8.5,3.8c4.7,0,8.5-1.7,8.5-3.8c0-2.1-3.8-3.8-8.5-3.8
						C538-65.4,534.1-63.6,534.1-61.5z"/>
					<path class="st14" d="M534.1-66.6c0,2.1,3.8,3.8,8.5,3.8c4.7,0,8.5-1.7,8.5-3.8s-3.8-3.8-8.5-3.8
						C538-70.5,534.1-68.8,534.1-66.6z"/>
				</g>
			</g>
			<g>
				<rect x="518.8" y="-76.3" class="st13" width="17.1" height="5.1"/>
				<g>
					<ellipse class="st13" cx="527.3" cy="-71.1" rx="8.5" ry="3.8"/>
					<path class="st14" d="M518.8-76.3c0,2.1,3.8,3.8,8.5,3.8c4.7,0,8.5-1.7,8.5-3.8s-3.8-3.8-8.5-3.8
						C522.6-80.1,518.8-78.4,518.8-76.3z"/>
				</g>
			</g>
			<g>
				<rect x="503" y="-56.4" class="st13" width="17.1" height="5.1"/>
				<g>
					<path class="st13" d="M503-51.3c0,2.1,3.8,3.8,8.5,3.8c4.7,0,8.5-1.7,8.5-3.8c0-2.1-3.8-3.8-8.5-3.8
						C506.8-55.2,503-53.4,503-51.3z"/>
					<path class="st14" d="M503-56.4c0,2.1,3.8,3.8,8.5,3.8c4.7,0,8.5-1.7,8.5-3.8c0-2.1-3.8-3.8-8.5-3.8
						C506.8-60.3,503-58.6,503-56.4z"/>
				</g>
			</g>
			<g>
				<rect x="488.2" y="-65.4" class="st13" width="17.1" height="5.1"/>
				<g>
					<path class="st13" d="M488.2-60.3c0,2.1,3.8,3.8,8.5,3.8c4.7,0,8.5-1.7,8.5-3.8c0-2.1-3.8-3.8-8.5-3.8
						C492-64.1,488.2-62.4,488.2-60.3z"/>
					<path class="st14" d="M488.2-65.4c0,2.1,3.8,3.8,8.5,3.8c4.7,0,8.5-1.7,8.5-3.8c0-2.1-3.8-3.8-8.5-3.8
						C492-69.2,488.2-67.5,488.2-65.4z"/>
				</g>
			</g>
		</g>
		<g class="st2">
			<g>
				<polygon class="st5" points="417.6,-4.8 447.6,13 447.6,-24.2 417.6,-42 				"/>
				<polygon class="st6" points="447.6,13 506.1,-5.6 506.1,-42.9 447.6,-24.2 				"/>
				<polygon class="st7" points="447.6,-24.2 506.1,-42.9 476,-60.6 417.6,-42 				"/>
			</g>
			<g>
				<rect x="475.9" y="-48" class="st6" width="17.1" height="5.1"/>
				<g>
					<path class="st6" d="M475.9-42.8c0,2.1,3.8,3.8,8.5,3.8c4.7,0,8.5-1.7,8.5-3.8c0-2.1-3.8-3.8-8.5-3.8
						C479.7-46.7,475.9-45,475.9-42.8z"/>
					<path class="st7" d="M475.9-48c0,2.1,3.8,3.8,8.5,3.8c4.7,0,8.5-1.7,8.5-3.8c0-2.1-3.8-3.8-8.5-3.8S475.9-50.1,475.9-48z"/>
				</g>
			</g>
			<g>
				<rect x="460.5" y="-57.6" class="st6" width="17.1" height="5.1"/>
				<g>
					<path class="st6" d="M460.5-52.4c0,2.1,3.8,3.8,8.5,3.8c4.7,0,8.5-1.7,8.5-3.8c0-2.1-3.8-3.8-8.5-3.8
						C464.3-56.3,460.5-54.6,460.5-52.4z"/>
					<path class="st7" d="M460.5-57.6c0,2.1,3.8,3.8,8.5,3.8c4.7,0,8.5-1.7,8.5-3.8s-3.8-3.8-8.5-3.8
						C464.3-61.4,460.5-59.7,460.5-57.6z"/>
				</g>
			</g>
			<g>
				<rect x="444.7" y="-37.8" class="st6" width="17.1" height="5.1"/>
				<g>
					<path class="st6" d="M444.7-32.6c0,2.1,3.8,3.8,8.5,3.8c4.7,0,8.5-1.7,8.5-3.8c0-2.1-3.8-3.8-8.5-3.8
						C448.5-36.5,444.7-34.8,444.7-32.6z"/>
					<path class="st7" d="M444.7-37.8c0,2.1,3.8,3.8,8.5,3.8c4.7,0,8.5-1.7,8.5-3.8s-3.8-3.8-8.5-3.8
						C448.5-41.6,444.7-39.9,444.7-37.8z"/>
				</g>
			</g>
			<g>
				<rect x="429.9" y="-46.7" class="st6" width="17.1" height="5.1"/>
				<g>
					<path class="st6" d="M429.9-41.6c0,2.1,3.8,3.8,8.5,3.8c4.7,0,8.5-1.7,8.5-3.8c0-2.1-3.8-3.8-8.5-3.8
						C433.7-45.4,429.9-43.7,429.9-41.6z"/>
					<path class="st7" d="M429.9-46.7c0,2.1,3.8,3.8,8.5,3.8c4.7,0,8.5-1.7,8.5-3.8c0-2.1-3.8-3.8-8.5-3.8
						C433.7-50.5,429.9-48.8,429.9-46.7z"/>
				</g>
			</g>
		</g>
		<g class="st2">
			<g>
				<polygon class="st8" points="442.6,-49.9 472.7,-32 472.7,-69.3 442.6,-87.1 				"/>
				<polygon class="st3" points="472.7,-32 531.1,-50.7 531.1,-87.9 472.7,-69.3 				"/>
				<polygon class="st4" points="472.7,-69.3 531.1,-87.9 501,-105.7 442.6,-87.1 				"/>
			</g>
			<g>
				<rect x="500.9" y="-93" class="st3" width="17.1" height="5.1"/>
				<g>
					<path class="st3" d="M500.9-87.9c0,2.1,3.8,3.8,8.5,3.8c4.7,0,8.5-1.7,8.5-3.8c0-2.1-3.8-3.8-8.5-3.8
						C504.7-91.7,500.9-90,500.9-87.9z"/>
					<path class="st4" d="M500.9-93c0,2.1,3.8,3.8,8.5,3.8c4.7,0,8.5-1.7,8.5-3.8c0-2.1-3.8-3.8-8.5-3.8
						C504.7-96.9,500.9-95.2,500.9-93z"/>
				</g>
			</g>
			<g>
				<rect x="485.5" y="-102.6" class="st3" width="17.1" height="5.1"/>
				<g>
					<path class="st3" d="M485.5-97.5c0,2.1,3.8,3.8,8.5,3.8c4.7,0,8.5-1.7,8.5-3.8c0-2.1-3.8-3.8-8.5-3.8
						C489.4-101.3,485.5-99.6,485.5-97.5z"/>
					<path class="st4" d="M485.5-102.6c0,2.1,3.8,3.8,8.5,3.8c4.7,0,8.5-1.7,8.5-3.8c0-2.1-3.8-3.8-8.5-3.8
						C489.4-106.5,485.5-104.8,485.5-102.6z"/>
				</g>
			</g>
			<g>
				<rect x="469.7" y="-82.8" class="st3" width="17.1" height="5.1"/>
				<g>
					<path class="st3" d="M469.7-77.7c0,2.1,3.8,3.8,8.5,3.8c4.7,0,8.5-1.7,8.5-3.8s-3.8-3.8-8.5-3.8
						C473.5-81.5,469.7-79.8,469.7-77.7z"/>
					<path class="st4" d="M469.7-82.8c0,2.1,3.8,3.8,8.5,3.8c4.7,0,8.5-1.7,8.5-3.8s-3.8-3.8-8.5-3.8
						C473.5-86.7,469.7-85,469.7-82.8z"/>
				</g>
			</g>
			<g>
				<rect x="454.9" y="-91.8" class="st3" width="17.1" height="5.1"/>
				<g>
					<path class="st3" d="M454.9-86.6c0,2.1,3.8,3.8,8.5,3.8c4.7,0,8.5-1.7,8.5-3.8c0-2.1-3.8-3.8-8.5-3.8S454.9-88.8,454.9-86.6z"
						/>
					<path class="st4" d="M454.9-91.8c0,2.1,3.8,3.8,8.5,3.8c4.7,0,8.5-1.7,8.5-3.8s-3.8-3.8-8.5-3.8S454.9-93.9,454.9-91.8z"/>
				</g>
			</g>
		</g>
	</g>
</g>
<g>
	<polygon class="st19" points="553.5,137.9 662.1,122.1 645.5,103.1 518.3,90.5 	"/>
	<g>
		<polygon class="st6" points="603,108.6 553.5,137.9 553.5,76.6 603,47.3 		"/>
		<polygon class="st5" points="553.5,137.9 457.3,107.2 457.3,45.9 553.5,76.6 		"/>
		<polygon class="st7" points="553.5,76.6 457.3,45.9 506.8,16.6 603,47.3 		"/>
	</g>
	<g>
		<rect x="479" y="37.5" class="st6" width="28.1" height="8.4"/>
		<g>
			<path class="st6" d="M507.1,45.9c0,3.5-6.3,6.3-14,6.3c-7.8,0-14-2.8-14-6.3c0-3.5,6.3-6.3,14-6.3S507.1,42.4,507.1,45.9z"/>
			<path class="st7" d="M507.1,37.5c0,3.5-6.3,6.3-14,6.3c-7.8,0-14-2.8-14-6.3c0-3.5,6.3-6.3,14-6.3S507.1,34,507.1,37.5z"/>
		</g>
	</g>
	<g>
		<rect x="504.2" y="21.7" class="st6" width="28.1" height="8.4"/>
		<g>
			<path class="st6" d="M532.3,30.1c0,3.5-6.3,6.3-14,6.3c-7.8,0-14-2.8-14-6.3s6.3-6.3,14-6.3C526,23.8,532.3,26.6,532.3,30.1z"/>
			<path class="st7" d="M532.3,21.7c0,3.5-6.3,6.3-14,6.3c-7.8,0-14-2.8-14-6.3s6.3-6.3,14-6.3C526,15.3,532.3,18.2,532.3,21.7z"/>
		</g>
	</g>
	<g>
		<rect x="530.3" y="54.3" class="st6" width="28.1" height="8.4"/>
		<g>
			<path class="st6" d="M558.4,62.7c0,3.5-6.3,6.3-14,6.3c-7.8,0-14-2.8-14-6.3s6.3-6.3,14-6.3S558.4,59.2,558.4,62.7z"/>
			<path class="st7" d="M558.4,54.3c0,3.5-6.3,6.3-14,6.3c-7.8,0-14-2.8-14-6.3c0-3.5,6.3-6.3,14-6.3S558.4,50.8,558.4,54.3z"/>
		</g>
	</g>
	<g>
		<rect x="554.7" y="39.5" class="st6" width="28.1" height="8.4"/>
		<g>
			<path class="st6" d="M582.8,48c0,3.5-6.3,6.3-14,6.3c-7.8,0-14-2.8-14-6.3c0-3.5,6.3-6.3,14-6.3S582.8,44.5,582.8,48z"/>
			<path class="st7" d="M582.8,39.5c0,3.5-6.3,6.3-14,6.3c-7.8,0-14-2.8-14-6.3s6.3-6.3,14-6.3S582.8,36.1,582.8,39.5z"/>
		</g>
	</g>
</g>
<g>
	<polygon class="st19" points="17.4,96.1 147.9,137.7 213.1,107.1 153.1,97.4 	"/>
	<g>
		<polygon class="st16" points="153.1,97.4 107,124.7 107,67.5 153.1,40.3 		"/>
		<polygon class="st15" points="107,124.7 17.4,96.1 17.4,38.9 107,67.5 		"/>
		<polygon class="st17" points="107,67.5 17.4,38.9 63.5,11.7 153.1,40.3 		"/>
	</g>
	<g>
		<rect x="37.5" y="31.1" class="st18" width="26.2" height="7.9"/>
		<g>
			<path class="st18" d="M63.7,39c0,3.2-5.9,5.9-13.1,5.9c-7.2,0-13.1-2.6-13.1-5.9s5.9-5.9,13.1-5.9C57.8,33.1,63.7,35.7,63.7,39z"
				/>
			<path class="st17" d="M63.7,31.1c0,3.2-5.9,5.9-13.1,5.9c-7.2,0-13.1-2.6-13.1-5.9s5.9-5.9,13.1-5.9
				C57.8,25.2,63.7,27.8,63.7,31.1z"/>
		</g>
	</g>
	<g>
		<rect x="61.1" y="16.4" class="st18" width="26.2" height="7.9"/>
		<g>
			<path class="st18" d="M87.2,24.2c0,3.2-5.9,5.9-13.1,5.9c-7.2,0-13.1-2.6-13.1-5.9s5.9-5.9,13.1-5.9C81.4,18.4,87.2,21,87.2,24.2
				z"/>
			<path class="st17" d="M87.2,16.4c0,3.2-5.9,5.9-13.1,5.9c-7.2,0-13.1-2.6-13.1-5.9s5.9-5.9,13.1-5.9
				C81.4,10.5,87.2,13.1,87.2,16.4z"/>
		</g>
	</g>
	<g>
		<rect x="85.4" y="46.7" class="st18" width="26.2" height="7.9"/>
		<g>
			<path class="st18" d="M111.6,54.6c0,3.2-5.9,5.9-13.1,5.9c-7.2,0-13.1-2.6-13.1-5.9c0-3.2,5.9-5.9,13.1-5.9
				C105.7,48.7,111.6,51.4,111.6,54.6z"/>
			<path class="st17" d="M111.6,46.7c0,3.2-5.9,5.9-13.1,5.9c-7.2,0-13.1-2.6-13.1-5.9c0-3.2,5.9-5.9,13.1-5.9
				C105.7,40.9,111.6,43.5,111.6,46.7z"/>
		</g>
	</g>
	<g>
		<rect x="108.1" y="33" class="st18" width="26.2" height="7.9"/>
		<g>
			<path class="st18" d="M134.2,40.9c0,3.2-5.9,5.9-13.1,5.9c-7.2,0-13.1-2.6-13.1-5.9c0-3.2,5.9-5.9,13.1-5.9
				S134.2,37.7,134.2,40.9z"/>
			<path class="st17" d="M134.2,33c0,3.2-5.9,5.9-13.1,5.9c-7.2,0-13.1-2.6-13.1-5.9c0-3.2,5.9-5.9,13.1-5.9S134.2,29.8,134.2,33z"
				/>
		</g>
	</g>
</g>
<g class="st0">
	<g class="st2">
		<g>
			<polygon class="st3" points="641.5,185 622.2,196.4 622.2,172.5 641.5,161.1 			"/>
			<polygon class="st8" points="622.2,196.4 584.7,184.5 584.7,160.6 622.2,172.5 			"/>
			<polygon class="st4" points="622.2,172.5 584.7,160.6 604,149.2 641.5,161.1 			"/>
		</g>
		<g>
			<rect x="593.1" y="157.3" class="st3" width="10.9" height="3.3"/>
			<g>
				<path class="st3" d="M604.1,160.6c0,1.4-2.5,2.5-5.5,2.5c-3,0-5.5-1.1-5.5-2.5s2.5-2.5,5.5-2.5
					C601.6,158.1,604.1,159.2,604.1,160.6z"/>
				<path class="st4" d="M604.1,157.3c0,1.4-2.5,2.5-5.5,2.5c-3,0-5.5-1.1-5.5-2.5s2.5-2.5,5.5-2.5
					C601.6,154.8,604.1,155.9,604.1,157.3z"/>
			</g>
		</g>
		<g>
			<rect x="603" y="151.1" class="st3" width="10.9" height="3.3"/>
			<g>
				<path class="st3" d="M613.9,154.4c0,1.4-2.5,2.5-5.5,2.5c-3,0-5.5-1.1-5.5-2.5c0-1.4,2.5-2.5,5.5-2.5S613.9,153.1,613.9,154.4z"
					/>
				<path class="st4" d="M613.9,151.1c0,1.4-2.5,2.5-5.5,2.5c-3,0-5.5-1.1-5.5-2.5c0-1.4,2.5-2.5,5.5-2.5S613.9,149.8,613.9,151.1z"
					/>
			</g>
		</g>
		<g>
			<rect x="613.2" y="163.8" class="st3" width="10.9" height="3.3"/>
			<g>
				<path class="st3" d="M624.1,167.1c0,1.4-2.5,2.5-5.5,2.5c-3,0-5.5-1.1-5.5-2.5c0-1.4,2.5-2.5,5.5-2.5
					C621.6,164.7,624.1,165.8,624.1,167.1z"/>
				<path class="st4" d="M624.1,163.8c0,1.4-2.5,2.5-5.5,2.5c-3,0-5.5-1.1-5.5-2.5c0-1.4,2.5-2.5,5.5-2.5
					C621.6,161.4,624.1,162.5,624.1,163.8z"/>
			</g>
		</g>
		<g>
			<rect x="622.6" y="158.1" class="st3" width="10.9" height="3.3"/>
			<g>
				<path class="st3" d="M633.6,161.4c0,1.4-2.5,2.5-5.5,2.5c-3,0-5.5-1.1-5.5-2.5c0-1.4,2.5-2.5,5.5-2.5
					C631.1,158.9,633.6,160,633.6,161.4z"/>
				<path class="st4" d="M633.6,158.1c0,1.4-2.5,2.5-5.5,2.5c-3,0-5.5-1.1-5.5-2.5c0-1.4,2.5-2.5,5.5-2.5
					C631.1,155.6,633.6,156.7,633.6,158.1z"/>
			</g>
		</g>
	</g>
	<g class="st2">
		<g>
			<polygon class="st16" points="679,197 659.7,208.4 659.7,184.5 679,173.1 			"/>
			<polygon class="st15" points="659.7,208.4 622.2,196.4 622.2,172.5 659.7,184.5 			"/>
			<polygon class="st17" points="659.7,184.5 622.2,172.5 641.5,161.1 679,173.1 			"/>
		</g>
		<g>
			<rect x="630.6" y="169.3" class="st18" width="10.9" height="3.3"/>
			<g>
				<path class="st18" d="M641.6,172.5c0,1.4-2.5,2.5-5.5,2.5c-3,0-5.5-1.1-5.5-2.5c0-1.4,2.5-2.5,5.5-2.5
					C639.1,170.1,641.6,171.2,641.6,172.5z"/>
				<path class="st17" d="M641.6,169.3c0,1.4-2.5,2.5-5.5,2.5c-3,0-5.5-1.1-5.5-2.5c0-1.4,2.5-2.5,5.5-2.5
					C639.1,166.8,641.6,167.9,641.6,169.3z"/>
			</g>
		</g>
		<g>
			<rect x="640.5" y="163.1" class="st18" width="10.9" height="3.3"/>
			<g>
				<path class="st18" d="M651.4,166.4c0,1.4-2.5,2.5-5.5,2.5c-3,0-5.5-1.1-5.5-2.5c0-1.4,2.5-2.5,5.5-2.5S651.4,165,651.4,166.4z"
					/>
				<path class="st17" d="M651.4,163.1c0,1.4-2.5,2.5-5.5,2.5c-3,0-5.5-1.1-5.5-2.5c0-1.4,2.5-2.5,5.5-2.5S651.4,161.7,651.4,163.1z
					"/>
			</g>
		</g>
		<g>
			<rect x="650.6" y="175.8" class="st18" width="10.9" height="3.3"/>
			<g>
				<path class="st18" d="M661.6,179.1c0,1.4-2.5,2.5-5.5,2.5c-3,0-5.5-1.1-5.5-2.5c0-1.4,2.5-2.5,5.5-2.5
					C659.1,176.6,661.6,177.7,661.6,179.1z"/>
				<path class="st17" d="M661.6,175.8c0,1.4-2.5,2.5-5.5,2.5c-3,0-5.5-1.1-5.5-2.5s2.5-2.5,5.5-2.5
					C659.1,173.3,661.6,174.4,661.6,175.8z"/>
			</g>
		</g>
		<g>
			<rect x="660.1" y="170.1" class="st18" width="10.9" height="3.3"/>
			<g>
				<path class="st18" d="M671.1,173.4c0,1.4-2.5,2.5-5.5,2.5c-3,0-5.5-1.1-5.5-2.5c0-1.4,2.5-2.5,5.5-2.5
					C668.6,170.9,671.1,172,671.1,173.4z"/>
				<path class="st17" d="M671.1,170.1c0,1.4-2.5,2.5-5.5,2.5c-3,0-5.5-1.1-5.5-2.5c0-1.4,2.5-2.5,5.5-2.5
					C668.6,167.6,671.1,168.7,671.1,170.1z"/>
			</g>
		</g>
	</g>
	<g class="st2">
		<g>
			<polygon class="st16" points="659.8,166.9 640.5,178.3 640.5,154.4 659.8,143 			"/>
			<polygon class="st15" points="640.5,178.3 603.1,166.4 603.1,142.5 640.5,154.4 			"/>
			<polygon class="st17" points="640.5,154.4 603.1,142.5 622.3,131.1 659.8,143 			"/>
		</g>
		<g>
			<rect x="611.5" y="139.2" class="st18" width="10.9" height="3.3"/>
			<g>
				<path class="st18" d="M622.4,142.5c0,1.4-2.5,2.5-5.5,2.5c-3,0-5.5-1.1-5.5-2.5c0-1.4,2.5-2.5,5.5-2.5
					C620,140,622.4,141.1,622.4,142.5z"/>
				<path class="st17" d="M622.4,139.2c0,1.4-2.5,2.5-5.5,2.5c-3,0-5.5-1.1-5.5-2.5c0-1.4,2.5-2.5,5.5-2.5
					C620,136.7,622.4,137.8,622.4,139.2z"/>
			</g>
		</g>
		<g>
			<rect x="621.3" y="133" class="st18" width="10.9" height="3.3"/>
			<g>
				<path class="st18" d="M632.3,136.3c0,1.4-2.5,2.5-5.5,2.5c-3,0-5.5-1.1-5.5-2.5c0-1.4,2.5-2.5,5.5-2.5
					C629.8,133.9,632.3,135,632.3,136.3z"/>
				<path class="st17" d="M632.3,133c0,1.4-2.5,2.5-5.5,2.5c-3,0-5.5-1.1-5.5-2.5c0-1.4,2.5-2.5,5.5-2.5
					C629.8,130.6,632.3,131.7,632.3,133z"/>
			</g>
		</g>
		<g>
			<rect x="631.5" y="145.7" class="st18" width="10.9" height="3.3"/>
			<g>
				<path class="st18" d="M642.4,149c0,1.4-2.5,2.5-5.5,2.5c-3,0-5.5-1.1-5.5-2.5c0-1.4,2.5-2.5,5.5-2.5
					C640,146.6,642.4,147.7,642.4,149z"/>
				<path class="st17" d="M642.4,145.7c0,1.4-2.5,2.5-5.5,2.5c-3,0-5.5-1.1-5.5-2.5c0-1.4,2.5-2.5,5.5-2.5
					C640,143.3,642.4,144.4,642.4,145.7z"/>
			</g>
		</g>
		<g>
			<rect x="641" y="140" class="st18" width="10.9" height="3.3"/>
			<g>
				<path class="st18" d="M651.9,143.3c0,1.4-2.5,2.5-5.5,2.5c-3,0-5.5-1.1-5.5-2.5c0-1.4,2.5-2.5,5.5-2.5
					C649.5,140.8,651.9,141.9,651.9,143.3z"/>
				<path class="st17" d="M651.9,140c0,1.4-2.5,2.5-5.5,2.5c-3,0-5.5-1.1-5.5-2.5s2.5-2.5,5.5-2.5
					C649.5,137.5,651.9,138.6,651.9,140z"/>
			</g>
		</g>
	</g>
	<g class="st2">
		<g>
			<polygon class="st6" points="659.8,143.4 640.5,154.8 640.5,130.9 659.8,119.5 			"/>
			<polygon class="st5" points="640.5,154.8 603.1,142.9 603.1,119 640.5,130.9 			"/>
			<polygon class="st7" points="640.5,130.9 603.1,119 622.3,107.6 659.8,119.5 			"/>
		</g>
		<g>
			<rect x="611.5" y="115.7" class="st6" width="10.9" height="3.3"/>
			<g>
				<path class="st6" d="M622.4,119c0,1.4-2.5,2.5-5.5,2.5c-3,0-5.5-1.1-5.5-2.5s2.5-2.5,5.5-2.5C620,116.5,622.4,117.6,622.4,119z"
					/>
				<path class="st7" d="M622.4,115.7c0,1.4-2.5,2.5-5.5,2.5c-3,0-5.5-1.1-5.5-2.5s2.5-2.5,5.5-2.5
					C620,113.2,622.4,114.3,622.4,115.7z"/>
			</g>
		</g>
		<g>
			<rect x="621.3" y="109.5" class="st6" width="10.9" height="3.3"/>
			<g>
				<path class="st6" d="M632.3,112.8c0,1.4-2.5,2.5-5.5,2.5c-3,0-5.5-1.1-5.5-2.5s2.5-2.5,5.5-2.5
					C629.8,110.4,632.3,111.5,632.3,112.8z"/>
				<path class="st7" d="M632.3,109.5c0,1.4-2.5,2.5-5.5,2.5c-3,0-5.5-1.1-5.5-2.5s2.5-2.5,5.5-2.5
					C629.8,107.1,632.3,108.2,632.3,109.5z"/>
			</g>
		</g>
		<g>
			<rect x="631.5" y="122.2" class="st6" width="10.9" height="3.3"/>
			<g>
				<path class="st6" d="M642.4,125.5c0,1.4-2.5,2.5-5.5,2.5c-3,0-5.5-1.1-5.5-2.5s2.5-2.5,5.5-2.5
					C640,123.1,642.4,124.2,642.4,125.5z"/>
				<path class="st7" d="M642.4,122.2c0,1.4-2.5,2.5-5.5,2.5c-3,0-5.5-1.1-5.5-2.5c0-1.4,2.5-2.5,5.5-2.5
					C640,119.8,642.4,120.9,642.4,122.2z"/>
			</g>
		</g>
		<g>
			<rect x="641" y="116.5" class="st6" width="10.9" height="3.3"/>
			<g>
				<path class="st6" d="M651.9,119.8c0,1.4-2.5,2.5-5.5,2.5c-3,0-5.5-1.1-5.5-2.5c0-1.4,2.5-2.5,5.5-2.5
					C649.5,117.3,651.9,118.4,651.9,119.8z"/>
				<path class="st7" d="M651.9,116.5c0,1.4-2.5,2.5-5.5,2.5c-3,0-5.5-1.1-5.5-2.5c0-1.4,2.5-2.5,5.5-2.5
					C649.5,114,651.9,115.1,651.9,116.5z"/>
			</g>
		</g>
	</g>
	<g class="st2">
		<g>
			<polygon class="st3" points="659.9,119.5 640.6,131 640.6,107.1 659.9,95.7 			"/>
			<polygon class="st8" points="640.6,131 603.1,119 603.1,95.1 640.6,107.1 			"/>
			<polygon class="st4" points="640.6,107.1 603.1,95.1 622.4,83.7 659.9,95.7 			"/>
		</g>
		<g>
			<rect x="611.5" y="91.8" class="st3" width="10.9" height="3.3"/>
			<g>
				<path class="st3" d="M622.5,95.1c0,1.4-2.5,2.5-5.5,2.5c-3,0-5.5-1.1-5.5-2.5s2.5-2.5,5.5-2.5C620,92.7,622.5,93.8,622.5,95.1z"
					/>
				<path class="st4" d="M622.5,91.8c0,1.4-2.5,2.5-5.5,2.5c-3,0-5.5-1.1-5.5-2.5s2.5-2.5,5.5-2.5C620,89.4,622.5,90.5,622.5,91.8z"
					/>
			</g>
		</g>
		<g>
			<rect x="621.4" y="85.7" class="st3" width="10.9" height="3.3"/>
			<g>
				<path class="st3" d="M632.3,89c0,1.4-2.5,2.5-5.5,2.5c-3,0-5.5-1.1-5.5-2.5c0-1.4,2.5-2.5,5.5-2.5
					C629.9,86.5,632.3,87.6,632.3,89z"/>
				<path class="st4" d="M632.3,85.7c0,1.4-2.5,2.5-5.5,2.5c-3,0-5.5-1.1-5.5-2.5s2.5-2.5,5.5-2.5C629.9,83.2,632.3,84.3,632.3,85.7
					z"/>
			</g>
		</g>
		<g>
			<rect x="631.5" y="98.4" class="st3" width="10.9" height="3.3"/>
			<g>
				<path class="st3" d="M642.5,101.7c0,1.4-2.5,2.5-5.5,2.5c-3,0-5.5-1.1-5.5-2.5c0-1.4,2.5-2.5,5.5-2.5
					C640,99.2,642.5,100.3,642.5,101.7z"/>
				<path class="st4" d="M642.5,98.4c0,1.4-2.5,2.5-5.5,2.5c-3,0-5.5-1.1-5.5-2.5s2.5-2.5,5.5-2.5C640,95.9,642.5,97,642.5,98.4z"/>
			</g>
		</g>
		<g>
			<rect x="641" y="92.7" class="st3" width="10.9" height="3.3"/>
			<g>
				<path class="st3" d="M652,96c0,1.4-2.5,2.5-5.5,2.5c-3,0-5.5-1.1-5.5-2.5s2.5-2.5,5.5-2.5C649.5,93.5,652,94.6,652,96z"/>
				<path class="st4" d="M652,92.7c0,1.4-2.5,2.5-5.5,2.5c-3,0-5.5-1.1-5.5-2.5c0-1.4,2.5-2.5,5.5-2.5C649.5,90.2,652,91.3,652,92.7
					z"/>
			</g>
		</g>
	</g>
	<g class="st2">
		<g>
			<polygon class="st13" points="659.9,95.7 640.6,107.1 640.6,83.2 659.9,71.8 			"/>
			<polygon class="st12" points="640.6,107.1 603.1,95.2 603.1,71.3 640.6,83.2 			"/>
			<polygon class="st14" points="640.6,83.2 603.1,71.3 622.4,59.9 659.9,71.8 			"/>
		</g>
		<g>
			<rect x="611.6" y="68" class="st13" width="10.9" height="3.3"/>
			<g>
				<path class="st13" d="M622.5,71.3c0,1.4-2.5,2.5-5.5,2.5c-3,0-5.5-1.1-5.5-2.5s2.5-2.5,5.5-2.5
					C620.1,68.8,622.5,69.9,622.5,71.3z"/>
				<path class="st14" d="M622.5,68c0,1.4-2.5,2.5-5.5,2.5c-3,0-5.5-1.1-5.5-2.5s2.5-2.5,5.5-2.5C620.1,65.5,622.5,66.6,622.5,68z"
					/>
			</g>
		</g>
		<g>
			<rect x="621.4" y="61.8" class="st13" width="10.9" height="3.3"/>
			<g>
				<path class="st13" d="M632.4,65.1c0,1.4-2.5,2.5-5.5,2.5c-3,0-5.5-1.1-5.5-2.5s2.5-2.5,5.5-2.5S632.4,63.8,632.4,65.1z"/>
				<path class="st14" d="M632.4,61.8c0,1.4-2.5,2.5-5.5,2.5c-3,0-5.5-1.1-5.5-2.5c0-1.4,2.5-2.5,5.5-2.5S632.4,60.5,632.4,61.8z"/>
			</g>
		</g>
		<g>
			<rect x="631.6" y="74.5" class="st13" width="10.9" height="3.3"/>
			<g>
				<path class="st13" d="M642.5,77.8c0,1.4-2.5,2.5-5.5,2.5c-3,0-5.5-1.1-5.5-2.5s2.5-2.5,5.5-2.5
					C640.1,75.4,642.5,76.5,642.5,77.8z"/>
				<path class="st14" d="M642.5,74.5c0,1.4-2.5,2.5-5.5,2.5c-3,0-5.5-1.1-5.5-2.5s2.5-2.5,5.5-2.5
					C640.1,72.1,642.5,73.2,642.5,74.5z"/>
			</g>
		</g>
		<g>
			<rect x="641.1" y="68.8" class="st13" width="10.9" height="3.3"/>
			<g>
				<path class="st13" d="M652,72.1c0,1.4-2.5,2.5-5.5,2.5c-3,0-5.5-1.1-5.5-2.5c0-1.4,2.5-2.5,5.5-2.5
					C649.6,69.6,652,70.7,652,72.1z"/>
				<path class="st14" d="M652,68.8c0,1.4-2.5,2.5-5.5,2.5c-3,0-5.5-1.1-5.5-2.5c0-1.4,2.5-2.5,5.5-2.5
					C649.6,66.3,652,67.4,652,68.8z"/>
			</g>
		</g>
	</g>
	<g class="st2">
		<g>
			<polygon class="st10" points="659.9,71.8 640.6,83.2 640.6,59.3 659.9,47.9 			"/>
			<polygon class="st9" points="640.6,83.2 603.1,71.3 603.1,47.4 640.6,59.3 			"/>
			<polygon class="st11" points="640.6,59.3 603.1,47.4 622.4,35.9 659.9,47.9 			"/>
		</g>
		<g>
			<rect x="611.6" y="44.1" class="st10" width="10.9" height="3.3"/>
			<g>
				<path class="st10" d="M622.5,47.4c0,1.4-2.5,2.5-5.5,2.5c-3,0-5.5-1.1-5.5-2.5c0-1.4,2.5-2.5,5.5-2.5
					C620.1,44.9,622.5,46,622.5,47.4z"/>
				<path class="st11" d="M622.5,44.1c0,1.4-2.5,2.5-5.5,2.5c-3,0-5.5-1.1-5.5-2.5c0-1.4,2.5-2.5,5.5-2.5
					C620.1,41.6,622.5,42.7,622.5,44.1z"/>
			</g>
		</g>
		<g>
			<rect x="621.4" y="37.9" class="st10" width="10.9" height="3.3"/>
			<g>
				<path class="st10" d="M632.4,41.2c0,1.4-2.5,2.5-5.5,2.5c-3,0-5.5-1.1-5.5-2.5s2.5-2.5,5.5-2.5S632.4,39.9,632.4,41.2z"/>
				<path class="st11" d="M632.4,37.9c0,1.4-2.5,2.5-5.5,2.5c-3,0-5.5-1.1-5.5-2.5s2.5-2.5,5.5-2.5S632.4,36.6,632.4,37.9z"/>
			</g>
		</g>
		<g>
			<rect x="631.6" y="50.6" class="st10" width="10.9" height="3.3"/>
			<g>
				<path class="st10" d="M642.5,53.9c0,1.4-2.5,2.5-5.5,2.5c-3,0-5.5-1.1-5.5-2.5c0-1.4,2.5-2.5,5.5-2.5
					C640.1,51.5,642.5,52.6,642.5,53.9z"/>
				<path class="st11" d="M642.5,50.6c0,1.4-2.5,2.5-5.5,2.5c-3,0-5.5-1.1-5.5-2.5c0-1.4,2.5-2.5,5.5-2.5
					C640.1,48.2,642.5,49.3,642.5,50.6z"/>
			</g>
		</g>
		<g>
			<rect x="641.1" y="44.9" class="st10" width="10.9" height="3.3"/>
			<g>
				<path class="st10" d="M652,48.2c0,1.4-2.5,2.5-5.5,2.5c-3,0-5.5-1.1-5.5-2.5s2.5-2.5,5.5-2.5C649.6,45.7,652,46.8,652,48.2z"/>
				<path class="st11" d="M652,44.9c0,1.4-2.5,2.5-5.5,2.5c-3,0-5.5-1.1-5.5-2.5c0-1.4,2.5-2.5,5.5-2.5
					C649.6,42.4,652,43.5,652,44.9z"/>
			</g>
		</g>
	</g>
	<g class="st2">
		<g>
			<polygon class="st16" points="659.9,47.9 640.6,59.3 640.6,35.4 659.9,24 			"/>
			<polygon class="st15" points="640.6,59.3 603.1,47.4 603.1,23.5 640.6,35.4 			"/>
			<polygon class="st17" points="640.6,35.4 603.1,23.5 622.4,12.1 659.9,24 			"/>
		</g>
		<g>
			<rect x="611.6" y="20.2" class="st18" width="10.9" height="3.3"/>
			<g>
				<path class="st18" d="M622.5,23.5c0,1.4-2.5,2.5-5.5,2.5c-3,0-5.5-1.1-5.5-2.5s2.5-2.5,5.5-2.5C620.1,21,622.5,22.1,622.5,23.5z
					"/>
				<path class="st17" d="M622.5,20.2c0,1.4-2.5,2.5-5.5,2.5c-3,0-5.5-1.1-5.5-2.5s2.5-2.5,5.5-2.5
					C620.1,17.7,622.5,18.8,622.5,20.2z"/>
			</g>
		</g>
		<g>
			<rect x="621.4" y="14" class="st18" width="10.9" height="3.3"/>
			<g>
				<path class="st18" d="M632.4,17.3c0,1.4-2.5,2.5-5.5,2.5c-3,0-5.5-1.1-5.5-2.5s2.5-2.5,5.5-2.5S632.4,16,632.4,17.3z"/>
				<path class="st17" d="M632.4,14c0,1.4-2.5,2.5-5.5,2.5c-3,0-5.5-1.1-5.5-2.5s2.5-2.5,5.5-2.5S632.4,12.7,632.4,14z"/>
			</g>
		</g>
		<g>
			<rect x="631.6" y="26.7" class="st18" width="10.9" height="3.3"/>
			<g>
				<path class="st18" d="M642.5,30c0,1.4-2.5,2.5-5.5,2.5c-3,0-5.5-1.1-5.5-2.5s2.5-2.5,5.5-2.5C640.1,27.6,642.5,28.7,642.5,30z"
					/>
				<path class="st17" d="M642.5,26.7c0,1.4-2.5,2.5-5.5,2.5c-3,0-5.5-1.1-5.5-2.5s2.5-2.5,5.5-2.5
					C640.1,24.3,642.5,25.4,642.5,26.7z"/>
			</g>
		</g>
		<g>
			<rect x="641.1" y="21" class="st18" width="10.9" height="3.3"/>
			<g>
				<path class="st18" d="M652,24.3c0,1.4-2.5,2.5-5.5,2.5c-3,0-5.5-1.1-5.5-2.5c0-1.4,2.5-2.5,5.5-2.5
					C649.6,21.9,652,22.9,652,24.3z"/>
				<path class="st17" d="M652,21c0,1.4-2.5,2.5-5.5,2.5c-3,0-5.5-1.1-5.5-2.5c0-1.4,2.5-2.5,5.5-2.5C649.6,18.6,652,19.7,652,21z"
					/>
			</g>
		</g>
	</g>
	<g class="st2">
		<g>
			<polygon class="st16" points="642.8,18.5 623.6,29.9 623.6,6.1 642.8,-5.4 			"/>
			<polygon class="st15" points="623.6,29.9 586.1,18 586.1,-5.9 623.6,6.1 			"/>
			<polygon class="st17" points="623.6,6.1 586.1,-5.9 605.4,-17.3 642.8,-5.4 			"/>
		</g>
		<g>
			<rect x="594.5" y="-9.2" class="st18" width="10.9" height="3.3"/>
			<g>
				<path class="st18" d="M605.4-5.9c0,1.4-2.5,2.5-5.5,2.5c-3,0-5.5-1.1-5.5-2.5s2.5-2.5,5.5-2.5C603-8.3,605.4-7.3,605.4-5.9z"/>
				<path class="st17" d="M605.4-9.2c0,1.4-2.5,2.5-5.5,2.5c-3,0-5.5-1.1-5.5-2.5s2.5-2.5,5.5-2.5C603-11.6,605.4-10.5,605.4-9.2z"
					/>
			</g>
		</g>
		<g>
			<rect x="604.4" y="-15.3" class="st18" width="10.9" height="3.3"/>
			<g>
				<path class="st18" d="M615.3-12c0,1.4-2.5,2.5-5.5,2.5c-3,0-5.5-1.1-5.5-2.5s2.5-2.5,5.5-2.5S615.3-13.4,615.3-12z"/>
				<path class="st17" d="M615.3-15.3c0,1.4-2.5,2.5-5.5,2.5c-3,0-5.5-1.1-5.5-2.5s2.5-2.5,5.5-2.5
					C612.8-17.8,615.3-16.7,615.3-15.3z"/>
			</g>
		</g>
		<g>
			<rect x="614.5" y="-2.6" class="st18" width="10.9" height="3.3"/>
			<g>
				<path class="st18" d="M625.5,0.6c0,1.4-2.5,2.5-5.5,2.5c-3,0-5.5-1.1-5.5-2.5s2.5-2.5,5.5-2.5C623-1.8,625.5-0.7,625.5,0.6z"/>
				<path class="st17" d="M625.5-2.6c0,1.4-2.5,2.5-5.5,2.5c-3,0-5.5-1.1-5.5-2.5s2.5-2.5,5.5-2.5C623-5.1,625.5-4,625.5-2.6z"/>
			</g>
		</g>
		<g>
			<rect x="624" y="-8.4" class="st18" width="10.9" height="3.3"/>
			<g>
				<path class="st18" d="M634.9-5.1c0,1.4-2.5,2.5-5.5,2.5c-3,0-5.5-1.1-5.5-2.5s2.5-2.5,5.5-2.5C632.5-7.5,634.9-6.4,634.9-5.1z"
					/>
				<path class="st17" d="M634.9-8.4c0,1.4-2.5,2.5-5.5,2.5c-3,0-5.5-1.1-5.5-2.5s2.5-2.5,5.5-2.5C632.5-10.8,634.9-9.7,634.9-8.4z"
					/>
			</g>
		</g>
	</g>
	<g class="st2">
		<g>
			<polygon class="st6" points="680.4,30.5 661.2,41.9 661.2,18 680.4,6.6 			"/>
			<polygon class="st5" points="661.2,41.9 623.7,30 623.7,6.1 661.2,18 			"/>
			<polygon class="st7" points="661.2,18 623.7,6.1 643,-5.3 680.4,6.6 			"/>
		</g>
		<g>
			<rect x="632.1" y="2.8" class="st6" width="10.9" height="3.3"/>
			<g>
				<path class="st6" d="M643.1,6.1c0,1.4-2.5,2.5-5.5,2.5c-3,0-5.5-1.1-5.5-2.5s2.5-2.5,5.5-2.5C640.6,3.6,643.1,4.7,643.1,6.1z"/>
				<path class="st7" d="M643.1,2.8c0,1.4-2.5,2.5-5.5,2.5c-3,0-5.5-1.1-5.5-2.5s2.5-2.5,5.5-2.5C640.6,0.4,643.1,1.4,643.1,2.8z"/>
			</g>
		</g>
		<g>
			<rect x="642" y="-3.3" class="st6" width="10.9" height="3.3"/>
			<g>
				<path class="st6" d="M652.9-0.1c0,1.4-2.5,2.5-5.5,2.5c-3,0-5.5-1.1-5.5-2.5s2.5-2.5,5.5-2.5C650.5-2.5,652.9-1.4,652.9-0.1z"/>
				<path class="st7" d="M652.9-3.3c0,1.4-2.5,2.5-5.5,2.5c-3,0-5.5-1.1-5.5-2.5s2.5-2.5,5.5-2.5C650.5-5.8,652.9-4.7,652.9-3.3z"/>
			</g>
		</g>
		<g>
			<rect x="652.1" y="9.3" class="st6" width="10.9" height="3.3"/>
			<g>
				<path class="st6" d="M663.1,12.6c0,1.4-2.5,2.5-5.5,2.5c-3,0-5.5-1.1-5.5-2.5s2.5-2.5,5.5-2.5C660.6,10.2,663.1,11.3,663.1,12.6
					z"/>
				<path class="st7" d="M663.1,9.3c0,1.4-2.5,2.5-5.5,2.5c-3,0-5.5-1.1-5.5-2.5s2.5-2.5,5.5-2.5C660.6,6.9,663.1,8,663.1,9.3z"/>
			</g>
		</g>
		<g>
			<rect x="661.6" y="3.6" class="st6" width="10.9" height="3.3"/>
			<g>
				<path class="st6" d="M672.5,6.9c0,1.4-2.5,2.5-5.5,2.5c-3,0-5.5-1.1-5.5-2.5c0-1.4,2.5-2.5,5.5-2.5
					C670.1,4.5,672.5,5.6,672.5,6.9z"/>
				<path class="st7" d="M672.5,3.6c0,1.4-2.5,2.5-5.5,2.5c-3,0-5.5-1.1-5.5-2.5s2.5-2.5,5.5-2.5C670.1,1.2,672.5,2.3,672.5,3.6z"/>
			</g>
		</g>
	</g>
	<g class="st2">
		<g>
			<polygon class="st6" points="716.4,208.9 697.2,220.3 697.2,196.4 716.4,185 			"/>
			<polygon class="st5" points="697.2,220.3 659.7,208.3 659.7,184.4 697.2,196.4 			"/>
			<polygon class="st7" points="697.2,196.4 659.7,184.4 679,173 716.4,185 			"/>
		</g>
		<g>
			<rect x="668.1" y="181.2" class="st6" width="10.9" height="3.3"/>
			<g>
				<path class="st6" d="M679.1,184.4c0,1.4-2.5,2.5-5.5,2.5c-3,0-5.5-1.1-5.5-2.5c0-1.4,2.5-2.5,5.5-2.5
					C676.6,182,679.1,183.1,679.1,184.4z"/>
				<path class="st7" d="M679.1,181.2c0,1.4-2.5,2.5-5.5,2.5c-3,0-5.5-1.1-5.5-2.5c0-1.4,2.5-2.5,5.5-2.5S679.1,179.8,679.1,181.2z"
					/>
			</g>
		</g>
		<g>
			<rect x="677.9" y="175" class="st6" width="10.9" height="3.3"/>
			<g>
				<path class="st6" d="M688.9,178.3c0,1.4-2.5,2.5-5.5,2.5c-3,0-5.5-1.1-5.5-2.5c0-1.4,2.5-2.5,5.5-2.5
					C686.4,175.8,688.9,176.9,688.9,178.3z"/>
				<path class="st7" d="M688.9,175c0,1.4-2.5,2.5-5.5,2.5c-3,0-5.5-1.1-5.5-2.5c0-1.4,2.5-2.5,5.5-2.5
					C686.4,172.5,688.9,173.6,688.9,175z"/>
			</g>
		</g>
		<g>
			<rect x="688.1" y="187.7" class="st6" width="10.9" height="3.3"/>
			<g>
				<path class="st6" d="M699.1,191c0,1.4-2.5,2.5-5.5,2.5c-3,0-5.5-1.1-5.5-2.5c0-1.4,2.5-2.5,5.5-2.5
					C696.6,188.5,699.1,189.6,699.1,191z"/>
				<path class="st7" d="M699.1,187.7c0,1.4-2.5,2.5-5.5,2.5c-3,0-5.5-1.1-5.5-2.5s2.5-2.5,5.5-2.5
					C696.6,185.2,699.1,186.3,699.1,187.7z"/>
			</g>
		</g>
		<g>
			<rect x="697.6" y="182" class="st6" width="10.9" height="3.3"/>
			<g>
				<path class="st6" d="M708.5,185.3c0,1.4-2.5,2.5-5.5,2.5c-3,0-5.5-1.1-5.5-2.5c0-1.4,2.5-2.5,5.5-2.5
					C706.1,182.8,708.5,183.9,708.5,185.3z"/>
				<path class="st7" d="M708.5,182c0,1.4-2.5,2.5-5.5,2.5c-3,0-5.5-1.1-5.5-2.5c0-1.4,2.5-2.5,5.5-2.5
					C706.1,179.5,708.5,180.6,708.5,182z"/>
			</g>
		</g>
	</g>
	<g class="st2">
		<g>
			<polygon class="st3" points="700.9,13.6 681.7,25 681.7,1.1 700.9,-10.3 			"/>
			<polygon class="st8" points="681.7,25 644.2,13.1 644.2,-10.8 681.7,1.1 			"/>
			<polygon class="st4" points="681.7,1.1 644.2,-10.8 663.5,-22.2 700.9,-10.3 			"/>
		</g>
		<g>
			<rect x="652.6" y="-14.1" class="st3" width="10.9" height="3.3"/>
			<g>
				<path class="st3" d="M663.5-10.8c0,1.4-2.5,2.5-5.5,2.5c-3,0-5.5-1.1-5.5-2.5s2.5-2.5,5.5-2.5C661.1-13.3,663.5-12.2,663.5-10.8
					z"/>
				<path class="st4" d="M663.5-14.1c0,1.4-2.5,2.5-5.5,2.5c-3,0-5.5-1.1-5.5-2.5s2.5-2.5,5.5-2.5C661.1-16.6,663.5-15.5,663.5-14.1
					z"/>
			</g>
		</g>
		<g>
			<rect x="662.5" y="-20.3" class="st3" width="10.9" height="3.3"/>
			<g>
				<path class="st3" d="M673.4-17c0,1.4-2.5,2.5-5.5,2.5c-3,0-5.5-1.1-5.5-2.5s2.5-2.5,5.5-2.5C670.9-19.4,673.4-18.3,673.4-17z"/>
				<path class="st4" d="M673.4-20.3c0,1.4-2.5,2.5-5.5,2.5c-3,0-5.5-1.1-5.5-2.5s2.5-2.5,5.5-2.5C670.9-22.7,673.4-21.6,673.4-20.3
					z"/>
			</g>
		</g>
		<g>
			<rect x="672.6" y="-7.6" class="st3" width="10.9" height="3.3"/>
			<g>
				<path class="st3" d="M683.5-4.3c0,1.4-2.5,2.5-5.5,2.5c-3,0-5.5-1.1-5.5-2.5s2.5-2.5,5.5-2.5C681.1-6.7,683.5-5.6,683.5-4.3z"/>
				<path class="st4" d="M683.5-7.6c0,1.4-2.5,2.5-5.5,2.5c-3,0-5.5-1.1-5.5-2.5s2.5-2.5,5.5-2.5C681.1-10,683.5-8.9,683.5-7.6z"/>
			</g>
		</g>
		<g>
			<rect x="682.1" y="-13.3" class="st3" width="10.9" height="3.3"/>
			<g>
				<path class="st3" d="M693-10c0,1.4-2.5,2.5-5.5,2.5c-3,0-5.5-1.1-5.5-2.5s2.5-2.5,5.5-2.5C690.6-12.4,693-11.4,693-10z"/>
				<path class="st4" d="M693-13.3c0,1.4-2.5,2.5-5.5,2.5c-3,0-5.5-1.1-5.5-2.5s2.5-2.5,5.5-2.5C690.6-15.7,693-14.6,693-13.3z"/>
			</g>
		</g>
	</g>
	<g class="st2">
		<g>
			<polygon class="st16" points="724.7,-2.8 705.4,8.6 705.4,-15.3 724.7,-26.7 			"/>
			<polygon class="st15" points="705.4,8.6 667.9,-3.3 667.9,-27.2 705.4,-15.3 			"/>
			<polygon class="st17" points="705.4,-15.3 667.9,-27.2 687.2,-38.6 724.7,-26.7 			"/>
		</g>
		<g>
			<rect x="676.4" y="-30.5" class="st18" width="10.9" height="3.3"/>
			<g>
				<path class="st18" d="M687.3-27.2c0,1.4-2.5,2.5-5.5,2.5c-3,0-5.5-1.1-5.5-2.5c0-1.4,2.5-2.5,5.5-2.5
					C684.8-29.7,687.3-28.6,687.3-27.2z"/>
				<path class="st17" d="M687.3-30.5c0,1.4-2.5,2.5-5.5,2.5c-3,0-5.5-1.1-5.5-2.5s2.5-2.5,5.5-2.5C684.8-33,687.3-31.9,687.3-30.5z
					"/>
			</g>
		</g>
		<g>
			<rect x="686.2" y="-36.7" class="st18" width="10.9" height="3.3"/>
			<g>
				<path class="st18" d="M697.1-33.4c0,1.4-2.5,2.5-5.5,2.5c-3,0-5.5-1.1-5.5-2.5c0-1.4,2.5-2.5,5.5-2.5
					C694.7-35.8,697.1-34.7,697.1-33.4z"/>
				<path class="st17" d="M697.1-36.7c0,1.4-2.5,2.5-5.5,2.5c-3,0-5.5-1.1-5.5-2.5c0-1.4,2.5-2.5,5.5-2.5
					C694.7-39.1,697.1-38,697.1-36.7z"/>
			</g>
		</g>
		<g>
			<rect x="696.4" y="-24" class="st18" width="10.9" height="3.3"/>
			<g>
				<path class="st18" d="M707.3-20.7c0,1.4-2.5,2.5-5.5,2.5c-3,0-5.5-1.1-5.5-2.5c0-1.4,2.5-2.5,5.5-2.5
					C704.8-23.1,707.3-22,707.3-20.7z"/>
				<path class="st17" d="M707.3-24c0,1.4-2.5,2.5-5.5,2.5c-3,0-5.5-1.1-5.5-2.5s2.5-2.5,5.5-2.5C704.8-26.4,707.3-25.3,707.3-24z"
					/>
			</g>
		</g>
		<g>
			<rect x="705.8" y="-29.7" class="st18" width="10.9" height="3.3"/>
			<g>
				<path class="st18" d="M716.8-26.4c0,1.4-2.5,2.5-5.5,2.5c-3,0-5.5-1.1-5.5-2.5c0-1.4,2.5-2.5,5.5-2.5
					C714.3-28.9,716.8-27.8,716.8-26.4z"/>
				<path class="st17" d="M716.8-29.7c0,1.4-2.5,2.5-5.5,2.5c-3,0-5.5-1.1-5.5-2.5c0-1.4,2.5-2.5,5.5-2.5
					C714.3-32.2,716.8-31.1,716.8-29.7z"/>
			</g>
		</g>
	</g>
</g>
<g>
	<path class="st19" d="M691.2,154l54.2,3.7l-7.7,14.2l-65.7,3.7L691.2,154z"/>
	<g>
		<polygon class="st15" points="649.1,161.9 672.4,175.7 672.4,146.8 649.1,133 		"/>
		<polygon class="st16" points="672.4,175.7 717.8,161.3 717.8,132.3 672.4,146.8 		"/>
		<polygon class="st17" points="672.4,146.8 717.8,132.3 694.5,118.5 649.1,133 		"/>
	</g>
	<g>
		<rect x="694.3" y="128.4" class="st18" width="13.2" height="4"/>
		<g>
			<path class="st18" d="M694.3,132.4c0,1.6,3,3,6.6,3c3.7,0,6.6-1.3,6.6-3c0-1.6-3-3-6.6-3C697.3,129.4,694.3,130.7,694.3,132.4z"
				/>
			<path class="st17" d="M694.3,128.4c0,1.6,3,3,6.6,3c3.7,0,6.6-1.3,6.6-3c0-1.6-3-3-6.6-3C697.3,125.4,694.3,126.7,694.3,128.4z"
				/>
		</g>
	</g>
	<g>
		<rect x="682.4" y="120.9" class="st18" width="13.2" height="4"/>
		<g>
			<path class="st18" d="M682.4,124.9c0,1.6,3,3,6.6,3c3.7,0,6.6-1.3,6.6-3c0-1.6-3-3-6.6-3C685.4,121.9,682.4,123.3,682.4,124.9z"
				/>
			<path class="st17" d="M682.4,120.9c0,1.6,3,3,6.6,3c3.7,0,6.6-1.3,6.6-3c0-1.6-3-3-6.6-3C685.4,117.9,682.4,119.3,682.4,120.9z"
				/>
		</g>
	</g>
	<g>
		<rect x="670.1" y="136.3" class="st18" width="13.2" height="4"/>
		<g>
			<path class="st18" d="M670.1,140.3c0,1.6,3,3,6.6,3c3.7,0,6.6-1.3,6.6-3c0-1.6-3-3-6.6-3C673.1,137.3,670.1,138.6,670.1,140.3z"
				/>
			<path class="st17" d="M670.1,136.3c0,1.6,3,3,6.6,3c3.7,0,6.6-1.3,6.6-3c0-1.6-3-3-6.6-3C673.1,133.3,670.1,134.6,670.1,136.3z"
				/>
		</g>
	</g>
	<g>
		<rect x="658.7" y="129.4" class="st18" width="13.2" height="4"/>
		<g>
			<path class="st18" d="M658.7,133.3c0,1.6,3,3,6.6,3c3.7,0,6.6-1.3,6.6-3s-3-3-6.6-3C661.6,130.4,658.7,131.7,658.7,133.3z"/>
			<path class="st17" d="M658.7,129.4c0,1.6,3,3,6.6,3c3.7,0,6.6-1.3,6.6-3c0-1.6-3-3-6.6-3C661.6,126.4,658.7,127.7,658.7,129.4z"
				/>
		</g>
	</g>
</g>
<g>
	<path class="st19" d="M299.4,146.2l84.3,5.8l-11.9,22.1L269.6,180L299.4,146.2z"/>
	<g>
		<polygon class="st8" points="233.3,158.4 269.6,180 269.6,135 233.3,113.5 		"/>
		<polygon class="st3" points="269.6,180 340.2,157.5 340.2,112.5 269.6,135 		"/>
		<polygon class="st4" points="269.6,135 340.2,112.5 303.9,91 233.3,113.5 		"/>
	</g>
	<g>
		<rect x="303.7" y="106.3" class="st3" width="20.6" height="6.2"/>
		<g>
			<path class="st3" d="M303.7,112.5c0,2.6,4.6,4.6,10.3,4.6c5.7,0,10.3-2.1,10.3-4.6c0-2.6-4.6-4.6-10.3-4.6
				C308.3,107.9,303.7,109.9,303.7,112.5z"/>
			<path class="st4" d="M303.7,106.3c0,2.6,4.6,4.6,10.3,4.6c5.7,0,10.3-2.1,10.3-4.6c0-2.6-4.6-4.6-10.3-4.6
				C308.3,101.7,303.7,103.8,303.7,106.3z"/>
		</g>
	</g>
	<g>
		<rect x="285.2" y="94.7" class="st3" width="20.6" height="6.2"/>
		<g>
			<path class="st3" d="M285.2,100.9c0,2.6,4.6,4.6,10.3,4.6c5.7,0,10.3-2.1,10.3-4.6c0-2.6-4.6-4.6-10.3-4.6
				S285.2,98.4,285.2,100.9z"/>
			<path class="st4" d="M285.2,94.7c0,2.6,4.6,4.6,10.3,4.6c5.7,0,10.3-2.1,10.3-4.6c0-2.6-4.6-4.6-10.3-4.6S285.2,92.2,285.2,94.7z
				"/>
		</g>
	</g>
	<g>
		<rect x="266" y="118.6" class="st3" width="20.6" height="6.2"/>
		<g>
			<path class="st3" d="M266,124.8c0,2.6,4.6,4.6,10.3,4.6c5.7,0,10.3-2.1,10.3-4.6c0-2.6-4.6-4.6-10.3-4.6
				C270.7,120.2,266,122.3,266,124.8z"/>
			<path class="st4" d="M266,118.6c0,2.6,4.6,4.6,10.3,4.6c5.7,0,10.3-2.1,10.3-4.6c0-2.6-4.6-4.6-10.3-4.6
				C270.7,114,266,116.1,266,118.6z"/>
		</g>
	</g>
	<g>
		<rect x="248.2" y="107.8" class="st3" width="20.6" height="6.2"/>
		<g>
			<path class="st3" d="M248.2,114c0,2.6,4.6,4.6,10.3,4.6c5.7,0,10.3-2.1,10.3-4.6c0-2.6-4.6-4.6-10.3-4.6S248.2,111.5,248.2,114z"
				/>
			<path class="st4" d="M248.2,107.8c0,2.6,4.6,4.6,10.3,4.6c5.7,0,10.3-2.1,10.3-4.6c0-2.6-4.6-4.6-10.3-4.6
				S248.2,105.3,248.2,107.8z"/>
		</g>
	</g>
</g>
<g id="DESIGNED_BY_FREEPIK" class="st0">
	<g class="st2">
		<g>
			<g>
				<path class="st20" d="M314.2,324.5v-0.2c-0.2,0.3-0.4,0.5-0.6,0.6c-0.2,0.2-0.4,0.3-0.7,0.4s-0.5,0.1-0.8,0.1
					c-0.4,0-0.8-0.1-1.1-0.3c-0.3-0.2-0.6-0.4-0.9-0.7c-0.2-0.3-0.4-0.7-0.6-1.1c-0.1-0.4-0.2-0.9-0.2-1.3c0-1,0.3-1.8,0.7-2.4
					c0.5-0.6,1.2-0.9,2-0.9c0.5,0,0.9,0.1,1.2,0.2s0.6,0.4,0.9,0.7v-2.4c0-0.3,0.1-0.6,0.2-0.8s0.3-0.3,0.6-0.3s0.4,0.1,0.6,0.2
					c0.1,0.2,0.2,0.4,0.2,0.7v7.1c0,0.3-0.1,0.5-0.2,0.7c-0.1,0.1-0.3,0.2-0.6,0.2s-0.4-0.1-0.6-0.2
					C314.3,325,314.2,324.8,314.2,324.5z M311,322.1c0,0.4,0.1,0.8,0.2,1.1c0.1,0.3,0.3,0.5,0.6,0.7s0.5,0.2,0.8,0.2
					c0.3,0,0.5-0.1,0.8-0.2c0.2-0.1,0.4-0.4,0.6-0.7c0.1-0.3,0.2-0.7,0.2-1.1c0-0.4-0.1-0.8-0.2-1.1c-0.1-0.3-0.3-0.5-0.6-0.7
					s-0.5-0.3-0.8-0.3c-0.3,0-0.6,0.1-0.8,0.3c-0.2,0.2-0.4,0.4-0.5,0.7C311.1,321.4,311,321.7,311,322.1z"/>
				<path class="st20" d="M321.3,322.5h-3.2c0,0.4,0.1,0.7,0.2,1c0.1,0.3,0.3,0.5,0.6,0.6c0.2,0.1,0.5,0.2,0.8,0.2
					c0.2,0,0.4,0,0.5-0.1c0.2,0,0.3-0.1,0.5-0.2c0.1-0.1,0.3-0.2,0.4-0.3c0.1-0.1,0.3-0.3,0.5-0.5c0.1-0.1,0.2-0.1,0.4-0.1
					c0.2,0,0.3,0,0.4,0.1c0.1,0.1,0.2,0.2,0.2,0.4c0,0.1-0.1,0.3-0.2,0.5c-0.1,0.2-0.3,0.4-0.5,0.6c-0.2,0.2-0.5,0.3-0.9,0.5
					c-0.4,0.1-0.8,0.2-1.2,0.2c-1,0-1.8-0.3-2.4-0.9c-0.6-0.6-0.9-1.4-0.9-2.4c0-0.5,0.1-0.9,0.2-1.3c0.1-0.4,0.4-0.8,0.6-1
					c0.3-0.3,0.6-0.5,1-0.7c0.4-0.2,0.8-0.2,1.3-0.2c0.6,0,1.2,0.1,1.6,0.4c0.5,0.3,0.8,0.6,1,1c0.2,0.4,0.3,0.9,0.3,1.3
					c0,0.4-0.1,0.7-0.3,0.8C322.1,322.5,321.8,322.5,321.3,322.5z M318.2,321.6h2.9c0-0.5-0.2-1-0.5-1.2c-0.3-0.3-0.6-0.4-1-0.4
					c-0.4,0-0.7,0.1-1,0.4C318.4,320.7,318.2,321.1,318.2,321.6z"/>
				<path class="st20" d="M328.7,323.3c0,0.5-0.1,0.8-0.3,1.1s-0.5,0.6-1,0.7c-0.4,0.2-0.9,0.3-1.5,0.3c-0.6,0-1.1-0.1-1.5-0.3
					s-0.7-0.4-0.9-0.7c-0.2-0.3-0.3-0.5-0.3-0.8c0-0.2,0.1-0.3,0.2-0.5s0.3-0.2,0.5-0.2c0.2,0,0.3,0,0.4,0.1s0.2,0.2,0.3,0.4
					c0.2,0.3,0.4,0.5,0.6,0.6c0.2,0.1,0.5,0.2,0.9,0.2c0.3,0,0.6-0.1,0.8-0.2c0.2-0.1,0.3-0.3,0.3-0.5c0-0.3-0.1-0.5-0.3-0.6
					c-0.2-0.1-0.6-0.3-1.1-0.4c-0.6-0.1-1-0.3-1.4-0.4c-0.4-0.1-0.6-0.4-0.8-0.6s-0.3-0.6-0.3-0.9c0-0.3,0.1-0.6,0.3-0.9
					s0.5-0.5,0.9-0.7s0.8-0.3,1.4-0.3c0.4,0,0.8,0,1.1,0.1c0.3,0.1,0.6,0.2,0.8,0.4c0.2,0.1,0.4,0.3,0.5,0.5
					c0.1,0.2,0.2,0.4,0.2,0.5c0,0.2-0.1,0.3-0.2,0.5c-0.1,0.1-0.3,0.2-0.5,0.2c-0.2,0-0.3,0-0.4-0.1c-0.1-0.1-0.3-0.2-0.4-0.4
					c-0.1-0.2-0.3-0.3-0.4-0.4c-0.2-0.1-0.4-0.1-0.7-0.1s-0.5,0.1-0.7,0.2c-0.2,0.1-0.3,0.3-0.3,0.5c0,0.2,0.1,0.3,0.2,0.4
					c0.1,0.1,0.3,0.2,0.6,0.3c0.2,0.1,0.6,0.2,1,0.3c0.5,0.1,0.9,0.3,1.2,0.4s0.6,0.4,0.7,0.6C328.6,322.8,328.7,323,328.7,323.3z"
					/>
				<path class="st20" d="M330.4,318.1c-0.2,0-0.4-0.1-0.6-0.2c-0.2-0.1-0.2-0.3-0.2-0.6c0-0.2,0.1-0.4,0.3-0.6
					c0.2-0.1,0.4-0.2,0.6-0.2s0.4,0.1,0.6,0.2s0.2,0.3,0.2,0.6c0,0.3-0.1,0.4-0.2,0.6C330.8,318,330.6,318.1,330.4,318.1z
					 M331.2,319.8v4.7c0,0.3-0.1,0.6-0.2,0.7c-0.2,0.2-0.4,0.3-0.6,0.3c-0.2,0-0.4-0.1-0.6-0.3c-0.1-0.2-0.2-0.4-0.2-0.7v-4.6
					c0-0.3,0.1-0.6,0.2-0.7s0.3-0.2,0.6-0.2c0.2,0,0.4,0.1,0.6,0.2C331.1,319.3,331.2,319.5,331.2,319.8z"/>
				<path class="st20" d="M338.3,320v4.7c0,0.5-0.1,1-0.2,1.4c-0.1,0.4-0.3,0.7-0.6,1s-0.6,0.4-1,0.6s-0.9,0.2-1.5,0.2
					c-0.6,0-1.1-0.1-1.5-0.2c-0.4-0.2-0.8-0.4-1-0.6s-0.4-0.5-0.4-0.8c0-0.2,0.1-0.4,0.2-0.5c0.1-0.1,0.3-0.2,0.5-0.2
					c0.2,0,0.4,0.1,0.6,0.3c0.1,0.1,0.2,0.2,0.3,0.3c0.1,0.1,0.2,0.2,0.3,0.3c0.1,0.1,0.3,0.1,0.4,0.2c0.2,0,0.3,0.1,0.5,0.1
					c0.4,0,0.8-0.1,1-0.2s0.4-0.3,0.5-0.5c0.1-0.2,0.1-0.4,0.2-0.7c0-0.2,0-0.6,0-1.2c-0.3,0.4-0.5,0.6-0.9,0.8
					c-0.3,0.2-0.7,0.3-1.2,0.3c-0.5,0-1-0.1-1.4-0.4c-0.4-0.3-0.7-0.7-0.9-1.2c-0.2-0.5-0.3-1.1-0.3-1.7c0-0.5,0.1-0.9,0.2-1.3
					s0.3-0.7,0.6-1s0.5-0.5,0.9-0.6c0.3-0.1,0.7-0.2,1.1-0.2c0.5,0,0.9,0.1,1.2,0.3c0.3,0.2,0.6,0.5,0.9,0.8v-0.2
					c0-0.3,0.1-0.5,0.2-0.6c0.1-0.1,0.3-0.2,0.5-0.2c0.3,0,0.5,0.1,0.6,0.3C338.2,319.4,338.3,319.6,338.3,320z M333.6,322.1
					c0,0.7,0.1,1.1,0.4,1.5s0.7,0.5,1.1,0.5c0.3,0,0.5-0.1,0.8-0.2c0.2-0.1,0.4-0.4,0.6-0.6c0.1-0.3,0.2-0.6,0.2-1.1
					c0-0.7-0.1-1.2-0.4-1.5c-0.3-0.4-0.7-0.5-1.1-0.5c-0.5,0-0.8,0.2-1.1,0.5S333.6,321.4,333.6,322.1z"/>
				<path class="st20" d="M340.9,319.7v0.2c0.3-0.4,0.6-0.6,0.9-0.8c0.3-0.2,0.7-0.3,1.2-0.3c0.4,0,0.8,0.1,1.1,0.3s0.6,0.5,0.8,0.8
					c0.1,0.2,0.2,0.4,0.2,0.6s0,0.5,0,0.9v3c0,0.3-0.1,0.6-0.2,0.7c-0.2,0.2-0.3,0.3-0.6,0.3s-0.4-0.1-0.6-0.3
					c-0.1-0.2-0.2-0.4-0.2-0.7v-2.7c0-0.5-0.1-0.9-0.2-1.2c-0.1-0.3-0.4-0.4-0.9-0.4c-0.3,0-0.6,0.1-0.8,0.3s-0.4,0.4-0.5,0.7
					c-0.1,0.2-0.1,0.7-0.1,1.4v2c0,0.3-0.1,0.6-0.2,0.7s-0.4,0.3-0.6,0.3c-0.2,0-0.4-0.1-0.6-0.3c-0.1-0.2-0.2-0.4-0.2-0.7v-4.7
					c0-0.3,0.1-0.5,0.2-0.7s0.3-0.2,0.6-0.2c0.1,0,0.3,0,0.4,0.1c0.1,0.1,0.2,0.2,0.3,0.3C340.8,319.4,340.9,319.5,340.9,319.7z"/>
				<path class="st20" d="M350.7,322.5h-3.2c0,0.4,0.1,0.7,0.2,1s0.3,0.5,0.6,0.6c0.2,0.1,0.5,0.2,0.8,0.2c0.2,0,0.4,0,0.5-0.1
					c0.2,0,0.3-0.1,0.5-0.2c0.2-0.1,0.3-0.2,0.4-0.3c0.1-0.1,0.3-0.3,0.5-0.5c0.1-0.1,0.2-0.1,0.4-0.1c0.2,0,0.3,0,0.4,0.1
					c0.1,0.1,0.1,0.2,0.1,0.4c0,0.1-0.1,0.3-0.2,0.5c-0.1,0.2-0.3,0.4-0.5,0.6c-0.2,0.2-0.5,0.3-0.9,0.5c-0.4,0.1-0.8,0.2-1.2,0.2
					c-1,0-1.9-0.3-2.4-0.9c-0.6-0.6-0.9-1.4-0.9-2.4c0-0.5,0.1-0.9,0.2-1.3c0.1-0.4,0.3-0.8,0.6-1c0.3-0.3,0.6-0.5,1-0.7
					c0.4-0.2,0.8-0.2,1.3-0.2c0.6,0,1.2,0.1,1.6,0.4c0.4,0.3,0.8,0.6,1,1c0.2,0.4,0.3,0.9,0.3,1.3c0,0.4-0.1,0.7-0.4,0.8
					C351.5,322.5,351.1,322.5,350.7,322.5z M347.5,321.6h2.9c0-0.5-0.2-1-0.4-1.2c-0.3-0.3-0.6-0.4-1-0.4c-0.4,0-0.7,0.1-1,0.4
					C347.8,320.7,347.6,321.1,347.5,321.6z"/>
				<path class="st20" d="M357.3,324.5v-0.2c-0.2,0.3-0.4,0.5-0.6,0.6c-0.2,0.2-0.4,0.3-0.7,0.4s-0.5,0.1-0.8,0.1
					c-0.4,0-0.8-0.1-1.1-0.3c-0.3-0.2-0.6-0.4-0.9-0.7c-0.2-0.3-0.4-0.7-0.5-1.1c-0.1-0.4-0.2-0.9-0.2-1.3c0-1,0.3-1.8,0.7-2.4
					s1.2-0.9,2-0.9c0.5,0,0.9,0.1,1.2,0.2s0.6,0.4,0.9,0.7v-2.4c0-0.3,0.1-0.6,0.2-0.8c0.1-0.2,0.3-0.3,0.6-0.3s0.4,0.1,0.6,0.2
					c0.1,0.2,0.2,0.4,0.2,0.7v7.1c0,0.3-0.1,0.5-0.2,0.7c-0.1,0.1-0.3,0.2-0.5,0.2s-0.4-0.1-0.6-0.2
					C357.4,325,357.3,324.8,357.3,324.5z M354.1,322.1c0,0.4,0.1,0.8,0.2,1.1c0.1,0.3,0.3,0.5,0.6,0.7c0.2,0.2,0.5,0.2,0.8,0.2
					c0.3,0,0.6-0.1,0.8-0.2c0.2-0.1,0.4-0.4,0.6-0.7c0.1-0.3,0.2-0.7,0.2-1.1c0-0.4-0.1-0.8-0.2-1.1c-0.1-0.3-0.3-0.5-0.6-0.7
					s-0.5-0.3-0.8-0.3c-0.3,0-0.6,0.1-0.8,0.3c-0.2,0.2-0.4,0.4-0.5,0.7C354.2,321.4,354.1,321.7,354.1,322.1z"/>
				<path class="st20" d="M363.9,317.4v2.5c0.3-0.3,0.6-0.6,0.9-0.7c0.3-0.2,0.7-0.3,1.2-0.3c0.5,0,1,0.1,1.4,0.4
					c0.4,0.3,0.7,0.6,0.9,1.1c0.2,0.5,0.3,1.1,0.3,1.7c0,0.5-0.1,0.9-0.2,1.4c-0.1,0.4-0.3,0.8-0.5,1.1c-0.2,0.3-0.5,0.5-0.9,0.7
					c-0.3,0.2-0.7,0.3-1.1,0.3c-0.3,0-0.5,0-0.7-0.1s-0.4-0.1-0.6-0.2c-0.1-0.1-0.3-0.2-0.4-0.3c-0.1-0.1-0.3-0.3-0.4-0.5v0.2
					c0,0.3-0.1,0.5-0.2,0.7c-0.1,0.2-0.3,0.2-0.6,0.2c-0.2,0-0.4-0.1-0.5-0.2c-0.1-0.2-0.2-0.4-0.2-0.7v-7.1c0-0.3,0.1-0.6,0.2-0.7
					c0.1-0.2,0.3-0.3,0.6-0.3c0.3,0,0.4,0.1,0.6,0.2C363.9,316.8,363.9,317.1,363.9,317.4z M364,322.2c0,0.6,0.1,1.1,0.4,1.5
					c0.3,0.4,0.7,0.5,1.2,0.5c0.4,0,0.8-0.2,1.1-0.5s0.4-0.9,0.4-1.5c0-0.4-0.1-0.8-0.2-1.1c-0.1-0.3-0.3-0.5-0.5-0.7
					c-0.2-0.2-0.5-0.3-0.8-0.3c-0.3,0-0.6,0.1-0.8,0.3c-0.2,0.2-0.4,0.4-0.6,0.7C364.1,321.4,364,321.7,364,322.2z"/>
				<path class="st20" d="M370.9,325.6l0.1-0.4l-2-5c-0.1-0.3-0.2-0.5-0.2-0.6c0-0.1,0-0.3,0.1-0.4c0.1-0.1,0.2-0.2,0.3-0.3
					c0.1-0.1,0.3-0.1,0.4-0.1c0.2,0,0.4,0.1,0.5,0.2s0.2,0.4,0.3,0.6l1.4,4l1.3-3.7c0.1-0.3,0.2-0.5,0.3-0.7
					c0.1-0.2,0.2-0.3,0.3-0.3c0.1-0.1,0.2-0.1,0.4-0.1c0.1,0,0.2,0,0.4,0.1s0.2,0.1,0.3,0.3c0.1,0.1,0.1,0.2,0.1,0.4
					c0,0.1,0,0.2-0.1,0.3c0,0.1-0.1,0.3-0.1,0.4l-2.1,5.5c-0.2,0.5-0.4,0.9-0.5,1.1c-0.2,0.3-0.4,0.5-0.7,0.6
					c-0.3,0.1-0.7,0.2-1.2,0.2c-0.5,0-0.8,0-1.1-0.1s-0.4-0.3-0.4-0.6c0-0.2,0.1-0.3,0.2-0.4c0.1-0.1,0.3-0.1,0.5-0.1
					c0.1,0,0.2,0,0.3,0c0.1,0,0.2,0,0.3,0c0.2,0,0.3,0,0.4-0.1c0.1,0,0.2-0.1,0.3-0.3C370.6,326.1,370.7,325.9,370.9,325.6z"/>
			</g>
			<g>
				<path class="st20" d="M394.3,319h0.4v-0.5c0-0.5,0.1-0.9,0.2-1.2s0.3-0.5,0.6-0.6c0.3-0.1,0.7-0.2,1.3-0.2c1,0,1.4,0.2,1.4,0.7
					c0,0.1,0,0.3-0.1,0.4c-0.1,0.1-0.2,0.2-0.4,0.2c-0.1,0-0.2,0-0.3,0c-0.1,0-0.3,0-0.4,0c-0.3,0-0.5,0.1-0.6,0.3
					c-0.1,0.2-0.1,0.4-0.1,0.7v0.4h0.4c0.6,0,0.9,0.2,0.9,0.6c0,0.3-0.1,0.4-0.3,0.5c-0.2,0.1-0.4,0.1-0.7,0.1h-0.4v4.3
					c0,0.3-0.1,0.6-0.2,0.7s-0.4,0.3-0.6,0.3c-0.2,0-0.4-0.1-0.6-0.3c-0.1-0.2-0.2-0.4-0.2-0.7v-4.3h-0.5c-0.2,0-0.4,0-0.6-0.2
					c-0.1-0.1-0.2-0.3-0.2-0.4C393.5,319.2,393.8,319,394.3,319"/>
				<path class="st20" d="M399.6,323.1v1.4c0,0.3-0.1,0.6-0.2,0.7c-0.2,0.2-0.4,0.3-0.6,0.3s-0.4-0.1-0.6-0.3
					c-0.1-0.2-0.2-0.4-0.2-0.7V320c0-0.7,0.3-1.1,0.8-1.1c0.3,0,0.5,0.1,0.6,0.3c0.1,0.2,0.2,0.4,0.2,0.8c0.2-0.3,0.4-0.6,0.6-0.8
					c0.2-0.2,0.5-0.3,0.8-0.3s0.7,0.1,1,0.3c0.3,0.2,0.5,0.4,0.5,0.7c0,0.2-0.1,0.4-0.2,0.5c-0.1,0.1-0.3,0.2-0.4,0.2
					c-0.1,0-0.2,0-0.4-0.1c-0.2-0.1-0.4-0.1-0.6-0.1c-0.2,0-0.4,0.1-0.6,0.2c-0.1,0.1-0.3,0.3-0.4,0.5c-0.1,0.3-0.1,0.5-0.2,0.9
					C399.6,322.2,399.6,322.6,399.6,323.1"/>
				<path class="st20" d="M407.1,322.5h-3.2c0,0.4,0.1,0.7,0.2,1c0.1,0.3,0.3,0.5,0.6,0.6c0.2,0.1,0.5,0.2,0.8,0.2
					c0.2,0,0.4,0,0.5-0.1c0.2,0,0.3-0.1,0.5-0.2c0.1-0.1,0.3-0.2,0.4-0.3s0.3-0.3,0.5-0.5c0.1-0.1,0.2-0.1,0.4-0.1
					c0.2,0,0.3,0,0.4,0.1c0.1,0.1,0.2,0.2,0.2,0.4c0,0.1-0.1,0.3-0.2,0.5c-0.1,0.2-0.3,0.4-0.5,0.6c-0.2,0.2-0.5,0.3-0.9,0.5
					c-0.4,0.1-0.8,0.2-1.2,0.2c-1,0-1.9-0.3-2.4-0.9c-0.6-0.6-0.9-1.4-0.9-2.4c0-0.5,0.1-0.9,0.2-1.3c0.1-0.4,0.4-0.8,0.6-1
					c0.3-0.3,0.6-0.5,1-0.7c0.4-0.2,0.8-0.2,1.3-0.2c0.6,0,1.2,0.1,1.6,0.4c0.5,0.3,0.8,0.6,1,1c0.2,0.4,0.3,0.9,0.3,1.3
					c0,0.4-0.1,0.7-0.3,0.8C407.8,322.5,407.5,322.5,407.1,322.5 M403.9,321.6h2.9c0-0.5-0.2-1-0.4-1.2c-0.3-0.3-0.6-0.4-1-0.4
					c-0.4,0-0.7,0.1-1,0.4C404.1,320.7,404,321.1,403.9,321.6"/>
				<path class="st20" d="M413.8,322.5h-3.2c0,0.4,0.1,0.7,0.2,1c0.1,0.3,0.3,0.5,0.6,0.6c0.2,0.1,0.5,0.2,0.8,0.2
					c0.2,0,0.4,0,0.5-0.1c0.2,0,0.3-0.1,0.5-0.2c0.2-0.1,0.3-0.2,0.4-0.3c0.1-0.1,0.3-0.3,0.5-0.5c0.1-0.1,0.2-0.1,0.4-0.1
					c0.2,0,0.3,0,0.4,0.1c0.1,0.1,0.1,0.2,0.1,0.4c0,0.1,0,0.3-0.2,0.5c-0.1,0.2-0.3,0.4-0.5,0.6c-0.2,0.2-0.5,0.3-0.9,0.5
					c-0.3,0.1-0.8,0.2-1.2,0.2c-1,0-1.9-0.3-2.4-0.9c-0.6-0.6-0.9-1.4-0.9-2.4c0-0.5,0.1-0.9,0.2-1.3c0.1-0.4,0.4-0.8,0.6-1
					c0.3-0.3,0.6-0.5,1-0.7c0.4-0.2,0.8-0.2,1.3-0.2c0.6,0,1.2,0.1,1.6,0.4c0.4,0.3,0.8,0.6,1,1c0.2,0.4,0.3,0.9,0.3,1.3
					c0,0.4-0.1,0.7-0.4,0.8C414.6,322.5,414.3,322.5,413.8,322.5 M410.7,321.6h2.9c0-0.5-0.2-1-0.5-1.2c-0.3-0.3-0.6-0.4-1-0.4
					c-0.4,0-0.7,0.1-1,0.4C410.9,320.7,410.7,321.1,410.7,321.6"/>
				<path class="st20" d="M417.4,319.8v0.2c0.3-0.4,0.6-0.6,1-0.8c0.3-0.2,0.7-0.3,1.1-0.3c0.5,0,1,0.1,1.4,0.4
					c0.4,0.3,0.8,0.6,1,1.1s0.4,1.1,0.4,1.8c0,0.5-0.1,1-0.2,1.4c-0.1,0.4-0.3,0.8-0.6,1c-0.3,0.3-0.5,0.5-0.9,0.6s-0.7,0.2-1.1,0.2
					c-0.5,0-0.8-0.1-1.2-0.3c-0.3-0.2-0.6-0.5-0.9-0.8v2.4c0,0.7-0.3,1.1-0.8,1.1c-0.3,0-0.5-0.1-0.6-0.3c-0.1-0.2-0.2-0.5-0.2-0.8
					v-7c0-0.3,0.1-0.5,0.2-0.7s0.3-0.2,0.5-0.2c0.2,0,0.4,0.1,0.6,0.2C417.3,319.2,417.4,319.5,417.4,319.8 M420.5,322.1
					c0-0.4-0.1-0.8-0.2-1.1c-0.1-0.3-0.3-0.5-0.5-0.7c-0.2-0.2-0.5-0.3-0.8-0.3c-0.4,0-0.8,0.2-1.1,0.5s-0.5,0.9-0.5,1.6
					c0,0.6,0.1,1.1,0.5,1.5c0.3,0.4,0.7,0.5,1.1,0.5c0.3,0,0.5-0.1,0.8-0.2c0.2-0.2,0.4-0.4,0.6-0.7
					C420.5,322.9,420.5,322.5,420.5,322.1"/>
				<path class="st20" d="M423.8,318.1c-0.2,0-0.4-0.1-0.6-0.2c-0.2-0.1-0.2-0.3-0.2-0.6c0-0.2,0.1-0.4,0.3-0.6
					c0.2-0.1,0.4-0.2,0.6-0.2c0.2,0,0.4,0.1,0.6,0.2c0.2,0.1,0.2,0.3,0.2,0.6c0,0.3-0.1,0.4-0.2,0.6
					C424.2,318,424,318.1,423.8,318.1 M424.6,319.8v4.7c0,0.3-0.1,0.6-0.2,0.7c-0.2,0.2-0.4,0.3-0.6,0.3c-0.2,0-0.4-0.1-0.6-0.3
					c-0.2-0.2-0.2-0.4-0.2-0.7v-4.6c0-0.3,0.1-0.6,0.2-0.7c0.1-0.2,0.3-0.2,0.6-0.2s0.4,0.1,0.6,0.2S424.6,319.5,424.6,319.8"/>
				<path class="st20" d="M429.8,324.7l-1.4-2.4l-0.9,0.8v1.3c0,0.3-0.1,0.5-0.3,0.7c-0.2,0.2-0.4,0.3-0.6,0.3
					c-0.3,0-0.5-0.1-0.6-0.3c-0.1-0.2-0.2-0.4-0.2-0.7v-6.9c0-0.4,0.1-0.6,0.2-0.8c0.1-0.2,0.3-0.3,0.6-0.3c0.3,0,0.4,0.1,0.6,0.3
					c0.2,0.2,0.2,0.4,0.2,0.8v3.9l1.8-1.9c0.2-0.2,0.4-0.4,0.5-0.5c0.1-0.1,0.3-0.1,0.4-0.1c0.2,0,0.4,0.1,0.5,0.2
					c0.1,0.1,0.2,0.3,0.2,0.5c0,0.2-0.2,0.6-0.7,1l-0.9,0.8l1.7,2.6c0.1,0.2,0.2,0.3,0.3,0.4c0.1,0.1,0.1,0.2,0.1,0.3
					c0,0.3-0.1,0.5-0.2,0.6s-0.3,0.2-0.6,0.2c-0.2,0-0.3,0-0.5-0.2C430.2,325.2,430,325,429.8,324.7"/>
				<path class="st20" d="M433.4,325.4c-0.2,0-0.4-0.1-0.6-0.2c-0.2-0.2-0.3-0.4-0.3-0.7c0-0.2,0.1-0.5,0.3-0.6
					c0.2-0.2,0.4-0.3,0.6-0.3s0.5,0.1,0.6,0.3c0.2,0.2,0.3,0.4,0.3,0.6c0,0.3-0.1,0.5-0.3,0.7C433.8,325.4,433.6,325.4,433.4,325.4"
					/>
				<path class="st20" d="M441.4,323.4c0,0.2-0.1,0.4-0.2,0.6c-0.1,0.2-0.3,0.5-0.6,0.7c-0.3,0.2-0.6,0.4-0.9,0.5
					c-0.4,0.1-0.8,0.2-1.3,0.2c-1,0-1.8-0.3-2.4-0.9c-0.6-0.6-0.8-1.4-0.8-2.4c0-0.7,0.1-1.3,0.4-1.8c0.3-0.5,0.6-0.9,1.1-1.2
					c0.5-0.3,1.1-0.4,1.8-0.4c0.4,0,0.8,0.1,1.2,0.2s0.6,0.3,0.9,0.5c0.2,0.2,0.4,0.4,0.6,0.6s0.2,0.4,0.2,0.6s-0.1,0.4-0.2,0.5
					c-0.1,0.1-0.3,0.2-0.5,0.2c-0.1,0-0.3,0-0.3-0.1c-0.1-0.1-0.2-0.2-0.3-0.3c-0.2-0.3-0.4-0.5-0.6-0.7c-0.2-0.1-0.5-0.2-0.8-0.2
					c-0.5,0-0.9,0.2-1.2,0.6c-0.3,0.4-0.4,0.9-0.4,1.5c0,0.3,0,0.6,0.1,0.8s0.2,0.5,0.3,0.6c0.1,0.2,0.3,0.3,0.5,0.4
					c0.2,0.1,0.4,0.1,0.7,0.1c0.3,0,0.6-0.1,0.8-0.2c0.2-0.1,0.4-0.4,0.6-0.7c0.1-0.2,0.2-0.3,0.3-0.4c0.1-0.1,0.3-0.2,0.4-0.2
					c0.2,0,0.4,0.1,0.5,0.2C441.4,323.1,441.4,323.3,441.4,323.4"/>
				<path class="st20" d="M448.4,322.1c0,0.5-0.1,0.9-0.2,1.3c-0.1,0.4-0.4,0.8-0.7,1c-0.3,0.3-0.6,0.5-1,0.7
					c-0.4,0.1-0.8,0.2-1.3,0.2c-0.5,0-0.9-0.1-1.3-0.2c-0.4-0.2-0.7-0.4-1-0.7c-0.3-0.3-0.5-0.6-0.7-1c-0.1-0.4-0.2-0.9-0.2-1.3
					c0-0.5,0.1-0.9,0.2-1.4c0.2-0.4,0.4-0.8,0.7-1c0.3-0.3,0.6-0.5,1-0.7s0.8-0.2,1.3-0.2c0.5,0,0.9,0.1,1.3,0.2
					c0.4,0.2,0.7,0.4,1,0.7c0.3,0.3,0.5,0.6,0.7,1C448.3,321.2,448.4,321.6,448.4,322.1 M446.8,322.1c0-0.7-0.1-1.2-0.4-1.5
					c-0.3-0.4-0.7-0.5-1.2-0.5c-0.3,0-0.6,0.1-0.8,0.3c-0.2,0.2-0.4,0.4-0.6,0.7s-0.2,0.7-0.2,1.1c0,0.4,0.1,0.8,0.2,1.1
					c0.1,0.3,0.3,0.6,0.5,0.7c0.2,0.2,0.5,0.3,0.9,0.3c0.5,0,0.9-0.2,1.2-0.6C446.6,323.3,446.8,322.8,446.8,322.1"/>
				<path class="st20" d="M454.6,322.3v2.1c0,0.3-0.1,0.6-0.2,0.8c-0.2,0.2-0.4,0.3-0.6,0.3s-0.5-0.1-0.6-0.3
					c-0.1-0.2-0.2-0.4-0.2-0.8v-2.6c0-0.4,0-0.7,0-1s-0.1-0.4-0.2-0.5c-0.1-0.1-0.3-0.2-0.6-0.2c-0.5,0-0.9,0.2-1,0.5
					c-0.2,0.4-0.3,0.9-0.3,1.6v2.2c0,0.3-0.1,0.6-0.2,0.8c-0.2,0.2-0.4,0.3-0.6,0.3s-0.5-0.1-0.6-0.3c-0.2-0.2-0.2-0.4-0.2-0.8v-4.6
					c0-0.3,0.1-0.5,0.2-0.7c0.1-0.2,0.3-0.2,0.6-0.2c0.2,0,0.4,0.1,0.6,0.2c0.1,0.1,0.2,0.4,0.2,0.6v0.1c0.3-0.3,0.6-0.6,0.9-0.7
					s0.7-0.2,1.1-0.2c0.4,0,0.8,0.1,1,0.2c0.3,0.2,0.5,0.4,0.7,0.7c0.3-0.3,0.6-0.6,0.9-0.7s0.7-0.2,1-0.2c0.4,0,0.8,0.1,1.1,0.3
					c0.3,0.2,0.6,0.4,0.7,0.8c0.1,0.3,0.2,0.8,0.2,1.4v3.2c0,0.3-0.1,0.6-0.2,0.8c-0.1,0.2-0.4,0.3-0.6,0.3s-0.5-0.1-0.6-0.3
					c-0.2-0.2-0.2-0.4-0.2-0.8v-2.7c0-0.4,0-0.6,0-0.8s-0.1-0.4-0.2-0.5c-0.1-0.1-0.3-0.2-0.6-0.2c-0.2,0-0.4,0.1-0.6,0.2
					s-0.3,0.3-0.5,0.5C454.7,321.1,454.6,321.6,454.6,322.3"/>
			</g>
			<g>
				<path class="st20" d="M379.2,321.8L379.2,321.8L379.2,321.8z"/>
				<path class="st20" d="M379.2,322.3L379.2,322.3c0-0.1,0-0.3-0.1-0.4C379.2,322,379.2,322.1,379.2,322.3z"/>
				<path class="st20" d="M379.8,323.8C379.8,323.8,379.8,323.8,379.8,323.8C379.8,323.8,379.8,323.8,379.8,323.8z"/>
				<path class="st20" d="M379.7,323.7C379.7,323.6,379.7,323.6,379.7,323.7C379.7,323.6,379.7,323.6,379.7,323.7z"/>
				<path class="st20" d="M379.4,322.9c0.1,0.3,0.2,0.5,0.3,0.7C379.6,323.3,379.5,323.1,379.4,322.9L379.4,322.9z"/>
				<path class="st20" d="M385.4,315.5c0.3,0,0.5,0,0.8,0.1l0.1-0.5c0,0-0.7-0.2-1.7-0.1l-0.1-0.3c0.3-0.1,0.5-0.3,0.5-0.6
					c0-0.4-0.3-0.7-0.7-0.7c-0.4,0-0.7,0.3-0.7,0.7c0,0.3,0.2,0.6,0.5,0.6l0.1,0.3c-1,0.1-1.8,0.5-1.8,0.5l0.1,0.4
					c0.6-0.2,1.1-0.3,1.6-0.4S385.1,315.5,385.4,315.5z"/>
				<path class="st20" d="M379.8,318L379.8,318C379.8,317.9,379.8,317.9,379.8,318l-0.1-0.2l-0.3-0.2c0,0-0.5,0.5-0.9,1.3
					c0,0,0,0-0.1-0.1c-0.1-0.1-0.3-0.2-0.5-0.2h0c-0.1,0-0.2,0-0.3-0.1c0.1-0.1,0.1-0.2,0.1-0.3c0-0.2-0.2-0.4-0.4-0.4
					c-0.2,0-0.4,0.2-0.4,0.4s0.2,0.4,0.4,0.4c0,0,0.1,0,0.1,0c0.1,0.1,0.3,0.2,0.5,0.2c0.1,0,0.2,0,0.3,0.1c0.1,0.1,0.1,0.2,0.1,0.3
					l0,0c-0.3,0.7-0.2,1.7-0.2,1.7l0.7,0c0-0.3,0.1-0.9,0.2-1.4C379.3,318.5,379.8,318,379.8,318z"/>
				<path class="st20" d="M391.2,316.1c-0.2,0-0.4,0.2-0.4,0.4c0,0,0,0.1,0,0.1c-0.1,0.1-0.2,0.3-0.2,0.5c0,0.1,0,0.2-0.1,0.3
					c-0.1,0-0.1,0.1-0.2,0.1c-0.5-0.7-1.1-1.1-1.1-1.1l-0.5,0.5c0.4,0.3,0.7,0.7,1.1,1.2c0.3,0.4,0.5,0.8,0.7,1.3l0.6-0.3
					c0,0-0.3-0.7-0.7-1.4c0.1,0,0.1-0.1,0.2-0.1c0.1-0.1,0.2-0.3,0.2-0.5c0-0.1,0-0.2,0.1-0.3c0.1,0,0.2,0.1,0.3,0.1
					c0.2,0,0.4-0.2,0.4-0.4C391.6,316.3,391.4,316.1,391.2,316.1z"/>
				<path class="st20" d="M389.5,321.8c-0.9,0.4-2.3,1-4.2,1.3c-0.8,0.1-1.5,0.1-2.1,0.1c-0.9,0-1.6-0.1-2.2-0.1
					c-0.7-0.1-1.2-0.2-1.5-0.3c0.1,0.2,0.2,0.5,0.3,0.7c0,0,0,0,0,0c0,0,0,0.1,0,0.1c0,0,0,0,0,0.1c0,0,0,0,0,0
					c0.2,0.4,0.4,0.7,0.7,1c0.9,1,1.8,1.1,1.8,1.1h0h0c0,0,0.8,0.3,2.1,0.3c1.2,0,2.4-0.3,3.6-0.7c0.8-0.4,1.6-1.1,2-1.7
					c0.3-0.5,0.5-0.9,0.7-1.4c0.1-0.3,0.1-0.7,0.1-1.1C390.4,321.4,390,321.6,389.5,321.8z"/>
				<path class="st20" d="M380,318.2c0,0-0.4,0.6-0.7,1.4c-0.2,0.6-0.2,1.5-0.2,1.5l0,0c0,0.2,0,0.4,0,0.6v0c0,0,0,0,0,0.1
					c0,0.1,0,0.3,0.1,0.4c0.4,0.1,3,0.7,6,0.3c1.8-0.3,3.2-0.8,4.1-1.2c0.7-0.3,1.1-0.6,1.3-0.8c-0.2-0.6-0.6-1.6-1.1-2.3
					c-1.3-1.8-2.6-2.3-3.3-2.4c-0.3,0-0.5-0.1-0.8-0.1c-0.3,0-0.6,0-1.1,0.1c-0.5,0-1,0.2-1.6,0.4c-0.8,0.3-1.6,0.7-2.2,1.3l0,0
					C380.4,317.7,380.3,317.9,380,318.2z M387.7,317.7c0.6,0,1.1,0.5,1.1,1.1s-0.5,1.1-1.1,1.1c-0.6,0-1.1-0.5-1.1-1.1
					S387.1,317.7,387.7,317.7z M382.6,317.7c1,0,1.8,0.8,1.8,1.8s-0.8,1.8-1.8,1.8c-1,0-1.8-0.8-1.8-1.8
					C380.8,318.5,381.6,317.7,382.6,317.7z"/>
			</g>
		</g>
	</g>
</g>
</svg>
