<?xml version="1.0" encoding="utf-8"?>
<!-- Generator: Adobe Illustrator 23.0.3, SVG Export Plug-In . SVG Version: 6.00 Build 0)  -->
<svg version="1.1" id="Layer_1" xmlns="http://www.w3.org/2000/svg" xmlns:xlink="http://www.w3.org/1999/xlink" x="0px" y="0px"
	 viewBox="0 0 274.9 500" style="enable-background:new 0 0 274.9 500;" xml:space="preserve">
<style type="text/css">
	.st0{display:none;}
	.st1{display:inline;fill-rule:evenodd;clip-rule:evenodd;fill:#F9F3EA;}
	.st2{display:inline;opacity:0.3;fill:#191919;enable-background:new    ;}
	.st3{display:inline;}
	.st4{fill:#CE9411;}
	.st5{fill:#EFBB3A;}
	.st6{fill:#FFD473;}
	.st7{fill:#A82642;}
	.st8{fill:#D33346;}
	.st9{fill:#E54C66;}
	.st10{fill:#9B1B31;}
	.st11{fill:#53A2D3;}
	.st12{fill:#2586B7;}
	.st13{fill:#7ACCF4;}
	.st14{fill:#58871B;}
	.st15{fill:#71AA2E;}
	.st16{fill:#AADD68;}
	.st17{fill:#E2D7DA;}
	.st18{fill:#F7EDEF;}
	.st19{fill:#FFFFFF;}
	.st20{fill:#191919;}
</style>
<g id="BACKGROUND" class="st0">
	<rect x="-112.5" y="0" class="st1" width="500" height="500"/>
</g>
<g id="OBJECTS">
	
		<image style="overflow:visible;opacity:0.32;" width="275" height="495" xlink:href="3DBCB447.png"  transform="matrix(1 0 0 1 -5.5039 8.4961)">
	</image>
	<g>
		<g>
			<g class="st0">
				<polygon class="st2" points="156.3,405.4 201.1,398.8 194.3,391 141.7,385.8 				"/>
				<g class="st3">
					<polygon class="st4" points="176.7,393.3 156.3,405.4 156.3,380 176.7,367.9 					"/>
					<polygon class="st5" points="156.3,405.4 116.5,392.7 116.5,367.4 156.3,380 					"/>
					<polygon class="st6" points="156.3,380 116.5,367.4 137,355.3 176.7,367.9 					"/>
				</g>
				<g class="st3">
					<rect x="125.5" y="363.9" class="st4" width="11.6" height="3.5"/>
					<g>
						<path class="st4" d="M137.1,367.4c0,1.4-2.6,2.6-5.8,2.6c-3.2,0-5.8-1.2-5.8-2.6s2.6-2.6,5.8-2.6S137.1,365.9,137.1,367.4z"/>
						<path class="st6" d="M137.1,363.9c0,1.4-2.6,2.6-5.8,2.6c-3.2,0-5.8-1.2-5.8-2.6c0-1.4,2.6-2.6,5.8-2.6
							S137.1,362.4,137.1,363.9z"/>
					</g>
				</g>
				<g class="st3">
					<rect x="135.9" y="357.3" class="st4" width="11.6" height="3.5"/>
					<g>
						<path class="st4" d="M147.5,360.8c0,1.4-2.6,2.6-5.8,2.6c-3.2,0-5.8-1.2-5.8-2.6c0-1.4,2.6-2.6,5.8-2.6
							S147.5,359.4,147.5,360.8z"/>
						<path class="st6" d="M147.5,357.3c0,1.4-2.6,2.6-5.8,2.6c-3.2,0-5.8-1.2-5.8-2.6c0-1.4,2.6-2.6,5.8-2.6
							S147.5,355.9,147.5,357.3z"/>
					</g>
				</g>
				<g class="st3">
					<rect x="146.7" y="370.8" class="st4" width="11.6" height="3.5"/>
					<g>
						<path class="st4" d="M158.3,374.3c0,1.4-2.6,2.6-5.8,2.6c-3.2,0-5.8-1.2-5.8-2.6c0-1.4,2.6-2.6,5.8-2.6
							C155.7,371.7,158.3,372.9,158.3,374.3z"/>
						<path class="st6" d="M158.3,370.8c0,1.4-2.6,2.6-5.8,2.6c-3.2,0-5.8-1.2-5.8-2.6c0-1.4,2.6-2.6,5.8-2.6
							C155.7,368.2,158.3,369.4,158.3,370.8z"/>
					</g>
				</g>
				<g class="st3">
					<rect x="156.8" y="364.7" class="st4" width="11.6" height="3.5"/>
					<g>
						<path class="st4" d="M168.4,368.2c0,1.4-2.6,2.6-5.8,2.6c-3.2,0-5.8-1.2-5.8-2.6c0-1.4,2.6-2.6,5.8-2.6
							C165.8,365.6,168.4,366.8,168.4,368.2z"/>
						<path class="st6" d="M168.4,364.7c0,1.4-2.6,2.6-5.8,2.6c-3.2,0-5.8-1.2-5.8-2.6c0-1.4,2.6-2.6,5.8-2.6
							C165.8,362.1,168.4,363.3,168.4,364.7z"/>
					</g>
				</g>
			</g>
			<g class="st0">
				<polygon class="st2" points="-55.7,367.9 2.1,386.4 31.1,372.8 4.5,368.5 				"/>
				<g class="st3">
					<polygon class="st7" points="4.5,368.5 -16,380.6 -16,355.2 4.5,343.1 					"/>
					<polygon class="st8" points="-16,380.6 -55.7,367.9 -55.7,342.6 -16,355.2 					"/>
					<polygon class="st9" points="-16,355.2 -55.7,342.6 -35.3,330.5 4.5,343.1 					"/>
				</g>
				<g class="st3">
					<rect x="-46.8" y="339.1" class="st10" width="11.6" height="3.5"/>
					<g>
						<path class="st10" d="M-35.2,342.6c0,1.4-2.6,2.6-5.8,2.6c-3.2,0-5.8-1.2-5.8-2.6c0-1.4,2.6-2.6,5.8-2.6
							C-37.8,340-35.2,341.1-35.2,342.6z"/>
						<path class="st9" d="M-35.2,339.1c0,1.4-2.6,2.6-5.8,2.6c-3.2,0-5.8-1.2-5.8-2.6c0-1.4,2.6-2.6,5.8-2.6
							C-37.8,336.5-35.2,337.6-35.2,339.1z"/>
					</g>
				</g>
				<g class="st3">
					<rect x="-36.4" y="332.5" class="st10" width="11.6" height="3.5"/>
					<g>
						<path class="st10" d="M-24.8,336c0,1.4-2.6,2.6-5.8,2.6c-3.2,0-5.8-1.2-5.8-2.6c0-1.4,2.6-2.6,5.8-2.6
							C-27.4,333.4-24.8,334.6-24.8,336z"/>
						<path class="st9" d="M-24.8,332.5c0,1.4-2.6,2.6-5.8,2.6c-3.2,0-5.8-1.2-5.8-2.6c0-1.4,2.6-2.6,5.8-2.6
							S-24.8,331.1-24.8,332.5z"/>
					</g>
				</g>
				<g class="st3">
					<rect x="-25.6" y="346" class="st10" width="11.6" height="3.5"/>
					<g>
						<path class="st10" d="M-14,349.5c0,1.4-2.6,2.6-5.8,2.6c-3.2,0-5.8-1.2-5.8-2.6c0-1.4,2.6-2.6,5.8-2.6
							C-16.6,346.9-14,348.1-14,349.5z"/>
						<path class="st9" d="M-14,346c0,1.4-2.6,2.6-5.8,2.6c-3.2,0-5.8-1.2-5.8-2.6c0-1.4,2.6-2.6,5.8-2.6
							C-16.6,343.4-14,344.6-14,346z"/>
					</g>
				</g>
				<g class="st3">
					<rect x="-15.5" y="339.9" class="st10" width="11.6" height="3.5"/>
					<g>
						<path class="st10" d="M-3.9,343.4c0,1.4-2.6,2.6-5.8,2.6c-3.2,0-5.8-1.2-5.8-2.6c0-1.4,2.6-2.6,5.8-2.6S-3.9,342-3.9,343.4z"
							/>
						<path class="st9" d="M-3.9,339.9c0,1.4-2.6,2.6-5.8,2.6c-3.2,0-5.8-1.2-5.8-2.6c0-1.4,2.6-2.6,5.8-2.6
							C-6.5,337.3-3.9,338.5-3.9,339.9z"/>
					</g>
				</g>
			</g>
			<g class="st0">
				<path class="st2" d="M57.7,400.5l47.5,3.3l-6.7,12.4l-57.6,3.3L57.7,400.5z"/>
				<g class="st3">
					<polygon class="st11" points="20.5,407.3 40.9,419.5 40.9,394.1 20.5,382 					"/>
					<polygon class="st12" points="40.9,419.5 80.7,406.8 80.7,381.4 40.9,394.1 					"/>
					<polygon class="st13" points="40.9,394.1 80.7,381.4 60.2,369.3 20.5,382 					"/>
				</g>
				<g class="st3">
					<rect x="60.1" y="378" class="st12" width="11.6" height="3.5"/>
					<g>
						<path class="st12" d="M60.1,381.5c0,1.4,2.6,2.6,5.8,2.6c3.2,0,5.8-1.2,5.8-2.6c0-1.4-2.6-2.6-5.8-2.6
							C62.7,378.9,60.1,380,60.1,381.5z"/>
						<path class="st13" d="M60.1,378c0,1.4,2.6,2.6,5.8,2.6c3.2,0,5.8-1.2,5.8-2.6c0-1.4-2.6-2.6-5.8-2.6
							C62.7,375.4,60.1,376.5,60.1,378z"/>
					</g>
				</g>
				<g class="st3">
					<rect x="49.7" y="371.4" class="st12" width="11.6" height="3.5"/>
					<g>
						<path class="st12" d="M49.7,374.9c0,1.4,2.6,2.6,5.8,2.6c3.2,0,5.8-1.2,5.8-2.6c0-1.4-2.6-2.6-5.8-2.6
							C52.3,372.3,49.7,373.5,49.7,374.9z"/>
						<path class="st13" d="M49.7,371.4c0,1.4,2.6,2.6,5.8,2.6c3.2,0,5.8-1.2,5.8-2.6c0-1.4-2.6-2.6-5.8-2.6
							C52.3,368.8,49.7,370,49.7,371.4z"/>
					</g>
				</g>
				<g class="st3">
					<rect x="38.9" y="384.9" class="st12" width="11.6" height="3.5"/>
					<g>
						<path class="st12" d="M38.9,388.4c0,1.4,2.6,2.6,5.8,2.6c3.2,0,5.8-1.2,5.8-2.6c0-1.4-2.6-2.6-5.8-2.6
							C41.5,385.8,38.9,387,38.9,388.4z"/>
						<path class="st13" d="M38.9,384.9c0,1.4,2.6,2.6,5.8,2.6c3.2,0,5.8-1.2,5.8-2.6c0-1.4-2.6-2.6-5.8-2.6
							C41.5,382.3,38.9,383.5,38.9,384.9z"/>
					</g>
				</g>
				<g class="st3">
					<rect x="28.8" y="378.8" class="st12" width="11.6" height="3.5"/>
					<g>
						<path class="st12" d="M28.8,382.3c0,1.4,2.6,2.6,5.8,2.6c3.2,0,5.8-1.2,5.8-2.6c0-1.4-2.6-2.6-5.8-2.6
							C31.4,379.7,28.8,380.9,28.8,382.3z"/>
						<path class="st13" d="M28.8,378.8c0,1.4,2.6,2.6,5.8,2.6c3.2,0,5.8-1.2,5.8-2.6c0-1.4-2.6-2.6-5.8-2.6
							C31.4,376.2,28.8,377.4,28.8,378.8z"/>
					</g>
				</g>
			</g>
			<g class="st0">
				<path class="st2" d="M250,393.9l47.5,3.3l-6.7,12.4l-57.6,3.3L250,393.9z"/>
				<g class="st3">
					<polygon class="st8" points="213.2,400.8 233.6,412.9 233.6,387.5 213.2,375.4 					"/>
					<polygon class="st7" points="233.6,412.9 273.4,400.2 273.4,374.9 233.6,387.5 					"/>
					<polygon class="st9" points="233.6,387.5 273.4,374.9 252.9,362.8 213.2,375.4 					"/>
				</g>
				<g class="st3">
					<rect x="252.8" y="371.4" class="st10" width="11.6" height="3.5"/>
					<g>
						<path class="st10" d="M252.8,374.9c0,1.4,2.6,2.6,5.8,2.6c3.2,0,5.8-1.2,5.8-2.6c0-1.4-2.6-2.6-5.8-2.6
							C255.4,372.3,252.8,373.4,252.8,374.9z"/>
						<path class="st9" d="M252.8,371.4c0,1.4,2.6,2.6,5.8,2.6c3.2,0,5.8-1.2,5.8-2.6c0-1.4-2.6-2.6-5.8-2.6
							C255.4,368.8,252.8,369.9,252.8,371.4z"/>
					</g>
				</g>
				<g class="st3">
					<rect x="242.4" y="364.8" class="st10" width="11.6" height="3.5"/>
					<g>
						<path class="st10" d="M242.4,368.3c0,1.4,2.6,2.6,5.8,2.6c3.2,0,5.8-1.2,5.8-2.6s-2.6-2.6-5.8-2.6
							C245,365.7,242.4,366.9,242.4,368.3z"/>
						<path class="st9" d="M242.4,364.8c0,1.4,2.6,2.6,5.8,2.6c3.2,0,5.8-1.2,5.8-2.6c0-1.4-2.6-2.6-5.8-2.6
							C245,362.2,242.4,363.4,242.4,364.8z"/>
					</g>
				</g>
				<g class="st3">
					<rect x="231.6" y="378.3" class="st10" width="11.6" height="3.5"/>
					<g>
						<path class="st10" d="M231.6,381.8c0,1.4,2.6,2.6,5.8,2.6c3.2,0,5.8-1.2,5.8-2.6s-2.6-2.6-5.8-2.6
							C234.2,379.2,231.6,380.4,231.6,381.8z"/>
						<path class="st9" d="M231.6,378.3c0,1.4,2.6,2.6,5.8,2.6c3.2,0,5.8-1.2,5.8-2.6c0-1.4-2.6-2.6-5.8-2.6
							C234.2,375.7,231.6,376.9,231.6,378.3z"/>
					</g>
				</g>
				<g class="st3">
					<rect x="221.5" y="372.2" class="st10" width="11.6" height="3.5"/>
					<g>
						<path class="st10" d="M221.5,375.7c0,1.4,2.6,2.6,5.8,2.6c3.2,0,5.8-1.2,5.8-2.6c0-1.4-2.6-2.6-5.8-2.6
							C224.1,373.1,221.5,374.3,221.5,375.7z"/>
						<path class="st9" d="M221.5,372.2c0,1.4,2.6,2.6,5.8,2.6c3.2,0,5.8-1.2,5.8-2.6c0-1.4-2.6-2.6-5.8-2.6
							C224.1,369.6,221.5,370.8,221.5,372.2z"/>
					</g>
				</g>
			</g>
			<g>
				<g>
					<g>
						<polygon class="st12" points="113.2,423.6 77.7,444.6 77.7,400.7 113.2,379.7 						"/>
						<polygon class="st11" points="77.7,444.6 8.8,422.7 8.8,378.7 77.7,400.7 						"/>
						<polygon class="st13" points="77.7,400.7 8.8,378.7 44.2,357.7 113.2,379.7 						"/>
					</g>
					<g>
						<rect x="24.3" y="372.7" class="st12" width="20.1" height="6"/>
						<g>
							<path class="st12" d="M44.4,378.7c0,2.5-4.5,4.5-10.1,4.5c-5.6,0-10.1-2-10.1-4.5s4.5-4.5,10.1-4.5
								C39.9,374.2,44.4,376.2,44.4,378.7z"/>
							<path class="st13" d="M44.4,372.7c0,2.5-4.5,4.5-10.1,4.5c-5.6,0-10.1-2-10.1-4.5s4.5-4.5,10.1-4.5
								C39.9,368.2,44.4,370.2,44.4,372.7z"/>
						</g>
					</g>
					<g>
						<rect x="42.4" y="361.4" class="st12" width="20.1" height="6"/>
						<g>
							<path class="st12" d="M62.5,367.4c0,2.5-4.5,4.5-10.1,4.5c-5.6,0-10.1-2-10.1-4.5s4.5-4.5,10.1-4.5S62.5,364.9,62.5,367.4z"
								/>
							<path class="st13" d="M62.5,361.4c0,2.5-4.5,4.5-10.1,4.5c-5.6,0-10.1-2-10.1-4.5s4.5-4.5,10.1-4.5S62.5,358.9,62.5,361.4z"
								/>
						</g>
					</g>
					<g>
						<rect x="61.1" y="384.7" class="st12" width="20.1" height="6"/>
						<g>
							<path class="st12" d="M81.2,390.8c0,2.5-4.5,4.5-10.1,4.5c-5.6,0-10.1-2-10.1-4.5s4.5-4.5,10.1-4.5
								C76.7,386.2,81.2,388.3,81.2,390.8z"/>
							<path class="st13" d="M81.2,384.7c0,2.5-4.5,4.5-10.1,4.5c-5.6,0-10.1-2-10.1-4.5s4.5-4.5,10.1-4.5
								C76.7,380.2,81.2,382.2,81.2,384.7z"/>
						</g>
					</g>
					<g>
						<rect x="78.5" y="374.2" class="st12" width="20.1" height="6"/>
						<g>
							<path class="st12" d="M98.6,380.2c0,2.5-4.5,4.5-10.1,4.5c-5.6,0-10.1-2-10.1-4.5s4.5-4.5,10.1-4.5
								C94.1,375.7,98.6,377.7,98.6,380.2z"/>
							<path class="st13" d="M98.6,374.2c0,2.5-4.5,4.5-10.1,4.5c-5.6,0-10.1-2-10.1-4.5s4.5-4.5,10.1-4.5
								C94.1,369.6,98.6,371.7,98.6,374.2z"/>
						</g>
					</g>
				</g>
				<g>
					<g>
						<polygon class="st7" points="182.1,445.6 146.6,466.6 146.6,422.7 182.1,401.7 						"/>
						<polygon class="st8" points="146.6,466.6 77.7,444.7 77.7,400.7 146.6,422.7 						"/>
						<polygon class="st9" points="146.6,422.7 77.7,400.7 113.2,379.7 182.1,401.7 						"/>
					</g>
					<g>
						<rect x="93.2" y="394.7" class="st10" width="20.1" height="6"/>
						<g>
							<path class="st10" d="M113.3,400.7c0,2.5-4.5,4.5-10.1,4.5c-5.6,0-10.1-2-10.1-4.5s4.5-4.5,10.1-4.5
								C108.8,396.2,113.3,398.2,113.3,400.7z"/>
							<path class="st9" d="M113.3,394.7c0,2.5-4.5,4.5-10.1,4.5c-5.6,0-10.1-2-10.1-4.5s4.5-4.5,10.1-4.5
								C108.8,390.2,113.3,392.2,113.3,394.7z"/>
						</g>
					</g>
					<g>
						<rect x="111.3" y="383.4" class="st10" width="20.1" height="6"/>
						<g>
							<path class="st10" d="M131.4,389.4c0,2.5-4.5,4.5-10.1,4.5c-5.6,0-10.1-2-10.1-4.5s4.5-4.5,10.1-4.5
								C126.9,384.9,131.4,386.9,131.4,389.4z"/>
							<path class="st9" d="M131.4,383.4c0,2.5-4.5,4.5-10.1,4.5c-5.6,0-10.1-2-10.1-4.5s4.5-4.5,10.1-4.5
								C126.9,378.9,131.4,380.9,131.4,383.4z"/>
						</g>
					</g>
					<g>
						<rect x="130" y="406.7" class="st10" width="20.1" height="6"/>
						<g>
							<path class="st10" d="M150.1,412.8c0,2.5-4.5,4.5-10.1,4.5c-5.6,0-10.1-2-10.1-4.5s4.5-4.5,10.1-4.5S150.1,410.3,150.1,412.8
								z"/>
							<path class="st9" d="M150.1,406.7c0,2.5-4.5,4.5-10.1,4.5c-5.6,0-10.1-2-10.1-4.5s4.5-4.5,10.1-4.5S150.1,404.2,150.1,406.7z
								"/>
						</g>
					</g>
					<g>
						<rect x="147.4" y="396.2" class="st10" width="20.1" height="6"/>
						<g>
							<path class="st10" d="M167.6,402.2c0,2.5-4.5,4.5-10.1,4.5c-5.6,0-10.1-2-10.1-4.5s4.5-4.5,10.1-4.5
								C163.1,397.7,167.6,399.7,167.6,402.2z"/>
							<path class="st9" d="M167.6,396.2c0,2.5-4.5,4.5-10.1,4.5c-5.6,0-10.1-2-10.1-4.5s4.5-4.5,10.1-4.5
								C163.1,391.7,167.6,393.7,167.6,396.2z"/>
						</g>
					</g>
				</g>
				<g>
					<g>
						<polygon class="st7" points="146.9,390.3 111.4,411.4 111.4,367.4 146.9,346.4 						"/>
						<polygon class="st8" points="111.4,411.4 42.5,389.4 42.5,345.4 111.4,367.4 						"/>
						<polygon class="st9" points="111.4,367.4 42.5,345.4 78,324.4 146.9,346.4 						"/>
					</g>
					<g>
						<rect x="58" y="339.4" class="st10" width="20.1" height="6"/>
						<g>
							<path class="st10" d="M78.1,345.4c0,2.5-4.5,4.5-10.1,4.5c-5.6,0-10.1-2-10.1-4.5s4.5-4.5,10.1-4.5
								C73.6,340.9,78.1,343,78.1,345.4z"/>
							<path class="st9" d="M78.1,339.4c0,2.5-4.5,4.5-10.1,4.5c-5.6,0-10.1-2-10.1-4.5s4.5-4.5,10.1-4.5
								C73.6,334.9,78.1,336.9,78.1,339.4z"/>
						</g>
					</g>
					<g>
						<rect x="76.1" y="328.1" class="st10" width="20.1" height="6"/>
						<g>
							<path class="st10" d="M96.3,334.1c0,2.5-4.5,4.5-10.1,4.5c-5.6,0-10.1-2-10.1-4.5s4.5-4.5,10.1-4.5S96.3,331.6,96.3,334.1z"
								/>
							<path class="st9" d="M96.3,328.1c0,2.5-4.5,4.5-10.1,4.5c-5.6,0-10.1-2-10.1-4.5s4.5-4.5,10.1-4.5
								C91.7,323.5,96.3,325.6,96.3,328.1z"/>
						</g>
					</g>
					<g>
						<rect x="94.8" y="351.4" class="st10" width="20.1" height="6"/>
						<g>
							<path class="st10" d="M114.9,357.5c0,2.5-4.5,4.5-10.1,4.5c-5.6,0-10.1-2-10.1-4.5s4.5-4.5,10.1-4.5S114.9,355,114.9,357.5z"
								/>
							<path class="st9" d="M114.9,351.4c0,2.5-4.5,4.5-10.1,4.5c-5.6,0-10.1-2-10.1-4.5s4.5-4.5,10.1-4.5
								C110.4,346.9,114.9,348.9,114.9,351.4z"/>
						</g>
					</g>
					<g>
						<rect x="112.2" y="340.9" class="st10" width="20.1" height="6"/>
						<g>
							<path class="st10" d="M132.4,346.9c0,2.5-4.5,4.5-10.1,4.5c-5.6,0-10.1-2-10.1-4.5s4.5-4.5,10.1-4.5
								C127.9,342.4,132.4,344.4,132.4,346.9z"/>
							<path class="st9" d="M132.4,340.9c0,2.5-4.5,4.5-10.1,4.5c-5.6,0-10.1-2-10.1-4.5s4.5-4.5,10.1-4.5
								C127.9,336.4,132.4,338.4,132.4,340.9z"/>
						</g>
					</g>
				</g>
				<g>
					<g>
						<polygon class="st4" points="146.9,347.1 111.4,368.1 111.4,324.2 146.9,303.2 						"/>
						<polygon class="st5" points="111.4,368.1 42.5,346.2 42.5,302.2 111.4,324.2 						"/>
						<polygon class="st6" points="111.4,324.2 42.5,302.2 78,281.2 146.9,303.2 						"/>
					</g>
					<g>
						<rect x="58" y="296.2" class="st4" width="20.1" height="6"/>
						<g>
							<path class="st4" d="M78.1,302.2c0,2.5-4.5,4.5-10.1,4.5c-5.6,0-10.1-2-10.1-4.5s4.5-4.5,10.1-4.5
								C73.6,297.7,78.1,299.7,78.1,302.2z"/>
							<path class="st6" d="M78.1,296.2c0,2.5-4.5,4.5-10.1,4.5c-5.6,0-10.1-2-10.1-4.5s4.5-4.5,10.1-4.5
								C73.6,291.6,78.1,293.7,78.1,296.2z"/>
						</g>
					</g>
					<g>
						<rect x="76.1" y="284.9" class="st4" width="20.1" height="6"/>
						<g>
							<path class="st4" d="M96.3,290.9c0,2.5-4.5,4.5-10.1,4.5c-5.6,0-10.1-2-10.1-4.5s4.5-4.5,10.1-4.5
								C91.7,286.4,96.3,288.4,96.3,290.9z"/>
							<path class="st6" d="M96.3,284.9c0,2.5-4.5,4.5-10.1,4.5c-5.6,0-10.1-2-10.1-4.5s4.5-4.5,10.1-4.5
								C91.7,280.3,96.3,282.4,96.3,284.9z"/>
						</g>
					</g>
					<g>
						<rect x="94.8" y="308.2" class="st4" width="20.1" height="6"/>
						<g>
							<path class="st4" d="M114.9,314.3c0,2.5-4.5,4.5-10.1,4.5c-5.6,0-10.1-2-10.1-4.5s4.5-4.5,10.1-4.5
								C110.4,309.7,114.9,311.8,114.9,314.3z"/>
							<path class="st6" d="M114.9,308.2c0,2.5-4.5,4.5-10.1,4.5c-5.6,0-10.1-2-10.1-4.5s4.5-4.5,10.1-4.5
								C110.4,303.7,114.9,305.7,114.9,308.2z"/>
						</g>
					</g>
					<g>
						<rect x="112.2" y="297.7" class="st4" width="20.1" height="6"/>
						<g>
							<path class="st4" d="M132.4,303.7c0,2.5-4.5,4.5-10.1,4.5c-5.6,0-10.1-2-10.1-4.5s4.5-4.5,10.1-4.5
								C127.9,299.2,132.4,301.2,132.4,303.7z"/>
							<path class="st6" d="M132.4,297.7c0,2.5-4.5,4.5-10.1,4.5c-5.6,0-10.1-2-10.1-4.5s4.5-4.5,10.1-4.5
								C127.9,293.1,132.4,295.2,132.4,297.7z"/>
						</g>
					</g>
				</g>
				<g>
					<g>
						<polygon class="st12" points="146.9,303.3 111.5,324.3 111.5,280.4 146.9,259.4 						"/>
						<polygon class="st11" points="111.5,324.3 42.6,302.3 42.6,258.4 111.5,280.4 						"/>
						<polygon class="st13" points="111.5,280.4 42.6,258.4 78,237.4 146.9,259.4 						"/>
					</g>
					<g>
						<rect x="58.1" y="252.3" class="st12" width="20.1" height="6.1"/>
						<g>
							<path class="st12" d="M78.2,258.4c0,2.5-4.5,4.5-10.1,4.5c-5.6,0-10.1-2-10.1-4.5s4.5-4.5,10.1-4.5
								C73.7,253.9,78.2,255.9,78.2,258.4z"/>
							<path class="st13" d="M78.2,252.3c0,2.5-4.5,4.5-10.1,4.5c-5.6,0-10.1-2-10.1-4.5s4.5-4.5,10.1-4.5
								C73.7,247.8,78.2,249.8,78.2,252.3z"/>
						</g>
					</g>
					<g>
						<rect x="76.2" y="241" class="st12" width="20.1" height="6.1"/>
						<g>
							<path class="st12" d="M96.3,247.1c0,2.5-4.5,4.5-10.1,4.5c-5.6,0-10.1-2-10.1-4.5s4.5-4.5,10.1-4.5S96.3,244.6,96.3,247.1z"
								/>
							<path class="st13" d="M96.3,241c0,2.5-4.5,4.5-10.1,4.5c-5.6,0-10.1-2-10.1-4.5s4.5-4.5,10.1-4.5
								C91.8,236.5,96.3,238.5,96.3,241z"/>
						</g>
					</g>
					<g>
						<rect x="94.8" y="264.4" class="st12" width="20.1" height="6"/>
						<g>
							<path class="st12" d="M115,270.4c0,2.5-4.5,4.5-10.1,4.5c-5.6,0-10.1-2-10.1-4.5s4.5-4.5,10.1-4.5
								C110.5,265.9,115,267.9,115,270.4z"/>
							<path class="st13" d="M115,264.4c0,2.5-4.5,4.5-10.1,4.5c-5.6,0-10.1-2-10.1-4.5s4.5-4.5,10.1-4.5S115,261.9,115,264.4z"/>
						</g>
					</g>
					<g>
						<rect x="112.3" y="253.8" class="st12" width="20.1" height="6"/>
						<g>
							<path class="st12" d="M132.4,259.9c0,2.5-4.5,4.5-10.1,4.5c-5.6,0-10.1-2-10.1-4.5s4.5-4.5,10.1-4.5
								C127.9,255.4,132.4,257.4,132.4,259.9z"/>
							<path class="st13" d="M132.4,253.8c0,2.5-4.5,4.5-10.1,4.5c-5.6,0-10.1-2-10.1-4.5c0-2.5,4.5-4.5,10.1-4.5
								C127.9,249.3,132.4,251.3,132.4,253.8z"/>
						</g>
					</g>
				</g>
				<g>
					<g>
						<polygon class="st14" points="147,259.4 111.6,280.4 111.6,236.4 147,215.5 						"/>
						<polygon class="st15" points="111.6,280.4 42.7,258.4 42.7,214.5 111.6,236.4 						"/>
						<polygon class="st16" points="111.6,236.4 42.7,214.5 78.1,193.5 147,215.5 						"/>
					</g>
					<g>
						<rect x="58.2" y="208.4" class="st14" width="20.1" height="6.1"/>
						<g>
							<path class="st14" d="M78.3,214.5c0,2.5-4.5,4.5-10.1,4.5c-5.6,0-10.1-2-10.1-4.5s4.5-4.5,10.1-4.5
								C73.8,210,78.3,212,78.3,214.5z"/>
							<path class="st16" d="M78.3,208.4c0,2.5-4.5,4.5-10.1,4.5c-5.6,0-10.1-2-10.1-4.5s4.5-4.5,10.1-4.5
								C73.8,203.9,78.3,205.9,78.3,208.4z"/>
						</g>
					</g>
					<g>
						<rect x="76.3" y="197.1" class="st14" width="20.1" height="6.1"/>
						<g>
							<path class="st14" d="M96.4,203.2c0,2.5-4.5,4.5-10.1,4.5c-5.6,0-10.1-2-10.1-4.5s4.5-4.5,10.1-4.5S96.4,200.7,96.4,203.2z"
								/>
							<path class="st16" d="M96.4,197.1c0,2.5-4.5,4.5-10.1,4.5c-5.6,0-10.1-2-10.1-4.5s4.5-4.5,10.1-4.5S96.4,194.6,96.4,197.1z"
								/>
						</g>
					</g>
					<g>
						<rect x="94.9" y="220.5" class="st14" width="20.1" height="6.1"/>
						<g>
							<path class="st14" d="M115.1,226.5c0,2.5-4.5,4.5-10.1,4.5c-5.6,0-10.1-2-10.1-4.5s4.5-4.5,10.1-4.5
								C110.6,222,115.1,224,115.1,226.5z"/>
							<path class="st16" d="M115.1,220.5c0,2.5-4.5,4.5-10.1,4.5c-5.6,0-10.1-2-10.1-4.5s4.5-4.5,10.1-4.5S115.1,218,115.1,220.5z"
								/>
						</g>
					</g>
					<g>
						<rect x="112.4" y="209.9" class="st14" width="20.1" height="6.1"/>
						<g>
							<path class="st14" d="M132.5,216c0,2.5-4.5,4.5-10.1,4.5c-5.6,0-10.1-2-10.1-4.5s4.5-4.5,10.1-4.5
								C128,211.5,132.5,213.5,132.5,216z"/>
							<path class="st16" d="M132.5,209.9c0,2.5-4.5,4.5-10.1,4.5c-5.6,0-10.1-2-10.1-4.5s4.5-4.5,10.1-4.5
								C128,205.4,132.5,207.4,132.5,209.9z"/>
						</g>
					</g>
				</g>
				<g>
					<g>
						<polygon class="st17" points="147,215.4 111.6,236.4 111.6,192.5 147,171.5 						"/>
						<polygon class="st18" points="111.6,236.4 42.7,214.5 42.7,170.5 111.6,192.5 						"/>
						<polygon class="st19" points="111.6,192.5 42.7,170.5 78.1,149.5 147,171.5 						"/>
					</g>
					<g>
						<rect x="58.2" y="164.5" class="st17" width="20.1" height="6.1"/>
						<g>
							<path class="st17" d="M78.3,170.5c0,2.5-4.5,4.5-10.1,4.5c-5.6,0-10.1-2-10.1-4.5s4.5-4.5,10.1-4.5
								C73.8,166,78.3,168,78.3,170.5z"/>
							<path class="st19" d="M78.3,164.5c0,2.5-4.5,4.5-10.1,4.5c-5.6,0-10.1-2-10.1-4.5s4.5-4.5,10.1-4.5
								C73.8,159.9,78.3,162,78.3,164.5z"/>
						</g>
					</g>
					<g>
						<rect x="76.3" y="153.1" class="st17" width="20.1" height="6.1"/>
						<g>
							<path class="st17" d="M96.4,159.2c0,2.5-4.5,4.5-10.1,4.5c-5.6,0-10.1-2-10.1-4.5s4.5-4.5,10.1-4.5S96.4,156.7,96.4,159.2z"
								/>
							<path class="st19" d="M96.4,153.1c0,2.5-4.5,4.5-10.1,4.5c-5.6,0-10.1-2-10.1-4.5s4.5-4.5,10.1-4.5
								C91.9,148.6,96.4,150.6,96.4,153.1z"/>
						</g>
					</g>
					<g>
						<rect x="94.9" y="176.5" class="st17" width="20.1" height="6.1"/>
						<g>
							<path class="st17" d="M115.1,182.6c0,2.5-4.5,4.5-10.1,4.5c-5.6,0-10.1-2-10.1-4.5s4.5-4.5,10.1-4.5S115.1,180.1,115.1,182.6
								z"/>
							<path class="st19" d="M115.1,176.5c0,2.5-4.5,4.5-10.1,4.5c-5.6,0-10.1-2-10.1-4.5s4.5-4.5,10.1-4.5S115.1,174,115.1,176.5z"
								/>
						</g>
					</g>
					<g>
						<rect x="112.4" y="166" class="st17" width="20.1" height="6.1"/>
						<g>
							<path class="st17" d="M132.5,172c0,2.5-4.5,4.5-10.1,4.5c-5.6,0-10.1-2-10.1-4.5s4.5-4.5,10.1-4.5
								C128,167.5,132.5,169.5,132.5,172z"/>
							<path class="st19" d="M132.5,166c0,2.5-4.5,4.5-10.1,4.5c-5.6,0-10.1-2-10.1-4.5s4.5-4.5,10.1-4.5
								C128,161.4,132.5,163.5,132.5,166z"/>
						</g>
					</g>
				</g>
				<g>
					<g>
						<polygon class="st7" points="147,171.5 111.6,192.5 111.6,148.6 147,127.6 						"/>
						<polygon class="st8" points="111.6,192.5 42.7,170.6 42.7,126.6 111.6,148.6 						"/>
						<polygon class="st9" points="111.6,148.6 42.7,126.6 78.1,105.6 147,127.6 						"/>
					</g>
					<g>
						<rect x="58.2" y="120.6" class="st10" width="20.1" height="6.1"/>
						<g>
							<path class="st10" d="M78.3,126.6c0,2.5-4.5,4.5-10.1,4.5c-5.6,0-10.1-2-10.1-4.5s4.5-4.5,10.1-4.5
								C73.8,122.1,78.3,124.1,78.3,126.6z"/>
							<path class="st9" d="M78.3,120.6c0,2.5-4.5,4.5-10.1,4.5c-5.6,0-10.1-2-10.1-4.5s4.5-4.5,10.1-4.5
								C73.8,116,78.3,118.1,78.3,120.6z"/>
						</g>
					</g>
					<g>
						<rect x="76.3" y="109.2" class="st10" width="20.1" height="6.1"/>
						<g>
							<path class="st10" d="M96.4,115.3c0,2.5-4.5,4.5-10.1,4.5c-5.6,0-10.1-2-10.1-4.5s4.5-4.5,10.1-4.5
								C91.9,110.8,96.4,112.8,96.4,115.3z"/>
							<path class="st9" d="M96.4,109.2c0,2.5-4.5,4.5-10.1,4.5c-5.6,0-10.1-2-10.1-4.5s4.5-4.5,10.1-4.5S96.4,106.7,96.4,109.2z"/>
						</g>
					</g>
					<g>
						<rect x="94.9" y="132.6" class="st10" width="20.1" height="6.1"/>
						<g>
							<path class="st10" d="M115.1,138.6c0,2.5-4.5,4.5-10.1,4.5c-5.6,0-10.1-2-10.1-4.5s4.5-4.5,10.1-4.5
								C110.6,134.1,115.1,136.2,115.1,138.6z"/>
							<path class="st9" d="M115.1,132.6c0,2.5-4.5,4.5-10.1,4.5c-5.6,0-10.1-2-10.1-4.5s4.5-4.5,10.1-4.5S115.1,130.1,115.1,132.6z
								"/>
						</g>
					</g>
					<g>
						<rect x="112.4" y="122.1" class="st10" width="20.1" height="6.1"/>
						<g>
							<path class="st10" d="M132.5,128.1c0,2.5-4.5,4.5-10.1,4.5c-5.6,0-10.1-2-10.1-4.5c0-2.5,4.5-4.5,10.1-4.5
								C128,123.6,132.5,125.6,132.5,128.1z"/>
							<path class="st9" d="M132.5,122.1c0,2.5-4.5,4.5-10.1,4.5c-5.6,0-10.1-2-10.1-4.5s4.5-4.5,10.1-4.5
								C128,117.5,132.5,119.6,132.5,122.1z"/>
						</g>
					</g>
				</g>
				<g>
					<g>
						<polygon class="st7" points="115.6,117.5 80.2,138.5 80.2,94.5 115.6,73.6 						"/>
						<polygon class="st8" points="80.2,138.5 11.3,116.5 11.3,72.6 80.2,94.5 						"/>
						<polygon class="st9" points="80.2,94.5 11.3,72.6 46.7,51.6 115.6,73.6 						"/>
					</g>
					<g>
						<rect x="26.8" y="66.5" class="st10" width="20.1" height="6.1"/>
						<g>
							<path class="st10" d="M46.9,72.6c0,2.5-4.5,4.5-10.1,4.5c-5.6,0-10.1-2-10.1-4.5s4.5-4.5,10.1-4.5
								C42.4,68.1,46.9,70.1,46.9,72.6z"/>
							<path class="st9" d="M46.9,66.5c0,2.5-4.5,4.5-10.1,4.5c-5.6,0-10.1-2-10.1-4.5S31.3,62,36.8,62C42.4,62,46.9,64,46.9,66.5z"
								/>
						</g>
					</g>
					<g>
						<rect x="44.9" y="55.2" class="st10" width="20.1" height="6"/>
						<g>
							<path class="st10" d="M65,61.3c0,2.5-4.5,4.5-10.1,4.5c-5.6,0-10.1-2-10.1-4.5s4.5-4.5,10.1-4.5C60.5,56.7,65,58.8,65,61.3z"
								/>
							<path class="st9" d="M65,55.2c0,2.5-4.5,4.5-10.1,4.5c-5.6,0-10.1-2-10.1-4.5s4.5-4.5,10.1-4.5C60.5,50.7,65,52.7,65,55.2z"
								/>
						</g>
					</g>
					<g>
						<rect x="63.5" y="78.6" class="st10" width="20.1" height="6.1"/>
						<g>
							<path class="st10" d="M83.7,84.6c0,2.5-4.5,4.5-10.1,4.5c-5.6,0-10.1-2-10.1-4.5s4.5-4.5,10.1-4.5
								C79.2,80.1,83.7,82.1,83.7,84.6z"/>
							<path class="st9" d="M83.7,78.6c0,2.5-4.5,4.5-10.1,4.5c-5.6,0-10.1-2-10.1-4.5S68.1,74,73.6,74C79.2,74,83.7,76.1,83.7,78.6
								z"/>
						</g>
					</g>
					<g>
						<rect x="81" y="68" class="st10" width="20.1" height="6.1"/>
						<g>
							<path class="st10" d="M101.1,74.1c0,2.5-4.5,4.5-10.1,4.5c-5.6,0-10.1-2-10.1-4.5s4.5-4.5,10.1-4.5S101.1,71.6,101.1,74.1z"
								/>
							<path class="st9" d="M101.1,68c0,2.5-4.5,4.5-10.1,4.5c-5.6,0-10.1-2-10.1-4.5s4.5-4.5,10.1-4.5
								C96.6,63.5,101.1,65.5,101.1,68z"/>
						</g>
					</g>
				</g>
				<g>
					<g>
						<polygon class="st4" points="184.8,139.5 149.4,160.5 149.4,116.6 184.8,95.6 						"/>
						<polygon class="st5" points="149.4,160.5 80.4,138.6 80.4,94.6 149.4,116.6 						"/>
						<polygon class="st6" points="149.4,116.6 80.4,94.6 115.9,73.6 184.8,95.6 						"/>
					</g>
					<g>
						<rect x="95.9" y="88.6" class="st4" width="20.1" height="6.1"/>
						<g>
							<path class="st4" d="M116.1,94.6c0,2.5-4.5,4.5-10.1,4.5c-5.6,0-10.1-2-10.1-4.5s4.5-4.5,10.1-4.5S116.1,92.1,116.1,94.6z"/>
							<path class="st6" d="M116.1,88.6c0,2.5-4.5,4.5-10.1,4.5c-5.6,0-10.1-2-10.1-4.5s4.5-4.5,10.1-4.5
								C111.6,84.1,116.1,86.1,116.1,88.6z"/>
						</g>
					</g>
					<g>
						<rect x="114.1" y="77.2" class="st4" width="20.1" height="6.1"/>
						<g>
							<path class="st4" d="M134.2,83.3c0,2.5-4.5,4.5-10.1,4.5c-5.6,0-10.1-2-10.1-4.5s4.5-4.5,10.1-4.5
								C129.7,78.8,134.2,80.8,134.2,83.3z"/>
							<path class="st6" d="M134.2,77.2c0,2.5-4.5,4.5-10.1,4.5c-5.6,0-10.1-2-10.1-4.5s4.5-4.5,10.1-4.5
								C129.7,72.7,134.2,74.8,134.2,77.2z"/>
						</g>
					</g>
					<g>
						<rect x="132.7" y="100.6" class="st4" width="20.1" height="6.1"/>
						<g>
							<path class="st4" d="M152.9,106.7c0,2.5-4.5,4.5-10.1,4.5c-5.6,0-10.1-2-10.1-4.5s4.5-4.5,10.1-4.5
								C148.4,102.1,152.9,104.2,152.9,106.7z"/>
							<path class="st6" d="M152.9,100.6c0,2.5-4.5,4.5-10.1,4.5c-5.6,0-10.1-2-10.1-4.5s4.5-4.5,10.1-4.5
								C148.4,96.1,152.9,98.1,152.9,100.6z"/>
						</g>
					</g>
					<g>
						<rect x="150.2" y="90.1" class="st4" width="20.1" height="6.1"/>
						<g>
							<path class="st4" d="M170.3,96.1c0,2.5-4.5,4.5-10.1,4.5c-5.6,0-10.1-2-10.1-4.5s4.5-4.5,10.1-4.5
								C165.8,91.6,170.3,93.6,170.3,96.1z"/>
							<path class="st6" d="M170.3,90.1c0,2.5-4.5,4.5-10.1,4.5c-5.6,0-10.1-2-10.1-4.5s4.5-4.5,10.1-4.5
								C165.8,85.5,170.3,87.6,170.3,90.1z"/>
						</g>
					</g>
				</g>
				<g>
					<g>
						<polygon class="st4" points="251,467.5 215.5,488.5 215.5,444.6 251,423.6 						"/>
						<polygon class="st5" points="215.5,488.5 146.6,466.6 146.6,422.6 215.5,444.6 						"/>
						<polygon class="st6" points="215.5,444.6 146.6,422.6 182.1,401.6 251,423.6 						"/>
					</g>
					<g>
						<rect x="162.1" y="416.6" class="st4" width="20.1" height="6"/>
						<g>
							<path class="st4" d="M182.3,422.6c0,2.5-4.5,4.5-10.1,4.5c-5.6,0-10.1-2-10.1-4.5s4.5-4.5,10.1-4.5
								C177.7,418.1,182.3,420.1,182.3,422.6z"/>
							<path class="st6" d="M182.3,416.6c0,2.5-4.5,4.5-10.1,4.5c-5.6,0-10.1-2-10.1-4.5s4.5-4.5,10.1-4.5S182.3,414.1,182.3,416.6z
								"/>
						</g>
					</g>
					<g>
						<rect x="180.2" y="405.3" class="st4" width="20.1" height="6"/>
						<g>
							<path class="st4" d="M200.4,411.3c0,2.5-4.5,4.5-10.1,4.5c-5.6,0-10.1-2-10.1-4.5s4.5-4.5,10.1-4.5
								C195.9,406.8,200.4,408.8,200.4,411.3z"/>
							<path class="st6" d="M200.4,405.3c0,2.5-4.5,4.5-10.1,4.5c-5.6,0-10.1-2-10.1-4.5s4.5-4.5,10.1-4.5
								C195.9,400.7,200.4,402.8,200.4,405.3z"/>
						</g>
					</g>
					<g>
						<rect x="198.9" y="428.6" class="st4" width="20.1" height="6"/>
						<g>
							<path class="st4" d="M219,434.7c0,2.5-4.5,4.5-10.1,4.5c-5.6,0-10.1-2-10.1-4.5s4.5-4.5,10.1-4.5
								C214.5,430.1,219,432.2,219,434.7z"/>
							<path class="st6" d="M219,428.6c0,2.5-4.5,4.5-10.1,4.5c-5.6,0-10.1-2-10.1-4.5s4.5-4.5,10.1-4.5
								C214.5,424.1,219,426.1,219,428.6z"/>
						</g>
					</g>
					<g>
						<rect x="216.4" y="418.1" class="st4" width="20.1" height="6"/>
						<g>
							<path class="st4" d="M236.5,424.1c0,2.5-4.5,4.5-10.1,4.5c-5.6,0-10.1-2-10.1-4.5s4.5-4.5,10.1-4.5
								C232,419.6,236.5,421.6,236.5,424.1z"/>
							<path class="st6" d="M236.5,418.1c0,2.5-4.5,4.5-10.1,4.5c-5.6,0-10.1-2-10.1-4.5s4.5-4.5,10.1-4.5
								C232,413.5,236.5,415.6,236.5,418.1z"/>
						</g>
					</g>
				</g>
				<g>
					<g>
						<polygon class="st12" points="222.5,108.4 187,129.4 187,85.5 222.5,64.5 						"/>
						<polygon class="st11" points="187,129.4 118.1,107.5 118.1,63.5 187,85.5 						"/>
						<polygon class="st13" points="187,85.5 118.1,63.5 153.6,42.5 222.5,64.5 						"/>
					</g>
					<g>
						<rect x="133.6" y="57.5" class="st12" width="20.1" height="6"/>
						<g>
							<path class="st12" d="M153.7,63.5c0,2.5-4.5,4.5-10.1,4.5s-10.1-2-10.1-4.5c0-2.5,4.5-4.5,10.1-4.5S153.7,61,153.7,63.5z"/>
							<path class="st13" d="M153.7,57.5c0,2.5-4.5,4.5-10.1,4.5s-10.1-2-10.1-4.5s4.5-4.5,10.1-4.5S153.7,55,153.7,57.5z"/>
						</g>
					</g>
					<g>
						<rect x="151.7" y="46.2" class="st12" width="20.1" height="6"/>
						<g>
							<path class="st12" d="M171.8,52.2c0,2.5-4.5,4.5-10.1,4.5c-5.6,0-10.1-2-10.1-4.5s4.5-4.5,10.1-4.5
								C167.3,47.7,171.8,49.7,171.8,52.2z"/>
							<path class="st13" d="M171.8,46.2c0,2.5-4.5,4.5-10.1,4.5c-5.6,0-10.1-2-10.1-4.5s4.5-4.5,10.1-4.5
								C167.3,41.6,171.8,43.7,171.8,46.2z"/>
						</g>
					</g>
					<g>
						<rect x="170.4" y="69.5" class="st12" width="20.1" height="6.1"/>
						<g>
							<path class="st12" d="M190.5,75.6c0,2.5-4.5,4.5-10.1,4.5c-5.6,0-10.1-2-10.1-4.5s4.5-4.5,10.1-4.5
								C186,71,190.5,73.1,190.5,75.6z"/>
							<path class="st13" d="M190.5,69.5c0,2.5-4.5,4.5-10.1,4.5c-5.6,0-10.1-2-10.1-4.5s4.5-4.5,10.1-4.5
								C186,65,190.5,67,190.5,69.5z"/>
						</g>
					</g>
					<g>
						<rect x="187.8" y="59" class="st12" width="20.1" height="6"/>
						<g>
							<path class="st12" d="M208,65c0,2.5-4.5,4.5-10.1,4.5c-5.6,0-10.1-2-10.1-4.5s4.5-4.5,10.1-4.5C203.5,60.5,208,62.5,208,65z"
								/>
							<path class="st13" d="M208,59c0,2.5-4.5,4.5-10.1,4.5c-5.6,0-10.1-2-10.1-4.5s4.5-4.5,10.1-4.5C203.5,54.5,208,56.5,208,59z"
								/>
						</g>
					</g>
				</g>
				<g>
					<g>
						<polygon class="st7" points="266.2,78.2 230.7,99.3 230.7,55.3 266.2,34.3 						"/>
						<polygon class="st8" points="230.7,99.3 161.8,77.3 161.8,33.3 230.7,55.3 						"/>
						<polygon class="st9" points="230.7,55.3 161.8,33.3 197.2,12.3 266.2,34.3 						"/>
					</g>
					<g>
						<rect x="177.3" y="27.3" class="st10" width="20.1" height="6"/>
						<g>
							<path class="st10" d="M197.4,33.3c0,2.5-4.5,4.5-10.1,4.5c-5.6,0-10.1-2-10.1-4.5s4.5-4.5,10.1-4.5
								C192.9,28.8,197.4,30.8,197.4,33.3z"/>
							<path class="st9" d="M197.4,27.3c0,2.5-4.5,4.5-10.1,4.5c-5.6,0-10.1-2-10.1-4.5s4.5-4.5,10.1-4.5
								C192.9,22.8,197.4,24.8,197.4,27.3z"/>
						</g>
					</g>
					<g>
						<rect x="195.4" y="16" class="st10" width="20.1" height="6"/>
						<g>
							<path class="st10" d="M215.5,22c0,2.5-4.5,4.5-10.1,4.5c-5.6,0-10.1-2-10.1-4.5s4.5-4.5,10.1-4.5
								C211,17.5,215.5,19.5,215.5,22z"/>
							<path class="st9" d="M215.5,16c0,2.5-4.5,4.5-10.1,4.5c-5.6,0-10.1-2-10.1-4.5s4.5-4.5,10.1-4.5
								C211,11.5,215.5,13.5,215.5,16z"/>
						</g>
					</g>
					<g>
						<rect x="214.1" y="39.3" class="st10" width="20.1" height="6"/>
						<g>
							<path class="st10" d="M234.2,45.4c0,2.5-4.5,4.5-10.1,4.5c-5.6,0-10.1-2-10.1-4.5s4.5-4.5,10.1-4.5S234.2,42.9,234.2,45.4z"
								/>
							<path class="st9" d="M234.2,39.3c0,2.5-4.5,4.5-10.1,4.5c-5.6,0-10.1-2-10.1-4.5s4.5-4.5,10.1-4.5S234.2,36.8,234.2,39.3z"/>
						</g>
					</g>
					<g>
						<rect x="231.5" y="28.8" class="st10" width="20.1" height="6"/>
						<g>
							<path class="st10" d="M251.6,34.8c0,2.5-4.5,4.5-10.1,4.5c-5.6,0-10.1-2-10.1-4.5s4.5-4.5,10.1-4.5S251.6,32.3,251.6,34.8z"
								/>
							<path class="st9" d="M251.6,28.8c0,2.5-4.5,4.5-10.1,4.5c-5.6,0-10.1-2-10.1-4.5s4.5-4.5,10.1-4.5S251.6,26.3,251.6,28.8z"/>
						</g>
					</g>
				</g>
			</g>
			<g class="st0">
				<g class="st3">
					<g>
						<polygon class="st12" points="137.7,448.8 173.4,470 173.4,425.6 137.7,404.5 						"/>
						<polygon class="st12" points="173.4,470 242.9,447.8 242.9,403.5 173.4,425.6 						"/>
						<polygon class="st13" points="173.4,425.6 242.9,403.5 207.1,382.3 137.7,404.5 						"/>
					</g>
					<g>
						<rect x="207" y="397.4" class="st12" width="20.3" height="6.1"/>
						<g>
							<path class="st12" d="M207,403.5c0,2.5,4.5,4.6,10.1,4.6s10.1-2,10.1-4.6s-4.5-4.6-10.1-4.6S207,401,207,403.5z"/>
							<path class="st13" d="M207,397.4c0,2.5,4.5,4.6,10.1,4.6s10.1-2,10.1-4.6s-4.5-4.6-10.1-4.6S207,394.9,207,397.4z"/>
						</g>
					</g>
					<g>
						<rect x="188.7" y="386" class="st12" width="20.3" height="6.1"/>
						<g>
							<path class="st12" d="M188.7,392.1c0,2.5,4.5,4.6,10.1,4.6c5.6,0,10.1-2,10.1-4.6s-4.5-4.6-10.1-4.6
								C193.3,387.5,188.7,389.6,188.7,392.1z"/>
							<path class="st13" d="M188.7,386c0,2.5,4.5,4.6,10.1,4.6c5.6,0,10.1-2,10.1-4.6s-4.5-4.6-10.1-4.6
								C193.3,381.4,188.7,383.5,188.7,386z"/>
						</g>
					</g>
					<g>
						<rect x="169.9" y="409.5" class="st12" width="20.3" height="6.1"/>
						<g>
							<path class="st12" d="M169.9,415.6c0,2.5,4.5,4.6,10.1,4.6c5.6,0,10.1-2,10.1-4.6s-4.5-4.6-10.1-4.6
								C174.4,411.1,169.9,413.1,169.9,415.6z"/>
							<path class="st13" d="M169.9,409.5c0,2.5,4.5,4.6,10.1,4.6c5.6,0,10.1-2,10.1-4.6s-4.5-4.6-10.1-4.6
								C174.4,405,169.9,407,169.9,409.5z"/>
						</g>
					</g>
					<g>
						<rect x="152.3" y="398.9" class="st12" width="20.3" height="6.1"/>
						<g>
							<path class="st12" d="M152.3,405c0,2.5,4.5,4.6,10.1,4.6c5.6,0,10.1-2,10.1-4.6s-4.5-4.6-10.1-4.6
								C156.8,400.5,152.3,402.5,152.3,405z"/>
							<path class="st13" d="M152.3,398.9c0,2.5,4.5,4.6,10.1,4.6c5.6,0,10.1-2,10.1-4.6s-4.5-4.6-10.1-4.6S152.3,396.4,152.3,398.9
								z"/>
						</g>
					</g>
				</g>
				<g class="st3">
					<g>
						<polygon class="st5" points="68.3,471 104,492.2 104,447.9 68.3,426.7 						"/>
						<polygon class="st4" points="104,492.2 173.5,470 173.5,425.7 104,447.9 						"/>
						<polygon class="st6" points="104,447.9 173.5,425.7 137.8,404.6 68.3,426.7 						"/>
					</g>
					<g>
						<rect x="137.6" y="419.6" class="st4" width="20.3" height="6.1"/>
						<g>
							<path class="st4" d="M137.6,425.7c0,2.5,4.5,4.6,10.1,4.6c5.6,0,10.1-2,10.1-4.6s-4.5-4.6-10.1-4.6S137.6,423.2,137.6,425.7z
								"/>
							<path class="st6" d="M137.6,419.6c0,2.5,4.5,4.6,10.1,4.6c5.6,0,10.1-2,10.1-4.6s-4.5-4.6-10.1-4.6
								C142.1,415.1,137.6,417.1,137.6,419.6z"/>
						</g>
					</g>
					<g>
						<rect x="119.3" y="408.2" class="st4" width="20.3" height="6.1"/>
						<g>
							<path class="st4" d="M119.3,414.3c0,2.5,4.5,4.6,10.2,4.6c5.6,0,10.1-2,10.1-4.6s-4.5-4.6-10.1-4.6
								C123.9,409.8,119.3,411.8,119.3,414.3z"/>
							<path class="st6" d="M119.3,408.2c0,2.5,4.5,4.6,10.2,4.6c5.6,0,10.1-2,10.1-4.6s-4.5-4.6-10.1-4.6
								C123.9,403.7,119.3,405.7,119.3,408.2z"/>
						</g>
					</g>
					<g>
						<rect x="100.5" y="431.8" class="st4" width="20.3" height="6.1"/>
						<g>
							<path class="st4" d="M100.5,437.9c0,2.5,4.5,4.6,10.2,4.6c5.6,0,10.2-2,10.2-4.6s-4.5-4.6-10.2-4.6S100.5,435.4,100.5,437.9z
								"/>
							<path class="st6" d="M100.5,431.8c0,2.5,4.5,4.6,10.2,4.6c5.6,0,10.2-2,10.2-4.6s-4.5-4.6-10.2-4.6S100.5,429.3,100.5,431.8z
								"/>
						</g>
					</g>
					<g>
						<rect x="82.9" y="421.1" class="st4" width="20.3" height="6.1"/>
						<g>
							<path class="st4" d="M82.9,427.2c0,2.5,4.5,4.6,10.2,4.6c5.6,0,10.2-2,10.2-4.6s-4.5-4.6-10.2-4.6
								C87.4,422.7,82.9,424.7,82.9,427.2z"/>
							<path class="st6" d="M82.9,421.1c0,2.5,4.5,4.6,10.2,4.6c5.6,0,10.2-2,10.2-4.6s-4.5-4.6-10.2-4.6
								C87.4,416.6,82.9,418.6,82.9,421.1z"/>
						</g>
					</g>
				</g>
				<g class="st3">
					<g>
						<polygon class="st5" points="68.3,426.5 104.1,447.7 104.1,403.4 68.3,382.3 						"/>
						<polygon class="st4" points="104.1,447.7 173.6,425.6 173.6,381.3 104.1,403.4 						"/>
						<polygon class="st6" points="104.1,403.4 173.6,381.3 137.8,360.1 68.3,382.3 						"/>
					</g>
					<g>
						<rect x="137.7" y="375.2" class="st4" width="20.3" height="6.1"/>
						<g>
							<path class="st4" d="M137.7,381.3c0,2.5,4.5,4.6,10.1,4.6c5.6,0,10.1-2,10.1-4.6s-4.5-4.6-10.1-4.6S137.7,378.8,137.7,381.3z
								"/>
							<path class="st6" d="M137.7,375.2c0,2.5,4.5,4.6,10.1,4.6c5.6,0,10.1-2,10.1-4.6s-4.5-4.6-10.1-4.6
								C142.2,370.6,137.7,372.7,137.7,375.2z"/>
						</g>
					</g>
					<g>
						<rect x="119.4" y="363.8" class="st4" width="20.3" height="6.1"/>
						<g>
							<path class="st4" d="M119.4,369.9c0,2.5,4.5,4.6,10.1,4.6c5.6,0,10.1-2,10.1-4.6s-4.5-4.6-10.1-4.6
								C123.9,365.3,119.4,367.4,119.4,369.9z"/>
							<path class="st6" d="M119.4,363.8c0,2.5,4.5,4.6,10.1,4.6c5.6,0,10.1-2,10.1-4.6s-4.5-4.6-10.1-4.6S119.4,361.2,119.4,363.8z
								"/>
						</g>
					</g>
					<g>
						<rect x="100.6" y="387.3" class="st4" width="20.3" height="6.1"/>
						<g>
							<path class="st4" d="M100.6,393.4c0,2.5,4.5,4.6,10.2,4.6c5.6,0,10.2-2,10.2-4.6s-4.5-4.6-10.2-4.6
								C105.1,388.9,100.6,390.9,100.6,393.4z"/>
							<path class="st6" d="M100.6,387.3c0,2.5,4.5,4.6,10.2,4.6c5.6,0,10.2-2,10.2-4.6s-4.5-4.6-10.2-4.6
								C105.1,382.8,100.6,384.8,100.6,387.3z"/>
						</g>
					</g>
					<g>
						<rect x="83" y="376.7" class="st4" width="20.3" height="6.1"/>
						<g>
							<path class="st4" d="M83,382.8c0,2.5,4.5,4.6,10.2,4.6c5.6,0,10.2-2,10.2-4.6s-4.5-4.6-10.2-4.6S83,380.3,83,382.8z"/>
							<path class="st6" d="M83,376.7c0,2.5,4.5,4.6,10.2,4.6c5.6,0,10.2-2,10.2-4.6s-4.5-4.6-10.2-4.6S83,374.2,83,376.7z"/>
						</g>
					</g>
				</g>
				<g class="st3">
					<g>
						<polygon class="st11" points="68.3,382.2 104.1,403.4 104.1,359.1 68.3,337.9 						"/>
						<polygon class="st12" points="104.1,403.4 173.6,381.2 173.6,336.9 104.1,359.1 						"/>
						<polygon class="st13" points="104.1,359.1 173.6,336.9 137.8,315.8 68.3,337.9 						"/>
					</g>
					<g>
						<rect x="137.7" y="330.8" class="st12" width="20.3" height="6.1"/>
						<g>
							<path class="st12" d="M137.7,336.9c0,2.5,4.5,4.6,10.1,4.6c5.6,0,10.1-2,10.1-4.6s-4.5-4.6-10.1-4.6
								C142.2,332.4,137.7,334.4,137.7,336.9z"/>
							<path class="st13" d="M137.7,330.8c0,2.5,4.5,4.6,10.1,4.6c5.6,0,10.1-2,10.1-4.6s-4.5-4.6-10.1-4.6S137.7,328.3,137.7,330.8
								z"/>
						</g>
					</g>
					<g>
						<rect x="119.4" y="319.4" class="st12" width="20.3" height="6.1"/>
						<g>
							<path class="st12" d="M119.4,325.5c0,2.5,4.5,4.6,10.1,4.6c5.6,0,10.1-2,10.1-4.6s-4.5-4.6-10.1-4.6S119.4,323,119.4,325.5z"
								/>
							<path class="st13" d="M119.4,319.4c0,2.5,4.5,4.6,10.1,4.6c5.6,0,10.1-2,10.1-4.6s-4.5-4.6-10.1-4.6
								C123.9,314.9,119.4,316.9,119.4,319.4z"/>
						</g>
					</g>
					<g>
						<rect x="100.6" y="343" class="st12" width="20.3" height="6.1"/>
						<g>
							<path class="st12" d="M100.6,349.1c0,2.5,4.5,4.6,10.2,4.6c5.6,0,10.2-2,10.2-4.6s-4.5-4.6-10.2-4.6
								C105.1,344.5,100.6,346.5,100.6,349.1z"/>
							<path class="st13" d="M100.6,343c0,2.5,4.5,4.6,10.2,4.6c5.6,0,10.2-2,10.2-4.6s-4.5-4.6-10.2-4.6
								C105.1,338.4,100.6,340.4,100.6,343z"/>
						</g>
					</g>
					<g>
						<rect x="83" y="332.3" class="st12" width="20.3" height="6.1"/>
						<g>
							<path class="st12" d="M83,338.4c0,2.5,4.5,4.6,10.2,4.6c5.6,0,10.2-2,10.2-4.6s-4.5-4.6-10.2-4.6S83,335.9,83,338.4z"/>
							<path class="st13" d="M83,332.3c0,2.5,4.5,4.6,10.2,4.6c5.6,0,10.2-2,10.2-4.6s-4.5-4.6-10.2-4.6
								C87.5,327.8,83,329.8,83,332.3z"/>
						</g>
					</g>
				</g>
				<g class="st3">
					<g>
						<polygon class="st18" points="68.2,337.9 103.9,359.1 103.9,314.8 68.2,293.7 						"/>
						<polygon class="st17" points="103.9,359.1 173.4,337 173.4,292.6 103.9,314.8 						"/>
						<polygon class="st19" points="103.9,314.8 173.4,292.6 137.6,271.5 68.2,293.7 						"/>
					</g>
					<g>
						<rect x="137.5" y="286.6" class="st17" width="20.3" height="6.1"/>
						<g>
							<path class="st17" d="M137.5,292.7c0,2.5,4.5,4.6,10.1,4.6c5.6,0,10.1-2,10.1-4.6s-4.5-4.6-10.1-4.6
								C142,288.1,137.5,290.1,137.5,292.7z"/>
							<path class="st19" d="M137.5,286.6c0,2.5,4.5,4.6,10.1,4.6c5.6,0,10.1-2,10.1-4.6s-4.5-4.6-10.1-4.6S137.5,284,137.5,286.6z"
								/>
						</g>
					</g>
					<g>
						<rect x="119.2" y="275.1" class="st17" width="20.3" height="6.1"/>
						<g>
							<path class="st17" d="M119.2,281.3c0,2.5,4.5,4.6,10.1,4.6c5.6,0,10.1-2,10.1-4.6s-4.5-4.6-10.1-4.6
								C123.8,276.7,119.2,278.7,119.2,281.3z"/>
							<path class="st19" d="M119.2,275.1c0,2.5,4.5,4.6,10.1,4.6c5.6,0,10.1-2,10.1-4.6s-4.5-4.6-10.1-4.6
								C123.8,270.6,119.2,272.6,119.2,275.1z"/>
						</g>
					</g>
					<g>
						<rect x="100.4" y="298.7" class="st17" width="20.3" height="6.1"/>
						<g>
							<path class="st17" d="M100.4,304.8c0,2.5,4.5,4.6,10.2,4.6c5.6,0,10.2-2,10.2-4.6s-4.5-4.6-10.2-4.6
								C104.9,300.2,100.4,302.3,100.4,304.8z"/>
							<path class="st19" d="M100.4,298.7c0,2.5,4.5,4.6,10.2,4.6c5.6,0,10.2-2,10.2-4.6s-4.5-4.6-10.2-4.6
								C104.9,294.1,100.4,296.2,100.4,298.7z"/>
						</g>
					</g>
					<g>
						<rect x="82.8" y="288.1" class="st17" width="20.3" height="6.1"/>
						<g>
							<path class="st17" d="M82.8,294.2c0,2.5,4.5,4.6,10.2,4.6c5.6,0,10.2-2,10.2-4.6s-4.5-4.6-10.2-4.6
								C87.3,289.6,82.8,291.7,82.8,294.2z"/>
							<path class="st19" d="M82.8,288.1c0,2.5,4.5,4.6,10.2,4.6c5.6,0,10.2-2,10.2-4.6s-4.5-4.6-10.2-4.6
								C87.3,283.5,82.8,285.6,82.8,288.1z"/>
						</g>
					</g>
				</g>
				<g class="st3">
					<g>
						<polygon class="st15" points="105.3,282.1 141.1,303.3 141.1,259 105.3,237.9 						"/>
						<polygon class="st14" points="141.1,303.3 210.6,281.2 210.6,236.9 141.1,259 						"/>
						<polygon class="st16" points="141.1,259 210.6,236.9 174.8,215.7 105.3,237.9 						"/>
					</g>
					<g>
						<rect x="174.6" y="230.8" class="st14" width="20.3" height="6.1"/>
						<g>
							<path class="st14" d="M174.6,236.9c0,2.5,4.5,4.6,10.1,4.6c5.6,0,10.1-2,10.1-4.6s-4.5-4.6-10.1-4.6
								C179.2,232.3,174.6,234.4,174.6,236.9z"/>
							<path class="st16" d="M174.6,230.8c0,2.5,4.5,4.6,10.1,4.6c5.6,0,10.1-2,10.1-4.6s-4.5-4.6-10.1-4.6
								C179.2,226.2,174.6,228.3,174.6,230.8z"/>
						</g>
					</g>
					<g>
						<rect x="156.4" y="219.4" class="st14" width="20.3" height="6.1"/>
						<g>
							<path class="st14" d="M156.4,225.4c0,2.5,4.5,4.6,10.1,4.6s10.1-2,10.1-4.6s-4.5-4.6-10.1-4.6S156.4,222.9,156.4,225.4z"/>
							<path class="st16" d="M156.4,219.4c0,2.5,4.5,4.6,10.1,4.6s10.1-2,10.1-4.6s-4.5-4.6-10.1-4.6S156.4,216.8,156.4,219.4z"/>
						</g>
					</g>
					<g>
						<rect x="137.6" y="242.9" class="st14" width="20.3" height="6.1"/>
						<g>
							<path class="st14" d="M137.6,249c0,2.5,4.5,4.6,10.1,4.6c5.6,0,10.1-2,10.1-4.6s-4.5-4.6-10.1-4.6
								C142.1,244.4,137.6,246.5,137.6,249z"/>
							<path class="st16" d="M137.6,242.9c0,2.5,4.5,4.6,10.1,4.6c5.6,0,10.1-2,10.1-4.6s-4.5-4.6-10.1-4.6
								C142.1,238.3,137.6,240.4,137.6,242.9z"/>
						</g>
					</g>
					<g>
						<rect x="120" y="232.3" class="st14" width="20.3" height="6.1"/>
						<g>
							<path class="st14" d="M120,238.4c0,2.5,4.5,4.6,10.1,4.6c5.6,0,10.1-2,10.1-4.6s-4.5-4.6-10.1-4.6
								C124.5,233.8,120,235.9,120,238.4z"/>
							<path class="st16" d="M120,232.3c0,2.5,4.5,4.6,10.1,4.6c5.6,0,10.1-2,10.1-4.6s-4.5-4.6-10.1-4.6
								C124.5,227.7,120,229.8,120,232.3z"/>
						</g>
					</g>
				</g>
				<g class="st3">
					<g>
						<polygon class="st5" points="105.1,237.9 140.9,259 140.9,214.8 105.1,193.6 						"/>
						<polygon class="st4" points="140.9,259 210.4,236.9 210.4,192.6 140.9,214.8 						"/>
						<polygon class="st6" points="140.9,214.8 210.4,192.6 174.6,171.4 105.1,193.6 						"/>
					</g>
					<g>
						<rect x="174.4" y="186.5" class="st4" width="20.3" height="6.1"/>
						<g>
							<path class="st4" d="M174.4,192.6c0,2.5,4.5,4.6,10.1,4.6c5.6,0,10.1-2,10.1-4.6s-4.5-4.6-10.1-4.6
								C179,188.1,174.4,190.1,174.4,192.6z"/>
							<path class="st6" d="M174.4,186.5c0,2.5,4.5,4.6,10.1,4.6c5.6,0,10.1-2,10.1-4.6s-4.5-4.6-10.1-4.6
								C179,181.9,174.4,184,174.4,186.5z"/>
						</g>
					</g>
					<g>
						<rect x="156.2" y="175.1" class="st4" width="20.3" height="6.1"/>
						<g>
							<path class="st4" d="M156.2,181.2c0,2.5,4.5,4.6,10.1,4.6c5.6,0,10.1-2,10.1-4.6s-4.5-4.6-10.1-4.6
								C160.7,176.6,156.2,178.7,156.2,181.2z"/>
							<path class="st6" d="M156.2,175.1c0,2.5,4.5,4.6,10.1,4.6c5.6,0,10.1-2,10.1-4.6s-4.5-4.6-10.1-4.6
								C160.7,170.5,156.2,172.6,156.2,175.1z"/>
						</g>
					</g>
					<g>
						<rect x="137.4" y="198.6" class="st4" width="20.3" height="6.1"/>
						<g>
							<path class="st4" d="M137.4,204.7c0,2.5,4.5,4.6,10.1,4.6c5.6,0,10.1-2,10.1-4.6s-4.5-4.6-10.1-4.6
								C141.9,200.2,137.4,202.2,137.4,204.7z"/>
							<path class="st6" d="M137.4,198.6c0,2.5,4.5,4.6,10.1,4.6c5.6,0,10.1-2,10.1-4.6s-4.5-4.6-10.1-4.6
								C141.9,194.1,137.4,196.1,137.4,198.6z"/>
						</g>
					</g>
					<g>
						<rect x="119.8" y="188" class="st4" width="20.3" height="6.1"/>
						<g>
							<path class="st4" d="M119.8,194.1c0,2.5,4.5,4.6,10.1,4.6c5.6,0,10.1-2,10.1-4.6s-4.5-4.6-10.1-4.6
								C124.3,189.6,119.8,191.6,119.8,194.1z"/>
							<path class="st6" d="M119.8,188c0,2.5,4.5,4.6,10.1,4.6c5.6,0,10.1-2,10.1-4.6s-4.5-4.6-10.1-4.6
								C124.3,183.4,119.8,185.5,119.8,188z"/>
						</g>
					</g>
				</g>
				<g class="st3">
					<g>
						<polygon class="st8" points="105,193.7 140.8,214.9 140.8,170.6 105,149.4 						"/>
						<polygon class="st7" points="140.8,214.9 210.3,192.8 210.3,148.4 140.8,170.6 						"/>
						<polygon class="st9" points="140.8,170.6 210.3,148.4 174.5,127.3 105,149.4 						"/>
					</g>
					<g>
						<rect x="174.4" y="142.4" class="st10" width="20.3" height="6.1"/>
						<g>
							<path class="st10" d="M174.4,148.5c0,2.5,4.5,4.6,10.1,4.6s10.1-2,10.1-4.6s-4.5-4.6-10.1-4.6S174.4,145.9,174.4,148.5z"/>
							<path class="st9" d="M174.4,142.4c0,2.5,4.5,4.6,10.1,4.6s10.1-2,10.1-4.6s-4.5-4.6-10.1-4.6S174.4,139.8,174.4,142.4z"/>
						</g>
					</g>
					<g>
						<rect x="156.1" y="130.9" class="st10" width="20.3" height="6.1"/>
						<g>
							<path class="st10" d="M156.1,137c0,2.5,4.5,4.6,10.1,4.6c5.6,0,10.1-2,10.1-4.6s-4.5-4.6-10.1-4.6
								C160.6,132.5,156.1,134.5,156.1,137z"/>
							<path class="st9" d="M156.1,130.9c0,2.5,4.5,4.6,10.1,4.6c5.6,0,10.1-2,10.1-4.6s-4.5-4.6-10.1-4.6
								C160.6,126.4,156.1,128.4,156.1,130.9z"/>
						</g>
					</g>
					<g>
						<rect x="137.3" y="154.5" class="st10" width="20.3" height="6.1"/>
						<g>
							<path class="st10" d="M137.3,160.6c0,2.5,4.5,4.6,10.1,4.6c5.6,0,10.1-2,10.1-4.6s-4.5-4.6-10.1-4.6S137.3,158.1,137.3,160.6
								z"/>
							<path class="st9" d="M137.3,154.5c0,2.5,4.5,4.6,10.1,4.6c5.6,0,10.1-2,10.1-4.6s-4.5-4.6-10.1-4.6
								C141.8,149.9,137.3,152,137.3,154.5z"/>
						</g>
					</g>
					<g>
						<rect x="119.7" y="143.9" class="st10" width="20.3" height="6.1"/>
						<g>
							<path class="st10" d="M119.7,150c0,2.5,4.5,4.6,10.2,4.6c5.6,0,10.1-2,10.1-4.6s-4.5-4.6-10.1-4.6
								C124.2,145.4,119.7,147.4,119.7,150z"/>
							<path class="st9" d="M119.7,143.9c0,2.5,4.5,4.6,10.2,4.6c5.6,0,10.1-2,10.1-4.6s-4.5-4.6-10.1-4.6S119.7,141.3,119.7,143.9z
								"/>
						</g>
					</g>
				</g>
				<g class="st3">
					<g>
						<polygon class="st18" points="137.3,139.4 173,160.6 173,116.3 137.3,95.1 						"/>
						<polygon class="st17" points="173,160.6 242.5,138.4 242.5,94.1 173,116.3 						"/>
						<polygon class="st19" points="173,116.3 242.5,94.1 206.8,72.9 137.3,95.1 						"/>
					</g>
					<g>
						<rect x="206.6" y="88" class="st17" width="20.3" height="6.1"/>
						<g>
							<path class="st17" d="M206.6,94.1c0,2.5,4.5,4.6,10.1,4.6c5.6,0,10.1-2,10.1-4.6s-4.5-4.6-10.1-4.6
								C211.1,89.6,206.6,91.6,206.6,94.1z"/>
							<path class="st19" d="M206.6,88c0,2.5,4.5,4.6,10.1,4.6c5.6,0,10.1-2,10.1-4.6s-4.5-4.6-10.1-4.6
								C211.1,83.5,206.6,85.5,206.6,88z"/>
						</g>
					</g>
					<g>
						<rect x="188.3" y="76.6" class="st17" width="20.3" height="6.1"/>
						<g>
							<path class="st17" d="M188.3,82.7c0,2.5,4.5,4.6,10.1,4.6c5.6,0,10.1-2,10.1-4.6s-4.5-4.6-10.1-4.6
								C192.9,78.1,188.3,80.2,188.3,82.7z"/>
							<path class="st19" d="M188.3,76.6c0,2.5,4.5,4.6,10.1,4.6c5.6,0,10.1-2,10.1-4.6s-4.5-4.6-10.1-4.6
								C192.9,72,188.3,74.1,188.3,76.6z"/>
						</g>
					</g>
					<g>
						<rect x="169.5" y="100.1" class="st17" width="20.3" height="6.1"/>
						<g>
							<path class="st17" d="M169.5,106.2c0,2.5,4.5,4.6,10.1,4.6c5.6,0,10.1-2,10.1-4.6s-4.5-4.6-10.1-4.6
								C174,101.7,169.5,103.7,169.5,106.2z"/>
							<path class="st19" d="M169.5,100.1c0,2.5,4.5,4.6,10.1,4.6c5.6,0,10.1-2,10.1-4.6s-4.5-4.6-10.1-4.6
								C174,95.6,169.5,97.6,169.5,100.1z"/>
						</g>
					</g>
					<g>
						<rect x="151.9" y="89.5" class="st17" width="20.3" height="6.1"/>
						<g>
							<path class="st17" d="M151.9,95.6c0,2.5,4.5,4.6,10.1,4.6c5.6,0,10.1-2,10.1-4.6s-4.5-4.6-10.1-4.6
								C156.4,91.1,151.9,93.1,151.9,95.6z"/>
							<path class="st19" d="M151.9,89.5c0,2.5,4.5,4.6,10.1,4.6c5.6,0,10.1-2,10.1-4.6s-4.5-4.6-10.1-4.6S151.9,87,151.9,89.5z"/>
						</g>
					</g>
				</g>
				<g class="st3">
					<g>
						<polygon class="st14" points="101.3,106.5 137.1,127.7 137.1,83.4 101.3,62.3 						"/>
						<polygon class="st14" points="137.1,127.7 206.6,105.6 206.6,61.2 137.1,83.4 						"/>
						<polygon class="st16" points="137.1,83.4 206.6,61.2 170.8,40.1 101.3,62.3 						"/>
					</g>
					<g>
						<rect x="170.6" y="55.2" class="st14" width="20.3" height="6.1"/>
						<g>
							<path class="st14" d="M170.6,61.3c0,2.5,4.5,4.6,10.1,4.6c5.6,0,10.1-2,10.1-4.6s-4.5-4.6-10.1-4.6
								C175.2,56.7,170.6,58.7,170.6,61.3z"/>
							<path class="st16" d="M170.6,55.2c0,2.5,4.5,4.6,10.1,4.6c5.6,0,10.1-2,10.1-4.6s-4.5-4.6-10.1-4.6
								C175.2,50.6,170.6,52.6,170.6,55.2z"/>
						</g>
					</g>
					<g>
						<rect x="152.4" y="43.7" class="st14" width="20.3" height="6.1"/>
						<g>
							<ellipse class="st14" cx="162.5" cy="49.8" rx="10.1" ry="4.6"/>
							<path class="st16" d="M152.4,43.7c0,2.5,4.5,4.6,10.1,4.6c5.6,0,10.1-2,10.1-4.6s-4.5-4.6-10.1-4.6
								C156.9,39.2,152.4,41.2,152.4,43.7z"/>
						</g>
					</g>
					<g>
						<rect x="133.6" y="67.3" class="st14" width="20.3" height="6.1"/>
						<g>
							<path class="st14" d="M133.6,73.4c0,2.5,4.5,4.6,10.1,4.6c5.6,0,10.1-2,10.1-4.6s-4.5-4.6-10.1-4.6
								C138.1,68.8,133.6,70.9,133.6,73.4z"/>
							<path class="st16" d="M133.6,67.3c0,2.5,4.5,4.6,10.1,4.6c5.6,0,10.1-2,10.1-4.6s-4.5-4.6-10.1-4.6
								C138.1,62.7,133.6,64.8,133.6,67.3z"/>
						</g>
					</g>
					<g>
						<rect x="116" y="56.7" class="st14" width="20.3" height="6.1"/>
						<g>
							<path class="st14" d="M116,62.8c0,2.5,4.5,4.6,10.2,4.6c5.6,0,10.1-2,10.1-4.6s-4.5-4.6-10.2-4.6
								C120.5,58.2,116,60.2,116,62.8z"/>
							<path class="st16" d="M116,56.7c0,2.5,4.5,4.6,10.2,4.6c5.6,0,10.1-2,10.1-4.6s-4.5-4.6-10.2-4.6
								C120.5,52.1,116,54.1,116,56.7z"/>
						</g>
					</g>
				</g>
				<g class="st3">
					<g>
						<polygon class="st5" points="32,128.7 67.8,149.9 67.8,105.6 32,84.5 						"/>
						<polygon class="st4" points="67.8,149.9 137.3,127.8 137.3,83.5 67.8,105.6 						"/>
						<polygon class="st6" points="67.8,105.6 137.3,83.5 101.5,62.3 32,84.5 						"/>
					</g>
					<g>
						<rect x="101.3" y="77.4" class="st4" width="20.3" height="6.1"/>
						<g>
							<path class="st4" d="M101.3,83.5c0,2.5,4.5,4.6,10.2,4.6c5.6,0,10.2-2,10.2-4.6s-4.5-4.6-10.2-4.6
								C105.9,78.9,101.3,81,101.3,83.5z"/>
							<path class="st6" d="M101.3,77.4c0,2.5,4.5,4.6,10.2,4.6c5.6,0,10.2-2,10.2-4.6s-4.5-4.6-10.2-4.6S101.3,74.9,101.3,77.4z"/>
						</g>
					</g>
					<g>
						<rect x="83.1" y="66" class="st4" width="20.3" height="6.1"/>
						<g>
							<path class="st4" d="M83.1,72.1c0,2.5,4.5,4.6,10.2,4.6c5.6,0,10.2-2,10.2-4.6s-4.5-4.6-10.2-4.6
								C87.6,67.5,83.1,69.5,83.1,72.1z"/>
							<path class="st6" d="M83.1,66c0,2.5,4.5,4.6,10.2,4.6c5.6,0,10.2-2,10.2-4.6c0-2.5-4.5-4.6-10.2-4.6
								C87.6,61.4,83.1,63.4,83.1,66z"/>
						</g>
					</g>
					<g>
						<rect x="64.3" y="89.5" class="st4" width="20.3" height="6.1"/>
						<g>
							<path class="st4" d="M64.3,95.6c0,2.5,4.5,4.6,10.2,4.6c5.6,0,10.2-2,10.2-4.6S80,91,74.4,91C68.8,91,64.3,93.1,64.3,95.6z"
								/>
							<path class="st6" d="M64.3,89.5c0,2.5,4.5,4.6,10.2,4.6c5.6,0,10.2-2,10.2-4.6s-4.5-4.6-10.2-4.6
								C68.8,84.9,64.3,87,64.3,89.5z"/>
						</g>
					</g>
					<g>
						<rect x="46.7" y="78.9" class="st4" width="20.3" height="6.1"/>
						<g>
							<path class="st4" d="M46.7,85c0,2.5,4.5,4.6,10.2,4.6c5.6,0,10.2-2,10.2-4.6s-4.5-4.6-10.2-4.6C51.2,80.4,46.7,82.5,46.7,85z
								"/>
							<path class="st6" d="M46.7,78.9c0,2.5,4.5,4.6,10.2,4.6c5.6,0,10.2-2,10.2-4.6s-4.5-4.6-10.2-4.6
								C51.2,74.3,46.7,76.4,46.7,78.9z"/>
						</g>
					</g>
				</g>
				<g class="st3">
					<g>
						<polygon class="st11" points="61.8,75.1 97.6,96.3 97.6,52 61.8,30.9 						"/>
						<polygon class="st12" points="97.6,96.3 167,74.2 167,29.9 97.6,52 						"/>
						<polygon class="st13" points="97.6,52 167,29.9 131.3,8.7 61.8,30.9 						"/>
					</g>
					<g>
						<rect x="131.1" y="23.8" class="st12" width="20.3" height="6.1"/>
						<g>
							<path class="st12" d="M131.1,29.9c0,2.5,4.5,4.6,10.1,4.6c5.6,0,10.1-2,10.1-4.6s-4.5-4.6-10.1-4.6
								C135.6,25.3,131.1,27.4,131.1,29.9z"/>
							<path class="st13" d="M131.1,23.8c0,2.5,4.5,4.6,10.1,4.6c5.6,0,10.1-2,10.1-4.6s-4.5-4.6-10.1-4.6
								C135.6,19.2,131.1,21.3,131.1,23.8z"/>
						</g>
					</g>
					<g>
						<rect x="112.9" y="12.4" class="st12" width="20.3" height="6.1"/>
						<g>
							<path class="st12" d="M112.9,18.5c0,2.5,4.5,4.6,10.2,4.6c5.6,0,10.2-2,10.2-4.6s-4.5-4.6-10.2-4.6
								C117.4,13.9,112.9,15.9,112.9,18.5z"/>
							<path class="st13" d="M112.9,12.4c0,2.5,4.5,4.6,10.2,4.6c5.6,0,10.2-2,10.2-4.6s-4.6-4.6-10.2-4.6
								C117.4,7.8,112.9,9.8,112.9,12.4z"/>
						</g>
					</g>
					<g>
						<rect x="94" y="35.9" class="st12" width="20.3" height="6.1"/>
						<g>
							<path class="st12" d="M94,42c0,2.5,4.5,4.6,10.2,4.6c5.6,0,10.2-2,10.2-4.6s-4.5-4.6-10.2-4.6C98.6,37.5,94,39.5,94,42z"/>
							<path class="st13" d="M94,35.9c0,2.5,4.5,4.6,10.2,4.6c5.6,0,10.2-2,10.2-4.6s-4.5-4.6-10.2-4.6C98.6,31.3,94,33.4,94,35.9z"
								/>
						</g>
					</g>
					<g>
						<rect x="76.4" y="25.3" class="st12" width="20.3" height="6.1"/>
						<g>
							<path class="st12" d="M76.4,31.4c0,2.5,4.5,4.6,10.2,4.6c5.6,0,10.2-2,10.2-4.6s-4.5-4.6-10.2-4.6
								C81,26.8,76.4,28.9,76.4,31.4z"/>
							<path class="st13" d="M76.4,25.3c0,2.5,4.5,4.6,10.2,4.6c5.6,0,10.2-2,10.2-4.6s-4.5-4.6-10.2-4.6
								C81,20.7,76.4,22.8,76.4,25.3z"/>
						</g>
					</g>
				</g>
			</g>
		</g>
	</g>
</g>
<g id="DESIGNED_BY_FREEPIK" class="st0">
	<g class="st3">
		<g>
			<g>
				<path class="st20" d="M70.1,483.9v-0.2c-0.2,0.3-0.4,0.5-0.6,0.6c-0.2,0.2-0.4,0.3-0.7,0.4s-0.5,0.1-0.8,0.1
					c-0.4,0-0.8-0.1-1.1-0.3c-0.3-0.2-0.6-0.4-0.9-0.7c-0.2-0.3-0.4-0.7-0.6-1.1c-0.1-0.4-0.2-0.9-0.2-1.3c0-1,0.3-1.8,0.7-2.4
					s1.2-0.9,1.9-0.9c0.5,0,0.9,0.1,1.2,0.2s0.6,0.4,0.9,0.7v-2.4c0-0.3,0.1-0.6,0.2-0.8s0.3-0.3,0.6-0.3s0.4,0.1,0.6,0.2
					c0.1,0.2,0.2,0.4,0.2,0.7v7.1c0,0.3-0.1,0.5-0.2,0.7s-0.3,0.2-0.6,0.2s-0.4-0.1-0.6-0.2C70.2,484.5,70.1,484.2,70.1,483.9z
					 M66.9,481.5c0,0.4,0.1,0.8,0.2,1.1c0.1,0.3,0.3,0.5,0.6,0.7s0.5,0.2,0.8,0.2c0.3,0,0.6-0.1,0.8-0.2c0.2-0.1,0.4-0.4,0.6-0.7
					c0.1-0.3,0.2-0.7,0.2-1.1c0-0.4-0.1-0.8-0.2-1.1s-0.3-0.5-0.6-0.7s-0.5-0.3-0.8-0.3c-0.3,0-0.6,0.1-0.8,0.3
					c-0.2,0.2-0.4,0.4-0.5,0.7C67,480.8,66.9,481.1,66.9,481.5z"/>
				<path class="st20" d="M77.3,482h-3.2c0,0.4,0.1,0.7,0.2,1s0.3,0.5,0.6,0.6c0.2,0.1,0.5,0.2,0.8,0.2c0.2,0,0.4,0,0.5-0.1
					c0.2,0,0.3-0.1,0.5-0.2c0.2-0.1,0.3-0.2,0.4-0.3s0.3-0.3,0.5-0.5c0.1-0.1,0.2-0.1,0.4-0.1c0.2,0,0.3,0,0.4,0.1
					c0.1,0.1,0.2,0.2,0.2,0.4c0,0.1-0.1,0.3-0.2,0.5c-0.1,0.2-0.3,0.4-0.5,0.6c-0.2,0.2-0.5,0.3-0.9,0.5c-0.3,0.1-0.8,0.2-1.2,0.2
					c-1,0-1.8-0.3-2.4-0.9c-0.6-0.6-0.9-1.4-0.9-2.4c0-0.5,0.1-0.9,0.2-1.3c0.1-0.4,0.3-0.8,0.6-1c0.3-0.3,0.6-0.5,1-0.7
					c0.4-0.2,0.8-0.2,1.3-0.2c0.6,0,1.2,0.1,1.6,0.4s0.8,0.6,1,1c0.2,0.4,0.3,0.9,0.3,1.3c0,0.4-0.1,0.7-0.3,0.8
					C78,481.9,77.7,482,77.3,482z M74.1,481H77c0-0.5-0.2-1-0.4-1.2c-0.3-0.3-0.6-0.4-1-0.4c-0.4,0-0.7,0.1-1,0.4
					C74.3,480.1,74.2,480.5,74.1,481z"/>
				<path class="st20" d="M84.7,482.7c0,0.5-0.1,0.8-0.3,1.1s-0.5,0.6-1,0.7c-0.4,0.2-0.9,0.3-1.6,0.3c-0.6,0-1.1-0.1-1.5-0.3
					s-0.7-0.4-0.9-0.7c-0.2-0.3-0.3-0.5-0.3-0.8c0-0.2,0.1-0.3,0.2-0.5c0.1-0.1,0.3-0.2,0.5-0.2c0.2,0,0.3,0,0.4,0.1
					s0.2,0.2,0.3,0.4c0.2,0.3,0.4,0.5,0.6,0.6c0.2,0.1,0.6,0.2,0.9,0.2c0.3,0,0.6-0.1,0.8-0.2c0.2-0.1,0.3-0.3,0.3-0.5
					c0-0.3-0.1-0.5-0.3-0.6c-0.2-0.1-0.6-0.3-1.1-0.4c-0.6-0.1-1-0.3-1.4-0.4c-0.3-0.1-0.6-0.4-0.8-0.6s-0.3-0.6-0.3-0.9
					c0-0.3,0.1-0.6,0.3-0.9s0.5-0.5,0.9-0.7s0.8-0.3,1.4-0.3c0.4,0,0.8,0,1.1,0.1c0.3,0.1,0.6,0.2,0.8,0.4c0.2,0.1,0.4,0.3,0.5,0.5
					s0.2,0.4,0.2,0.5c0,0.2-0.1,0.3-0.2,0.5c-0.1,0.1-0.3,0.2-0.5,0.2c-0.2,0-0.3,0-0.4-0.1c-0.1-0.1-0.3-0.2-0.4-0.4
					c-0.1-0.2-0.3-0.3-0.4-0.4c-0.2-0.1-0.4-0.1-0.7-0.1s-0.5,0.1-0.7,0.2c-0.2,0.1-0.3,0.3-0.3,0.5c0,0.2,0.1,0.3,0.2,0.4
					c0.1,0.1,0.3,0.2,0.6,0.3c0.2,0.1,0.6,0.2,1,0.3c0.5,0.1,0.9,0.3,1.2,0.4s0.6,0.4,0.7,0.6C84.6,482.2,84.7,482.4,84.7,482.7z"/>
				<path class="st20" d="M86.3,477.5c-0.2,0-0.4-0.1-0.6-0.2c-0.2-0.1-0.2-0.3-0.2-0.6c0-0.2,0.1-0.4,0.3-0.6
					c0.2-0.1,0.4-0.2,0.6-0.2s0.4,0.1,0.6,0.2c0.2,0.1,0.2,0.3,0.2,0.6c0,0.3-0.1,0.4-0.2,0.6C86.7,477.4,86.5,477.5,86.3,477.5z
					 M87.1,479.2v4.7c0,0.3-0.1,0.6-0.2,0.7c-0.2,0.2-0.3,0.3-0.6,0.3s-0.4-0.1-0.6-0.3c-0.2-0.2-0.2-0.4-0.2-0.7v-4.6
					c0-0.3,0.1-0.6,0.2-0.7s0.3-0.2,0.6-0.2c0.2,0,0.4,0.1,0.6,0.2C87,478.7,87.1,478.9,87.1,479.2z"/>
				<path class="st20" d="M94.2,479.5v4.7c0,0.5-0.1,1-0.2,1.4s-0.3,0.7-0.6,1s-0.6,0.4-1,0.6c-0.4,0.1-0.9,0.2-1.5,0.2
					c-0.6,0-1.1-0.1-1.5-0.2c-0.4-0.2-0.8-0.4-1-0.6s-0.4-0.5-0.4-0.8c0-0.2,0.1-0.4,0.2-0.5c0.1-0.1,0.3-0.2,0.5-0.2
					c0.2,0,0.4,0.1,0.6,0.3c0.1,0.1,0.2,0.2,0.3,0.3c0.1,0.1,0.2,0.2,0.3,0.3s0.3,0.1,0.4,0.2s0.3,0.1,0.6,0.1c0.4,0,0.8-0.1,1-0.2
					s0.4-0.3,0.5-0.5c0.1-0.2,0.2-0.4,0.2-0.7c0-0.2,0-0.6,0-1.2c-0.3,0.4-0.5,0.6-0.9,0.8c-0.3,0.2-0.7,0.3-1.2,0.3
					c-0.5,0-1-0.1-1.4-0.4c-0.4-0.3-0.7-0.7-0.9-1.2c-0.2-0.5-0.3-1.1-0.3-1.7c0-0.5,0.1-0.9,0.2-1.3s0.3-0.7,0.6-1s0.5-0.5,0.8-0.6
					c0.3-0.1,0.7-0.2,1.1-0.2c0.5,0,0.9,0.1,1.2,0.3c0.3,0.2,0.7,0.5,0.9,0.8v-0.2c0-0.3,0.1-0.5,0.2-0.6s0.3-0.2,0.5-0.2
					c0.3,0,0.5,0.1,0.6,0.3C94.2,478.8,94.2,479.1,94.2,479.5z M89.5,481.5c0,0.7,0.1,1.1,0.4,1.5s0.7,0.5,1.1,0.5
					c0.3,0,0.5-0.1,0.8-0.2c0.2-0.1,0.4-0.4,0.6-0.6c0.2-0.3,0.2-0.6,0.2-1.1c0-0.7-0.2-1.2-0.4-1.5c-0.3-0.4-0.7-0.5-1.2-0.5
					c-0.5,0-0.8,0.2-1.1,0.5C89.7,480.4,89.5,480.9,89.5,481.5z"/>
				<path class="st20" d="M96.8,479.2v0.2c0.3-0.4,0.6-0.6,0.9-0.8c0.3-0.2,0.7-0.3,1.2-0.3c0.4,0,0.8,0.1,1.2,0.3
					c0.3,0.2,0.6,0.5,0.8,0.8c0.1,0.2,0.2,0.4,0.2,0.6s0.1,0.5,0.1,0.9v3c0,0.3-0.1,0.6-0.2,0.7c-0.2,0.2-0.3,0.3-0.6,0.3
					c-0.2,0-0.4-0.1-0.6-0.3c-0.2-0.2-0.2-0.4-0.2-0.7v-2.7c0-0.5-0.1-0.9-0.2-1.2c-0.2-0.3-0.4-0.4-0.9-0.4c-0.3,0-0.6,0.1-0.8,0.3
					s-0.4,0.4-0.5,0.7c-0.1,0.2-0.1,0.7-0.1,1.4v2c0,0.3-0.1,0.6-0.2,0.7s-0.3,0.3-0.6,0.3c-0.2,0-0.4-0.1-0.6-0.3
					c-0.2-0.2-0.2-0.4-0.2-0.7v-4.7c0-0.3,0.1-0.5,0.2-0.7s0.3-0.2,0.6-0.2c0.1,0,0.3,0,0.4,0.1c0.1,0.1,0.2,0.2,0.3,0.3
					C96.8,478.8,96.8,479,96.8,479.2z"/>
				<path class="st20" d="M106.6,482h-3.2c0,0.4,0.1,0.7,0.2,1s0.3,0.5,0.6,0.6c0.2,0.1,0.5,0.2,0.8,0.2c0.2,0,0.4,0,0.5-0.1
					c0.2,0,0.3-0.1,0.5-0.2c0.2-0.1,0.3-0.2,0.4-0.3s0.3-0.3,0.5-0.5c0.1-0.1,0.2-0.1,0.4-0.1c0.2,0,0.3,0,0.4,0.1
					c0.1,0.1,0.2,0.2,0.2,0.4c0,0.1-0.1,0.3-0.2,0.5c-0.1,0.2-0.3,0.4-0.5,0.6c-0.2,0.2-0.5,0.3-0.9,0.5c-0.3,0.1-0.8,0.2-1.2,0.2
					c-1,0-1.8-0.3-2.4-0.9c-0.6-0.6-0.9-1.4-0.9-2.4c0-0.5,0.1-0.9,0.2-1.3c0.1-0.4,0.3-0.8,0.6-1c0.3-0.3,0.6-0.5,1-0.7
					c0.4-0.2,0.8-0.2,1.3-0.2c0.6,0,1.2,0.1,1.6,0.4s0.8,0.6,1,1c0.2,0.4,0.3,0.9,0.3,1.3c0,0.4-0.1,0.7-0.3,0.8
					C107.4,481.9,107.1,482,106.6,482z M103.5,481h2.9c0-0.5-0.2-1-0.4-1.2c-0.3-0.3-0.6-0.4-1-0.4c-0.4,0-0.7,0.1-1,0.4
					C103.7,480.1,103.5,480.5,103.5,481z"/>
				<path class="st20" d="M113.3,483.9v-0.2c-0.2,0.3-0.4,0.5-0.6,0.6c-0.2,0.2-0.4,0.3-0.7,0.4s-0.5,0.1-0.8,0.1
					c-0.4,0-0.8-0.1-1.1-0.3c-0.3-0.2-0.6-0.4-0.9-0.7c-0.2-0.3-0.4-0.7-0.6-1.1c-0.1-0.4-0.2-0.9-0.2-1.3c0-1,0.3-1.8,0.7-2.4
					s1.2-0.9,1.9-0.9c0.5,0,0.9,0.1,1.2,0.2s0.6,0.4,0.9,0.7v-2.4c0-0.3,0.1-0.6,0.2-0.8s0.3-0.3,0.6-0.3s0.4,0.1,0.6,0.2
					c0.1,0.2,0.2,0.4,0.2,0.7v7.1c0,0.3-0.1,0.5-0.2,0.7s-0.3,0.2-0.6,0.2s-0.4-0.1-0.6-0.2C113.3,484.5,113.3,484.2,113.3,483.9z
					 M110.1,481.5c0,0.4,0.1,0.8,0.2,1.1c0.1,0.3,0.3,0.5,0.6,0.7s0.5,0.2,0.8,0.2c0.3,0,0.6-0.1,0.8-0.2c0.2-0.1,0.4-0.4,0.6-0.7
					c0.1-0.3,0.2-0.7,0.2-1.1c0-0.4-0.1-0.8-0.2-1.1s-0.3-0.5-0.6-0.7s-0.5-0.3-0.8-0.3c-0.3,0-0.6,0.1-0.8,0.3
					c-0.2,0.2-0.4,0.4-0.5,0.7C110.1,480.8,110.1,481.1,110.1,481.5z"/>
				<path class="st20" d="M119.9,476.8v2.5c0.3-0.3,0.6-0.6,0.9-0.7c0.3-0.2,0.7-0.3,1.2-0.3c0.5,0,1,0.1,1.4,0.4
					c0.4,0.3,0.7,0.6,0.9,1.1c0.2,0.5,0.3,1.1,0.3,1.7c0,0.5-0.1,0.9-0.2,1.4c-0.1,0.4-0.3,0.8-0.5,1.1c-0.2,0.3-0.5,0.5-0.9,0.7
					c-0.3,0.2-0.7,0.3-1.1,0.3c-0.3,0-0.5,0-0.7-0.1c-0.2-0.1-0.4-0.1-0.6-0.2c-0.2-0.1-0.3-0.2-0.4-0.3c-0.1-0.1-0.3-0.3-0.4-0.5
					v0.2c0,0.3-0.1,0.5-0.2,0.7c-0.2,0.2-0.3,0.2-0.6,0.2c-0.2,0-0.4-0.1-0.6-0.2c-0.1-0.2-0.2-0.4-0.2-0.7v-7.1
					c0-0.3,0.1-0.6,0.2-0.7c0.1-0.2,0.3-0.3,0.6-0.3c0.3,0,0.4,0.1,0.6,0.2C119.8,476.3,119.9,476.5,119.9,476.8z M119.9,481.6
					c0,0.6,0.2,1.1,0.4,1.5c0.3,0.4,0.7,0.5,1.2,0.5c0.4,0,0.8-0.2,1.1-0.5s0.4-0.9,0.4-1.5c0-0.4-0.1-0.8-0.2-1.1
					c-0.1-0.3-0.3-0.5-0.5-0.7c-0.2-0.2-0.5-0.3-0.8-0.3c-0.3,0-0.6,0.1-0.8,0.3c-0.2,0.2-0.4,0.4-0.6,0.7
					C120,480.8,119.9,481.2,119.9,481.6z"/>
				<path class="st20" d="M126.8,485.1l0.2-0.4l-2-5c-0.1-0.3-0.2-0.5-0.2-0.6c0-0.1,0-0.3,0.1-0.4c0.1-0.1,0.2-0.2,0.3-0.3
					c0.1-0.1,0.3-0.1,0.4-0.1c0.2,0,0.4,0.1,0.5,0.2c0.1,0.1,0.2,0.4,0.3,0.6l1.4,4l1.3-3.7c0.1-0.3,0.2-0.5,0.3-0.7
					c0.1-0.2,0.2-0.3,0.3-0.3c0.1-0.1,0.2-0.1,0.4-0.1c0.1,0,0.2,0,0.4,0.1s0.2,0.1,0.3,0.3c0.1,0.1,0.1,0.2,0.1,0.4
					c0,0.1,0,0.2-0.1,0.3c0,0.1-0.1,0.3-0.1,0.4l-2.1,5.5c-0.2,0.5-0.4,0.9-0.5,1.1s-0.4,0.5-0.7,0.6c-0.3,0.1-0.7,0.2-1.2,0.2
					c-0.5,0-0.8,0-1.1-0.1s-0.4-0.3-0.4-0.6c0-0.2,0.1-0.3,0.2-0.4s0.3-0.1,0.5-0.1c0.1,0,0.2,0,0.3,0c0.1,0,0.2,0,0.3,0
					c0.2,0,0.3,0,0.4-0.1s0.2-0.1,0.3-0.3C126.6,485.5,126.7,485.3,126.8,485.1z"/>
			</g>
			<g>
				<path class="st20" d="M150.3,478.4h0.4v-0.5c0-0.5,0.1-0.9,0.2-1.2s0.4-0.5,0.6-0.6c0.3-0.1,0.7-0.2,1.3-0.2
					c0.9,0,1.4,0.2,1.4,0.7c0,0.1-0.1,0.3-0.1,0.4c-0.1,0.1-0.2,0.2-0.4,0.2c-0.1,0-0.2,0-0.3,0c-0.1,0-0.3,0-0.4,0
					c-0.3,0-0.5,0.1-0.6,0.3c-0.1,0.2-0.1,0.4-0.1,0.7v0.4h0.4c0.6,0,0.9,0.2,0.9,0.6c0,0.3-0.1,0.4-0.3,0.5
					c-0.2,0.1-0.4,0.1-0.7,0.1h-0.4v4.3c0,0.3-0.1,0.6-0.2,0.7s-0.4,0.3-0.6,0.3c-0.2,0-0.4-0.1-0.6-0.3c-0.1-0.2-0.2-0.4-0.2-0.7
					v-4.3h-0.4c-0.2,0-0.4,0-0.6-0.2c-0.1-0.1-0.2-0.3-0.2-0.4C149.4,478.6,149.7,478.4,150.3,478.4"/>
				<path class="st20" d="M155.6,482.5v1.4c0,0.3-0.1,0.6-0.2,0.7c-0.1,0.2-0.4,0.3-0.6,0.3c-0.2,0-0.4-0.1-0.6-0.3
					c-0.1-0.2-0.2-0.4-0.2-0.7v-4.5c0-0.7,0.3-1.1,0.8-1.1c0.3,0,0.5,0.1,0.6,0.3c0.1,0.2,0.2,0.4,0.2,0.8c0.2-0.3,0.4-0.6,0.6-0.8
					c0.2-0.2,0.5-0.3,0.8-0.3c0.3,0,0.7,0.1,1,0.3c0.3,0.2,0.5,0.4,0.5,0.7c0,0.2-0.1,0.4-0.2,0.5c-0.1,0.1-0.3,0.2-0.4,0.2
					c-0.1,0-0.2,0-0.4-0.1c-0.2-0.1-0.4-0.1-0.6-0.1c-0.2,0-0.4,0.1-0.6,0.2c-0.1,0.1-0.3,0.3-0.4,0.5c-0.1,0.3-0.1,0.5-0.2,0.9
					C155.6,481.6,155.6,482,155.6,482.5"/>
				<path class="st20" d="M163,482h-3.2c0,0.4,0.1,0.7,0.2,1c0.1,0.3,0.3,0.5,0.6,0.6c0.2,0.1,0.5,0.2,0.8,0.2c0.2,0,0.4,0,0.5-0.1
					c0.2,0,0.3-0.1,0.5-0.2c0.1-0.1,0.3-0.2,0.4-0.3s0.3-0.3,0.5-0.5c0.1-0.1,0.2-0.1,0.4-0.1c0.2,0,0.3,0,0.4,0.1
					c0.1,0.1,0.1,0.2,0.1,0.4c0,0.1-0.1,0.3-0.2,0.5c-0.1,0.2-0.3,0.4-0.5,0.6c-0.2,0.2-0.5,0.3-0.9,0.5c-0.4,0.1-0.8,0.2-1.2,0.2
					c-1,0-1.9-0.3-2.4-0.9c-0.6-0.6-0.9-1.4-0.9-2.4c0-0.5,0.1-0.9,0.2-1.3c0.1-0.4,0.4-0.8,0.6-1c0.3-0.3,0.6-0.5,1-0.7
					c0.4-0.2,0.8-0.2,1.3-0.2c0.6,0,1.2,0.1,1.6,0.4c0.4,0.3,0.8,0.6,1,1c0.2,0.4,0.3,0.9,0.3,1.3c0,0.4-0.1,0.7-0.4,0.8
					C163.8,481.9,163.4,482,163,482 M159.8,481h2.9c0-0.5-0.2-1-0.4-1.2c-0.3-0.3-0.6-0.4-1-0.4c-0.4,0-0.7,0.1-1,0.4
					C160.1,480.1,159.9,480.5,159.8,481"/>
				<path class="st20" d="M169.8,482h-3.2c0,0.4,0.1,0.7,0.2,1s0.3,0.5,0.6,0.6c0.2,0.1,0.5,0.2,0.8,0.2c0.2,0,0.4,0,0.5-0.1
					c0.2,0,0.3-0.1,0.5-0.2c0.1-0.1,0.3-0.2,0.4-0.3c0.1-0.1,0.3-0.3,0.5-0.5c0.1-0.1,0.2-0.1,0.4-0.1c0.2,0,0.3,0,0.4,0.1
					c0.1,0.1,0.1,0.2,0.1,0.4c0,0.1-0.1,0.3-0.2,0.5c-0.1,0.2-0.3,0.4-0.5,0.6c-0.2,0.2-0.5,0.3-0.9,0.5c-0.4,0.1-0.8,0.2-1.2,0.2
					c-1,0-1.9-0.3-2.4-0.9c-0.6-0.6-0.9-1.4-0.9-2.4c0-0.5,0.1-0.9,0.2-1.3c0.1-0.4,0.4-0.8,0.6-1c0.3-0.3,0.6-0.5,1-0.7
					c0.4-0.2,0.8-0.2,1.3-0.2c0.6,0,1.2,0.1,1.6,0.4c0.4,0.3,0.8,0.6,1,1c0.2,0.4,0.3,0.9,0.3,1.3c0,0.4-0.1,0.7-0.4,0.8
					C170.5,481.9,170.2,482,169.8,482 M166.6,481h2.9c0-0.5-0.2-1-0.4-1.2c-0.3-0.3-0.6-0.4-1-0.4c-0.4,0-0.7,0.1-1,0.4
					C166.8,480.1,166.6,480.5,166.6,481"/>
				<path class="st20" d="M173.3,479.2v0.2c0.3-0.4,0.6-0.6,0.9-0.8c0.3-0.2,0.7-0.3,1.1-0.3c0.5,0,1,0.1,1.4,0.4s0.8,0.6,1,1.1
					s0.4,1.1,0.4,1.8c0,0.5-0.1,1-0.2,1.4s-0.3,0.8-0.6,1c-0.3,0.3-0.5,0.5-0.9,0.6s-0.7,0.2-1.1,0.2c-0.5,0-0.9-0.1-1.2-0.3
					c-0.3-0.2-0.6-0.5-0.9-0.8v2.4c0,0.7-0.3,1.1-0.8,1.1c-0.3,0-0.5-0.1-0.6-0.3c-0.1-0.2-0.1-0.5-0.1-0.8v-7
					c0-0.3,0.1-0.5,0.2-0.7c0.1-0.1,0.3-0.2,0.6-0.2s0.4,0.1,0.6,0.2C173.2,478.6,173.3,478.9,173.3,479.2 M176.5,481.5
					c0-0.4-0.1-0.8-0.2-1.1c-0.1-0.3-0.3-0.5-0.5-0.7s-0.5-0.3-0.8-0.3c-0.4,0-0.8,0.2-1.1,0.5s-0.5,0.9-0.5,1.6
					c0,0.6,0.1,1.1,0.5,1.5c0.3,0.4,0.7,0.5,1.1,0.5c0.3,0,0.5-0.1,0.8-0.2c0.2-0.2,0.4-0.4,0.6-0.7
					C176.4,482.4,176.5,482,176.5,481.5"/>
				<path class="st20" d="M179.7,477.5c-0.2,0-0.4-0.1-0.6-0.2c-0.2-0.1-0.2-0.3-0.2-0.6c0-0.2,0.1-0.4,0.3-0.6
					c0.2-0.1,0.4-0.2,0.6-0.2c0.2,0,0.4,0.1,0.6,0.2c0.2,0.1,0.2,0.3,0.2,0.6c0,0.3-0.1,0.4-0.2,0.6
					C180.1,477.4,180,477.5,179.7,477.5 M180.5,479.2v4.7c0,0.3-0.1,0.6-0.2,0.7c-0.2,0.2-0.4,0.3-0.6,0.3c-0.2,0-0.4-0.1-0.6-0.3
					c-0.1-0.2-0.2-0.4-0.2-0.7v-4.6c0-0.3,0.1-0.6,0.2-0.7c0.1-0.2,0.3-0.2,0.6-0.2s0.4,0.1,0.6,0.2
					C180.5,478.7,180.5,478.9,180.5,479.2"/>
				<path class="st20" d="M185.8,484.1l-1.4-2.4l-0.9,0.8v1.3c0,0.3-0.1,0.5-0.3,0.7c-0.2,0.2-0.4,0.3-0.6,0.3
					c-0.3,0-0.4-0.1-0.6-0.3c-0.1-0.2-0.2-0.4-0.2-0.7V477c0-0.4,0.1-0.6,0.2-0.8s0.3-0.3,0.6-0.3c0.3,0,0.4,0.1,0.6,0.3
					c0.1,0.2,0.2,0.4,0.2,0.8v3.9l1.8-1.9c0.2-0.2,0.4-0.4,0.5-0.5c0.1-0.1,0.3-0.1,0.4-0.1c0.2,0,0.4,0.1,0.5,0.2
					c0.1,0.1,0.2,0.3,0.2,0.5c0,0.2-0.2,0.6-0.7,1l-0.9,0.8l1.7,2.6c0.1,0.2,0.2,0.3,0.3,0.4c0.1,0.1,0.1,0.2,0.1,0.3
					c0,0.3-0.1,0.5-0.2,0.6s-0.3,0.2-0.6,0.2c-0.2,0-0.4,0-0.5-0.2C186.1,484.6,185.9,484.4,185.8,484.1"/>
				<path class="st20" d="M189.3,484.9c-0.2,0-0.4-0.1-0.6-0.2c-0.2-0.2-0.3-0.4-0.3-0.7c0-0.2,0.1-0.5,0.3-0.6
					c0.2-0.2,0.4-0.3,0.6-0.3s0.5,0.1,0.6,0.3c0.2,0.2,0.3,0.4,0.3,0.6c0,0.3-0.1,0.5-0.3,0.7C189.7,484.8,189.5,484.9,189.3,484.9"
					/>
				<path class="st20" d="M197.4,482.9c0,0.2-0.1,0.4-0.2,0.6c-0.1,0.2-0.3,0.5-0.6,0.7c-0.3,0.2-0.6,0.4-0.9,0.5
					c-0.4,0.1-0.8,0.2-1.3,0.2c-1,0-1.8-0.3-2.4-0.9c-0.6-0.6-0.8-1.4-0.8-2.4c0-0.7,0.1-1.3,0.4-1.8c0.3-0.5,0.6-0.9,1.1-1.2
					c0.5-0.3,1.1-0.4,1.8-0.4c0.4,0,0.8,0.1,1.2,0.2s0.6,0.3,0.9,0.5c0.2,0.2,0.4,0.4,0.6,0.6s0.2,0.4,0.2,0.6s-0.1,0.4-0.2,0.5
					c-0.1,0.1-0.3,0.2-0.5,0.2c-0.1,0-0.3,0-0.3-0.1c-0.1-0.1-0.2-0.2-0.3-0.3c-0.2-0.3-0.4-0.5-0.6-0.7c-0.2-0.1-0.5-0.2-0.8-0.2
					c-0.5,0-0.9,0.2-1.2,0.6c-0.3,0.4-0.4,0.9-0.4,1.5c0,0.3,0,0.6,0.1,0.8s0.2,0.5,0.3,0.6c0.1,0.2,0.3,0.3,0.5,0.4
					c0.2,0.1,0.4,0.1,0.7,0.1c0.3,0,0.6-0.1,0.8-0.2c0.2-0.1,0.4-0.4,0.6-0.7c0.1-0.2,0.2-0.3,0.3-0.4c0.1-0.1,0.3-0.2,0.4-0.2
					c0.2,0,0.4,0.1,0.5,0.2C197.3,482.5,197.4,482.7,197.4,482.9"/>
				<path class="st20" d="M204.4,481.6c0,0.5-0.1,0.9-0.2,1.3c-0.1,0.4-0.4,0.8-0.7,1c-0.3,0.3-0.6,0.5-1,0.7
					c-0.4,0.1-0.8,0.2-1.3,0.2c-0.5,0-0.9-0.1-1.3-0.2c-0.4-0.2-0.7-0.4-1-0.7c-0.3-0.3-0.5-0.6-0.7-1c-0.1-0.4-0.2-0.9-0.2-1.3
					c0-0.5,0.1-0.9,0.2-1.4c0.1-0.4,0.4-0.8,0.6-1c0.3-0.3,0.6-0.5,1-0.7c0.4-0.2,0.8-0.2,1.3-0.2s0.9,0.1,1.3,0.2s0.7,0.4,1,0.7
					c0.3,0.3,0.5,0.6,0.6,1C204.3,480.6,204.4,481.1,204.4,481.6 M202.7,481.6c0-0.7-0.1-1.2-0.4-1.5c-0.3-0.4-0.7-0.5-1.2-0.5
					c-0.3,0-0.6,0.1-0.8,0.3c-0.2,0.2-0.4,0.4-0.6,0.7s-0.2,0.7-0.2,1.1c0,0.4,0.1,0.8,0.2,1.1c0.1,0.3,0.3,0.6,0.6,0.7
					s0.5,0.3,0.9,0.3c0.5,0,0.9-0.2,1.2-0.6C202.6,482.7,202.7,482.2,202.7,481.6"/>
				<path class="st20" d="M210.5,481.7v2.1c0,0.3-0.1,0.6-0.2,0.8c-0.2,0.2-0.4,0.3-0.6,0.3s-0.4-0.1-0.6-0.3
					c-0.1-0.2-0.2-0.4-0.2-0.8v-2.6c0-0.4,0-0.7,0-1s-0.1-0.4-0.2-0.5c-0.1-0.1-0.3-0.2-0.6-0.2c-0.5,0-0.9,0.2-1.1,0.5
					c-0.2,0.4-0.3,0.9-0.3,1.6v2.2c0,0.3-0.1,0.6-0.2,0.8c-0.2,0.2-0.4,0.3-0.6,0.3s-0.4-0.1-0.6-0.3c-0.2-0.2-0.2-0.4-0.2-0.8v-4.6
					c0-0.3,0.1-0.5,0.2-0.7c0.1-0.2,0.3-0.2,0.6-0.2c0.2,0,0.4,0.1,0.6,0.2c0.1,0.1,0.2,0.4,0.2,0.6v0.1c0.3-0.3,0.6-0.6,0.9-0.7
					c0.3-0.2,0.7-0.2,1.1-0.2c0.4,0,0.8,0.1,1.1,0.2c0.3,0.2,0.5,0.4,0.7,0.7c0.3-0.3,0.6-0.6,0.9-0.7s0.7-0.2,1-0.2
					c0.4,0,0.8,0.1,1.1,0.3c0.3,0.2,0.6,0.4,0.7,0.8c0.1,0.3,0.2,0.8,0.2,1.4v3.2c0,0.3-0.1,0.6-0.2,0.8c-0.1,0.2-0.4,0.3-0.6,0.3
					s-0.4-0.1-0.6-0.3c-0.2-0.2-0.2-0.4-0.2-0.8v-2.7c0-0.4,0-0.6,0-0.8s-0.1-0.4-0.2-0.5c-0.1-0.1-0.3-0.2-0.6-0.2
					c-0.2,0-0.4,0.1-0.6,0.2s-0.3,0.3-0.4,0.5C210.6,480.5,210.5,481,210.5,481.7"/>
			</g>
			<g>
				<path class="st20" d="M135.1,481.2L135.1,481.2C135.1,481.2,135.1,481.2,135.1,481.2z"/>
				<path class="st20" d="M135.2,481.7L135.2,481.7c0-0.1-0.1-0.3-0.1-0.4C135.1,481.4,135.1,481.5,135.2,481.7z"/>
				<path class="st20" d="M135.7,483.2C135.7,483.2,135.7,483.2,135.7,483.2C135.7,483.2,135.7,483.2,135.7,483.2z"/>
				<path class="st20" d="M135.6,483.1C135.6,483.1,135.6,483,135.6,483.1C135.6,483,135.6,483.1,135.6,483.1z"/>
				<path class="st20" d="M135.3,482.3c0.1,0.3,0.2,0.5,0.3,0.7C135.5,482.8,135.4,482.5,135.3,482.3L135.3,482.3z"/>
				<path class="st20" d="M141.4,475c0.3,0,0.5,0,0.8,0.1l0.1-0.5c0,0-0.7-0.2-1.7-0.1l-0.1-0.3c0.3-0.1,0.5-0.3,0.5-0.6
					c0-0.4-0.3-0.7-0.7-0.7s-0.7,0.3-0.7,0.7c0,0.3,0.2,0.6,0.5,0.6l0.1,0.3c-1,0.1-1.8,0.5-1.8,0.5l0.1,0.4
					c0.6-0.2,1.1-0.3,1.6-0.4C140.7,475,141.1,475,141.4,475z"/>
				<path class="st20" d="M135.7,477.4L135.7,477.4C135.7,477.3,135.7,477.3,135.7,477.4l-0.1-0.2l-0.3-0.2c0,0-0.5,0.5-0.9,1.3
					c0,0,0,0-0.1-0.1c-0.1-0.1-0.3-0.2-0.5-0.2h0c-0.1,0-0.2,0-0.3-0.1c0.1-0.1,0.1-0.2,0.1-0.3c0-0.2-0.2-0.4-0.4-0.4
					s-0.4,0.2-0.4,0.4s0.2,0.4,0.4,0.4c0,0,0.1,0,0.1,0c0.1,0.1,0.3,0.2,0.5,0.2c0.1,0,0.2,0,0.3,0.1c0.1,0.1,0.1,0.2,0.1,0.3l0,0
					c-0.3,0.7-0.2,1.7-0.2,1.7l0.7,0c0-0.3,0.1-0.9,0.2-1.4C135.3,478,135.7,477.4,135.7,477.4z"/>
				<path class="st20" d="M147.1,475.5c-0.2,0-0.4,0.2-0.4,0.4c0,0,0,0.1,0,0.1c-0.1,0.1-0.2,0.3-0.2,0.5c0,0.1,0,0.2-0.1,0.3
					c-0.1,0-0.1,0.1-0.2,0.1c-0.5-0.7-1.1-1.1-1.1-1.1l-0.5,0.5c0.4,0.3,0.7,0.7,1.1,1.2c0.3,0.4,0.5,0.8,0.7,1.3l0.6-0.3
					c0,0-0.3-0.7-0.7-1.4c0.1,0,0.1-0.1,0.2-0.1c0.1-0.1,0.2-0.3,0.2-0.5c0-0.1,0-0.2,0.1-0.3c0.1,0,0.2,0.1,0.3,0.1
					c0.2,0,0.4-0.2,0.4-0.4C147.5,475.7,147.3,475.5,147.1,475.5z"/>
				<path class="st20" d="M145.4,481.3c-0.9,0.4-2.3,1-4.2,1.3c-0.8,0.1-1.5,0.1-2.1,0.1c-0.9,0-1.6-0.1-2.2-0.1
					c-0.7-0.1-1.2-0.2-1.5-0.3c0.1,0.2,0.2,0.5,0.3,0.7c0,0,0,0,0,0c0,0,0,0.1,0,0.1c0,0,0,0,0,0.1c0,0,0,0,0,0
					c0.2,0.4,0.4,0.7,0.7,1c0.9,1,1.8,1.1,1.8,1.1h0h0c0,0,0.8,0.3,2.1,0.3c1.2,0,2.4-0.3,3.6-0.7c0.8-0.4,1.6-1.1,2-1.7
					c0.3-0.5,0.5-0.9,0.7-1.4c0.1-0.3,0.1-0.7,0.1-1.1C146.4,480.8,146,481,145.4,481.3z"/>
				<path class="st20" d="M136,477.6c0,0-0.4,0.6-0.7,1.4c-0.2,0.6-0.2,1.5-0.2,1.5l0,0c0,0.2,0,0.4,0,0.6v0c0,0,0,0,0,0.1
					c0,0.1,0,0.3,0.1,0.4c0.4,0.1,3.1,0.7,6,0.3c1.8-0.3,3.2-0.8,4.1-1.2c0.7-0.3,1.1-0.6,1.3-0.8c-0.2-0.6-0.6-1.6-1.1-2.3
					c-1.3-1.8-2.6-2.3-3.3-2.4c-0.3,0-0.5-0.1-0.8-0.1c-0.3,0-0.6,0-1.1,0.1c-0.5,0-1,0.2-1.6,0.4c-0.8,0.3-1.6,0.7-2.2,1.3l0,0
					C136.4,477.1,136.2,477.3,136,477.6z M143.6,477.2c0.6,0,1.1,0.5,1.1,1.1s-0.5,1.1-1.1,1.1c-0.6,0-1.1-0.5-1.1-1.1
					S143,477.2,143.6,477.2z M138.5,477.1c1,0,1.8,0.8,1.8,1.8s-0.8,1.8-1.8,1.8s-1.8-0.8-1.8-1.8
					C136.7,477.9,137.5,477.1,138.5,477.1z"/>
			</g>
		</g>
	</g>
</g>
</svg>
