<?xml version="1.0" encoding="utf-8"?>
<!-- Generator: Adobe Illustrator 23.0.3, SVG Export Plug-In . SVG Version: 6.00 Build 0)  -->
<svg version="1.1" xmlns="http://www.w3.org/2000/svg" xmlns:xlink="http://www.w3.org/1999/xlink" x="0px" y="0px"
	 viewBox="0 0 274.93 181.16" style="enable-background:new 0 0 274.93 181.16;" xml:space="preserve">
<style type="text/css">
	.st0{display:none;}
	.st1{display:inline;fill-rule:evenodd;clip-rule:evenodd;fill:#F9F3EA;}
	.st2{opacity:0.3;fill:#191919;}
	.st3{fill:#CE9411;}
	.st4{fill:#EFBB3A;}
	.st5{fill:#FFD473;}
	.st6{display:inline;opacity:0.3;fill:#191919;}
	.st7{display:inline;}
	.st8{fill:#A82642;}
	.st9{fill:#D33346;}
	.st10{fill:#E54C66;}
	.st11{fill:#9B1B31;}
	.st12{fill:#53A2D3;}
	.st13{fill:#2586B7;}
	.st14{fill:#7ACCF4;}
	.st15{fill:#58871B;}
	.st16{fill:#71AA2E;}
	.st17{fill:#AADD68;}
	.st18{fill:#E2D7DA;}
	.st19{fill:#F7EDEF;}
	.st20{fill:#FFFFFF;}
	.st21{fill:#191919;}
</style>
<g id="BACKGROUND" class="st0">
	<rect x="-112.54" y="-159.41" class="st1" width="500" height="499.99"/>
</g>
<g id="OBJECTS">
	<g>
		<polygon class="st2" points="129.65,168.39 267.44,148.28 246.44,124.23 84.9,108.21 		"/>
		<g>
			<polygon class="st3" points="192.49,131.13 129.65,168.39 129.65,90.51 192.49,53.32 			"/>
			<polygon class="st4" points="129.65,168.39 7.49,129.44 7.49,51.54 129.65,90.51 			"/>
			<polygon class="st5" points="129.65,90.51 7.49,51.54 70.34,14.36 192.49,53.32 			"/>
		</g>
		<g>
			<rect x="34.97" y="40.85" class="st3" width="35.67" height="10.73"/>
			<g>
				<path class="st3" d="M70.65,51.57c0,4.42-7.99,8.01-17.84,8.01c-9.85,0-17.84-3.59-17.84-8.01s7.99-8.01,17.84-8.01
					C62.66,43.56,70.65,47.15,70.65,51.57z"/>
				<path class="st5" d="M70.65,40.85c0,4.42-7.99,8.01-17.84,8.01c-9.85,0-17.84-3.59-17.84-8.01c0-4.42,7.99-8.01,17.84-8.01
					C62.66,32.84,70.65,36.42,70.65,40.85z"/>
			</g>
		</g>
		<g>
			<rect x="67.06" y="20.78" class="st3" width="35.67" height="10.73"/>
			<g>
				<path class="st3" d="M102.73,31.51c0,4.42-7.99,8.01-17.84,8.01c-9.85,0-17.84-3.59-17.84-8.01s7.99-8.01,17.84-8.01
					C94.75,23.5,102.73,27.08,102.73,31.51z"/>
				<path class="st5" d="M102.73,20.78c0,4.42-7.99,8.01-17.84,8.01c-9.85,0-17.84-3.59-17.84-8.01s7.99-8.01,17.84-8.01
					C94.75,12.77,102.73,16.36,102.73,20.78z"/>
			</g>
		</g>
		<g>
			<rect x="100.17" y="62.17" class="st3" width="35.67" height="10.73"/>
			<g>
				<path class="st3" d="M135.84,72.9c0,4.42-7.99,8.01-17.84,8.01s-17.84-3.59-17.84-8.01c0-4.42,7.99-8.01,17.84-8.01
					S135.84,68.47,135.84,72.9z"/>
				<path class="st5" d="M135.84,62.17c0,4.42-7.99,8.01-17.84,8.01s-17.84-3.59-17.84-8.01c0-4.42,7.99-8.01,17.84-8.01
					S135.84,57.75,135.84,62.17z"/>
			</g>
		</g>
		<g>
			<rect x="131.08" y="43.49" class="st3" width="35.67" height="10.73"/>
			<g>
				<path class="st3" d="M166.76,54.22c0,4.42-7.99,8.01-17.84,8.01c-9.85,0-17.84-3.59-17.84-8.01s7.99-8.01,17.84-8.01
					C158.77,46.21,166.76,49.8,166.76,54.22z"/>
				<path class="st5" d="M166.76,43.49c0,4.42-7.99,8.01-17.84,8.01c-9.85,0-17.84-3.59-17.84-8.01s7.99-8.01,17.84-8.01
					C158.77,35.48,166.76,39.07,166.76,43.49z"/>
			</g>
		</g>
	</g>
	<g class="st0">
		<polygon class="st6" points="4.25,120.53 181.9,177.16 270.68,135.46 189.02,122.21 		"/>
		<g class="st7">
			<polygon class="st8" points="189.02,122.21 126.25,159.42 126.25,81.64 189.02,44.5 			"/>
			<polygon class="st9" points="126.25,159.42 4.25,120.53 4.25,42.73 126.25,81.64 			"/>
			<polygon class="st10" points="126.25,81.64 4.25,42.73 67.02,5.59 189.02,44.5 			"/>
		</g>
		<g class="st7">
			<rect x="31.7" y="32.04" class="st11" width="35.63" height="10.71"/>
			<g>
				<path class="st11" d="M67.33,42.75c0,4.42-7.98,8-17.81,8s-17.81-3.58-17.81-8s7.98-8,17.81-8S67.33,38.34,67.33,42.75z"/>
				<path class="st10" d="M67.33,32.04c0,4.42-7.98,8-17.81,8s-17.81-3.58-17.81-8c0-4.42,7.98-8,17.81-8S67.33,27.62,67.33,32.04z"
					/>
			</g>
		</g>
		<g class="st7">
			<rect x="63.75" y="12" class="st11" width="35.63" height="10.71"/>
			<g>
				<path class="st11" d="M99.37,22.71c0,4.42-7.98,8-17.81,8c-9.84,0-17.81-3.58-17.81-8s7.98-8,17.81-8
					C91.4,14.72,99.37,18.3,99.37,22.71z"/>
				<path class="st10" d="M99.37,12c0,4.42-7.98,8-17.81,8c-9.84,0-17.81-3.58-17.81-8c0-4.42,7.98-8,17.81-8
					C91.4,4,99.37,7.58,99.37,12z"/>
			</g>
		</g>
		<g class="st7">
			<rect x="96.81" y="53.34" class="st11" width="35.63" height="10.71"/>
			<g>
				<path class="st11" d="M132.44,64.05c0,4.42-7.98,8-17.81,8c-9.84,0-17.81-3.58-17.81-8c0-4.42,7.98-8,17.81-8
					C124.46,56.05,132.44,59.63,132.44,64.05z"/>
				<path class="st10" d="M132.44,53.34c0,4.42-7.98,8-17.81,8c-9.84,0-17.81-3.58-17.81-8s7.98-8,17.81-8
					C124.46,45.34,132.44,48.92,132.44,53.34z"/>
			</g>
		</g>
		<g class="st7">
			<rect x="127.69" y="34.68" class="st11" width="35.63" height="10.71"/>
			<g>
				<path class="st11" d="M163.32,45.4c0,4.42-7.98,8-17.81,8c-9.84,0-17.81-3.58-17.81-8c0-4.42,7.98-8,17.81-8
					C155.34,37.4,163.32,40.98,163.32,45.4z"/>
				<path class="st10" d="M163.32,34.68c0,4.42-7.98,8-17.81,8c-9.84,0-17.81-3.58-17.81-8c0-4.42,7.98-8,17.81-8
					C155.34,26.68,163.32,30.27,163.32,34.68z"/>
			</g>
		</g>
	</g>
	<g class="st0">
		<path class="st6" d="M121.47,110.19l147.68,10.22l-20.91,38.66L69.34,169.28L121.47,110.19z"/>
		<g class="st7">
			<polygon class="st12" points="5.77,131.6 69.34,169.28 69.34,90.51 5.77,52.89 			"/>
			<polygon class="st13" points="69.34,169.28 192.9,129.89 192.9,51.1 69.34,90.51 			"/>
			<polygon class="st14" points="69.34,90.51 192.9,51.1 129.33,13.48 5.77,52.89 			"/>
		</g>
		<g class="st7">
			<rect x="129.02" y="40.28" class="st13" width="36.08" height="10.85"/>
			<g>
				<path class="st13" d="M129.02,51.13c0,4.47,8.08,8.1,18.04,8.1c9.96,0,18.04-3.63,18.04-8.1s-8.08-8.1-18.04-8.1
					C137.09,43.03,129.02,46.65,129.02,51.13z"/>
				<path class="st14" d="M129.02,40.28c0,4.47,8.08,8.1,18.04,8.1c9.96,0,18.04-3.63,18.04-8.1c0-4.47-8.08-8.1-18.04-8.1
					C137.09,32.18,129.02,35.8,129.02,40.28z"/>
			</g>
		</g>
		<g class="st7">
			<rect x="96.56" y="19.98" class="st13" width="36.08" height="10.85"/>
			<g>
				<path class="st13" d="M96.56,30.83c0,4.47,8.08,8.1,18.04,8.1s18.04-3.63,18.04-8.1s-8.08-8.1-18.04-8.1
					S96.56,26.36,96.56,30.83z"/>
				<path class="st14" d="M96.56,19.98c0,4.47,8.08,8.1,18.04,8.1s18.04-3.63,18.04-8.1c0-4.47-8.08-8.1-18.04-8.1
					S96.56,15.51,96.56,19.98z"/>
			</g>
		</g>
		<g class="st7">
			<rect x="63.07" y="61.84" class="st13" width="36.08" height="10.85"/>
			<g>
				<path class="st13" d="M63.07,72.69c0,4.47,8.08,8.1,18.04,8.1c9.96,0,18.04-3.63,18.04-8.1c0-4.47-8.08-8.1-18.04-8.1
					C71.15,64.59,63.07,68.22,63.07,72.69z"/>
				<path class="st14" d="M63.07,61.84c0,4.47,8.08,8.1,18.04,8.1c9.96,0,18.04-3.63,18.04-8.1s-8.08-8.1-18.04-8.1
					C71.15,53.74,63.07,57.37,63.07,61.84z"/>
			</g>
		</g>
		<g class="st7">
			<rect x="31.8" y="42.95" class="st13" width="36.08" height="10.85"/>
			<g>
				<path class="st13" d="M31.8,53.8c0,4.47,8.08,8.1,18.04,8.1c9.96,0,18.04-3.63,18.04-8.1c0-4.47-8.08-8.1-18.04-8.1
					C39.88,45.7,31.8,49.33,31.8,53.8z"/>
				<path class="st14" d="M31.8,42.95c0,4.47,8.08,8.1,18.04,8.1c9.96,0,18.04-3.63,18.04-8.1c0-4.47-8.08-8.1-18.04-8.1
					C39.88,34.85,31.8,38.48,31.8,42.95z"/>
			</g>
		</g>
	</g>
	<g class="st0">
		<path class="st6" d="M121.48,109.53l142.72,9.87l-20.21,37.36l-172.9,9.87L121.48,109.53z"/>
		<g class="st7">
			<polygon class="st9" points="10.73,130.22 72.16,166.64 72.16,90.51 10.73,54.16 			"/>
			<polygon class="st8" points="72.16,166.64 191.57,128.57 191.57,52.42 72.16,90.51 			"/>
			<polygon class="st10" points="72.16,90.51 191.57,52.42 130.13,16.07 10.73,54.16 			"/>
		</g>
		<g class="st7">
			<rect x="129.83" y="41.97" class="st11" width="34.87" height="10.49"/>
			<g>
				<path class="st11" d="M129.83,52.45c0,4.32,7.81,7.83,17.43,7.83c9.63,0,17.44-3.5,17.44-7.83c0-4.32-7.81-7.83-17.44-7.83
					C137.64,44.62,129.83,48.13,129.83,52.45z"/>
				<path class="st10" d="M129.83,41.97c0,4.32,7.81,7.83,17.43,7.83c9.63,0,17.44-3.5,17.44-7.83c0-4.32-7.81-7.83-17.44-7.83
					C137.64,34.14,129.83,37.64,129.83,41.97z"/>
			</g>
		</g>
		<g class="st7">
			<rect x="98.47" y="22.35" class="st11" width="34.87" height="10.49"/>
			<g>
				<path class="st11" d="M98.47,32.84c0,4.32,7.81,7.83,17.44,7.83c9.63,0,17.43-3.5,17.43-7.83s-7.81-7.83-17.43-7.83
					C106.27,25.01,98.47,28.51,98.47,32.84z"/>
				<path class="st10" d="M98.47,22.35c0,4.32,7.81,7.83,17.44,7.83c9.63,0,17.43-3.5,17.43-7.83c0-4.32-7.81-7.83-17.43-7.83
					C106.27,14.52,98.47,18.03,98.47,22.35z"/>
			</g>
		</g>
		<g class="st7">
			<rect x="66.1" y="62.81" class="st11" width="34.87" height="10.49"/>
			<g>
				<path class="st11" d="M66.1,73.29c0,4.32,7.81,7.83,17.44,7.83c9.63,0,17.43-3.5,17.43-7.83s-7.81-7.83-17.43-7.83
					C73.91,65.47,66.1,68.97,66.1,73.29z"/>
				<path class="st10" d="M66.1,62.81c0,4.32,7.81,7.83,17.44,7.83c9.63,0,17.43-3.5,17.43-7.83c0-4.32-7.81-7.83-17.43-7.83
					C73.91,54.98,66.1,58.49,66.1,62.81z"/>
			</g>
		</g>
		<g class="st7">
			<rect x="35.88" y="44.55" class="st11" width="34.87" height="10.49"/>
			<g>
				<path class="st11" d="M35.88,55.04c0,4.32,7.81,7.83,17.44,7.83c9.63,0,17.43-3.5,17.43-7.83s-7.81-7.83-17.43-7.83
					C43.69,47.21,35.88,50.71,35.88,55.04z"/>
				<path class="st10" d="M35.88,44.55c0,4.32,7.81,7.83,17.44,7.83c9.63,0,17.43-3.5,17.43-7.83c0-4.32-7.81-7.83-17.43-7.83
					C43.69,36.72,35.88,40.23,35.88,44.55z"/>
			</g>
		</g>
	</g>
	<g class="st0">
		<g class="st7">
			<g>
				<polygon class="st13" points="113.15,264.2 77.69,285.22 77.69,241.28 113.15,220.3 				"/>
				<polygon class="st12" points="77.69,285.22 8.77,263.25 8.77,219.3 77.69,241.28 				"/>
				<polygon class="st14" points="77.69,241.28 8.77,219.3 44.23,198.32 113.15,220.3 				"/>
			</g>
			<g>
				<rect x="24.27" y="213.26" class="st13" width="20.13" height="6.05"/>
				<g>
					<path class="st13" d="M44.4,219.31c0,2.5-4.51,4.52-10.06,4.52c-5.56,0-10.06-2.02-10.06-4.52c0-2.5,4.51-4.52,10.06-4.52
						C39.9,214.79,44.4,216.82,44.4,219.31z"/>
					<path class="st14" d="M44.4,213.26c0,2.5-4.51,4.52-10.06,4.52c-5.56,0-10.06-2.02-10.06-4.52c0-2.5,4.51-4.52,10.06-4.52
						C39.9,208.74,44.4,210.77,44.4,213.26z"/>
				</g>
			</g>
			<g>
				<rect x="42.38" y="201.94" class="st13" width="20.13" height="6.05"/>
				<g>
					<path class="st13" d="M62.51,207.99c0,2.5-4.51,4.52-10.06,4.52c-5.56,0-10.06-2.02-10.06-4.52c0-2.5,4.51-4.52,10.06-4.52
						C58,203.47,62.51,205.5,62.51,207.99z"/>
					<path class="st14" d="M62.51,201.94c0,2.5-4.51,4.52-10.06,4.52c-5.56,0-10.06-2.02-10.06-4.52c0-2.5,4.51-4.52,10.06-4.52
						C58,197.42,62.51,199.44,62.51,201.94z"/>
				</g>
			</g>
			<g>
				<rect x="61.06" y="225.29" class="st13" width="20.13" height="6.05"/>
				<g>
					<path class="st13" d="M81.19,231.34c0,2.5-4.51,4.52-10.06,4.52c-5.56,0-10.06-2.02-10.06-4.52c0-2.5,4.51-4.52,10.06-4.52
						C76.68,226.83,81.19,228.85,81.19,231.34z"/>
					<path class="st14" d="M81.19,225.29c0,2.5-4.51,4.52-10.06,4.52c-5.56,0-10.06-2.02-10.06-4.52c0-2.5,4.51-4.52,10.06-4.52
						C76.68,220.77,81.19,222.8,81.19,225.29z"/>
				</g>
			</g>
			<g>
				<rect x="78.5" y="214.75" class="st13" width="20.13" height="6.05"/>
				<g>
					<path class="st13" d="M98.63,220.81c0,2.5-4.51,4.52-10.06,4.52c-5.56,0-10.06-2.02-10.06-4.52s4.51-4.52,10.06-4.52
						C94.12,216.29,98.63,218.31,98.63,220.81z"/>
					<path class="st14" d="M98.63,214.75c0,2.5-4.51,4.52-10.06,4.52c-5.56,0-10.06-2.02-10.06-4.52s4.51-4.52,10.06-4.52
						C94.12,210.23,98.63,212.26,98.63,214.75z"/>
				</g>
			</g>
		</g>
		<g class="st7">
			<g>
				<polygon class="st8" points="182.07,286.21 146.61,307.23 146.61,263.29 182.07,242.31 				"/>
				<polygon class="st9" points="146.61,307.23 77.69,285.26 77.69,241.31 146.61,263.29 				"/>
				<polygon class="st10" points="146.61,263.29 77.69,241.31 113.15,220.32 182.07,242.31 				"/>
			</g>
			<g>
				<rect x="93.2" y="235.27" class="st11" width="20.13" height="6.05"/>
				<g>
					<path class="st11" d="M113.32,241.32c0,2.5-4.51,4.52-10.06,4.52c-5.56,0-10.06-2.02-10.06-4.52c0-2.5,4.51-4.52,10.06-4.52
						C108.82,236.8,113.32,238.83,113.32,241.32z"/>
					<path class="st10" d="M113.32,235.27c0,2.5-4.51,4.52-10.06,4.52c-5.56,0-10.06-2.02-10.06-4.52c0-2.5,4.51-4.52,10.06-4.52
						C108.82,230.75,113.32,232.77,113.32,235.27z"/>
				</g>
			</g>
			<g>
				<rect x="111.3" y="223.95" class="st11" width="20.13" height="6.05"/>
				<g>
					<path class="st11" d="M131.43,230c0,2.5-4.51,4.52-10.06,4.52c-5.56,0-10.06-2.02-10.06-4.52c0-2.5,4.51-4.52,10.06-4.52
						C126.92,225.48,131.43,227.51,131.43,230z"/>
					<path class="st10" d="M131.43,223.95c0,2.5-4.51,4.52-10.06,4.52c-5.56,0-10.06-2.02-10.06-4.52c0-2.5,4.51-4.52,10.06-4.52
						C126.92,219.43,131.43,221.45,131.43,223.95z"/>
				</g>
			</g>
			<g>
				<rect x="129.98" y="247.3" class="st11" width="20.13" height="6.05"/>
				<g>
					<path class="st11" d="M150.11,253.35c0,2.5-4.51,4.52-10.06,4.52c-5.56,0-10.06-2.02-10.06-4.52c0-2.5,4.51-4.52,10.06-4.52
						C145.6,248.83,150.11,250.86,150.11,253.35z"/>
					<path class="st10" d="M150.11,247.3c0,2.5-4.51,4.52-10.06,4.52c-5.56,0-10.06-2.02-10.06-4.52c0-2.5,4.51-4.52,10.06-4.52
						C145.6,242.78,150.11,244.81,150.11,247.3z"/>
				</g>
			</g>
			<g>
				<rect x="147.42" y="236.76" class="st11" width="20.13" height="6.05"/>
				<g>
					<path class="st11" d="M167.55,242.81c0,2.5-4.51,4.52-10.06,4.52c-5.56,0-10.06-2.02-10.06-4.52s4.51-4.52,10.06-4.52
						C163.05,238.3,167.55,240.32,167.55,242.81z"/>
					<path class="st10" d="M167.55,236.76c0,2.5-4.51,4.52-10.06,4.52c-5.56,0-10.06-2.02-10.06-4.52c0-2.5,4.51-4.52,10.06-4.52
						C163.05,232.24,167.55,234.27,167.55,236.76z"/>
				</g>
			</g>
		</g>
		<g class="st7">
			<g>
				<polygon class="st8" points="146.89,230.91 111.43,251.93 111.43,207.99 146.89,187.01 				"/>
				<polygon class="st9" points="111.43,251.93 42.51,229.96 42.51,186.01 111.43,207.99 				"/>
				<polygon class="st10" points="111.43,207.99 42.51,186.01 77.97,165.03 146.89,187.01 				"/>
			</g>
			<g>
				<rect x="58.02" y="179.97" class="st11" width="20.13" height="6.05"/>
				<g>
					<path class="st11" d="M78.14,186.02c0,2.5-4.51,4.52-10.06,4.52c-5.56,0-10.06-2.02-10.06-4.52s4.51-4.52,10.06-4.52
						C73.64,181.51,78.14,183.53,78.14,186.02z"/>
					<path class="st10" d="M78.14,179.97c0,2.5-4.51,4.52-10.06,4.52c-5.56,0-10.06-2.02-10.06-4.52s4.51-4.52,10.06-4.52
						C73.64,175.45,78.14,177.48,78.14,179.97z"/>
				</g>
			</g>
			<g>
				<rect x="76.12" y="168.65" class="st11" width="20.13" height="6.05"/>
				<g>
					<path class="st11" d="M96.25,174.7c0,2.5-4.51,4.52-10.06,4.52c-5.56,0-10.06-2.02-10.06-4.52c0-2.5,4.51-4.52,10.06-4.52
						C91.74,170.18,96.25,172.21,96.25,174.7z"/>
					<path class="st10" d="M96.25,168.65c0,2.5-4.51,4.52-10.06,4.52c-5.56,0-10.06-2.02-10.06-4.52c0-2.5,4.51-4.52,10.06-4.52
						C91.74,164.13,96.25,166.15,96.25,168.65z"/>
				</g>
			</g>
			<g>
				<rect x="94.8" y="192" class="st11" width="20.13" height="6.05"/>
				<g>
					<path class="st11" d="M114.93,198.05c0,2.5-4.51,4.52-10.06,4.52c-5.56,0-10.06-2.02-10.06-4.52c0-2.5,4.51-4.52,10.06-4.52
						C110.42,193.54,114.93,195.56,114.93,198.05z"/>
					<path class="st10" d="M114.93,192c0,2.5-4.51,4.52-10.06,4.52c-5.56,0-10.06-2.02-10.06-4.52c0-2.5,4.51-4.52,10.06-4.52
						C110.42,187.48,114.93,189.51,114.93,192z"/>
				</g>
			</g>
			<g>
				<rect x="112.24" y="181.46" class="st11" width="20.13" height="6.05"/>
				<g>
					<path class="st11" d="M132.37,187.52c0,2.5-4.51,4.52-10.06,4.52c-5.56,0-10.06-2.02-10.06-4.52c0-2.5,4.51-4.52,10.06-4.52
						C127.86,183,132.37,185.02,132.37,187.52z"/>
					<path class="st10" d="M132.37,181.46c0,2.5-4.51,4.52-10.06,4.52c-5.56,0-10.06-2.02-10.06-4.52c0-2.5,4.51-4.52,10.06-4.52
						C127.86,176.95,132.37,178.97,132.37,181.46z"/>
				</g>
			</g>
		</g>
		<g class="st7">
			<g>
				<polygon class="st3" points="146.89,187.69 111.43,208.72 111.43,164.77 146.89,143.79 				"/>
				<polygon class="st4" points="111.43,208.72 42.51,186.74 42.51,142.79 111.43,164.77 				"/>
				<polygon class="st5" points="111.43,164.77 42.51,142.79 77.97,121.81 146.89,143.79 				"/>
			</g>
			<g>
				<rect x="58.02" y="136.75" class="st3" width="20.13" height="6.05"/>
				<g>
					<path class="st3" d="M78.14,142.81c0,2.5-4.51,4.52-10.06,4.52c-5.56,0-10.06-2.02-10.06-4.52c0-2.5,4.51-4.52,10.06-4.52
						C73.64,138.29,78.14,140.31,78.14,142.81z"/>
					<path class="st5" d="M78.14,136.75c0,2.5-4.51,4.52-10.06,4.52c-5.56,0-10.06-2.02-10.06-4.52c0-2.5,4.51-4.52,10.06-4.52
						C73.64,132.24,78.14,134.26,78.14,136.75z"/>
				</g>
			</g>
			<g>
				<rect x="76.12" y="125.43" class="st3" width="20.13" height="6.05"/>
				<g>
					<path class="st3" d="M96.25,131.49c0,2.5-4.51,4.52-10.06,4.52c-5.56,0-10.06-2.02-10.06-4.52c0-2.5,4.51-4.52,10.06-4.52
						C91.74,126.97,96.25,128.99,96.25,131.49z"/>
					<path class="st5" d="M96.25,125.43c0,2.5-4.51,4.52-10.06,4.52c-5.56,0-10.06-2.02-10.06-4.52c0-2.5,4.51-4.52,10.06-4.52
						C91.74,120.92,96.25,122.94,96.25,125.43z"/>
				</g>
			</g>
			<g>
				<rect x="94.8" y="148.79" class="st3" width="20.13" height="6.05"/>
				<g>
					<path class="st3" d="M114.93,154.84c0,2.5-4.51,4.52-10.06,4.52c-5.56,0-10.06-2.02-10.06-4.52s4.51-4.52,10.06-4.52
						C110.42,150.32,114.93,152.34,114.93,154.84z"/>
					<path class="st5" d="M114.93,148.79c0,2.5-4.51,4.52-10.06,4.52c-5.56,0-10.06-2.02-10.06-4.52c0-2.5,4.51-4.52,10.06-4.52
						C110.42,144.27,114.93,146.29,114.93,148.79z"/>
				</g>
			</g>
			<g>
				<rect x="112.24" y="138.25" class="st3" width="20.13" height="6.05"/>
				<g>
					<path class="st3" d="M132.37,144.3c0,2.5-4.51,4.52-10.06,4.52c-5.56,0-10.06-2.02-10.06-4.52s4.51-4.52,10.06-4.52
						C127.86,139.78,132.37,141.8,132.37,144.3z"/>
					<path class="st5" d="M132.37,138.25c0,2.5-4.51,4.52-10.06,4.52c-5.56,0-10.06-2.02-10.06-4.52s4.51-4.52,10.06-4.52
						C127.86,133.73,132.37,135.75,132.37,138.25z"/>
				</g>
			</g>
		</g>
		<g class="st7">
			<g>
				<polygon class="st13" points="146.94,143.85 111.48,164.87 111.48,120.93 146.94,99.95 				"/>
				<polygon class="st12" points="111.48,164.87 42.56,142.9 42.56,98.95 111.48,120.93 				"/>
				<polygon class="st14" points="111.48,120.93 42.56,98.95 78.02,77.97 146.94,99.95 				"/>
			</g>
			<g>
				<rect x="58.07" y="92.91" class="st13" width="20.13" height="6.05"/>
				<g>
					<path class="st13" d="M78.19,98.96c0,2.5-4.51,4.52-10.06,4.52c-5.56,0-10.06-2.02-10.06-4.52s4.51-4.52,10.06-4.52
						C73.69,94.45,78.19,96.47,78.19,98.96z"/>
					<path class="st14" d="M78.19,92.91c0,2.5-4.51,4.52-10.06,4.52c-5.56,0-10.06-2.02-10.06-4.52s4.51-4.52,10.06-4.52
						C73.69,88.39,78.19,90.42,78.19,92.91z"/>
				</g>
			</g>
			<g>
				<rect x="76.17" y="81.59" class="st13" width="20.13" height="6.05"/>
				<g>
					<path class="st13" d="M96.3,87.64c0,2.5-4.51,4.52-10.06,4.52c-5.56,0-10.06-2.02-10.06-4.52c0-2.5,4.51-4.52,10.06-4.52
						C91.79,83.12,96.3,85.15,96.3,87.64z"/>
					<path class="st14" d="M96.3,81.59c0,2.5-4.51,4.52-10.06,4.52c-5.56,0-10.06-2.02-10.06-4.52c0-2.5,4.51-4.52,10.06-4.52
						C91.79,77.07,96.3,79.1,96.3,81.59z"/>
				</g>
			</g>
			<g>
				<rect x="94.85" y="104.94" class="st13" width="20.13" height="6.05"/>
				<g>
					<path class="st13" d="M114.98,111c0,2.5-4.51,4.52-10.06,4.52c-5.56,0-10.06-2.02-10.06-4.52c0-2.5,4.51-4.52,10.06-4.52
						C110.47,106.48,114.98,108.5,114.98,111z"/>
					<path class="st14" d="M114.98,104.94c0,2.5-4.51,4.52-10.06,4.52c-5.56,0-10.06-2.02-10.06-4.52c0-2.5,4.51-4.52,10.06-4.52
						C110.47,100.43,114.98,102.45,114.98,104.94z"/>
				</g>
			</g>
			<g>
				<rect x="112.29" y="94.4" class="st13" width="20.13" height="6.05"/>
				<g>
					<path class="st13" d="M132.42,100.46c0,2.5-4.51,4.52-10.06,4.52c-5.56,0-10.06-2.02-10.06-4.52s4.51-4.52,10.06-4.52
						C127.92,95.94,132.42,97.96,132.42,100.46z"/>
					<path class="st14" d="M132.42,94.4c0,2.5-4.51,4.52-10.06,4.52c-5.56,0-10.06-2.02-10.06-4.52c0-2.5,4.51-4.52,10.06-4.52
						C127.92,89.89,132.42,91.91,132.42,94.4z"/>
				</g>
			</g>
		</g>
		<g class="st7">
			<g>
				<polygon class="st15" points="147.04,99.95 111.58,120.97 111.58,77.03 147.04,56.05 				"/>
				<polygon class="st16" points="111.58,120.97 42.66,99 42.66,55.05 111.58,77.03 				"/>
				<polygon class="st17" points="111.58,77.03 42.66,55.05 78.12,34.07 147.04,56.05 				"/>
			</g>
			<g>
				<rect x="58.17" y="49.01" class="st15" width="20.13" height="6.05"/>
				<g>
					<path class="st15" d="M78.3,55.06c0,2.5-4.51,4.52-10.06,4.52c-5.56,0-10.06-2.02-10.06-4.52c0-2.5,4.51-4.52,10.06-4.52
						C73.79,50.55,78.3,52.57,78.3,55.06z"/>
					<path class="st17" d="M78.3,49.01c0,2.5-4.51,4.52-10.06,4.52c-5.56,0-10.06-2.02-10.06-4.52c0-2.5,4.51-4.52,10.06-4.52
						C73.79,44.49,78.3,46.52,78.3,49.01z"/>
				</g>
			</g>
			<g>
				<rect x="76.27" y="37.69" class="st15" width="20.13" height="6.05"/>
				<g>
					<path class="st15" d="M96.4,43.74c0,2.5-4.51,4.52-10.06,4.52c-5.56,0-10.06-2.02-10.06-4.52c0-2.5,4.51-4.52,10.06-4.52
						C91.89,39.22,96.4,41.25,96.4,43.74z"/>
					<path class="st17" d="M96.4,37.69c0,2.5-4.51,4.52-10.06,4.52c-5.56,0-10.06-2.02-10.06-4.52s4.51-4.52,10.06-4.52
						C91.89,33.17,96.4,35.19,96.4,37.69z"/>
				</g>
			</g>
			<g>
				<rect x="94.95" y="61.04" class="st15" width="20.13" height="6.05"/>
				<g>
					<path class="st15" d="M115.08,67.09c0,2.5-4.51,4.52-10.06,4.52c-5.56,0-10.06-2.02-10.06-4.52c0-2.5,4.51-4.52,10.06-4.52
						C110.57,62.58,115.08,64.6,115.08,67.09z"/>
					<path class="st17" d="M115.08,61.04c0,2.5-4.51,4.52-10.06,4.52c-5.56,0-10.06-2.02-10.06-4.52c0-2.5,4.51-4.52,10.06-4.52
						C110.57,56.52,115.08,58.55,115.08,61.04z"/>
				</g>
			</g>
			<g>
				<rect x="112.4" y="50.5" class="st15" width="20.13" height="6.05"/>
				<g>
					<path class="st15" d="M132.52,56.56c0,2.5-4.51,4.52-10.06,4.52c-5.56,0-10.06-2.02-10.06-4.52s4.51-4.52,10.06-4.52
						C128.02,52.04,132.52,54.06,132.52,56.56z"/>
					<path class="st17" d="M132.52,50.5c0,2.5-4.51,4.52-10.06,4.52c-5.56,0-10.06-2.02-10.06-4.52s4.51-4.52,10.06-4.52
						C128.02,45.99,132.52,48.01,132.52,50.5z"/>
				</g>
			</g>
		</g>
		<g class="st7">
			<g>
				<polygon class="st18" points="147.04,55.99 111.58,77.01 111.58,33.07 147.04,12.09 				"/>
				<polygon class="st19" points="111.58,77.01 42.66,55.04 42.66,11.09 111.58,33.07 				"/>
				<polygon class="st20" points="111.58,33.07 42.66,11.09 78.12,-9.89 147.04,12.09 				"/>
			</g>
			<g>
				<rect x="58.17" y="5.05" class="st18" width="20.13" height="6.05"/>
				<g>
					<path class="st18" d="M78.3,11.1c0,2.5-4.51,4.52-10.06,4.52c-5.56,0-10.06-2.02-10.06-4.52c0-2.5,4.51-4.52,10.06-4.52
						C73.79,6.59,78.3,8.61,78.3,11.1z"/>
					<path class="st20" d="M78.3,5.05c0,2.5-4.51,4.52-10.06,4.52c-5.56,0-10.06-2.02-10.06-4.52s4.51-4.52,10.06-4.52
						C73.79,0.53,78.3,2.56,78.3,5.05z"/>
				</g>
			</g>
			<g>
				<rect x="76.27" y="-6.27" class="st18" width="20.13" height="6.05"/>
				<g>
					<path class="st18" d="M96.4-0.22c0,2.5-4.51,4.52-10.06,4.52c-5.56,0-10.06-2.02-10.06-4.52c0-2.5,4.51-4.52,10.06-4.52
						C91.89-4.74,96.4-2.71,96.4-0.22z"/>
					<path class="st20" d="M96.4-6.27c0,2.5-4.51,4.52-10.06,4.52c-5.56,0-10.06-2.02-10.06-4.52s4.51-4.52,10.06-4.52
						C91.89-10.79,96.4-8.76,96.4-6.27z"/>
				</g>
			</g>
			<g>
				<rect x="94.95" y="17.08" class="st18" width="20.13" height="6.05"/>
				<g>
					<path class="st18" d="M115.08,23.13c0,2.5-4.51,4.52-10.06,4.52c-5.56,0-10.06-2.02-10.06-4.52s4.51-4.52,10.06-4.52
						C110.57,18.62,115.08,20.64,115.08,23.13z"/>
					<path class="st20" d="M115.08,17.08c0,2.5-4.51,4.52-10.06,4.52c-5.56,0-10.06-2.02-10.06-4.52c0-2.5,4.51-4.52,10.06-4.52
						C110.57,12.56,115.08,14.59,115.08,17.08z"/>
				</g>
			</g>
			<g>
				<rect x="112.4" y="6.54" class="st18" width="20.13" height="6.05"/>
				<g>
					<path class="st18" d="M132.52,12.6c0,2.5-4.51,4.52-10.06,4.52c-5.56,0-10.06-2.02-10.06-4.52c0-2.5,4.51-4.52,10.06-4.52
						C128.02,8.08,132.52,10.1,132.52,12.6z"/>
					<path class="st20" d="M132.52,6.54c0,2.5-4.51,4.52-10.06,4.52c-5.56,0-10.06-2.02-10.06-4.52c0-2.5,4.51-4.52,10.06-4.52
						C128.02,2.03,132.52,4.05,132.52,6.54z"/>
				</g>
			</g>
		</g>
		<g class="st7">
			<g>
				<polygon class="st8" points="147.04,12.09 111.58,33.11 111.58,-10.83 147.04,-31.81 				"/>
				<polygon class="st9" points="111.58,33.11 42.66,11.14 42.66,-32.81 111.58,-10.83 				"/>
				<polygon class="st10" points="111.58,-10.83 42.66,-32.81 78.12,-53.79 147.04,-31.81 				"/>
			</g>
			<g>
				<rect x="58.17" y="-38.85" class="st11" width="20.13" height="6.05"/>
				<g>
					<path class="st11" d="M78.3-32.8c0,2.5-4.51,4.52-10.06,4.52c-5.56,0-10.06-2.02-10.06-4.52c0-2.5,4.51-4.52,10.06-4.52
						C73.79-37.32,78.3-35.29,78.3-32.8z"/>
					<path class="st10" d="M78.3-38.85c0,2.5-4.51,4.52-10.06,4.52c-5.56,0-10.06-2.02-10.06-4.52c0-2.5,4.51-4.52,10.06-4.52
						C73.79-43.37,78.3-41.34,78.3-38.85z"/>
				</g>
			</g>
			<g>
				<rect x="76.27" y="-50.17" class="st11" width="20.13" height="6.05"/>
				<g>
					<path class="st11" d="M96.4-44.12c0,2.5-4.51,4.52-10.06,4.52c-5.56,0-10.06-2.02-10.06-4.52c0-2.5,4.51-4.52,10.06-4.52
						C91.89-48.64,96.4-46.61,96.4-44.12z"/>
					<path class="st10" d="M96.4-50.17c0,2.5-4.51,4.52-10.06,4.52c-5.56,0-10.06-2.02-10.06-4.52s4.51-4.52,10.06-4.52
						C91.89-54.69,96.4-52.67,96.4-50.17z"/>
				</g>
			</g>
			<g>
				<rect x="94.95" y="-26.82" class="st11" width="20.13" height="6.05"/>
				<g>
					<path class="st11" d="M115.08-20.77c0,2.5-4.51,4.52-10.06,4.52c-5.56,0-10.06-2.02-10.06-4.52s4.51-4.52,10.06-4.52
						C110.57-25.28,115.08-23.26,115.08-20.77z"/>
					<path class="st10" d="M115.08-26.82c0,2.5-4.51,4.52-10.06,4.52c-5.56,0-10.06-2.02-10.06-4.52c0-2.5,4.51-4.52,10.06-4.52
						C110.57-31.34,115.08-29.31,115.08-26.82z"/>
				</g>
			</g>
			<g>
				<rect x="112.4" y="-37.36" class="st11" width="20.13" height="6.05"/>
				<g>
					<path class="st11" d="M132.52-31.3c0,2.5-4.51,4.52-10.06,4.52c-5.56,0-10.06-2.02-10.06-4.52c0-2.5,4.51-4.52,10.06-4.52
						C128.02-35.82,132.52-33.8,132.52-31.3z"/>
					<path class="st10" d="M132.52-37.36c0,2.5-4.51,4.52-10.06,4.52c-5.56,0-10.06-2.02-10.06-4.52c0-2.5,4.51-4.52,10.06-4.52
						C128.02-41.87,132.52-39.85,132.52-37.36z"/>
				</g>
			</g>
		</g>
		<g class="st7">
			<g>
				<polygon class="st8" points="115.64,-41.95 80.18,-20.93 80.18,-64.87 115.64,-85.85 				"/>
				<polygon class="st9" points="80.18,-20.93 11.26,-42.91 11.26,-86.86 80.18,-64.87 				"/>
				<polygon class="st10" points="80.18,-64.87 11.26,-86.86 46.72,-107.84 115.64,-85.85 				"/>
			</g>
			<g>
				<rect x="26.76" y="-92.89" class="st11" width="20.13" height="6.05"/>
				<g>
					<path class="st11" d="M46.89-86.84c0,2.5-4.51,4.52-10.06,4.52c-5.56,0-10.06-2.02-10.06-4.52c0-2.5,4.51-4.52,10.06-4.52
						C42.39-91.36,46.89-89.34,46.89-86.84z"/>
					<path class="st10" d="M46.89-92.89c0,2.5-4.51,4.52-10.06,4.52c-5.56,0-10.06-2.02-10.06-4.52c0-2.5,4.51-4.52,10.06-4.52
						C42.39-97.41,46.89-95.39,46.89-92.89z"/>
				</g>
			</g>
			<g>
				<rect x="44.87" y="-104.21" class="st11" width="20.13" height="6.05"/>
				<g>
					<path class="st11" d="M65-98.16c0,2.5-4.51,4.52-10.06,4.52c-5.56,0-10.06-2.02-10.06-4.52c0-2.5,4.51-4.52,10.06-4.52
						C60.49-102.68,65-100.66,65-98.16z"/>
					<path class="st10" d="M65-104.21c0,2.5-4.51,4.52-10.06,4.52c-5.56,0-10.06-2.02-10.06-4.52c0-2.5,4.51-4.52,10.06-4.52
						C60.49-108.73,65-106.71,65-104.21z"/>
				</g>
			</g>
			<g>
				<rect x="63.55" y="-80.86" class="st11" width="20.13" height="6.05"/>
				<g>
					<path class="st11" d="M83.68-74.81c0,2.5-4.51,4.52-10.06,4.52c-5.56,0-10.06-2.02-10.06-4.52c0-2.5,4.51-4.52,10.06-4.52
						C79.17-79.33,83.68-77.31,83.68-74.81z"/>
					<path class="st10" d="M83.68-80.86c0,2.5-4.51,4.52-10.06,4.52c-5.56,0-10.06-2.02-10.06-4.52c0-2.5,4.51-4.52,10.06-4.52
						C79.17-85.38,83.68-83.36,83.68-80.86z"/>
				</g>
			</g>
			<g>
				<rect x="80.99" y="-91.4" class="st11" width="20.13" height="6.05"/>
				<g>
					<path class="st11" d="M101.12-85.35c0,2.5-4.51,4.52-10.06,4.52c-5.56,0-10.06-2.02-10.06-4.52c0-2.5,4.51-4.52,10.06-4.52
						C96.61-89.87,101.12-87.84,101.12-85.35z"/>
					<path class="st10" d="M101.12-91.4c0,2.5-4.51,4.52-10.06,4.52c-5.56,0-10.06-2.02-10.06-4.52c0-2.5,4.51-4.52,10.06-4.52
						C96.61-95.92,101.12-93.9,101.12-91.4z"/>
				</g>
			</g>
		</g>
		<g class="st7">
			<g>
				<polygon class="st3" points="184.81,-19.9 149.36,1.12 149.36,-42.82 184.81,-63.8 				"/>
				<polygon class="st4" points="149.36,1.12 80.43,-20.86 80.43,-64.81 149.36,-42.82 				"/>
				<polygon class="st5" points="149.36,-42.82 80.43,-64.81 115.89,-85.79 184.81,-63.8 				"/>
			</g>
			<g>
				<rect x="95.94" y="-70.84" class="st3" width="20.13" height="6.05"/>
				<g>
					<path class="st3" d="M116.07-64.79c0,2.5-4.51,4.52-10.06,4.52c-5.56,0-10.06-2.02-10.06-4.52c0-2.5,4.51-4.52,10.06-4.52
						C111.56-69.31,116.07-67.29,116.07-64.79z"/>
					<path class="st5" d="M116.07-70.84c0,2.5-4.51,4.52-10.06,4.52c-5.56,0-10.06-2.02-10.06-4.52c0-2.5,4.51-4.52,10.06-4.52
						C111.56-75.36,116.07-73.34,116.07-70.84z"/>
				</g>
			</g>
			<g>
				<rect x="114.05" y="-82.16" class="st3" width="20.13" height="6.05"/>
				<g>
					<path class="st3" d="M134.17-76.11c0,2.5-4.51,4.52-10.06,4.52c-5.56,0-10.06-2.02-10.06-4.52c0-2.5,4.51-4.52,10.06-4.52
						C129.67-80.63,134.17-78.61,134.17-76.11z"/>
					<path class="st5" d="M134.17-82.16c0,2.5-4.51,4.52-10.06,4.52c-5.56,0-10.06-2.02-10.06-4.52s4.51-4.52,10.06-4.52
						C129.67-86.68,134.17-84.66,134.17-82.16z"/>
				</g>
			</g>
			<g>
				<rect x="132.72" y="-58.81" class="st3" width="20.13" height="6.05"/>
				<g>
					<path class="st3" d="M152.85-52.76c0,2.5-4.51,4.52-10.06,4.52c-5.56,0-10.06-2.02-10.06-4.52c0-2.5,4.51-4.52,10.06-4.52
						C148.35-57.28,152.85-55.25,152.85-52.76z"/>
					<path class="st5" d="M152.85-58.81c0,2.5-4.51,4.52-10.06,4.52c-5.56,0-10.06-2.02-10.06-4.52c0-2.5,4.51-4.52,10.06-4.52
						C148.35-63.33,152.85-61.31,152.85-58.81z"/>
				</g>
			</g>
			<g>
				<rect x="150.17" y="-69.35" class="st3" width="20.13" height="6.05"/>
				<g>
					<path class="st3" d="M170.29-63.3c0,2.5-4.51,4.52-10.06,4.52c-5.56,0-10.06-2.02-10.06-4.52c0-2.5,4.51-4.52,10.06-4.52
						C165.79-67.82,170.29-65.79,170.29-63.3z"/>
					<path class="st5" d="M170.29-69.35c0,2.5-4.51,4.52-10.06,4.52c-5.56,0-10.06-2.02-10.06-4.52c0-2.5,4.51-4.52,10.06-4.52
						C165.79-73.87,170.29-71.85,170.29-69.35z"/>
				</g>
			</g>
		</g>
		<g class="st7">
			<g>
				<polygon class="st3" points="250.99,308.1 215.54,329.12 215.54,285.18 250.99,264.2 				"/>
				<polygon class="st4" points="215.54,329.12 146.61,307.15 146.61,263.2 215.54,285.18 				"/>
				<polygon class="st5" points="215.54,285.18 146.61,263.2 182.07,242.22 250.99,264.2 				"/>
			</g>
			<g>
				<rect x="162.12" y="257.16" class="st3" width="20.13" height="6.05"/>
				<g>
					<path class="st3" d="M182.25,263.21c0,2.5-4.51,4.52-10.06,4.52c-5.56,0-10.06-2.02-10.06-4.52c0-2.5,4.51-4.52,10.06-4.52
						C177.74,258.7,182.25,260.72,182.25,263.21z"/>
					<path class="st5" d="M182.25,257.16c0,2.5-4.51,4.52-10.06,4.52c-5.56,0-10.06-2.02-10.06-4.52c0-2.5,4.51-4.52,10.06-4.52
						C177.74,252.64,182.25,254.67,182.25,257.16z"/>
				</g>
			</g>
			<g>
				<rect x="180.22" y="245.84" class="st3" width="20.13" height="6.05"/>
				<g>
					<path class="st3" d="M200.35,251.89c0,2.5-4.51,4.52-10.06,4.52c-5.56,0-10.06-2.02-10.06-4.52c0-2.5,4.51-4.52,10.06-4.52
						C195.85,247.37,200.35,249.4,200.35,251.89z"/>
					<path class="st5" d="M200.35,245.84c0,2.5-4.51,4.52-10.06,4.52c-5.56,0-10.06-2.02-10.06-4.52c0-2.5,4.51-4.52,10.06-4.52
						C195.85,241.32,200.35,243.34,200.35,245.84z"/>
				</g>
			</g>
			<g>
				<rect x="198.9" y="269.19" class="st3" width="20.13" height="6.05"/>
				<g>
					<path class="st3" d="M219.03,275.24c0,2.5-4.51,4.52-10.06,4.52c-5.56,0-10.06-2.02-10.06-4.52c0-2.5,4.51-4.52,10.06-4.52
						C214.53,270.73,219.03,272.75,219.03,275.24z"/>
					<path class="st5" d="M219.03,269.19c0,2.5-4.51,4.52-10.06,4.52c-5.56,0-10.06-2.02-10.06-4.52c0-2.5,4.51-4.52,10.06-4.52
						C214.53,264.67,219.03,266.7,219.03,269.19z"/>
				</g>
			</g>
			<g>
				<rect x="216.35" y="258.65" class="st3" width="20.13" height="6.05"/>
				<g>
					<path class="st3" d="M236.47,264.71c0,2.5-4.51,4.52-10.06,4.52c-5.56,0-10.06-2.02-10.06-4.52s4.51-4.52,10.06-4.52
						C231.97,260.19,236.47,262.21,236.47,264.71z"/>
					<path class="st5" d="M236.47,258.65c0,2.5-4.51,4.52-10.06,4.52c-5.56,0-10.06-2.02-10.06-4.52s4.51-4.52,10.06-4.52
						C231.97,254.14,236.47,256.16,236.47,258.65z"/>
				</g>
			</g>
		</g>
		<g class="st7">
			<g>
				<polygon class="st13" points="222.48,-50.99 187.03,-29.97 187.03,-73.91 222.48,-94.89 				"/>
				<polygon class="st12" points="187.03,-29.97 118.1,-51.94 118.1,-95.89 187.03,-73.91 				"/>
				<polygon class="st14" points="187.03,-73.91 118.1,-95.89 153.56,-116.87 222.48,-94.89 				"/>
			</g>
			<g>
				<rect x="133.61" y="-101.93" class="st13" width="20.13" height="6.05"/>
				<g>
					<path class="st13" d="M153.74-95.88c0,2.5-4.51,4.52-10.06,4.52s-10.06-2.02-10.06-4.52c0-2.5,4.51-4.52,10.06-4.52
						S153.74-98.37,153.74-95.88z"/>
					<path class="st14" d="M153.74-101.93c0,2.5-4.51,4.52-10.06,4.52s-10.06-2.02-10.06-4.52c0-2.5,4.51-4.52,10.06-4.52
						S153.74-104.42,153.74-101.93z"/>
				</g>
			</g>
			<g>
				<rect x="151.72" y="-113.25" class="st13" width="20.13" height="6.05"/>
				<g>
					<path class="st13" d="M171.84-107.2c0,2.5-4.51,4.52-10.06,4.52c-5.56,0-10.06-2.02-10.06-4.52c0-2.5,4.51-4.52,10.06-4.52
						C167.34-111.72,171.84-109.69,171.84-107.2z"/>
					<path class="st14" d="M171.84-113.25c0,2.5-4.51,4.52-10.06,4.52c-5.56,0-10.06-2.02-10.06-4.52c0-2.5,4.51-4.52,10.06-4.52
						C167.34-117.77,171.84-115.75,171.84-113.25z"/>
				</g>
			</g>
			<g>
				<rect x="170.4" y="-89.9" class="st13" width="20.13" height="6.05"/>
				<g>
					<path class="st13" d="M190.52-83.85c0,2.5-4.51,4.52-10.06,4.52c-5.56,0-10.06-2.02-10.06-4.52c0-2.5,4.51-4.52,10.06-4.52
						C186.02-88.36,190.52-86.34,190.52-83.85z"/>
					<path class="st14" d="M190.52-89.9c0,2.5-4.51,4.52-10.06,4.52c-5.56,0-10.06-2.02-10.06-4.52c0-2.5,4.51-4.52,10.06-4.52
						C186.02-94.42,190.52-92.39,190.52-89.9z"/>
				</g>
			</g>
			<g>
				<rect x="187.84" y="-100.44" class="st13" width="20.13" height="6.05"/>
				<g>
					<path class="st13" d="M207.96-94.39c0,2.5-4.51,4.52-10.06,4.52c-5.56,0-10.06-2.02-10.06-4.52c0-2.5,4.51-4.52,10.06-4.52
						C203.46-98.9,207.96-96.88,207.96-94.39z"/>
					<path class="st14" d="M207.96-100.44c0,2.5-4.51,4.52-10.06,4.52c-5.56,0-10.06-2.02-10.06-4.52c0-2.5,4.51-4.52,10.06-4.52
						C203.46-104.96,207.96-102.93,207.96-100.44z"/>
				</g>
			</g>
		</g>
		<g class="st7">
			<g>
				<polygon class="st8" points="266.16,-81.18 230.7,-60.16 230.7,-104.1 266.16,-125.08 				"/>
				<polygon class="st9" points="230.7,-60.16 161.78,-82.13 161.78,-126.08 230.7,-104.1 				"/>
				<polygon class="st10" points="230.7,-104.1 161.78,-126.08 197.24,-147.07 266.16,-125.08 				"/>
			</g>
			<g>
				<rect x="177.29" y="-132.12" class="st11" width="20.13" height="6.05"/>
				<g>
					<path class="st11" d="M197.41-126.07c0,2.5-4.51,4.52-10.06,4.52c-5.56,0-10.06-2.02-10.06-4.52c0-2.5,4.51-4.52,10.06-4.52
						C192.91-130.59,197.41-128.56,197.41-126.07z"/>
					<path class="st10" d="M197.41-132.12c0,2.5-4.51,4.52-10.06,4.52c-5.56,0-10.06-2.02-10.06-4.52c0-2.5,4.51-4.52,10.06-4.52
						C192.91-136.64,197.41-134.62,197.41-132.12z"/>
				</g>
			</g>
			<g>
				<rect x="195.39" y="-143.44" class="st11" width="20.13" height="6.05"/>
				<g>
					<path class="st11" d="M215.52-137.39c0,2.5-4.51,4.52-10.06,4.52c-5.56,0-10.06-2.02-10.06-4.52c0-2.5,4.51-4.52,10.06-4.52
						C211.01-141.91,215.52-139.89,215.52-137.39z"/>
					<path class="st10" d="M215.52-143.44c0,2.5-4.51,4.52-10.06,4.52c-5.56,0-10.06-2.02-10.06-4.52c0-2.5,4.51-4.52,10.06-4.52
						C211.01-147.96,215.52-145.94,215.52-143.44z"/>
				</g>
			</g>
			<g>
				<rect x="214.07" y="-120.09" class="st11" width="20.13" height="6.05"/>
				<g>
					<path class="st11" d="M234.2-114.04c0,2.5-4.51,4.52-10.06,4.52c-5.56,0-10.06-2.02-10.06-4.52s4.51-4.52,10.06-4.52
						C229.69-118.56,234.2-116.53,234.2-114.04z"/>
					<path class="st10" d="M234.2-120.09c0,2.5-4.51,4.52-10.06,4.52c-5.56,0-10.06-2.02-10.06-4.52s4.51-4.52,10.06-4.52
						C229.69-124.61,234.2-122.58,234.2-120.09z"/>
				</g>
			</g>
			<g>
				<rect x="231.51" y="-130.63" class="st11" width="20.13" height="6.05"/>
				<g>
					<path class="st11" d="M251.64-124.58c0,2.5-4.51,4.52-10.06,4.52c-5.56,0-10.06-2.02-10.06-4.52c0-2.5,4.51-4.52,10.06-4.52
						C247.13-129.09,251.64-127.07,251.64-124.58z"/>
					<path class="st10" d="M251.64-130.63c0,2.5-4.51,4.52-10.06,4.52c-5.56,0-10.06-2.02-10.06-4.52s4.51-4.52,10.06-4.52
						C247.13-135.15,251.64-133.12,251.64-130.63z"/>
				</g>
			</g>
		</g>
	</g>
	<g class="st0">
		<g class="st7">
			<g>
				<polygon class="st13" points="137.66,289.34 173.41,310.54 173.41,266.24 137.66,245.08 				"/>
				<polygon class="st13" points="173.41,310.54 242.9,288.38 242.9,244.07 173.41,266.24 				"/>
				<polygon class="st14" points="173.41,266.24 242.9,244.07 207.15,222.92 137.66,245.08 				"/>
			</g>
			<g>
				<rect x="206.97" y="237.99" class="st13" width="20.29" height="6.1"/>
				<g>
					<path class="st13" d="M206.97,244.09c0,2.52,4.54,4.56,10.15,4.56s10.15-2.04,10.15-4.56c0-2.52-4.54-4.56-10.15-4.56
						S206.97,241.57,206.97,244.09z"/>
					<path class="st14" d="M206.97,237.99c0,2.52,4.54,4.56,10.15,4.56s10.15-2.04,10.15-4.56c0-2.52-4.54-4.56-10.15-4.56
						S206.97,235.47,206.97,237.99z"/>
				</g>
			</g>
			<g>
				<rect x="188.72" y="226.57" class="st13" width="20.29" height="6.1"/>
				<g>
					<path class="st13" d="M188.72,232.67c0,2.52,4.54,4.56,10.15,4.56c5.6,0,10.15-2.04,10.15-4.56s-4.54-4.56-10.15-4.56
						C193.26,228.12,188.72,230.16,188.72,232.67z"/>
					<path class="st14" d="M188.72,226.57c0,2.52,4.54,4.56,10.15,4.56c5.6,0,10.15-2.04,10.15-4.56c0-2.52-4.54-4.56-10.15-4.56
						C193.26,222.02,188.72,224.06,188.72,226.57z"/>
				</g>
			</g>
			<g>
				<rect x="169.89" y="250.12" class="st13" width="20.29" height="6.1"/>
				<g>
					<path class="st13" d="M169.89,256.22c0,2.52,4.54,4.56,10.15,4.56c5.6,0,10.15-2.04,10.15-4.56c0-2.52-4.54-4.56-10.15-4.56
						C174.43,251.66,169.89,253.7,169.89,256.22z"/>
					<path class="st14" d="M169.89,250.12c0,2.52,4.54,4.56,10.15,4.56c5.6,0,10.15-2.04,10.15-4.56s-4.54-4.56-10.15-4.56
						C174.43,245.56,169.89,247.6,169.89,250.12z"/>
				</g>
			</g>
			<g>
				<rect x="152.3" y="239.49" class="st13" width="20.29" height="6.1"/>
				<g>
					<path class="st13" d="M152.3,245.59c0,2.52,4.54,4.56,10.15,4.56c5.6,0,10.15-2.04,10.15-4.56c0-2.52-4.54-4.56-10.15-4.56
						C156.84,241.04,152.3,243.08,152.3,245.59z"/>
					<path class="st14" d="M152.3,239.49c0,2.52,4.54,4.56,10.15,4.56c5.6,0,10.15-2.04,10.15-4.56c0-2.52-4.54-4.56-10.15-4.56
						C156.84,234.94,152.3,236.98,152.3,239.49z"/>
				</g>
			</g>
		</g>
		<g class="st7">
			<g>
				<polygon class="st4" points="68.26,311.58 104.01,332.77 104.01,288.47 68.26,267.32 				"/>
				<polygon class="st3" points="104.01,332.77 173.5,310.62 173.5,266.3 104.01,288.47 				"/>
				<polygon class="st5" points="104.01,288.47 173.5,266.3 137.75,245.15 68.26,267.32 				"/>
			</g>
			<g>
				<rect x="137.57" y="260.22" class="st3" width="20.29" height="6.1"/>
				<g>
					<path class="st3" d="M137.57,266.32c0,2.52,4.54,4.56,10.15,4.56c5.6,0,10.15-2.04,10.15-4.56c0-2.52-4.54-4.56-10.15-4.56
						C142.11,261.77,137.57,263.8,137.57,266.32z"/>
					<path class="st5" d="M137.57,260.22c0,2.52,4.54,4.56,10.15,4.56c5.6,0,10.15-2.04,10.15-4.56c0-2.52-4.54-4.56-10.15-4.56
						C142.11,255.66,137.57,257.7,137.57,260.22z"/>
				</g>
			</g>
			<g>
				<rect x="119.32" y="248.8" class="st3" width="20.29" height="6.1"/>
				<g>
					<path class="st3" d="M119.32,254.91c0,2.52,4.54,4.56,10.15,4.56c5.6,0,10.15-2.04,10.15-4.56s-4.54-4.56-10.15-4.56
						C123.86,250.35,119.32,252.39,119.32,254.91z"/>
					<path class="st5" d="M119.32,248.8c0,2.52,4.54,4.56,10.15,4.56c5.6,0,10.15-2.04,10.15-4.56s-4.54-4.56-10.15-4.56
						C123.86,244.25,119.32,246.29,119.32,248.8z"/>
				</g>
			</g>
			<g>
				<rect x="100.49" y="272.35" class="st3" width="20.29" height="6.1"/>
				<g>
					<path class="st3" d="M100.49,278.45c0,2.52,4.54,4.56,10.15,4.56c5.6,0,10.15-2.04,10.15-4.56c0-2.52-4.54-4.56-10.15-4.56
						C105.03,273.89,100.49,275.93,100.49,278.45z"/>
					<path class="st5" d="M100.49,272.35c0,2.52,4.54,4.56,10.15,4.56c5.6,0,10.15-2.04,10.15-4.56c0-2.52-4.54-4.56-10.15-4.56
						C105.03,267.79,100.49,269.83,100.49,272.35z"/>
				</g>
			</g>
			<g>
				<rect x="82.9" y="261.72" class="st3" width="20.29" height="6.1"/>
				<g>
					<path class="st3" d="M82.9,267.82c0,2.52,4.54,4.56,10.15,4.56c5.6,0,10.15-2.04,10.15-4.56c0-2.52-4.54-4.56-10.15-4.56
						C87.44,263.27,82.9,265.31,82.9,267.82z"/>
					<path class="st5" d="M82.9,261.72c0,2.52,4.54,4.56,10.15,4.56c5.6,0,10.15-2.04,10.15-4.56c0-2.52-4.54-4.56-10.15-4.56
						C87.44,257.17,82.9,259.21,82.9,261.72z"/>
				</g>
			</g>
		</g>
		<g class="st7">
			<g>
				<polygon class="st4" points="68.35,267.11 104.1,288.31 104.1,244.01 68.35,222.85 				"/>
				<polygon class="st3" points="104.1,288.31 173.59,266.15 173.59,221.84 104.1,244.01 				"/>
				<polygon class="st5" points="104.1,244.01 173.59,221.84 137.84,200.69 68.35,222.85 				"/>
			</g>
			<g>
				<rect x="137.66" y="215.76" class="st3" width="20.29" height="6.1"/>
				<g>
					<path class="st3" d="M137.66,221.86c0,2.52,4.54,4.56,10.15,4.56c5.6,0,10.15-2.04,10.15-4.56c0-2.52-4.54-4.56-10.15-4.56
						C142.2,217.3,137.66,219.34,137.66,221.86z"/>
					<path class="st5" d="M137.66,215.76c0,2.52,4.54,4.56,10.15,4.56c5.6,0,10.15-2.04,10.15-4.56c0-2.52-4.54-4.56-10.15-4.56
						C142.2,211.2,137.66,213.24,137.66,215.76z"/>
				</g>
			</g>
			<g>
				<rect x="119.41" y="204.34" class="st3" width="20.29" height="6.1"/>
				<g>
					<path class="st3" d="M119.41,210.44c0,2.52,4.54,4.56,10.15,4.56c5.6,0,10.15-2.04,10.15-4.56c0-2.52-4.54-4.56-10.15-4.56
						C123.95,205.89,119.41,207.93,119.41,210.44z"/>
					<path class="st5" d="M119.41,204.34c0,2.52,4.54,4.56,10.15,4.56c5.6,0,10.15-2.04,10.15-4.56c0-2.52-4.54-4.56-10.15-4.56
						C123.95,199.79,119.41,201.83,119.41,204.34z"/>
				</g>
			</g>
			<g>
				<rect x="100.57" y="227.89" class="st3" width="20.29" height="6.1"/>
				<g>
					<path class="st3" d="M100.57,233.99c0,2.52,4.54,4.56,10.15,4.56c5.6,0,10.15-2.04,10.15-4.56s-4.54-4.56-10.15-4.56
						C105.12,229.43,100.57,231.47,100.57,233.99z"/>
					<path class="st5" d="M100.57,227.89c0,2.52,4.54,4.56,10.15,4.56c5.6,0,10.15-2.04,10.15-4.56s-4.54-4.56-10.15-4.56
						C105.12,223.33,100.57,225.37,100.57,227.89z"/>
				</g>
			</g>
			<g>
				<rect x="82.99" y="217.26" class="st3" width="20.29" height="6.1"/>
				<g>
					<path class="st3" d="M82.99,223.36c0,2.52,4.54,4.56,10.15,4.56c5.6,0,10.15-2.04,10.15-4.56c0-2.52-4.54-4.56-10.15-4.56
						C87.53,218.81,82.99,220.85,82.99,223.36z"/>
					<path class="st5" d="M82.99,217.26c0,2.52,4.54,4.56,10.15,4.56c5.6,0,10.15-2.04,10.15-4.56s-4.54-4.56-10.15-4.56
						C87.53,212.7,82.99,214.74,82.99,217.26z"/>
				</g>
			</g>
		</g>
		<g class="st7">
			<g>
				<polygon class="st12" points="68.35,222.77 104.1,243.96 104.1,199.66 68.35,178.51 				"/>
				<polygon class="st13" points="104.1,243.96 173.59,221.81 173.59,177.5 104.1,199.66 				"/>
				<polygon class="st14" points="104.1,199.66 173.59,177.5 137.84,156.34 68.35,178.51 				"/>
			</g>
			<g>
				<rect x="137.66" y="171.41" class="st13" width="20.29" height="6.1"/>
				<g>
					<path class="st13" d="M137.66,177.51c0,2.52,4.54,4.56,10.15,4.56c5.6,0,10.15-2.04,10.15-4.56s-4.54-4.56-10.15-4.56
						C142.2,172.96,137.66,175,137.66,177.51z"/>
					<path class="st14" d="M137.66,171.41c0,2.52,4.54,4.56,10.15,4.56c5.6,0,10.15-2.04,10.15-4.56c0-2.52-4.54-4.56-10.15-4.56
						C142.2,166.86,137.66,168.9,137.66,171.41z"/>
				</g>
			</g>
			<g>
				<rect x="119.41" y="160" class="st13" width="20.29" height="6.1"/>
				<g>
					<path class="st13" d="M119.41,166.1c0,2.52,4.54,4.56,10.15,4.56c5.6,0,10.15-2.04,10.15-4.56c0-2.52-4.54-4.56-10.15-4.56
						C123.95,161.54,119.41,163.58,119.41,166.1z"/>
					<path class="st14" d="M119.41,160c0,2.52,4.54,4.56,10.15,4.56c5.6,0,10.15-2.04,10.15-4.56c0-2.52-4.54-4.56-10.15-4.56
						C123.95,155.44,119.41,157.48,119.41,160z"/>
				</g>
			</g>
			<g>
				<rect x="100.57" y="183.54" class="st13" width="20.29" height="6.1"/>
				<g>
					<path class="st13" d="M100.57,189.64c0,2.52,4.54,4.56,10.15,4.56c5.6,0,10.15-2.04,10.15-4.56s-4.54-4.56-10.15-4.56
						C105.12,185.09,100.57,187.13,100.57,189.64z"/>
					<path class="st14" d="M100.57,183.54c0,2.52,4.54,4.56,10.15,4.56c5.6,0,10.15-2.04,10.15-4.56s-4.54-4.56-10.15-4.56
						C105.12,178.99,100.57,181.02,100.57,183.54z"/>
				</g>
			</g>
			<g>
				<rect x="82.99" y="172.92" class="st13" width="20.29" height="6.1"/>
				<g>
					<path class="st13" d="M82.99,179.02c0,2.52,4.54,4.56,10.15,4.56c5.6,0,10.15-2.04,10.15-4.56c0-2.52-4.54-4.56-10.15-4.56
						C87.53,174.46,82.99,176.5,82.99,179.02z"/>
					<path class="st14" d="M82.99,172.92c0,2.52,4.54,4.56,10.15,4.56c5.6,0,10.15-2.04,10.15-4.56c0-2.52-4.54-4.56-10.15-4.56
						C87.53,168.36,82.99,170.4,82.99,172.92z"/>
				</g>
			</g>
		</g>
		<g class="st7">
			<g>
				<polygon class="st19" points="68.16,178.51 103.91,199.7 103.91,155.4 68.16,134.25 				"/>
				<polygon class="st18" points="103.91,199.7 173.4,177.55 173.4,133.24 103.91,155.4 				"/>
				<polygon class="st20" points="103.91,155.4 173.4,133.24 137.65,112.08 68.16,134.25 				"/>
			</g>
			<g>
				<rect x="137.47" y="127.15" class="st18" width="20.29" height="6.1"/>
				<g>
					<path class="st18" d="M137.47,133.25c0,2.52,4.54,4.56,10.15,4.56c5.6,0,10.15-2.04,10.15-4.56s-4.54-4.56-10.15-4.56
						C142.01,128.7,137.47,130.74,137.47,133.25z"/>
					<path class="st20" d="M137.47,127.15c0,2.52,4.54,4.56,10.15,4.56c5.6,0,10.15-2.04,10.15-4.56c0-2.52-4.54-4.56-10.15-4.56
						C142.01,122.59,137.47,124.63,137.47,127.15z"/>
				</g>
			</g>
			<g>
				<rect x="119.22" y="115.74" class="st18" width="20.29" height="6.1"/>
				<g>
					<path class="st18" d="M119.22,121.84c0,2.52,4.54,4.56,10.15,4.56c5.6,0,10.15-2.04,10.15-4.56c0-2.52-4.54-4.56-10.15-4.56
						C123.76,117.28,119.22,119.32,119.22,121.84z"/>
					<path class="st20" d="M119.22,115.74c0,2.52,4.54,4.56,10.15,4.56c5.6,0,10.15-2.04,10.15-4.56c0-2.52-4.54-4.56-10.15-4.56
						C123.76,111.18,119.22,113.22,119.22,115.74z"/>
				</g>
			</g>
			<g>
				<rect x="100.38" y="139.28" class="st18" width="20.29" height="6.1"/>
				<g>
					<path class="st18" d="M100.38,145.38c0,2.52,4.54,4.56,10.15,4.56c5.6,0,10.15-2.04,10.15-4.56c0-2.52-4.54-4.56-10.15-4.56
						C104.93,140.83,100.38,142.87,100.38,145.38z"/>
					<path class="st20" d="M100.38,139.28c0,2.52,4.54,4.56,10.15,4.56c5.6,0,10.15-2.04,10.15-4.56s-4.54-4.56-10.15-4.56
						C104.93,134.72,100.38,136.76,100.38,139.28z"/>
				</g>
			</g>
			<g>
				<rect x="82.8" y="128.65" class="st18" width="20.29" height="6.1"/>
				<g>
					<path class="st18" d="M82.8,134.76c0,2.52,4.54,4.56,10.15,4.56c5.6,0,10.15-2.04,10.15-4.56c0-2.52-4.54-4.56-10.15-4.56
						C87.34,130.2,82.8,132.24,82.8,134.76z"/>
					<path class="st20" d="M82.8,128.65c0,2.52,4.54,4.56,10.15,4.56c5.6,0,10.15-2.04,10.15-4.56c0-2.52-4.54-4.56-10.15-4.56
						C87.34,124.1,82.8,126.14,82.8,128.65z"/>
				</g>
			</g>
		</g>
		<g class="st7">
			<g>
				<polygon class="st16" points="105.33,122.7 141.08,143.9 141.08,99.59 105.33,78.44 				"/>
				<polygon class="st15" points="141.08,143.9 210.57,121.74 210.57,77.43 141.08,99.59 				"/>
				<polygon class="st17" points="141.08,99.59 210.57,77.43 174.82,56.28 105.33,78.44 				"/>
			</g>
			<g>
				<rect x="174.65" y="71.34" class="st15" width="20.29" height="6.1"/>
				<g>
					<path class="st15" d="M174.65,77.45c0,2.52,4.54,4.56,10.15,4.56c5.6,0,10.15-2.04,10.15-4.56s-4.54-4.56-10.15-4.56
						C179.19,72.89,174.65,74.93,174.65,77.45z"/>
					<path class="st17" d="M174.65,71.34c0,2.52,4.54,4.56,10.15,4.56c5.6,0,10.15-2.04,10.15-4.56s-4.54-4.56-10.15-4.56
						C179.19,66.79,174.65,68.83,174.65,71.34z"/>
				</g>
			</g>
			<g>
				<rect x="156.39" y="59.93" class="st15" width="20.29" height="6.1"/>
				<g>
					<path class="st15" d="M156.39,66.03c0,2.52,4.54,4.56,10.15,4.56s10.15-2.04,10.15-4.56c0-2.52-4.54-4.56-10.15-4.56
						S156.39,63.52,156.39,66.03z"/>
					<path class="st17" d="M156.39,59.93c0,2.52,4.54,4.56,10.15,4.56s10.15-2.04,10.15-4.56c0-2.52-4.54-4.56-10.15-4.56
						S156.39,57.41,156.39,59.93z"/>
				</g>
			</g>
			<g>
				<rect x="137.56" y="83.47" class="st15" width="20.29" height="6.1"/>
				<g>
					<path class="st15" d="M137.56,89.57c0,2.52,4.54,4.56,10.15,4.56c5.6,0,10.15-2.04,10.15-4.56c0-2.52-4.54-4.56-10.15-4.56
						C142.1,85.02,137.56,87.06,137.56,89.57z"/>
					<path class="st17" d="M137.56,83.47c0,2.52,4.54,4.56,10.15,4.56c5.6,0,10.15-2.04,10.15-4.56c0-2.52-4.54-4.56-10.15-4.56
						C142.1,78.92,137.56,80.96,137.56,83.47z"/>
				</g>
			</g>
			<g>
				<rect x="119.97" y="72.85" class="st15" width="20.29" height="6.1"/>
				<g>
					<path class="st15" d="M119.97,78.95c0,2.52,4.54,4.56,10.15,4.56c5.6,0,10.15-2.04,10.15-4.56s-4.54-4.56-10.15-4.56
						C124.52,74.39,119.97,76.43,119.97,78.95z"/>
					<path class="st17" d="M119.97,72.85c0,2.52,4.54,4.56,10.15,4.56c5.6,0,10.15-2.04,10.15-4.56s-4.54-4.56-10.15-4.56
						C124.52,68.29,119.97,70.33,119.97,72.85z"/>
				</g>
			</g>
		</g>
		<g class="st7">
			<g>
				<polygon class="st4" points="105.14,78.44 140.89,99.64 140.89,55.33 105.14,34.18 				"/>
				<polygon class="st3" points="140.89,99.64 210.38,77.48 210.38,33.17 140.89,55.33 				"/>
				<polygon class="st5" points="140.89,55.33 210.38,33.17 174.63,12.02 105.14,34.18 				"/>
			</g>
			<g>
				<rect x="174.45" y="27.08" class="st3" width="20.29" height="6.1"/>
				<g>
					<path class="st3" d="M174.45,33.18c0,2.52,4.54,4.56,10.15,4.56c5.6,0,10.15-2.04,10.15-4.56c0-2.52-4.54-4.56-10.15-4.56
						C179,28.63,174.45,30.67,174.45,33.18z"/>
					<path class="st5" d="M174.45,27.08c0,2.52,4.54,4.56,10.15,4.56c5.6,0,10.15-2.04,10.15-4.56s-4.54-4.56-10.15-4.56
						C179,22.53,174.45,24.57,174.45,27.08z"/>
				</g>
			</g>
			<g>
				<rect x="156.2" y="15.67" class="st3" width="20.29" height="6.1"/>
				<g>
					<path class="st3" d="M156.2,21.77c0,2.52,4.54,4.56,10.15,4.56c5.6,0,10.15-2.04,10.15-4.56c0-2.52-4.54-4.56-10.15-4.56
						C160.74,17.21,156.2,19.25,156.2,21.77z"/>
					<path class="st5" d="M156.2,15.67c0,2.52,4.54,4.56,10.15,4.56c5.6,0,10.15-2.04,10.15-4.56s-4.54-4.56-10.15-4.56
						C160.74,11.11,156.2,13.15,156.2,15.67z"/>
				</g>
			</g>
			<g>
				<rect x="137.37" y="39.21" class="st3" width="20.29" height="6.1"/>
				<g>
					<path class="st3" d="M137.37,45.31c0,2.52,4.54,4.56,10.15,4.56c5.6,0,10.15-2.04,10.15-4.56c0-2.52-4.54-4.56-10.15-4.56
						C141.91,40.76,137.37,42.8,137.37,45.31z"/>
					<path class="st5" d="M137.37,39.21c0,2.52,4.54,4.56,10.15,4.56c5.6,0,10.15-2.04,10.15-4.56c0-2.52-4.54-4.56-10.15-4.56
						C141.91,34.66,137.37,36.7,137.37,39.21z"/>
				</g>
			</g>
			<g>
				<rect x="119.78" y="28.59" class="st3" width="20.29" height="6.1"/>
				<g>
					<path class="st3" d="M119.78,34.69c0,2.52,4.54,4.56,10.15,4.56c5.6,0,10.15-2.04,10.15-4.56c0-2.52-4.54-4.56-10.15-4.56
						C124.33,30.13,119.78,32.17,119.78,34.69z"/>
					<path class="st5" d="M119.78,28.59c0,2.52,4.54,4.56,10.15,4.56c5.6,0,10.15-2.04,10.15-4.56c0-2.52-4.54-4.56-10.15-4.56
						C124.33,24.03,119.78,26.07,119.78,28.59z"/>
				</g>
			</g>
		</g>
		<g class="st7">
			<g>
				<polygon class="st9" points="105.04,34.3 140.79,55.49 140.79,11.19 105.04,-9.97 				"/>
				<polygon class="st8" points="140.79,55.49 210.28,33.33 210.28,-10.98 140.79,11.19 				"/>
				<polygon class="st10" points="140.79,11.19 210.28,-10.98 174.53,-32.13 105.04,-9.97 				"/>
			</g>
			<g>
				<rect x="174.35" y="-17.06" class="st11" width="20.29" height="6.1"/>
				<g>
					<path class="st11" d="M174.35-10.96c0,2.52,4.54,4.56,10.15,4.56s10.15-2.04,10.15-4.56c0-2.52-4.54-4.56-10.15-4.56
						S174.35-13.48,174.35-10.96z"/>
					<path class="st10" d="M174.35-17.06c0,2.52,4.54,4.56,10.15,4.56s10.15-2.04,10.15-4.56c0-2.52-4.54-4.56-10.15-4.56
						S174.35-19.58,174.35-17.06z"/>
				</g>
			</g>
			<g>
				<rect x="156.1" y="-28.48" class="st11" width="20.29" height="6.1"/>
				<g>
					<path class="st11" d="M156.1-22.37c0,2.52,4.54,4.56,10.15,4.56c5.6,0,10.15-2.04,10.15-4.56c0-2.52-4.54-4.56-10.15-4.56
						C160.64-26.93,156.1-24.89,156.1-22.37z"/>
					<path class="st10" d="M156.1-28.48c0,2.52,4.54,4.56,10.15,4.56c5.6,0,10.15-2.04,10.15-4.56c0-2.52-4.54-4.56-10.15-4.56
						C160.64-33.03,156.1-30.99,156.1-28.48z"/>
				</g>
			</g>
			<g>
				<rect x="137.27" y="-4.93" class="st11" width="20.29" height="6.1"/>
				<g>
					<path class="st11" d="M137.27,1.17c0,2.52,4.54,4.56,10.15,4.56c5.6,0,10.15-2.04,10.15-4.56s-4.54-4.56-10.15-4.56
						C141.81-3.39,137.27-1.35,137.27,1.17z"/>
					<path class="st10" d="M137.27-4.93c0,2.52,4.54,4.56,10.15,4.56c5.6,0,10.15-2.04,10.15-4.56s-4.54-4.56-10.15-4.56
						C141.81-9.49,137.27-7.45,137.27-4.93z"/>
				</g>
			</g>
			<g>
				<rect x="119.68" y="-15.56" class="st11" width="20.29" height="6.1"/>
				<g>
					<path class="st11" d="M119.68-9.46c0,2.52,4.54,4.56,10.15,4.56c5.6,0,10.15-2.04,10.15-4.56c0-2.52-4.54-4.56-10.15-4.56
						C124.22-14.01,119.68-11.97,119.68-9.46z"/>
					<path class="st10" d="M119.68-15.56c0,2.52,4.54,4.56,10.15,4.56c5.6,0,10.15-2.04,10.15-4.56c0-2.52-4.54-4.56-10.15-4.56
						C124.22-20.11,119.68-18.07,119.68-15.56z"/>
				</g>
			</g>
		</g>
		<g class="st7">
			<g>
				<polygon class="st19" points="137.27,-20.05 173.01,1.15 173.01,-43.16 137.27,-64.31 				"/>
				<polygon class="st18" points="173.01,1.15 242.5,-21.01 242.5,-65.32 173.01,-43.16 				"/>
				<polygon class="st20" points="173.01,-43.16 242.5,-65.32 206.75,-86.47 137.27,-64.31 				"/>
			</g>
			<g>
				<rect x="206.58" y="-71.41" class="st18" width="20.29" height="6.1"/>
				<g>
					<path class="st18" d="M206.58-65.31c0,2.52,4.54,4.56,10.15,4.56c5.6,0,10.15-2.04,10.15-4.56c0-2.52-4.54-4.56-10.15-4.56
						C211.12-69.86,206.58-67.82,206.58-65.31z"/>
					<path class="st20" d="M206.58-71.41c0,2.52,4.54,4.56,10.15,4.56c5.6,0,10.15-2.04,10.15-4.56s-4.54-4.56-10.15-4.56
						C211.12-75.96,206.58-73.92,206.58-71.41z"/>
				</g>
			</g>
			<g>
				<rect x="188.32" y="-82.82" class="st18" width="20.29" height="6.1"/>
				<g>
					<path class="st18" d="M188.32-76.72c0,2.52,4.54,4.56,10.15,4.56c5.6,0,10.15-2.04,10.15-4.56c0-2.52-4.54-4.56-10.15-4.56
						C192.87-81.27,188.32-79.24,188.32-76.72z"/>
					<path class="st20" d="M188.32-82.82c0,2.52,4.54,4.56,10.15,4.56c5.6,0,10.15-2.04,10.15-4.56c0-2.52-4.54-4.56-10.15-4.56
						C192.87-87.38,188.32-85.34,188.32-82.82z"/>
				</g>
			</g>
			<g>
				<rect x="169.49" y="-59.28" class="st18" width="20.29" height="6.1"/>
				<g>
					<path class="st18" d="M169.49-53.18c0,2.52,4.54,4.56,10.15,4.56c5.6,0,10.15-2.04,10.15-4.56c0-2.52-4.54-4.56-10.15-4.56
						C174.03-57.73,169.49-55.69,169.49-53.18z"/>
					<path class="st20" d="M169.49-59.28c0,2.52,4.54,4.56,10.15,4.56c5.6,0,10.15-2.04,10.15-4.56c0-2.52-4.54-4.56-10.15-4.56
						C174.03-63.83,169.49-61.79,169.49-59.28z"/>
				</g>
			</g>
			<g>
				<rect x="151.91" y="-69.9" class="st18" width="20.29" height="6.1"/>
				<g>
					<path class="st18" d="M151.91-63.8c0,2.52,4.54,4.56,10.15,4.56c5.6,0,10.15-2.04,10.15-4.56s-4.54-4.56-10.15-4.56
						C156.45-68.36,151.91-66.32,151.91-63.8z"/>
					<path class="st20" d="M151.91-69.9c0,2.52,4.54,4.56,10.15,4.56c5.6,0,10.15-2.04,10.15-4.56c0-2.52-4.54-4.56-10.15-4.56
						C156.45-74.46,151.91-72.42,151.91-69.9z"/>
				</g>
			</g>
		</g>
		<g class="st7">
			<g>
				<polygon class="st15" points="101.34,-52.9 137.09,-31.7 137.09,-76 101.34,-97.16 				"/>
				<polygon class="st15" points="137.09,-31.7 206.58,-53.86 206.58,-98.17 137.09,-76 				"/>
				<polygon class="st17" points="137.09,-76 206.58,-98.17 170.83,-119.32 101.34,-97.16 				"/>
			</g>
			<g>
				<rect x="170.65" y="-104.25" class="st15" width="20.29" height="6.1"/>
				<g>
					<path class="st15" d="M170.65-98.15c0,2.52,4.54,4.56,10.15,4.56c5.6,0,10.15-2.04,10.15-4.56s-4.54-4.56-10.15-4.56
						C175.19-102.71,170.65-100.67,170.65-98.15z"/>
					<path class="st17" d="M170.65-104.25c0,2.52,4.54,4.56,10.15,4.56c5.6,0,10.15-2.04,10.15-4.56c0-2.52-4.54-4.56-10.15-4.56
						C175.19-108.81,170.65-106.77,170.65-104.25z"/>
				</g>
			</g>
			<g>
				<rect x="152.4" y="-115.67" class="st15" width="20.29" height="6.1"/>
				<g>
					<ellipse class="st15" cx="162.54" cy="-109.57" rx="10.15" ry="4.56"/>
					<path class="st17" d="M152.4-115.67c0,2.52,4.54,4.56,10.15,4.56c5.6,0,10.15-2.04,10.15-4.56s-4.54-4.56-10.15-4.56
						C156.94-120.22,152.4-118.18,152.4-115.67z"/>
				</g>
			</g>
			<g>
				<rect x="133.56" y="-92.12" class="st15" width="20.29" height="6.1"/>
				<g>
					<path class="st15" d="M133.56-86.02c0,2.52,4.54,4.56,10.15,4.56c5.6,0,10.15-2.04,10.15-4.56c0-2.52-4.54-4.56-10.15-4.56
						C138.11-90.58,133.56-88.54,133.56-86.02z"/>
					<path class="st17" d="M133.56-92.12c0,2.52,4.54,4.56,10.15,4.56c5.6,0,10.15-2.04,10.15-4.56c0-2.52-4.54-4.56-10.15-4.56
						C138.11-96.68,133.56-94.64,133.56-92.12z"/>
				</g>
			</g>
			<g>
				<rect x="115.98" y="-102.75" class="st15" width="20.29" height="6.1"/>
				<g>
					<path class="st15" d="M115.98-96.65c0,2.52,4.54,4.56,10.15,4.56c5.6,0,10.15-2.04,10.15-4.56s-4.54-4.56-10.15-4.56
						C120.52-101.2,115.98-99.16,115.98-96.65z"/>
					<path class="st17" d="M115.98-102.75c0,2.52,4.54,4.56,10.15,4.56c5.6,0,10.15-2.04,10.15-4.56c0-2.52-4.54-4.56-10.15-4.56
						C120.52-107.3,115.98-105.27,115.98-102.75z"/>
				</g>
			</g>
		</g>
		<g class="st7">
			<g>
				<polygon class="st4" points="32.03,-30.68 67.78,-9.49 67.78,-53.79 32.03,-74.94 				"/>
				<polygon class="st3" points="67.78,-9.49 137.27,-31.64 137.27,-75.96 67.78,-53.79 				"/>
				<polygon class="st5" points="67.78,-53.79 137.27,-75.96 101.52,-97.11 32.03,-74.94 				"/>
			</g>
			<g>
				<rect x="101.34" y="-82.04" class="st3" width="20.29" height="6.1"/>
				<g>
					<path class="st3" d="M101.34-75.94c0,2.52,4.54,4.56,10.15,4.56c5.6,0,10.15-2.04,10.15-4.56s-4.54-4.56-10.15-4.56
						C105.88-80.49,101.34-78.46,101.34-75.94z"/>
					<path class="st5" d="M101.34-82.04c0,2.52,4.54,4.56,10.15,4.56c5.6,0,10.15-2.04,10.15-4.56c0-2.52-4.54-4.56-10.15-4.56
						C105.88-86.6,101.34-84.56,101.34-82.04z"/>
				</g>
			</g>
			<g>
				<rect x="83.09" y="-93.46" class="st3" width="20.29" height="6.1"/>
				<g>
					<path class="st3" d="M83.09-87.35c0,2.52,4.54,4.56,10.15,4.56c5.6,0,10.15-2.04,10.15-4.56s-4.54-4.56-10.15-4.56
						C87.63-91.91,83.09-89.87,83.09-87.35z"/>
					<path class="st5" d="M83.09-93.46c0,2.52,4.54,4.56,10.15,4.56c5.6,0,10.15-2.04,10.15-4.56c0-2.52-4.54-4.56-10.15-4.56
						C87.63-98.01,83.09-95.97,83.09-93.46z"/>
				</g>
			</g>
			<g>
				<rect x="64.25" y="-69.91" class="st3" width="20.29" height="6.1"/>
				<g>
					<path class="st3" d="M64.25-63.81c0,2.52,4.54,4.56,10.15,4.56c5.6,0,10.15-2.04,10.15-4.56c0-2.52-4.54-4.56-10.15-4.56
						C68.8-68.37,64.25-66.33,64.25-63.81z"/>
					<path class="st5" d="M64.25-69.91c0,2.52,4.54,4.56,10.15,4.56c5.6,0,10.15-2.04,10.15-4.56c0-2.52-4.54-4.56-10.15-4.56
						C68.8-74.47,64.25-72.43,64.25-69.91z"/>
				</g>
			</g>
			<g>
				<rect x="46.67" y="-80.54" class="st3" width="20.29" height="6.1"/>
				<g>
					<path class="st3" d="M46.67-74.43c0,2.52,4.54,4.56,10.15,4.56c5.6,0,10.15-2.04,10.15-4.56c0-2.52-4.54-4.56-10.15-4.56
						C51.21-78.99,46.67-76.95,46.67-74.43z"/>
					<path class="st5" d="M46.67-80.54c0,2.52,4.54,4.56,10.15,4.56c5.6,0,10.15-2.04,10.15-4.56c0-2.52-4.54-4.56-10.15-4.56
						C51.21-85.09,46.67-83.05,46.67-80.54z"/>
				</g>
			</g>
		</g>
		<g class="st7">
			<g>
				<polygon class="st12" points="61.8,-84.28 97.55,-63.09 97.55,-107.39 61.8,-128.54 				"/>
				<polygon class="st13" points="97.55,-63.09 167.04,-85.24 167.04,-129.55 97.55,-107.39 				"/>
				<polygon class="st14" points="97.55,-107.39 167.04,-129.55 131.29,-150.71 61.8,-128.54 				"/>
			</g>
			<g>
				<rect x="131.11" y="-135.64" class="st13" width="20.29" height="6.1"/>
				<g>
					<path class="st13" d="M131.11-129.54c0,2.52,4.54,4.56,10.15,4.56c5.6,0,10.15-2.04,10.15-4.56c0-2.52-4.54-4.56-10.15-4.56
						C135.65-134.09,131.11-132.05,131.11-129.54z"/>
					<path class="st14" d="M131.11-135.64c0,2.52,4.54,4.56,10.15,4.56c5.6,0,10.15-2.04,10.15-4.56s-4.54-4.56-10.15-4.56
						C135.65-140.19,131.11-138.15,131.11-135.64z"/>
				</g>
			</g>
			<g>
				<rect x="112.86" y="-147.05" class="st13" width="20.29" height="6.1"/>
				<g>
					<path class="st13" d="M112.86-140.95c0,2.52,4.54,4.56,10.15,4.56c5.6,0,10.15-2.04,10.15-4.56c0-2.52-4.54-4.56-10.15-4.56
						C117.4-145.51,112.86-143.47,112.86-140.95z"/>
					<path class="st14" d="M112.86-147.05c0,2.52,4.54,4.56,10.15,4.56c5.6,0,10.15-2.04,10.15-4.56c0-2.52-4.54-4.56-10.15-4.56
						C117.4-151.61,112.86-149.57,112.86-147.05z"/>
				</g>
			</g>
			<g>
				<rect x="94.02" y="-123.51" class="st13" width="20.29" height="6.1"/>
				<g>
					<path class="st13" d="M94.02-117.41c0,2.52,4.54,4.56,10.15,4.56c5.6,0,10.15-2.04,10.15-4.56c0-2.52-4.54-4.56-10.15-4.56
						C98.57-121.96,94.02-119.92,94.02-117.41z"/>
					<path class="st14" d="M94.02-123.51c0,2.52,4.54,4.56,10.15,4.56c5.6,0,10.15-2.04,10.15-4.56c0-2.52-4.54-4.56-10.15-4.56
						C98.57-128.06,94.02-126.02,94.02-123.51z"/>
				</g>
			</g>
			<g>
				<rect x="76.44" y="-134.13" class="st13" width="20.29" height="6.1"/>
				<g>
					<path class="st13" d="M76.44-128.03c0,2.52,4.54,4.56,10.15,4.56c5.6,0,10.15-2.04,10.15-4.56s-4.54-4.56-10.15-4.56
						C80.98-132.59,76.44-130.55,76.44-128.03z"/>
					<path class="st14" d="M76.44-134.13c0,2.52,4.54,4.56,10.15,4.56c5.6,0,10.15-2.04,10.15-4.56s-4.54-4.56-10.15-4.56
						C80.98-138.69,76.44-136.65,76.44-134.13z"/>
				</g>
			</g>
		</g>
	</g>
</g>
<g id="DESIGNED_BY_FREEPIK" class="st0">
	<g class="st7">
		<g>
			<g>
				<path class="st21" d="M70.12,324.51v-0.16c-0.22,0.25-0.43,0.45-0.64,0.61c-0.21,0.16-0.44,0.28-0.69,0.36
					c-0.25,0.08-0.52,0.12-0.81,0.12c-0.39,0-0.75-0.08-1.08-0.25c-0.33-0.16-0.62-0.4-0.86-0.7c-0.24-0.3-0.42-0.66-0.55-1.07
					c-0.12-0.41-0.19-0.86-0.19-1.34c0-1.01,0.25-1.8,0.74-2.37c0.49-0.57,1.15-0.85,1.95-0.85c0.47,0,0.86,0.08,1.18,0.24
					c0.32,0.16,0.63,0.41,0.94,0.74v-2.39c0-0.33,0.07-0.58,0.2-0.75c0.13-0.17,0.32-0.26,0.57-0.26c0.25,0,0.43,0.08,0.57,0.23
					c0.13,0.16,0.2,0.39,0.2,0.69v7.15c0,0.31-0.07,0.54-0.21,0.69c-0.14,0.15-0.33,0.23-0.55,0.23c-0.22,0-0.4-0.08-0.55-0.24
					C70.19,325.04,70.12,324.81,70.12,324.51z M66.93,322.13c0,0.44,0.07,0.81,0.2,1.12c0.14,0.31,0.32,0.54,0.56,0.7
					c0.24,0.16,0.5,0.24,0.78,0.24c0.29,0,0.55-0.07,0.78-0.22c0.24-0.15,0.42-0.38,0.56-0.68c0.14-0.31,0.21-0.69,0.21-1.15
					c0-0.43-0.07-0.8-0.21-1.11c-0.14-0.31-0.33-0.55-0.57-0.71c-0.24-0.16-0.5-0.25-0.79-0.25c-0.3,0-0.56,0.08-0.8,0.25
					c-0.23,0.17-0.41,0.41-0.54,0.72C67,321.35,66.93,321.71,66.93,322.13z"/>
				<path class="st21" d="M77.27,322.54H74.1c0,0.37,0.08,0.69,0.22,0.97c0.14,0.28,0.34,0.49,0.58,0.64
					c0.24,0.14,0.5,0.21,0.79,0.21c0.19,0,0.37-0.02,0.53-0.07c0.16-0.05,0.32-0.12,0.47-0.21c0.15-0.1,0.29-0.2,0.42-0.31
					c0.13-0.11,0.29-0.26,0.49-0.45c0.08-0.07,0.2-0.11,0.36-0.11c0.17,0,0.3,0.05,0.4,0.14c0.1,0.09,0.16,0.22,0.16,0.39
					c0,0.15-0.06,0.32-0.17,0.51c-0.12,0.2-0.29,0.38-0.52,0.56c-0.23,0.18-0.52,0.33-0.87,0.45c-0.35,0.12-0.75,0.18-1.21,0.18
					c-1.04,0-1.85-0.3-2.43-0.89c-0.58-0.59-0.87-1.4-0.87-2.42c0-0.48,0.07-0.92,0.21-1.33c0.14-0.41,0.35-0.76,0.62-1.05
					c0.27-0.29,0.61-0.52,1.01-0.67c0.4-0.16,0.84-0.23,1.33-0.23c0.63,0,1.18,0.13,1.63,0.4c0.45,0.27,0.79,0.61,1.02,1.04
					c0.22,0.42,0.34,0.86,0.34,1.29c0,0.41-0.12,0.67-0.35,0.79C78.02,322.48,77.69,322.54,77.27,322.54z M74.1,321.62h2.94
					c-0.04-0.55-0.19-0.97-0.45-1.24c-0.26-0.28-0.6-0.41-1.02-0.41c-0.4,0-0.74,0.14-0.99,0.42
					C74.31,320.66,74.16,321.07,74.1,321.62z"/>
				<path class="st21" d="M84.65,323.32c0,0.45-0.11,0.83-0.33,1.15c-0.22,0.32-0.54,0.56-0.96,0.72c-0.43,0.16-0.94,0.25-1.55,0.25
					c-0.58,0-1.08-0.09-1.5-0.27c-0.42-0.18-0.72-0.4-0.92-0.67c-0.2-0.27-0.3-0.54-0.3-0.81c0-0.18,0.06-0.33,0.19-0.46
					c0.13-0.13,0.29-0.19,0.48-0.19c0.17,0,0.3,0.04,0.39,0.12c0.09,0.08,0.18,0.2,0.26,0.35c0.17,0.29,0.37,0.5,0.6,0.65
					c0.23,0.14,0.55,0.21,0.95,0.21c0.32,0,0.59-0.07,0.8-0.22c0.21-0.15,0.31-0.31,0.31-0.5c0-0.29-0.11-0.49-0.32-0.62
					c-0.22-0.13-0.57-0.26-1.07-0.37c-0.56-0.14-1.01-0.28-1.36-0.44c-0.35-0.15-0.63-0.35-0.84-0.6c-0.21-0.25-0.31-0.56-0.31-0.92
					c0-0.32,0.1-0.63,0.29-0.92c0.19-0.29,0.48-0.52,0.86-0.69c0.38-0.17,0.83-0.26,1.37-0.26c0.42,0,0.8,0.04,1.13,0.13
					c0.33,0.09,0.61,0.2,0.84,0.35c0.22,0.15,0.39,0.31,0.51,0.49c0.12,0.18,0.17,0.35,0.17,0.52c0,0.19-0.06,0.34-0.19,0.46
					c-0.12,0.12-0.3,0.18-0.53,0.18c-0.17,0-0.31-0.05-0.42-0.14c-0.12-0.09-0.25-0.24-0.4-0.43c-0.12-0.16-0.27-0.29-0.43-0.38
					c-0.17-0.1-0.39-0.14-0.68-0.14c-0.29,0-0.54,0.06-0.73,0.19c-0.19,0.12-0.29,0.28-0.29,0.46c0,0.17,0.07,0.31,0.21,0.42
					c0.14,0.11,0.33,0.2,0.58,0.27c0.24,0.07,0.57,0.16,1,0.26c0.5,0.12,0.91,0.27,1.23,0.44c0.32,0.17,0.56,0.37,0.72,0.6
					C84.57,322.76,84.65,323.02,84.65,323.32z"/>
				<path class="st21" d="M86.31,318.09c-0.23,0-0.42-0.07-0.58-0.21c-0.16-0.14-0.24-0.33-0.24-0.59c0-0.23,0.08-0.42,0.25-0.57
					c0.16-0.15,0.36-0.22,0.57-0.22c0.21,0,0.4,0.07,0.56,0.2c0.16,0.13,0.24,0.33,0.24,0.59c0,0.25-0.08,0.44-0.24,0.58
					C86.71,318.02,86.53,318.09,86.31,318.09z M87.11,319.77v4.68c0,0.32-0.08,0.57-0.23,0.74c-0.15,0.17-0.35,0.25-0.59,0.25
					c-0.24,0-0.43-0.08-0.58-0.26c-0.15-0.17-0.22-0.41-0.22-0.73v-4.64c0-0.32,0.07-0.56,0.22-0.72c0.15-0.16,0.34-0.24,0.58-0.24
					c0.24,0,0.43,0.08,0.59,0.24C87.03,319.25,87.11,319.48,87.11,319.77z"/>
				<path class="st21" d="M94.21,320.03v4.71c0,0.54-0.06,1-0.17,1.39c-0.11,0.39-0.3,0.71-0.55,0.96
					c-0.25,0.25-0.58,0.44-0.99,0.56c-0.41,0.12-0.92,0.18-1.53,0.18c-0.56,0-1.06-0.08-1.5-0.23c-0.44-0.16-0.78-0.36-1.02-0.61
					c-0.24-0.25-0.36-0.5-0.36-0.76c0-0.2,0.07-0.36,0.2-0.48c0.13-0.13,0.3-0.19,0.49-0.19c0.24,0,0.45,0.11,0.62,0.31
					c0.09,0.11,0.18,0.22,0.27,0.32c0.09,0.11,0.2,0.2,0.31,0.28c0.11,0.08,0.25,0.13,0.41,0.17c0.16,0.04,0.34,0.06,0.55,0.06
					c0.42,0,0.75-0.06,0.98-0.18c0.23-0.12,0.39-0.28,0.49-0.49c0.09-0.21,0.15-0.43,0.16-0.67c0.02-0.24,0.03-0.62,0.04-1.16
					c-0.25,0.35-0.54,0.61-0.86,0.8c-0.33,0.18-0.72,0.27-1.17,0.27c-0.54,0-1.02-0.14-1.42-0.42c-0.41-0.28-0.72-0.66-0.93-1.16
					c-0.22-0.5-0.33-1.07-0.33-1.73c0-0.49,0.07-0.93,0.2-1.32c0.13-0.39,0.32-0.72,0.57-0.99c0.25-0.27,0.53-0.47,0.85-0.61
					c0.32-0.14,0.67-0.2,1.06-0.2c0.46,0,0.86,0.09,1.19,0.26c0.34,0.18,0.65,0.45,0.94,0.83v-0.22c0-0.28,0.07-0.5,0.21-0.65
					c0.14-0.15,0.32-0.23,0.53-0.23c0.31,0,0.52,0.1,0.62,0.31C94.16,319.36,94.21,319.65,94.21,320.03z M89.51,322.09
					c0,0.66,0.14,1.15,0.43,1.49c0.29,0.34,0.66,0.5,1.11,0.5c0.27,0,0.52-0.07,0.76-0.22c0.24-0.14,0.43-0.36,0.59-0.65
					c0.15-0.29,0.23-0.64,0.23-1.06c0-0.66-0.15-1.18-0.44-1.54c-0.29-0.37-0.67-0.55-1.15-0.55c-0.46,0-0.83,0.18-1.11,0.53
					C89.65,320.94,89.51,321.44,89.51,322.09z"/>
				<path class="st21" d="M96.79,319.74v0.2c0.28-0.38,0.6-0.65,0.93-0.83c0.34-0.18,0.73-0.26,1.17-0.26
					c0.43,0,0.81,0.09,1.15,0.28c0.34,0.19,0.59,0.45,0.75,0.79c0.11,0.2,0.18,0.41,0.21,0.64c0.03,0.23,0.05,0.52,0.05,0.88v3.02
					c0,0.32-0.07,0.57-0.22,0.74c-0.15,0.17-0.34,0.25-0.58,0.25c-0.24,0-0.44-0.08-0.59-0.26c-0.15-0.17-0.23-0.41-0.23-0.73v-2.7
					c0-0.53-0.07-0.94-0.22-1.23c-0.15-0.28-0.44-0.42-0.89-0.42c-0.29,0-0.55,0.09-0.79,0.26c-0.24,0.17-0.41,0.41-0.52,0.71
					c-0.08,0.24-0.12,0.69-0.12,1.35v2.03c0,0.33-0.08,0.58-0.23,0.74c-0.15,0.16-0.35,0.25-0.59,0.25c-0.23,0-0.43-0.08-0.58-0.26
					c-0.15-0.17-0.23-0.41-0.23-0.73v-4.68c0-0.31,0.07-0.54,0.2-0.69c0.13-0.15,0.32-0.23,0.55-0.23c0.14,0,0.27,0.03,0.39,0.1
					c0.11,0.07,0.21,0.17,0.28,0.3C96.75,319.39,96.79,319.55,96.79,319.74z"/>
				<path class="st21" d="M106.64,322.54h-3.17c0,0.37,0.08,0.69,0.22,0.97c0.14,0.28,0.34,0.49,0.58,0.64
					c0.24,0.14,0.5,0.21,0.79,0.21c0.19,0,0.37-0.02,0.53-0.07c0.16-0.05,0.31-0.12,0.47-0.21c0.15-0.1,0.29-0.2,0.42-0.31
					c0.13-0.11,0.29-0.26,0.49-0.45c0.08-0.07,0.2-0.11,0.36-0.11c0.17,0,0.3,0.05,0.4,0.14c0.1,0.09,0.15,0.22,0.15,0.39
					c0,0.15-0.06,0.32-0.17,0.51c-0.12,0.2-0.29,0.38-0.52,0.56c-0.23,0.18-0.52,0.33-0.87,0.45c-0.35,0.12-0.75,0.18-1.21,0.18
					c-1.04,0-1.85-0.3-2.43-0.89c-0.58-0.59-0.87-1.4-0.87-2.42c0-0.48,0.07-0.92,0.21-1.33c0.14-0.41,0.35-0.76,0.62-1.05
					c0.27-0.29,0.61-0.52,1.01-0.67c0.4-0.16,0.84-0.23,1.33-0.23c0.63,0,1.18,0.13,1.63,0.4c0.45,0.27,0.79,0.61,1.02,1.04
					c0.23,0.42,0.34,0.86,0.34,1.29c0,0.41-0.12,0.67-0.35,0.79C107.4,322.48,107.07,322.54,106.64,322.54z M103.47,321.62h2.94
					c-0.04-0.55-0.19-0.97-0.45-1.24c-0.26-0.28-0.6-0.41-1.02-0.41c-0.4,0-0.74,0.14-0.99,0.42
					C103.69,320.66,103.53,321.07,103.47,321.62z"/>
				<path class="st21" d="M113.25,324.51v-0.16c-0.22,0.25-0.43,0.45-0.64,0.61c-0.21,0.16-0.44,0.28-0.69,0.36
					c-0.25,0.08-0.52,0.12-0.81,0.12c-0.39,0-0.75-0.08-1.08-0.25c-0.33-0.16-0.62-0.4-0.86-0.7c-0.24-0.3-0.42-0.66-0.55-1.07
					c-0.12-0.41-0.19-0.86-0.19-1.34c0-1.01,0.25-1.8,0.74-2.37c0.49-0.57,1.15-0.85,1.95-0.85c0.47,0,0.86,0.08,1.18,0.24
					c0.32,0.16,0.63,0.41,0.94,0.74v-2.39c0-0.33,0.07-0.58,0.2-0.75c0.13-0.17,0.32-0.26,0.57-0.26c0.25,0,0.43,0.08,0.57,0.23
					c0.13,0.16,0.2,0.39,0.2,0.69v7.15c0,0.31-0.07,0.54-0.21,0.69c-0.14,0.15-0.33,0.23-0.55,0.23c-0.22,0-0.4-0.08-0.55-0.24
					C113.32,325.04,113.25,324.81,113.25,324.51z M110.06,322.13c0,0.44,0.07,0.81,0.2,1.12c0.14,0.31,0.32,0.54,0.56,0.7
					c0.24,0.16,0.5,0.24,0.78,0.24c0.29,0,0.55-0.07,0.78-0.22c0.24-0.15,0.42-0.38,0.56-0.68c0.14-0.31,0.21-0.69,0.21-1.15
					c0-0.43-0.07-0.8-0.21-1.11c-0.14-0.31-0.33-0.55-0.57-0.71c-0.24-0.16-0.5-0.25-0.79-0.25c-0.3,0-0.56,0.08-0.8,0.25
					c-0.23,0.17-0.41,0.41-0.54,0.72C110.13,321.35,110.06,321.71,110.06,322.13z"/>
				<path class="st21" d="M119.87,317.36v2.47c0.3-0.32,0.62-0.56,0.93-0.73c0.32-0.17,0.71-0.25,1.18-0.25
					c0.54,0,1.01,0.13,1.42,0.38c0.4,0.26,0.72,0.63,0.94,1.11c0.22,0.48,0.34,1.06,0.34,1.72c0,0.49-0.06,0.94-0.19,1.35
					c-0.12,0.41-0.31,0.76-0.54,1.07c-0.24,0.3-0.53,0.53-0.86,0.7c-0.34,0.16-0.71,0.25-1.12,0.25c-0.25,0-0.48-0.03-0.7-0.09
					c-0.22-0.06-0.41-0.14-0.56-0.23c-0.15-0.1-0.29-0.2-0.39-0.3c-0.11-0.1-0.25-0.26-0.43-0.46v0.16c0,0.3-0.07,0.54-0.22,0.69
					c-0.15,0.16-0.33,0.23-0.56,0.23c-0.23,0-0.41-0.08-0.55-0.23c-0.14-0.16-0.2-0.39-0.2-0.69v-7.08c0-0.33,0.07-0.58,0.2-0.74
					c0.13-0.17,0.32-0.25,0.56-0.25c0.25,0,0.44,0.08,0.58,0.24C119.81,316.84,119.87,317.07,119.87,317.36z M119.95,322.18
					c0,0.65,0.15,1.14,0.44,1.49c0.29,0.35,0.68,0.52,1.16,0.52c0.41,0,0.76-0.18,1.05-0.53c0.29-0.35,0.44-0.86,0.44-1.52
					c0-0.43-0.06-0.8-0.18-1.1c-0.12-0.31-0.3-0.55-0.52-0.72c-0.23-0.17-0.49-0.25-0.79-0.25c-0.31,0-0.58,0.08-0.83,0.25
					c-0.24,0.17-0.43,0.41-0.57,0.73C120.02,321.36,119.95,321.74,119.95,322.18z"/>
				<path class="st21" d="M126.78,325.64l0.15-0.36l-1.99-5.02c-0.12-0.29-0.18-0.5-0.18-0.63c0-0.14,0.04-0.27,0.11-0.39
					c0.07-0.12,0.17-0.21,0.29-0.29c0.12-0.07,0.25-0.11,0.39-0.11c0.23,0,0.41,0.07,0.53,0.22c0.12,0.15,0.22,0.36,0.31,0.64
					l1.37,3.99l1.3-3.71c0.1-0.3,0.2-0.54,0.28-0.71c0.08-0.17,0.17-0.29,0.26-0.34c0.09-0.06,0.22-0.09,0.39-0.09
					c0.12,0,0.24,0.03,0.35,0.1c0.11,0.07,0.2,0.15,0.26,0.26c0.06,0.11,0.09,0.23,0.09,0.35c-0.02,0.08-0.04,0.18-0.08,0.32
					c-0.04,0.14-0.08,0.28-0.13,0.42l-2.11,5.53c-0.18,0.49-0.36,0.87-0.53,1.15c-0.17,0.28-0.4,0.49-0.69,0.64
					c-0.29,0.15-0.67,0.22-1.16,0.22c-0.47,0-0.83-0.05-1.07-0.15c-0.24-0.1-0.36-0.29-0.36-0.56c0-0.19,0.06-0.33,0.17-0.43
					c0.11-0.1,0.28-0.15,0.5-0.15c0.09,0,0.17,0.01,0.26,0.04c0.1,0.02,0.19,0.04,0.27,0.04c0.19,0,0.33-0.03,0.44-0.08
					c0.11-0.05,0.2-0.15,0.29-0.29C126.57,326.1,126.67,325.9,126.78,325.64z"/>
			</g>
			<g>
				<path class="st21" d="M150.25,318.99h0.39v-0.49c0-0.51,0.06-0.91,0.19-1.21c0.13-0.3,0.35-0.52,0.65-0.65
					c0.31-0.14,0.73-0.2,1.26-0.2c0.95,0,1.42,0.23,1.42,0.7c0,0.15-0.05,0.28-0.15,0.38c-0.1,0.11-0.21,0.16-0.35,0.16
					c-0.06,0-0.17-0.01-0.33-0.04c-0.15-0.02-0.28-0.03-0.39-0.03c-0.29,0-0.48,0.09-0.57,0.26c-0.08,0.17-0.12,0.42-0.12,0.74v0.39
					h0.4c0.62,0,0.93,0.19,0.93,0.56c0,0.26-0.08,0.43-0.25,0.5c-0.16,0.07-0.39,0.11-0.68,0.11h-0.4v4.29
					c0,0.32-0.08,0.56-0.23,0.73c-0.15,0.17-0.35,0.25-0.59,0.25c-0.23,0-0.42-0.08-0.57-0.25c-0.15-0.17-0.23-0.41-0.23-0.73v-4.29
					h-0.45c-0.24,0-0.43-0.05-0.56-0.16c-0.13-0.11-0.2-0.25-0.2-0.42C149.44,319.18,149.71,318.99,150.25,318.99"/>
				<path class="st21" d="M155.56,323.1v1.36c0,0.33-0.08,0.57-0.23,0.74c-0.15,0.17-0.35,0.25-0.59,0.25
					c-0.24,0-0.43-0.08-0.58-0.25c-0.15-0.16-0.23-0.41-0.23-0.73v-4.51c0-0.73,0.26-1.09,0.79-1.09c0.27,0,0.46,0.08,0.58,0.26
					c0.12,0.17,0.18,0.42,0.2,0.76c0.19-0.33,0.39-0.58,0.59-0.76c0.21-0.17,0.48-0.26,0.82-0.26c0.34,0,0.67,0.08,0.99,0.26
					c0.32,0.17,0.48,0.4,0.48,0.68c0,0.2-0.07,0.36-0.2,0.49c-0.14,0.13-0.28,0.19-0.44,0.19c-0.06,0-0.21-0.04-0.43-0.11
					c-0.23-0.07-0.43-0.11-0.6-0.11c-0.24,0-0.43,0.06-0.58,0.19c-0.15,0.13-0.27,0.31-0.35,0.55c-0.08,0.25-0.14,0.54-0.17,0.88
					C155.57,322.2,155.56,322.61,155.56,323.1"/>
				<path class="st21" d="M163.01,322.54h-3.17c0.01,0.37,0.08,0.69,0.22,0.97c0.15,0.28,0.34,0.49,0.58,0.64
					c0.24,0.14,0.5,0.21,0.79,0.21c0.19,0,0.37-0.02,0.53-0.07c0.16-0.04,0.32-0.12,0.47-0.21c0.15-0.1,0.29-0.2,0.42-0.31
					c0.13-0.11,0.29-0.26,0.49-0.45c0.08-0.07,0.2-0.11,0.36-0.11c0.17,0,0.3,0.05,0.41,0.14c0.1,0.09,0.15,0.22,0.15,0.39
					c0,0.15-0.06,0.32-0.17,0.51c-0.12,0.2-0.29,0.39-0.52,0.57c-0.23,0.18-0.52,0.33-0.87,0.45c-0.35,0.12-0.75,0.18-1.21,0.18
					c-1.04,0-1.85-0.3-2.43-0.89c-0.58-0.6-0.87-1.4-0.87-2.42c0-0.48,0.07-0.92,0.22-1.33c0.14-0.41,0.35-0.76,0.62-1.05
					c0.27-0.29,0.61-0.52,1.01-0.67c0.4-0.16,0.84-0.23,1.33-0.23c0.63,0,1.18,0.13,1.63,0.4c0.45,0.26,0.8,0.61,1.02,1.03
					c0.23,0.43,0.34,0.86,0.34,1.3c0,0.41-0.12,0.67-0.35,0.79C163.76,322.48,163.43,322.54,163.01,322.54 M159.84,321.62h2.94
					c-0.04-0.55-0.19-0.97-0.45-1.24c-0.26-0.28-0.6-0.41-1.03-0.41c-0.4,0-0.74,0.14-0.99,0.42
					C160.05,320.66,159.89,321.07,159.84,321.62"/>
				<path class="st21" d="M169.75,322.54h-3.17c0,0.37,0.08,0.69,0.22,0.97c0.14,0.28,0.34,0.49,0.58,0.64
					c0.24,0.14,0.5,0.21,0.79,0.21c0.19,0,0.37-0.02,0.53-0.07c0.16-0.04,0.32-0.12,0.47-0.21c0.15-0.1,0.29-0.2,0.41-0.31
					c0.12-0.11,0.29-0.26,0.49-0.45c0.08-0.07,0.2-0.11,0.36-0.11c0.17,0,0.3,0.05,0.41,0.14c0.1,0.09,0.15,0.22,0.15,0.39
					c0,0.15-0.05,0.32-0.17,0.51c-0.11,0.2-0.28,0.39-0.52,0.57c-0.23,0.18-0.52,0.33-0.87,0.45c-0.35,0.12-0.76,0.18-1.21,0.18
					c-1.04,0-1.85-0.3-2.43-0.89c-0.58-0.6-0.87-1.4-0.87-2.42c0-0.48,0.07-0.92,0.22-1.33c0.14-0.41,0.35-0.76,0.62-1.05
					c0.27-0.29,0.61-0.52,1.01-0.67c0.4-0.16,0.84-0.23,1.33-0.23c0.63,0,1.17,0.13,1.63,0.4c0.45,0.26,0.79,0.61,1.01,1.03
					c0.22,0.43,0.34,0.86,0.34,1.3c0,0.41-0.12,0.67-0.35,0.79C170.5,322.48,170.18,322.54,169.75,322.54 M166.58,321.62h2.94
					c-0.04-0.55-0.19-0.97-0.45-1.24c-0.26-0.28-0.6-0.41-1.03-0.41c-0.4,0-0.73,0.14-1,0.42
					C166.79,320.66,166.63,321.07,166.58,321.62"/>
				<path class="st21" d="M173.3,319.76v0.19c0.3-0.38,0.62-0.65,0.95-0.83c0.32-0.18,0.7-0.27,1.11-0.27c0.5,0,0.96,0.13,1.38,0.39
					c0.42,0.26,0.75,0.63,0.99,1.13c0.24,0.5,0.37,1.08,0.37,1.76c0,0.5-0.07,0.96-0.21,1.38c-0.14,0.42-0.34,0.77-0.58,1.05
					c-0.25,0.28-0.53,0.5-0.87,0.65c-0.34,0.15-0.69,0.23-1.08,0.23c-0.46,0-0.85-0.09-1.17-0.28c-0.31-0.18-0.61-0.46-0.9-0.82
					v2.43c0,0.71-0.26,1.07-0.78,1.07c-0.31,0-0.51-0.09-0.61-0.27c-0.09-0.19-0.15-0.45-0.15-0.81v-7c0-0.31,0.07-0.54,0.2-0.69
					c0.13-0.15,0.32-0.23,0.55-0.23c0.23,0,0.42,0.08,0.56,0.23C173.23,319.24,173.3,319.46,173.3,319.76 M176.48,322.11
					c0-0.43-0.07-0.8-0.2-1.1c-0.13-0.31-0.31-0.54-0.54-0.7c-0.23-0.16-0.49-0.25-0.77-0.25c-0.45,0-0.82,0.18-1.13,0.53
					c-0.31,0.35-0.46,0.87-0.46,1.56c0,0.64,0.15,1.15,0.46,1.5c0.3,0.36,0.68,0.54,1.13,0.54c0.27,0,0.52-0.08,0.75-0.23
					c0.23-0.16,0.42-0.39,0.55-0.7C176.41,322.93,176.48,322.55,176.48,322.11"/>
				<path class="st21" d="M179.74,318.09c-0.23,0-0.42-0.07-0.58-0.21c-0.16-0.14-0.24-0.33-0.24-0.59c0-0.23,0.08-0.42,0.25-0.57
					c0.16-0.15,0.35-0.22,0.57-0.22c0.21,0,0.4,0.07,0.56,0.2c0.16,0.14,0.24,0.33,0.24,0.59c0,0.25-0.08,0.44-0.24,0.58
					C180.15,318.02,179.96,318.09,179.74,318.09 M180.54,319.76v4.69c0,0.32-0.08,0.57-0.23,0.73c-0.16,0.17-0.35,0.25-0.59,0.25
					c-0.24,0-0.43-0.08-0.58-0.25c-0.15-0.17-0.22-0.42-0.22-0.73v-4.64c0-0.32,0.08-0.56,0.22-0.72c0.15-0.17,0.34-0.24,0.58-0.24
					c0.24,0,0.43,0.08,0.59,0.24C180.47,319.25,180.54,319.48,180.54,319.76"/>
				<path class="st21" d="M185.77,324.7l-1.43-2.35l-0.88,0.83v1.29c0,0.31-0.08,0.55-0.25,0.72c-0.16,0.17-0.35,0.25-0.57,0.25
					c-0.25,0-0.45-0.08-0.59-0.25c-0.14-0.16-0.21-0.41-0.21-0.73v-6.91c0-0.36,0.07-0.63,0.21-0.82c0.14-0.19,0.34-0.28,0.6-0.28
					c0.25,0,0.45,0.09,0.59,0.26c0.15,0.17,0.22,0.42,0.22,0.75v3.93l1.82-1.91c0.23-0.24,0.4-0.4,0.52-0.49
					c0.12-0.09,0.26-0.13,0.43-0.13c0.2,0,0.37,0.06,0.51,0.19c0.13,0.13,0.2,0.29,0.2,0.48c0,0.24-0.22,0.56-0.66,0.95l-0.86,0.79
					l1.66,2.61c0.12,0.2,0.21,0.34,0.26,0.44c0.05,0.1,0.08,0.2,0.08,0.29c0,0.26-0.07,0.46-0.21,0.61
					c-0.14,0.15-0.33,0.22-0.55,0.22c-0.2,0-0.35-0.05-0.46-0.16C186.1,325.17,185.95,324.97,185.77,324.7"/>
				<path class="st21" d="M189.29,325.43c-0.24,0-0.45-0.08-0.63-0.24c-0.18-0.16-0.27-0.38-0.27-0.67c0-0.24,0.09-0.45,0.26-0.62
					c0.17-0.17,0.38-0.26,0.63-0.26c0.25,0,0.46,0.09,0.64,0.26c0.17,0.17,0.26,0.38,0.26,0.63c0,0.28-0.09,0.5-0.26,0.66
					C189.73,325.36,189.53,325.43,189.29,325.43"/>
				<path class="st21" d="M197.35,323.43c0,0.2-0.06,0.42-0.18,0.65c-0.12,0.23-0.31,0.45-0.55,0.66c-0.25,0.21-0.56,0.38-0.93,0.5
					c-0.38,0.13-0.8,0.19-1.27,0.19c-1,0-1.79-0.29-2.35-0.88c-0.56-0.58-0.84-1.37-0.84-2.35c0-0.67,0.13-1.25,0.39-1.77
					c0.25-0.51,0.63-0.9,1.11-1.18c0.49-0.28,1.07-0.42,1.75-0.42c0.42,0,0.81,0.06,1.16,0.18c0.35,0.12,0.65,0.28,0.89,0.47
					c0.24,0.2,0.43,0.4,0.56,0.62c0.13,0.22,0.19,0.43,0.19,0.62c0,0.19-0.07,0.36-0.21,0.49c-0.15,0.13-0.32,0.2-0.52,0.2
					c-0.14,0-0.25-0.04-0.34-0.1c-0.09-0.07-0.19-0.18-0.3-0.34c-0.2-0.3-0.4-0.53-0.62-0.67c-0.21-0.15-0.49-0.23-0.82-0.23
					c-0.48,0-0.86,0.19-1.16,0.56c-0.29,0.37-0.44,0.89-0.44,1.53c0,0.31,0.04,0.59,0.11,0.84c0.07,0.25,0.18,0.47,0.33,0.65
					c0.14,0.18,0.32,0.32,0.52,0.41c0.2,0.1,0.43,0.14,0.66,0.14c0.33,0,0.6-0.08,0.84-0.23c0.24-0.15,0.44-0.38,0.62-0.69
					c0.1-0.18,0.2-0.32,0.32-0.43c0.11-0.1,0.26-0.16,0.42-0.16c0.2,0,0.36,0.08,0.49,0.23
					C197.28,323.1,197.35,323.26,197.35,323.43"/>
				<path class="st21" d="M204.35,322.14c0,0.48-0.08,0.93-0.22,1.34c-0.15,0.41-0.37,0.76-0.66,1.05
					c-0.28,0.29-0.63,0.52-1.02,0.67c-0.4,0.15-0.84,0.23-1.34,0.23c-0.49,0-0.93-0.08-1.33-0.24c-0.39-0.16-0.73-0.38-1.02-0.68
					c-0.29-0.3-0.51-0.65-0.66-1.05c-0.14-0.4-0.22-0.85-0.22-1.33c0-0.49,0.08-0.94,0.22-1.35c0.15-0.41,0.37-0.76,0.65-1.05
					c0.28-0.29,0.62-0.51,1.02-0.67c0.4-0.16,0.84-0.23,1.33-0.23c0.49,0,0.94,0.08,1.34,0.24c0.4,0.16,0.74,0.38,1.03,0.67
					c0.29,0.3,0.5,0.64,0.65,1.04C204.27,321.21,204.35,321.65,204.35,322.14 M202.72,322.14c0-0.66-0.15-1.18-0.44-1.54
					c-0.29-0.37-0.68-0.55-1.17-0.55c-0.32,0-0.6,0.08-0.84,0.25c-0.24,0.16-0.43,0.41-0.56,0.73c-0.13,0.32-0.2,0.7-0.2,1.12
					c0,0.42,0.06,0.79,0.19,1.11c0.13,0.32,0.31,0.56,0.55,0.73c0.24,0.17,0.52,0.25,0.85,0.25c0.49,0,0.88-0.18,1.17-0.56
					C202.57,323.3,202.72,322.79,202.72,322.14"/>
				<path class="st21" d="M210.53,322.26v2.15c0,0.34-0.08,0.59-0.23,0.77c-0.16,0.17-0.36,0.26-0.61,0.26
					c-0.25,0-0.45-0.08-0.59-0.26c-0.15-0.17-0.23-0.43-0.23-0.77v-2.58c0-0.41-0.01-0.73-0.04-0.95c-0.03-0.22-0.1-0.41-0.23-0.55
					c-0.12-0.15-0.32-0.22-0.58-0.22c-0.53,0-0.88,0.18-1.05,0.55c-0.17,0.36-0.25,0.88-0.25,1.57v2.19c0,0.34-0.08,0.59-0.23,0.76
					c-0.16,0.17-0.35,0.26-0.6,0.26c-0.25,0-0.45-0.09-0.6-0.26c-0.16-0.17-0.23-0.43-0.23-0.76v-4.64c0-0.31,0.07-0.54,0.21-0.69
					c0.14-0.16,0.33-0.24,0.56-0.24c0.22,0,0.41,0.08,0.56,0.22c0.15,0.15,0.22,0.35,0.22,0.62v0.15c0.28-0.33,0.58-0.58,0.9-0.74
					c0.32-0.16,0.68-0.24,1.07-0.24c0.41,0,0.76,0.08,1.05,0.24c0.29,0.16,0.53,0.41,0.73,0.74c0.27-0.33,0.57-0.58,0.88-0.74
					c0.31-0.16,0.66-0.24,1.04-0.24c0.44,0,0.83,0.09,1.15,0.26c0.32,0.17,0.56,0.42,0.72,0.75c0.14,0.3,0.21,0.76,0.21,1.39v3.16
					c0,0.34-0.08,0.59-0.23,0.77c-0.15,0.17-0.36,0.26-0.61,0.26c-0.25,0-0.45-0.09-0.6-0.26c-0.16-0.17-0.23-0.43-0.23-0.76v-2.73
					c0-0.35-0.01-0.63-0.04-0.84c-0.03-0.21-0.11-0.39-0.24-0.53c-0.13-0.14-0.33-0.21-0.6-0.21c-0.21,0-0.42,0.07-0.61,0.19
					c-0.19,0.12-0.34,0.3-0.45,0.51C210.59,321.08,210.53,321.57,210.53,322.26"/>
			</g>
			<g>
				<path class="st21" d="M135.09,321.75c0,0,0-0.01,0-0.01C135.09,321.74,135.09,321.75,135.09,321.75z"/>
				<path class="st21" d="M135.17,322.27C135.17,322.27,135.17,322.27,135.17,322.27c-0.03-0.15-0.05-0.29-0.07-0.44
					C135.12,321.97,135.14,322.12,135.17,322.27z"/>
				<path class="st21" d="M135.71,323.77c0-0.01-0.01-0.01-0.01-0.02C135.7,323.76,135.7,323.76,135.71,323.77z"/>
				<path class="st21" d="M135.65,323.67c-0.01-0.03-0.03-0.06-0.04-0.08C135.63,323.62,135.64,323.64,135.65,323.67z"/>
				<path class="st21" d="M135.32,322.85c0.08,0.25,0.17,0.49,0.29,0.72C135.49,323.33,135.4,323.09,135.32,322.85
					C135.32,322.85,135.32,322.85,135.32,322.85z"/>
				<path class="st21" d="M141.36,315.54c0.31,0,0.54,0.02,0.81,0.07l0.07-0.48c0,0-0.73-0.23-1.69-0.15l-0.08-0.26
					c0.3-0.06,0.52-0.33,0.52-0.65c0-0.36-0.3-0.66-0.66-0.66c-0.36,0-0.66,0.29-0.66,0.66c0,0.32,0.22,0.58,0.52,0.65l0.08,0.29
					c-1.02,0.14-1.83,0.54-1.83,0.54l0.14,0.44c0.62-0.21,1.15-0.33,1.64-0.38C140.71,315.56,141.07,315.54,141.36,315.54z"/>
				<path class="st21" d="M135.69,317.95L135.69,317.95c0.03-0.04,0.05-0.07,0.07-0.09l-0.2-0.14l-0.3-0.22
					c-0.02,0.02-0.5,0.46-0.88,1.28c-0.02-0.03-0.03-0.05-0.06-0.07c-0.11-0.12-0.27-0.19-0.47-0.18c0,0-0.01,0-0.01,0
					c-0.12,0-0.21-0.04-0.27-0.09c0.06-0.07,0.09-0.16,0.09-0.26c0-0.23-0.19-0.42-0.42-0.42c-0.23,0-0.42,0.19-0.42,0.42
					c0,0.23,0.19,0.42,0.42,0.42c0.04,0,0.07-0.01,0.1-0.01c0.1,0.11,0.27,0.21,0.5,0.21c0.12,0,0.21,0.03,0.27,0.1
					c0.07,0.08,0.09,0.18,0.1,0.27c0,0,0,0,0,0c-0.27,0.74-0.19,1.67-0.19,1.67l0.66,0.03c0.01-0.34,0.06-0.93,0.23-1.39
					C135.26,318.54,135.68,317.97,135.69,317.95z"/>
				<path class="st21" d="M147.11,316.09c-0.23,0-0.42,0.19-0.42,0.42c0,0.04,0.01,0.07,0.01,0.1c-0.11,0.1-0.21,0.27-0.21,0.51
					c0,0.12-0.03,0.21-0.1,0.27c-0.05,0.05-0.12,0.07-0.18,0.09c-0.49-0.69-1.1-1.11-1.1-1.11l-0.47,0.51
					c0.36,0.33,0.72,0.73,1.08,1.24c0.25,0.35,0.5,0.81,0.71,1.26l0.64-0.3c0,0-0.29-0.72-0.7-1.37c0.07-0.02,0.14-0.06,0.21-0.12
					c0.13-0.11,0.19-0.27,0.18-0.47c0-0.13,0.04-0.22,0.09-0.28c0.07,0.05,0.16,0.09,0.26,0.09c0.23,0,0.42-0.19,0.42-0.42
					C147.53,316.28,147.34,316.09,147.11,316.09z"/>
				<path class="st21" d="M145.45,321.84c-0.88,0.43-2.33,1-4.24,1.26c-0.75,0.1-1.47,0.14-2.14,0.14c-0.87,0-1.64-0.06-2.23-0.14
					c-0.67-0.08-1.2-0.19-1.52-0.26c0.08,0.24,0.17,0.49,0.28,0.72c0,0.01,0,0.01,0.01,0.02c0.01,0.03,0.03,0.06,0.04,0.08
					c0.01,0.03,0.03,0.05,0.04,0.08c0,0.01,0.01,0.01,0.01,0.02c0.19,0.36,0.42,0.68,0.68,0.97c0.9,0.98,1.82,1.14,1.83,1.14l0.01,0
					l0.01,0c0.01,0,0.82,0.27,2.06,0.27c1.22,0,2.41-0.25,3.55-0.73c0.84-0.43,1.64-1.09,2.03-1.67c0.31-0.45,0.53-0.93,0.66-1.43
					c0.07-0.27,0.12-0.69,0.09-1.14C146.37,321.35,145.98,321.58,145.45,321.84z"/>
				<path class="st21" d="M135.98,318.16c-0.03,0.04-0.41,0.58-0.71,1.41c-0.23,0.62-0.22,1.53-0.22,1.54v0
					c0,0.21,0.01,0.42,0.04,0.63c0,0,0,0.01,0,0.01c0,0.03,0.01,0.05,0.01,0.08c0.02,0.14,0.04,0.29,0.07,0.44
					c0.44,0.11,3.05,0.72,5.97,0.31c1.83-0.25,3.22-0.8,4.06-1.2c0.7-0.34,1.15-0.65,1.32-0.77c-0.17-0.64-0.65-1.65-1.09-2.28
					c-1.25-1.79-2.6-2.25-3.3-2.36c-0.26-0.04-0.48-0.07-0.78-0.07c-0.28,0-0.63,0.02-1.09,0.07c-0.46,0.05-0.98,0.17-1.58,0.37
					c-0.84,0.28-1.6,0.72-2.2,1.28l-0.02,0.02C136.37,317.71,136.19,317.89,135.98,318.16z M143.64,317.74
					c0.6,0,1.09,0.49,1.09,1.09s-0.49,1.09-1.09,1.09c-0.6,0-1.09-0.49-1.09-1.09S143.04,317.74,143.64,317.74z M138.49,317.7
					c0.97,0,1.76,0.79,1.76,1.76c0,0.97-0.79,1.76-1.76,1.76c-0.97,0-1.76-0.79-1.76-1.76C136.73,318.49,137.52,317.7,138.49,317.7z
					"/>
			</g>
		</g>
	</g>
</g>
</svg>
