<?xml version="1.0" encoding="utf-8"?>
<!-- Generator: Adobe Illustrator 23.0.3, SVG Export Plug-In . SVG Version: 6.00 Build 0)  -->
<svg version="1.1" id="Layer_1" xmlns="http://www.w3.org/2000/svg" xmlns:xlink="http://www.w3.org/1999/xlink" x="0px" y="0px"
	 viewBox="0 0 274.9 500" style="enable-background:new 0 0 274.9 500;" xml:space="preserve">
<style type="text/css">
	.st0{fill:#2586B7;}
	.st1{fill:#53A2D3;}
	.st2{fill:#7ACCF4;}
	.st3{fill:#A82642;}
	.st4{fill:#D33346;}
	.st5{fill:#E54C66;}
	.st6{fill:#9B1B31;}
	.st7{fill:#CE9411;}
	.st8{fill:#EFBB3A;}
	.st9{fill:#FFD473;}
	.st10{fill:#58871B;}
	.st11{fill:#71AA2E;}
	.st12{fill:#AADD68;}
	.st13{fill:#E2D7DA;}
	.st14{fill:#F7EDEF;}
	.st15{fill:#FFFFFF;}
</style>
<g>
	
		<image style="overflow:visible;opacity:0.25;" width="275" height="495" xlink:href="3DBCB444.png"  transform="matrix(1 0 0 1 5.4961 8.4961)">
	</image>
	<g>
		<g>
			<g>
				<g>
					<polygon class="st0" points="113.2,423.6 77.7,444.6 77.7,400.7 113.2,379.7 					"/>
					<polygon class="st1" points="77.7,444.6 8.8,422.7 8.8,378.7 77.7,400.7 					"/>
					<polygon class="st2" points="77.7,400.7 8.8,378.7 44.2,357.7 113.2,379.7 					"/>
				</g>
				<g>
					<rect x="24.3" y="372.7" class="st0" width="20.1" height="6"/>
					<g>
						<path class="st0" d="M44.4,378.7c0,2.5-4.5,4.5-10.1,4.5s-10.1-2-10.1-4.5s4.5-4.5,10.1-4.5S44.4,376.2,44.4,378.7z"/>
						<path class="st2" d="M44.4,372.7c0,2.5-4.5,4.5-10.1,4.5s-10.1-2-10.1-4.5s4.5-4.5,10.1-4.5S44.4,370.2,44.4,372.7z"/>
					</g>
				</g>
				<g>
					<rect x="42.4" y="361.4" class="st0" width="20.1" height="6"/>
					<g>
						<path class="st0" d="M62.5,367.4c0,2.5-4.5,4.5-10.1,4.5s-10.1-2-10.1-4.5s4.5-4.5,10.1-4.5S62.5,364.9,62.5,367.4z"/>
						<path class="st2" d="M62.5,361.4c0,2.5-4.5,4.5-10.1,4.5s-10.1-2-10.1-4.5s4.5-4.5,10.1-4.5S62.5,358.9,62.5,361.4z"/>
					</g>
				</g>
				<g>
					<rect x="61.1" y="384.7" class="st0" width="20.1" height="6"/>
					<g>
						<path class="st0" d="M81.2,390.8c0,2.5-4.5,4.5-10.1,4.5s-10.1-2-10.1-4.5s4.5-4.5,10.1-4.5C76.7,386.2,81.2,388.3,81.2,390.8
							z"/>
						<path class="st2" d="M81.2,384.7c0,2.5-4.5,4.5-10.1,4.5s-10.1-2-10.1-4.5s4.5-4.5,10.1-4.5S81.2,382.2,81.2,384.7z"/>
					</g>
				</g>
				<g>
					<rect x="78.5" y="374.2" class="st0" width="20.1" height="6"/>
					<g>
						<path class="st0" d="M98.6,380.2c0,2.5-4.5,4.5-10.1,4.5s-10.1-2-10.1-4.5s4.5-4.5,10.1-4.5S98.6,377.7,98.6,380.2z"/>
						<path class="st2" d="M98.6,374.2c0,2.5-4.5,4.5-10.1,4.5s-10.1-2-10.1-4.5s4.5-4.5,10.1-4.5C94.1,369.6,98.6,371.7,98.6,374.2
							z"/>
					</g>
				</g>
			</g>
			<g>
				<g>
					<polygon class="st3" points="182.1,445.6 146.6,466.6 146.6,422.7 182.1,401.7 					"/>
					<polygon class="st4" points="146.6,466.6 77.7,444.7 77.7,400.7 146.6,422.7 					"/>
					<polygon class="st5" points="146.6,422.7 77.7,400.7 113.2,379.7 182.1,401.7 					"/>
				</g>
				<g>
					<rect x="93.2" y="394.7" class="st6" width="20.1" height="6"/>
					<g>
						<path class="st6" d="M113.3,400.7c0,2.5-4.5,4.5-10.1,4.5s-10.1-2-10.1-4.5s4.5-4.5,10.1-4.5S113.3,398.2,113.3,400.7z"/>
						<path class="st5" d="M113.3,394.7c0,2.5-4.5,4.5-10.1,4.5s-10.1-2-10.1-4.5s4.5-4.5,10.1-4.5S113.3,392.2,113.3,394.7z"/>
					</g>
				</g>
				<g>
					<rect x="111.3" y="383.4" class="st6" width="20.1" height="6"/>
					<g>
						<path class="st6" d="M131.4,389.4c0,2.5-4.5,4.5-10.1,4.5s-10.1-2-10.1-4.5s4.5-4.5,10.1-4.5
							C126.9,384.9,131.4,386.9,131.4,389.4z"/>
						<path class="st5" d="M131.4,383.4c0,2.5-4.5,4.5-10.1,4.5s-10.1-2-10.1-4.5s4.5-4.5,10.1-4.5
							C126.9,378.9,131.4,380.9,131.4,383.4z"/>
					</g>
				</g>
				<g>
					<rect x="130" y="406.7" class="st6" width="20.1" height="6"/>
					<g>
						<path class="st6" d="M150.1,412.8c0,2.5-4.5,4.5-10.1,4.5s-10.1-2-10.1-4.5s4.5-4.5,10.1-4.5S150.1,410.3,150.1,412.8z"/>
						<path class="st5" d="M150.1,406.7c0,2.5-4.5,4.5-10.1,4.5s-10.1-2-10.1-4.5s4.5-4.5,10.1-4.5S150.1,404.2,150.1,406.7z"/>
					</g>
				</g>
				<g>
					<rect x="147.4" y="396.2" class="st6" width="20.1" height="6"/>
					<g>
						<path class="st6" d="M167.6,402.2c0,2.5-4.5,4.5-10.1,4.5s-10.1-2-10.1-4.5s4.5-4.5,10.1-4.5S167.6,399.7,167.6,402.2z"/>
						<path class="st5" d="M167.6,396.2c0,2.5-4.5,4.5-10.1,4.5s-10.1-2-10.1-4.5s4.5-4.5,10.1-4.5S167.6,393.7,167.6,396.2z"/>
					</g>
				</g>
			</g>
			<g>
				<g>
					<polygon class="st3" points="146.9,390.3 111.4,411.4 111.4,367.4 146.9,346.4 					"/>
					<polygon class="st4" points="111.4,411.4 42.5,389.4 42.5,345.4 111.4,367.4 					"/>
					<polygon class="st5" points="111.4,367.4 42.5,345.4 78,324.4 146.9,346.4 					"/>
				</g>
				<g>
					<rect x="58" y="339.4" class="st6" width="20.1" height="6"/>
					<g>
						<path class="st6" d="M78.1,345.4c0,2.5-4.5,4.5-10.1,4.5s-10.1-2-10.1-4.5s4.5-4.5,10.1-4.5S78.1,343,78.1,345.4z"/>
						<path class="st5" d="M78.1,339.4c0,2.5-4.5,4.5-10.1,4.5s-10.1-2-10.1-4.5s4.5-4.5,10.1-4.5S78.1,336.9,78.1,339.4z"/>
					</g>
				</g>
				<g>
					<rect x="76.1" y="328.1" class="st6" width="20.1" height="6"/>
					<g>
						<path class="st6" d="M96.3,334.1c0,2.5-4.5,4.5-10.1,4.5s-10.1-2-10.1-4.5s4.5-4.5,10.1-4.5S96.3,331.6,96.3,334.1z"/>
						<path class="st5" d="M96.3,328.1c0,2.5-4.5,4.5-10.1,4.5s-10.1-2-10.1-4.5s4.5-4.5,10.1-4.5C91.7,323.5,96.3,325.6,96.3,328.1
							z"/>
					</g>
				</g>
				<g>
					<rect x="94.8" y="351.4" class="st6" width="20.1" height="6"/>
					<g>
						<path class="st6" d="M114.9,357.5c0,2.5-4.5,4.5-10.1,4.5s-10.1-2-10.1-4.5s4.5-4.5,10.1-4.5S114.9,355,114.9,357.5z"/>
						<path class="st5" d="M114.9,351.4c0,2.5-4.5,4.5-10.1,4.5s-10.1-2-10.1-4.5s4.5-4.5,10.1-4.5S114.9,348.9,114.9,351.4z"/>
					</g>
				</g>
				<g>
					<rect x="112.2" y="340.9" class="st6" width="20.1" height="6"/>
					<g>
						<path class="st6" d="M132.4,346.9c0,2.5-4.5,4.5-10.1,4.5s-10.1-2-10.1-4.5s4.5-4.5,10.1-4.5
							C127.9,342.4,132.4,344.4,132.4,346.9z"/>
						<path class="st5" d="M132.4,340.9c0,2.5-4.5,4.5-10.1,4.5s-10.1-2-10.1-4.5s4.5-4.5,10.1-4.5
							C127.9,336.4,132.4,338.4,132.4,340.9z"/>
					</g>
				</g>
			</g>
			<g>
				<g>
					<polygon class="st7" points="146.9,347.1 111.4,368.1 111.4,324.2 146.9,303.2 					"/>
					<polygon class="st8" points="111.4,368.1 42.5,346.2 42.5,302.2 111.4,324.2 					"/>
					<polygon class="st9" points="111.4,324.2 42.5,302.2 78,281.2 146.9,303.2 					"/>
				</g>
				<g>
					<rect x="58" y="296.2" class="st7" width="20.1" height="6"/>
					<g>
						<path class="st7" d="M78.1,302.2c0,2.5-4.5,4.5-10.1,4.5s-10.1-2-10.1-4.5s4.5-4.5,10.1-4.5S78.1,299.7,78.1,302.2z"/>
						<path class="st9" d="M78.1,296.2c0,2.5-4.5,4.5-10.1,4.5s-10.1-2-10.1-4.5s4.5-4.5,10.1-4.5C73.6,291.6,78.1,293.7,78.1,296.2
							z"/>
					</g>
				</g>
				<g>
					<rect x="76.1" y="284.9" class="st7" width="20.1" height="6"/>
					<g>
						<path class="st7" d="M96.3,290.9c0,2.5-4.5,4.5-10.1,4.5s-10.1-2-10.1-4.5s4.5-4.5,10.1-4.5C91.7,286.4,96.3,288.4,96.3,290.9
							z"/>
						<path class="st9" d="M96.3,284.9c0,2.5-4.5,4.5-10.1,4.5s-10.1-2-10.1-4.5s4.5-4.5,10.1-4.5C91.7,280.3,96.3,282.4,96.3,284.9
							z"/>
					</g>
				</g>
				<g>
					<rect x="94.8" y="308.2" class="st7" width="20.1" height="6"/>
					<g>
						<path class="st7" d="M114.9,314.3c0,2.5-4.5,4.5-10.1,4.5s-10.1-2-10.1-4.5s4.5-4.5,10.1-4.5
							C110.4,309.7,114.9,311.8,114.9,314.3z"/>
						<path class="st9" d="M114.9,308.2c0,2.5-4.5,4.5-10.1,4.5s-10.1-2-10.1-4.5s4.5-4.5,10.1-4.5S114.9,305.7,114.9,308.2z"/>
					</g>
				</g>
				<g>
					<rect x="112.2" y="297.7" class="st7" width="20.1" height="6"/>
					<g>
						<path class="st7" d="M132.4,303.7c0,2.5-4.5,4.5-10.1,4.5s-10.1-2-10.1-4.5s4.5-4.5,10.1-4.5
							C127.9,299.2,132.4,301.2,132.4,303.7z"/>
						<path class="st9" d="M132.4,297.7c0,2.5-4.5,4.5-10.1,4.5s-10.1-2-10.1-4.5s4.5-4.5,10.1-4.5
							C127.9,293.1,132.4,295.2,132.4,297.7z"/>
					</g>
				</g>
			</g>
			<g>
				<g>
					<polygon class="st0" points="146.9,303.3 111.5,324.3 111.5,280.4 146.9,259.4 					"/>
					<polygon class="st1" points="111.5,324.3 42.6,302.3 42.6,258.4 111.5,280.4 					"/>
					<polygon class="st2" points="111.5,280.4 42.6,258.4 78,237.4 146.9,259.4 					"/>
				</g>
				<g>
					<rect x="58.1" y="252.3" class="st0" width="20.1" height="6.1"/>
					<g>
						<path class="st0" d="M78.2,258.4c0,2.5-4.5,4.5-10.1,4.5s-10.1-2-10.1-4.5s4.5-4.5,10.1-4.5S78.2,255.9,78.2,258.4z"/>
						<path class="st2" d="M78.2,252.3c0,2.5-4.5,4.5-10.1,4.5s-10.1-2-10.1-4.5s4.5-4.5,10.1-4.5C73.7,247.8,78.2,249.8,78.2,252.3
							z"/>
					</g>
				</g>
				<g>
					<rect x="76.2" y="241" class="st0" width="20.1" height="6.1"/>
					<g>
						<path class="st0" d="M96.3,247.1c0,2.5-4.5,4.5-10.1,4.5s-10.1-2-10.1-4.5s4.5-4.5,10.1-4.5S96.3,244.6,96.3,247.1z"/>
						<path class="st2" d="M96.3,241c0,2.5-4.5,4.5-10.1,4.5s-10.1-2-10.1-4.5s4.5-4.5,10.1-4.5S96.3,238.5,96.3,241z"/>
					</g>
				</g>
				<g>
					<rect x="94.8" y="264.4" class="st0" width="20.1" height="6"/>
					<g>
						<path class="st0" d="M115,270.4c0,2.5-4.5,4.5-10.1,4.5s-10.1-2-10.1-4.5s4.5-4.5,10.1-4.5S115,267.9,115,270.4z"/>
						<path class="st2" d="M115,264.4c0,2.5-4.5,4.5-10.1,4.5s-10.1-2-10.1-4.5s4.5-4.5,10.1-4.5S115,261.9,115,264.4z"/>
					</g>
				</g>
				<g>
					<rect x="112.3" y="253.8" class="st0" width="20.1" height="6"/>
					<g>
						<path class="st0" d="M132.4,259.9c0,2.5-4.5,4.5-10.1,4.5s-10.1-2-10.1-4.5s4.5-4.5,10.1-4.5
							C127.9,255.4,132.4,257.4,132.4,259.9z"/>
						<path class="st2" d="M132.4,253.8c0,2.5-4.5,4.5-10.1,4.5s-10.1-2-10.1-4.5s4.5-4.5,10.1-4.5
							C127.9,249.3,132.4,251.3,132.4,253.8z"/>
					</g>
				</g>
			</g>
			<g>
				<g>
					<polygon class="st10" points="147,259.4 111.6,280.4 111.6,236.4 147,215.5 					"/>
					<polygon class="st11" points="111.6,280.4 42.7,258.4 42.7,214.5 111.6,236.4 					"/>
					<polygon class="st12" points="111.6,236.4 42.7,214.5 78.1,193.5 147,215.5 					"/>
				</g>
				<g>
					<rect x="58.2" y="208.4" class="st10" width="20.1" height="6.1"/>
					<g>
						<path class="st10" d="M78.3,214.5c0,2.5-4.5,4.5-10.1,4.5s-10.1-2-10.1-4.5s4.5-4.5,10.1-4.5S78.3,212,78.3,214.5z"/>
						<path class="st12" d="M78.3,208.4c0,2.5-4.5,4.5-10.1,4.5s-10.1-2-10.1-4.5s4.5-4.5,10.1-4.5S78.3,205.9,78.3,208.4z"/>
					</g>
				</g>
				<g>
					<rect x="76.3" y="197.1" class="st10" width="20.1" height="6.1"/>
					<g>
						<path class="st10" d="M96.4,203.2c0,2.5-4.5,4.5-10.1,4.5s-10.1-2-10.1-4.5s4.5-4.5,10.1-4.5S96.4,200.7,96.4,203.2z"/>
						<path class="st12" d="M96.4,197.1c0,2.5-4.5,4.5-10.1,4.5s-10.1-2-10.1-4.5s4.5-4.5,10.1-4.5S96.4,194.6,96.4,197.1z"/>
					</g>
				</g>
				<g>
					<rect x="94.9" y="220.5" class="st10" width="20.1" height="6.1"/>
					<g>
						<path class="st10" d="M115.1,226.5c0,2.5-4.5,4.5-10.1,4.5s-10.1-2-10.1-4.5s4.5-4.5,10.1-4.5S115.1,224,115.1,226.5z"/>
						<path class="st12" d="M115.1,220.5c0,2.5-4.5,4.5-10.1,4.5s-10.1-2-10.1-4.5s4.5-4.5,10.1-4.5S115.1,218,115.1,220.5z"/>
					</g>
				</g>
				<g>
					<rect x="112.4" y="209.9" class="st10" width="20.1" height="6.1"/>
					<g>
						<path class="st10" d="M132.5,216c0,2.5-4.5,4.5-10.1,4.5s-10.1-2-10.1-4.5s4.5-4.5,10.1-4.5S132.5,213.5,132.5,216z"/>
						<path class="st12" d="M132.5,209.9c0,2.5-4.5,4.5-10.1,4.5s-10.1-2-10.1-4.5s4.5-4.5,10.1-4.5S132.5,207.4,132.5,209.9z"/>
					</g>
				</g>
			</g>
			<g>
				<g>
					<polygon class="st13" points="147,215.4 111.6,236.4 111.6,192.5 147,171.5 					"/>
					<polygon class="st14" points="111.6,236.4 42.7,214.5 42.7,170.5 111.6,192.5 					"/>
					<polygon class="st15" points="111.6,192.5 42.7,170.5 78.1,149.5 147,171.5 					"/>
				</g>
				<g>
					<rect x="58.2" y="164.5" class="st13" width="20.1" height="6.1"/>
					<g>
						<path class="st13" d="M78.3,170.5c0,2.5-4.5,4.5-10.1,4.5s-10.1-2-10.1-4.5s4.5-4.5,10.1-4.5S78.3,168,78.3,170.5z"/>
						<path class="st15" d="M78.3,164.5c0,2.5-4.5,4.5-10.1,4.5s-10.1-2-10.1-4.5s4.5-4.5,10.1-4.5C73.8,159.9,78.3,162,78.3,164.5z
							"/>
					</g>
				</g>
				<g>
					<rect x="76.3" y="153.1" class="st13" width="20.1" height="6.1"/>
					<g>
						<path class="st13" d="M96.4,159.2c0,2.5-4.5,4.5-10.1,4.5s-10.1-2-10.1-4.5s4.5-4.5,10.1-4.5S96.4,156.7,96.4,159.2z"/>
						<path class="st15" d="M96.4,153.1c0,2.5-4.5,4.5-10.1,4.5s-10.1-2-10.1-4.5s4.5-4.5,10.1-4.5S96.4,150.6,96.4,153.1z"/>
					</g>
				</g>
				<g>
					<rect x="94.9" y="176.5" class="st13" width="20.1" height="6.1"/>
					<g>
						<path class="st13" d="M115.1,182.6c0,2.5-4.5,4.5-10.1,4.5s-10.1-2-10.1-4.5s4.5-4.5,10.1-4.5S115.1,180.1,115.1,182.6z"/>
						<path class="st15" d="M115.1,176.5c0,2.5-4.5,4.5-10.1,4.5s-10.1-2-10.1-4.5s4.5-4.5,10.1-4.5S115.1,174,115.1,176.5z"/>
					</g>
				</g>
				<g>
					<rect x="112.4" y="166" class="st13" width="20.1" height="6.1"/>
					<g>
						<path class="st13" d="M132.5,172c0,2.5-4.5,4.5-10.1,4.5s-10.1-2-10.1-4.5s4.5-4.5,10.1-4.5S132.5,169.5,132.5,172z"/>
						<path class="st15" d="M132.5,166c0,2.5-4.5,4.5-10.1,4.5s-10.1-2-10.1-4.5s4.5-4.5,10.1-4.5C128,161.4,132.5,163.5,132.5,166z
							"/>
					</g>
				</g>
			</g>
			<g>
				<g>
					<polygon class="st3" points="147,171.5 111.6,192.5 111.6,148.6 147,127.6 					"/>
					<polygon class="st4" points="111.6,192.5 42.7,170.6 42.7,126.6 111.6,148.6 					"/>
					<polygon class="st5" points="111.6,148.6 42.7,126.6 78.1,105.6 147,127.6 					"/>
				</g>
				<g>
					<rect x="58.2" y="120.6" class="st6" width="20.1" height="6.1"/>
					<g>
						<path class="st6" d="M78.3,126.6c0,2.5-4.5,4.5-10.1,4.5s-10.1-2-10.1-4.5c0-2.5,4.5-4.5,10.1-4.5
							C73.8,122.1,78.3,124.1,78.3,126.6z"/>
						<path class="st5" d="M78.3,120.6c0,2.5-4.5,4.5-10.1,4.5s-10.1-2-10.1-4.5s4.5-4.5,10.1-4.5C73.8,116,78.3,118.1,78.3,120.6z"
							/>
					</g>
				</g>
				<g>
					<rect x="76.3" y="109.2" class="st6" width="20.1" height="6.1"/>
					<g>
						<path class="st6" d="M96.4,115.3c0,2.5-4.5,4.5-10.1,4.5s-10.1-2-10.1-4.5s4.5-4.5,10.1-4.5S96.4,112.8,96.4,115.3z"/>
						<path class="st5" d="M96.4,109.2c0,2.5-4.5,4.5-10.1,4.5s-10.1-2-10.1-4.5s4.5-4.5,10.1-4.5S96.4,106.7,96.4,109.2z"/>
					</g>
				</g>
				<g>
					<rect x="94.9" y="132.6" class="st6" width="20.1" height="6.1"/>
					<g>
						<path class="st6" d="M115.1,138.6c0,2.5-4.5,4.5-10.1,4.5s-10.1-2-10.1-4.5s4.5-4.5,10.1-4.5S115.1,136.2,115.1,138.6z"/>
						<path class="st5" d="M115.1,132.6c0,2.5-4.5,4.5-10.1,4.5s-10.1-2-10.1-4.5s4.5-4.5,10.1-4.5S115.1,130.1,115.1,132.6z"/>
					</g>
				</g>
				<g>
					<rect x="112.4" y="122.1" class="st6" width="20.1" height="6.1"/>
					<g>
						<path class="st6" d="M132.5,128.1c0,2.5-4.5,4.5-10.1,4.5s-10.1-2-10.1-4.5c0-2.5,4.5-4.5,10.1-4.5
							C128,123.6,132.5,125.6,132.5,128.1z"/>
						<path class="st5" d="M132.5,122.1c0,2.5-4.5,4.5-10.1,4.5s-10.1-2-10.1-4.5s4.5-4.5,10.1-4.5
							C128,117.5,132.5,119.6,132.5,122.1z"/>
					</g>
				</g>
			</g>
			<g>
				<g>
					<polygon class="st3" points="115.6,117.5 80.2,138.5 80.2,94.5 115.6,73.6 					"/>
					<polygon class="st4" points="80.2,138.5 11.3,116.5 11.3,72.6 80.2,94.5 					"/>
					<polygon class="st5" points="80.2,94.5 11.3,72.6 46.7,51.6 115.6,73.6 					"/>
				</g>
				<g>
					<rect x="26.8" y="66.5" class="st6" width="20.1" height="6.1"/>
					<g>
						<path class="st6" d="M46.9,72.6c0,2.5-4.5,4.5-10.1,4.5s-10.1-2-10.1-4.5s4.5-4.5,10.1-4.5S46.9,70.1,46.9,72.6z"/>
						<path class="st5" d="M46.9,66.5c0,2.5-4.5,4.5-10.1,4.5s-10.1-2-10.1-4.5S31.3,62,36.8,62C42.4,62,46.9,64,46.9,66.5z"/>
					</g>
				</g>
				<g>
					<rect x="44.9" y="55.2" class="st6" width="20.1" height="6"/>
					<g>
						<path class="st6" d="M65,61.3c0,2.5-4.5,4.5-10.1,4.5s-10.1-2-10.1-4.5s4.5-4.5,10.1-4.5C60.5,56.7,65,58.8,65,61.3z"/>
						<path class="st5" d="M65,55.2c0,2.5-4.5,4.5-10.1,4.5s-10.1-2-10.1-4.5s4.5-4.5,10.1-4.5S65,52.7,65,55.2z"/>
					</g>
				</g>
				<g>
					<rect x="63.5" y="78.6" class="st6" width="20.1" height="6.1"/>
					<g>
						<path class="st6" d="M83.7,84.6c0,2.5-4.5,4.5-10.1,4.5s-10.1-2-10.1-4.5s4.5-4.5,10.1-4.5S83.7,82.1,83.7,84.6z"/>
						<path class="st5" d="M83.7,78.6c0,2.5-4.5,4.5-10.1,4.5s-10.1-2-10.1-4.5S68.1,74,73.6,74C79.2,74,83.7,76.1,83.7,78.6z"/>
					</g>
				</g>
				<g>
					<rect x="81" y="68" class="st6" width="20.1" height="6.1"/>
					<g>
						<path class="st6" d="M101.1,74.1c0,2.5-4.5,4.5-10.1,4.5s-10.1-2-10.1-4.5s4.5-4.5,10.1-4.5S101.1,71.6,101.1,74.1z"/>
						<path class="st5" d="M101.1,68c0,2.5-4.5,4.5-10.1,4.5s-10.1-2-10.1-4.5s4.5-4.5,10.1-4.5S101.1,65.5,101.1,68z"/>
					</g>
				</g>
			</g>
			<g>
				<g>
					<polygon class="st7" points="184.8,139.5 149.4,160.5 149.4,116.6 184.8,95.6 					"/>
					<polygon class="st8" points="149.4,160.5 80.4,138.6 80.4,94.6 149.4,116.6 					"/>
					<polygon class="st9" points="149.4,116.6 80.4,94.6 115.9,73.6 184.8,95.6 					"/>
				</g>
				<g>
					<rect x="95.9" y="88.6" class="st7" width="20.1" height="6.1"/>
					<g>
						<path class="st7" d="M116.1,94.6c0,2.5-4.5,4.5-10.1,4.5s-10.1-2-10.1-4.5s4.5-4.5,10.1-4.5S116.1,92.1,116.1,94.6z"/>
						<path class="st9" d="M116.1,88.6c0,2.5-4.5,4.5-10.1,4.5s-10.1-2-10.1-4.5s4.5-4.5,10.1-4.5S116.1,86.1,116.1,88.6z"/>
					</g>
				</g>
				<g>
					<rect x="114.1" y="77.2" class="st7" width="20.1" height="6.1"/>
					<g>
						<path class="st7" d="M134.2,83.3c0,2.5-4.5,4.5-10.1,4.5s-10.1-2-10.1-4.5s4.5-4.5,10.1-4.5S134.2,80.8,134.2,83.3z"/>
						<path class="st9" d="M134.2,77.2c0,2.5-4.5,4.5-10.1,4.5s-10.1-2-10.1-4.5s4.5-4.5,10.1-4.5S134.2,74.8,134.2,77.2z"/>
					</g>
				</g>
				<g>
					<rect x="132.7" y="100.6" class="st7" width="20.1" height="6.1"/>
					<g>
						<path class="st7" d="M152.9,106.7c0,2.5-4.5,4.5-10.1,4.5s-10.1-2-10.1-4.5s4.5-4.5,10.1-4.5
							C148.4,102.1,152.9,104.2,152.9,106.7z"/>
						<path class="st9" d="M152.9,100.6c0,2.5-4.5,4.5-10.1,4.5s-10.1-2-10.1-4.5s4.5-4.5,10.1-4.5S152.9,98.1,152.9,100.6z"/>
					</g>
				</g>
				<g>
					<rect x="150.2" y="90.1" class="st7" width="20.1" height="6.1"/>
					<g>
						<path class="st7" d="M170.3,96.1c0,2.5-4.5,4.5-10.1,4.5s-10.1-2-10.1-4.5s4.5-4.5,10.1-4.5S170.3,93.6,170.3,96.1z"/>
						<path class="st9" d="M170.3,90.1c0,2.5-4.5,4.5-10.1,4.5s-10.1-2-10.1-4.5s4.5-4.5,10.1-4.5C165.8,85.5,170.3,87.6,170.3,90.1
							z"/>
					</g>
				</g>
			</g>
			<g>
				<g>
					<polygon class="st7" points="251,467.5 215.5,488.5 215.5,444.6 251,423.6 					"/>
					<polygon class="st8" points="215.5,488.5 146.6,466.6 146.6,422.6 215.5,444.6 					"/>
					<polygon class="st9" points="215.5,444.6 146.6,422.6 182.1,401.6 251,423.6 					"/>
				</g>
				<g>
					<rect x="162.1" y="416.6" class="st7" width="20.1" height="6"/>
					<g>
						<path class="st7" d="M182.3,422.6c0,2.5-4.5,4.5-10.1,4.5s-10.1-2-10.1-4.5s4.5-4.5,10.1-4.5
							C177.7,418.1,182.3,420.1,182.3,422.6z"/>
						<path class="st9" d="M182.3,416.6c0,2.5-4.5,4.5-10.1,4.5s-10.1-2-10.1-4.5s4.5-4.5,10.1-4.5S182.3,414.1,182.3,416.6z"/>
					</g>
				</g>
				<g>
					<rect x="180.2" y="405.3" class="st7" width="20.1" height="6"/>
					<g>
						<path class="st7" d="M200.4,411.3c0,2.5-4.5,4.5-10.1,4.5s-10.1-2-10.1-4.5s4.5-4.5,10.1-4.5S200.4,408.8,200.4,411.3z"/>
						<path class="st9" d="M200.4,405.3c0,2.5-4.5,4.5-10.1,4.5s-10.1-2-10.1-4.5s4.5-4.5,10.1-4.5
							C195.9,400.7,200.4,402.8,200.4,405.3z"/>
					</g>
				</g>
				<g>
					<rect x="198.9" y="428.6" class="st7" width="20.1" height="6"/>
					<g>
						<path class="st7" d="M219,434.7c0,2.5-4.5,4.5-10.1,4.5s-10.1-2-10.1-4.5s4.5-4.5,10.1-4.5C214.5,430.1,219,432.2,219,434.7z"
							/>
						<path class="st9" d="M219,428.6c0,2.5-4.5,4.5-10.1,4.5s-10.1-2-10.1-4.5s4.5-4.5,10.1-4.5S219,426.1,219,428.6z"/>
					</g>
				</g>
				<g>
					<rect x="216.4" y="418.1" class="st7" width="20.1" height="6"/>
					<g>
						<path class="st7" d="M236.5,424.1c0,2.5-4.5,4.5-10.1,4.5s-10.1-2-10.1-4.5s4.5-4.5,10.1-4.5S236.5,421.6,236.5,424.1z"/>
						<path class="st9" d="M236.5,418.1c0,2.5-4.5,4.5-10.1,4.5s-10.1-2-10.1-4.5s4.5-4.5,10.1-4.5
							C232,413.5,236.5,415.6,236.5,418.1z"/>
					</g>
				</g>
			</g>
			<g>
				<g>
					<polygon class="st0" points="222.5,108.4 187,129.4 187,85.5 222.5,64.5 					"/>
					<polygon class="st1" points="187,129.4 118.1,107.5 118.1,63.5 187,85.5 					"/>
					<polygon class="st2" points="187,85.5 118.1,63.5 153.6,42.5 222.5,64.5 					"/>
				</g>
				<g>
					<rect x="133.6" y="57.5" class="st0" width="20.1" height="6"/>
					<g>
						<path class="st0" d="M153.7,63.5c0,2.5-4.5,4.5-10.1,4.5s-10.1-2-10.1-4.5S138,59,143.6,59S153.7,61,153.7,63.5z"/>
						<path class="st2" d="M153.7,57.5c0,2.5-4.5,4.5-10.1,4.5s-10.1-2-10.1-4.5S138,53,143.6,53S153.7,55,153.7,57.5z"/>
					</g>
				</g>
				<g>
					<rect x="151.7" y="46.2" class="st0" width="20.1" height="6"/>
					<g>
						<path class="st0" d="M171.8,52.2c0,2.5-4.5,4.5-10.1,4.5s-10.1-2-10.1-4.5s4.5-4.5,10.1-4.5S171.8,49.7,171.8,52.2z"/>
						<path class="st2" d="M171.8,46.2c0,2.5-4.5,4.5-10.1,4.5s-10.1-2-10.1-4.5s4.5-4.5,10.1-4.5C167.3,41.6,171.8,43.7,171.8,46.2
							z"/>
					</g>
				</g>
				<g>
					<rect x="170.4" y="69.5" class="st0" width="20.1" height="6.1"/>
					<g>
						<path class="st0" d="M190.5,75.6c0,2.5-4.5,4.5-10.1,4.5s-10.1-2-10.1-4.5s4.5-4.5,10.1-4.5C186,71,190.5,73.1,190.5,75.6z"/>
						<path class="st2" d="M190.5,69.5c0,2.5-4.5,4.5-10.1,4.5s-10.1-2-10.1-4.5s4.5-4.5,10.1-4.5S190.5,67,190.5,69.5z"/>
					</g>
				</g>
				<g>
					<rect x="187.8" y="59" class="st0" width="20.1" height="6"/>
					<g>
						<path class="st0" d="M208,65c0,2.5-4.5,4.5-10.1,4.5s-10.1-2-10.1-4.5s4.5-4.5,10.1-4.5S208,62.5,208,65z"/>
						<path class="st2" d="M208,59c0,2.5-4.5,4.5-10.1,4.5s-10.1-2-10.1-4.5s4.5-4.5,10.1-4.5S208,56.5,208,59z"/>
					</g>
				</g>
			</g>
			<g>
				<g>
					<polygon class="st3" points="266.2,78.2 230.7,99.3 230.7,55.3 266.2,34.3 					"/>
					<polygon class="st4" points="230.7,99.3 161.8,77.3 161.8,33.3 230.7,55.3 					"/>
					<polygon class="st5" points="230.7,55.3 161.8,33.3 197.2,12.3 266.2,34.3 					"/>
				</g>
				<g>
					<rect x="177.3" y="27.3" class="st6" width="20.1" height="6"/>
					<g>
						<path class="st6" d="M197.4,33.3c0,2.5-4.5,4.5-10.1,4.5s-10.1-2-10.1-4.5s4.5-4.5,10.1-4.5S197.4,30.8,197.4,33.3z"/>
						<path class="st5" d="M197.4,27.3c0,2.5-4.5,4.5-10.1,4.5s-10.1-2-10.1-4.5s4.5-4.5,10.1-4.5S197.4,24.8,197.4,27.3z"/>
					</g>
				</g>
				<g>
					<rect x="195.4" y="16" class="st6" width="20.1" height="6"/>
					<g>
						<path class="st6" d="M215.5,22c0,2.5-4.5,4.5-10.1,4.5s-10.1-2-10.1-4.5s4.5-4.5,10.1-4.5S215.5,19.5,215.5,22z"/>
						<path class="st5" d="M215.5,16c0,2.5-4.5,4.5-10.1,4.5s-10.1-2-10.1-4.5s4.5-4.5,10.1-4.5S215.5,13.5,215.5,16z"/>
					</g>
				</g>
				<g>
					<rect x="214.1" y="39.3" class="st6" width="20.1" height="6"/>
					<g>
						<path class="st6" d="M234.2,45.4c0,2.5-4.5,4.5-10.1,4.5s-10.1-2-10.1-4.5s4.5-4.5,10.1-4.5S234.2,42.9,234.2,45.4z"/>
						<path class="st5" d="M234.2,39.3c0,2.5-4.5,4.5-10.1,4.5s-10.1-2-10.1-4.5s4.5-4.5,10.1-4.5S234.2,36.8,234.2,39.3z"/>
					</g>
				</g>
				<g>
					<rect x="231.5" y="28.8" class="st6" width="20.1" height="6"/>
					<g>
						<path class="st6" d="M251.6,34.8c0,2.5-4.5,4.5-10.1,4.5s-10.1-2-10.1-4.5s4.5-4.5,10.1-4.5S251.6,32.3,251.6,34.8z"/>
						<path class="st5" d="M251.6,28.8c0,2.5-4.5,4.5-10.1,4.5s-10.1-2-10.1-4.5s4.5-4.5,10.1-4.5S251.6,26.3,251.6,28.8z"/>
					</g>
				</g>
			</g>
		</g>
	</g>
</g>
</svg>
