<?xml version="1.0" encoding="utf-8"?>
<!-- Generator: Adobe Illustrator 23.0.3, SVG Export Plug-In . SVG Version: 6.00 Build 0)  -->
<svg version="1.1" id="Layer_1" xmlns="http://www.w3.org/2000/svg" xmlns:xlink="http://www.w3.org/1999/xlink" x="0px" y="0px"
	 viewBox="0 0 228.2 500" style="enable-background:new 0 0 228.2 500;" xml:space="preserve">
<style type="text/css">
	.st0{display:none;}
	.st1{display:inline;fill-rule:evenodd;clip-rule:evenodd;fill:#F9F3EA;}
	.st2{display:inline;opacity:0.3;fill:#191919;enable-background:new    ;}
	.st3{display:inline;}
	.st4{fill:#CE9411;}
	.st5{fill:#EFBB3A;}
	.st6{fill:#FFD473;}
	.st7{fill:#A82642;}
	.st8{fill:#D33346;}
	.st9{fill:#E54C66;}
	.st10{fill:#9B1B31;}
	.st11{fill:#53A2D3;}
	.st12{fill:#2586B7;}
	.st13{fill:#7ACCF4;}
	.st14{fill:#58871B;}
	.st15{fill:#71AA2E;}
	.st16{fill:#AADD68;}
	.st17{fill:#E2D7DA;}
	.st18{fill:#F7EDEF;}
	.st19{fill:#FFFFFF;}
	.st20{fill:#191919;}
</style>
<g id="BACKGROUND" class="st0">
	<rect x="-135.9" y="0" class="st1" width="500" height="500"/>
</g>
<g id="OBJECTS" class="st0">
	<g>
		<polygon class="st2" points="132.9,405.4 177.8,398.8 170.9,391 118.4,385.8 		"/>
		<g class="st3">
			<polygon class="st4" points="153.4,393.3 132.9,405.4 132.9,380 153.4,367.9 			"/>
			<polygon class="st5" points="132.9,405.4 93.2,392.7 93.2,367.4 132.9,380 			"/>
			<polygon class="st6" points="132.9,380 93.2,367.4 113.6,355.3 153.4,367.9 			"/>
		</g>
		<g class="st3">
			<rect x="102.1" y="363.9" class="st4" width="11.6" height="3.5"/>
			<g>
				<path class="st4" d="M113.7,367.4c0,1.4-2.6,2.6-5.8,2.6c-3.2,0-5.8-1.2-5.8-2.6s2.6-2.6,5.8-2.6S113.7,365.9,113.7,367.4z"/>
				<path class="st6" d="M113.7,363.9c0,1.4-2.6,2.6-5.8,2.6c-3.2,0-5.8-1.2-5.8-2.6s2.6-2.6,5.8-2.6S113.7,362.4,113.7,363.9z"/>
			</g>
		</g>
		<g class="st3">
			<rect x="112.6" y="357.3" class="st4" width="11.6" height="3.5"/>
			<g>
				<path class="st4" d="M124.2,360.8c0,1.4-2.6,2.6-5.8,2.6c-3.2,0-5.8-1.2-5.8-2.6s2.6-2.6,5.8-2.6
					C121.6,358.2,124.2,359.4,124.2,360.8z"/>
				<path class="st6" d="M124.2,357.3c0,1.4-2.6,2.6-5.8,2.6c-3.2,0-5.8-1.2-5.8-2.6s2.6-2.6,5.8-2.6
					C121.6,354.7,124.2,355.9,124.2,357.3z"/>
			</g>
		</g>
		<g class="st3">
			<rect x="123.3" y="370.8" class="st4" width="11.6" height="3.5"/>
			<g>
				<path class="st4" d="M134.9,374.3c0,1.4-2.6,2.6-5.8,2.6s-5.8-1.2-5.8-2.6s2.6-2.6,5.8-2.6C132.3,371.7,134.9,372.9,134.9,374.3
					z"/>
				<path class="st6" d="M134.9,370.8c0,1.4-2.6,2.6-5.8,2.6s-5.8-1.2-5.8-2.6s2.6-2.6,5.8-2.6C132.3,368.2,134.9,369.4,134.9,370.8
					z"/>
			</g>
		</g>
		<g class="st3">
			<rect x="133.4" y="364.7" class="st4" width="11.6" height="3.5"/>
			<g>
				<path class="st4" d="M145,368.2c0,1.4-2.6,2.6-5.8,2.6s-5.8-1.2-5.8-2.6s2.6-2.6,5.8-2.6S145,366.8,145,368.2z"/>
				<path class="st6" d="M145,364.7c0,1.4-2.6,2.6-5.8,2.6s-5.8-1.2-5.8-2.6s2.6-2.6,5.8-2.6S145,363.3,145,364.7z"/>
			</g>
		</g>
	</g>
	<g>
		<polygon class="st2" points="-79.1,367.9 -21.2,386.4 7.7,372.8 -18.9,368.5 		"/>
		<g class="st3">
			<polygon class="st7" points="-18.9,368.5 -39.3,380.6 -39.3,355.2 -18.9,343.1 			"/>
			<polygon class="st8" points="-39.3,380.6 -79.1,367.9 -79.1,342.6 -39.3,355.2 			"/>
			<polygon class="st9" points="-39.3,355.2 -79.1,342.6 -58.7,330.5 -18.9,343.1 			"/>
		</g>
		<g class="st3">
			<rect x="-70.2" y="339.1" class="st10" width="11.6" height="3.5"/>
			<g>
				<path class="st10" d="M-58.5,342.6c0,1.4-2.6,2.6-5.8,2.6c-3.2,0-5.8-1.2-5.8-2.6s2.6-2.6,5.8-2.6
					C-61.2,340-58.5,341.1-58.5,342.6z"/>
				<path class="st9" d="M-58.5,339.1c0,1.4-2.6,2.6-5.8,2.6c-3.2,0-5.8-1.2-5.8-2.6s2.6-2.6,5.8-2.6
					C-61.2,336.5-58.5,337.6-58.5,339.1z"/>
			</g>
		</g>
		<g class="st3">
			<rect x="-59.7" y="332.5" class="st10" width="11.6" height="3.5"/>
			<g>
				<path class="st10" d="M-48.1,336c0,1.4-2.6,2.6-5.8,2.6s-5.8-1.2-5.8-2.6s2.6-2.6,5.8-2.6C-50.7,333.4-48.1,334.6-48.1,336z"/>
				<path class="st9" d="M-48.1,332.5c0,1.4-2.6,2.6-5.8,2.6s-5.8-1.2-5.8-2.6s2.6-2.6,5.8-2.6C-50.7,329.9-48.1,331.1-48.1,332.5z"
					/>
			</g>
		</g>
		<g class="st3">
			<rect x="-48.9" y="346" class="st10" width="11.6" height="3.5"/>
			<g>
				<path class="st10" d="M-37.3,349.5c0,1.4-2.6,2.6-5.8,2.6s-5.8-1.2-5.8-2.6s2.6-2.6,5.8-2.6C-39.9,346.9-37.3,348.1-37.3,349.5z
					"/>
				<path class="st9" d="M-37.3,346c0,1.4-2.6,2.6-5.8,2.6s-5.8-1.2-5.8-2.6s2.6-2.6,5.8-2.6C-39.9,343.4-37.3,344.6-37.3,346z"/>
			</g>
		</g>
		<g class="st3">
			<rect x="-38.9" y="339.9" class="st10" width="11.6" height="3.5"/>
			<g>
				<path class="st10" d="M-27.3,343.4c0,1.4-2.6,2.6-5.8,2.6s-5.8-1.2-5.8-2.6s2.6-2.6,5.8-2.6S-27.3,342-27.3,343.4z"/>
				<path class="st9" d="M-27.3,339.9c0,1.4-2.6,2.6-5.8,2.6s-5.8-1.2-5.8-2.6s2.6-2.6,5.8-2.6S-27.3,338.5-27.3,339.9z"/>
			</g>
		</g>
	</g>
	<g>
		<path class="st2" d="M34.3,400.5l47.5,3.3l-6.7,12.4l-57.6,3.3L34.3,400.5z"/>
		<g class="st3">
			<polygon class="st11" points="-2.9,407.3 17.5,419.5 17.5,394.1 -2.9,382 			"/>
			<polygon class="st12" points="17.5,419.5 57.3,406.8 57.3,381.4 17.5,394.1 			"/>
			<polygon class="st13" points="17.5,394.1 57.3,381.4 36.8,369.3 -2.9,382 			"/>
		</g>
		<g class="st3">
			<rect x="36.7" y="378" class="st12" width="11.6" height="3.5"/>
			<g>
				<path class="st12" d="M36.7,381.5c0,1.4,2.6,2.6,5.8,2.6s5.8-1.2,5.8-2.6s-2.6-2.6-5.8-2.6S36.7,380,36.7,381.5z"/>
				<path class="st13" d="M36.7,378c0,1.4,2.6,2.6,5.8,2.6s5.8-1.2,5.8-2.6s-2.6-2.6-5.8-2.6S36.7,376.5,36.7,378z"/>
			</g>
		</g>
		<g class="st3">
			<rect x="26.3" y="371.4" class="st12" width="11.6" height="3.5"/>
			<g>
				<path class="st12" d="M26.3,374.9c0,1.4,2.6,2.6,5.8,2.6s5.8-1.2,5.8-2.6s-2.6-2.6-5.8-2.6S26.3,373.5,26.3,374.9z"/>
				<path class="st13" d="M26.3,371.4c0,1.4,2.6,2.6,5.8,2.6s5.8-1.2,5.8-2.6s-2.6-2.6-5.8-2.6S26.3,370,26.3,371.4z"/>
			</g>
		</g>
		<g class="st3">
			<rect x="15.5" y="384.9" class="st12" width="11.6" height="3.5"/>
			<g>
				<path class="st12" d="M15.5,388.4c0,1.4,2.6,2.6,5.8,2.6s5.8-1.2,5.8-2.6s-2.6-2.6-5.8-2.6S15.5,387,15.5,388.4z"/>
				<path class="st13" d="M15.5,384.9c0,1.4,2.6,2.6,5.8,2.6s5.8-1.2,5.8-2.6s-2.6-2.6-5.8-2.6S15.5,383.5,15.5,384.9z"/>
			</g>
		</g>
		<g class="st3">
			<rect x="5.5" y="378.8" class="st12" width="11.6" height="3.5"/>
			<g>
				<path class="st12" d="M5.5,382.3c0,1.4,2.6,2.6,5.8,2.6s5.8-1.2,5.8-2.6s-2.6-2.6-5.8-2.6C8.1,379.7,5.5,380.9,5.5,382.3z"/>
				<path class="st13" d="M5.5,378.8c0,1.4,2.6,2.6,5.8,2.6s5.8-1.2,5.8-2.6s-2.6-2.6-5.8-2.6C8.1,376.2,5.5,377.4,5.5,378.8z"/>
			</g>
		</g>
	</g>
	<g>
		<path class="st2" d="M226.7,393.9l47.5,3.3l-6.7,12.4l-57.6,3.3L226.7,393.9z"/>
		<g class="st3">
			<polygon class="st8" points="189.8,400.8 210.3,412.9 210.3,387.5 189.8,375.4 			"/>
			<polygon class="st7" points="210.3,412.9 250,400.2 250,374.9 210.3,387.5 			"/>
			<polygon class="st9" points="210.3,387.5 250,374.9 229.6,362.8 189.8,375.4 			"/>
		</g>
		<g class="st3">
			<rect x="229.5" y="371.4" class="st10" width="11.6" height="3.5"/>
			<g>
				<path class="st10" d="M229.5,374.9c0,1.4,2.6,2.6,5.8,2.6s5.8-1.2,5.8-2.6s-2.6-2.6-5.8-2.6S229.5,373.4,229.5,374.9z"/>
				<path class="st9" d="M229.5,371.4c0,1.4,2.6,2.6,5.8,2.6s5.8-1.2,5.8-2.6s-2.6-2.6-5.8-2.6S229.5,369.9,229.5,371.4z"/>
			</g>
		</g>
		<g class="st3">
			<rect x="219" y="364.8" class="st10" width="11.6" height="3.5"/>
			<g>
				<path class="st10" d="M219,368.3c0,1.4,2.6,2.6,5.8,2.6s5.8-1.2,5.8-2.6s-2.6-2.6-5.8-2.6C221.6,365.7,219,366.9,219,368.3z"/>
				<path class="st9" d="M219,364.8c0,1.4,2.6,2.6,5.8,2.6s5.8-1.2,5.8-2.6s-2.6-2.6-5.8-2.6C221.6,362.2,219,363.4,219,364.8z"/>
			</g>
		</g>
		<g class="st3">
			<rect x="208.2" y="378.3" class="st10" width="11.6" height="3.5"/>
			<g>
				<path class="st10" d="M208.2,381.8c0,1.4,2.6,2.6,5.8,2.6s5.8-1.2,5.8-2.6s-2.6-2.6-5.8-2.6
					C210.8,379.2,208.2,380.4,208.2,381.8z"/>
				<path class="st9" d="M208.2,378.3c0,1.4,2.6,2.6,5.8,2.6s5.8-1.2,5.8-2.6s-2.6-2.6-5.8-2.6C210.8,375.7,208.2,376.9,208.2,378.3
					z"/>
			</g>
		</g>
		<g class="st3">
			<rect x="198.2" y="372.2" class="st10" width="11.6" height="3.5"/>
			<g>
				<path class="st10" d="M198.2,375.7c0,1.4,2.6,2.6,5.8,2.6s5.8-1.2,5.8-2.6s-2.6-2.6-5.8-2.6S198.2,374.3,198.2,375.7z"/>
				<path class="st9" d="M198.2,372.2c0,1.4,2.6,2.6,5.8,2.6s5.8-1.2,5.8-2.6s-2.6-2.6-5.8-2.6S198.2,370.8,198.2,372.2z"/>
			</g>
		</g>
	</g>
	<g>
		<g class="st3">
			<g>
				<polygon class="st12" points="-32.3,307.8 -52.8,320 -52.8,294.6 -32.3,282.5 				"/>
				<polygon class="st11" points="-52.8,320 -92.5,307.3 -92.5,281.9 -52.8,294.6 				"/>
				<polygon class="st13" points="-52.8,294.6 -92.5,281.9 -72.1,269.8 -32.3,282.5 				"/>
			</g>
			<g>
				<rect x="-83.6" y="278.5" class="st12" width="11.6" height="3.5"/>
				<g>
					<path class="st12" d="M-72,282c0,1.4-2.6,2.6-5.8,2.6s-5.8-1.2-5.8-2.6s2.6-2.6,5.8-2.6S-72,280.5-72,282z"/>
					<path class="st13" d="M-72,278.5c0,1.4-2.6,2.6-5.8,2.6s-5.8-1.2-5.8-2.6s2.6-2.6,5.8-2.6S-72,277-72,278.5z"/>
				</g>
			</g>
			<g>
				<rect x="-73.2" y="271.9" class="st12" width="11.6" height="3.5"/>
				<g>
					<path class="st12" d="M-61.5,275.4c0,1.4-2.6,2.6-5.8,2.6c-3.2,0-5.8-1.2-5.8-2.6s2.6-2.6,5.8-2.6S-61.5,274-61.5,275.4z"/>
					<path class="st13" d="M-61.5,271.9c0,1.4-2.6,2.6-5.8,2.6c-3.2,0-5.8-1.2-5.8-2.6s2.6-2.6,5.8-2.6S-61.5,270.5-61.5,271.9z"/>
				</g>
			</g>
			<g>
				<rect x="-62.4" y="285.4" class="st12" width="11.6" height="3.5"/>
				<g>
					<path class="st12" d="M-50.8,288.9c0,1.4-2.6,2.6-5.8,2.6s-5.8-1.2-5.8-2.6s2.6-2.6,5.8-2.6C-53.4,286.3-50.8,287.5-50.8,288.9
						z"/>
					<path class="st13" d="M-50.8,285.4c0,1.4-2.6,2.6-5.8,2.6s-5.8-1.2-5.8-2.6s2.6-2.6,5.8-2.6S-50.8,284-50.8,285.4z"/>
				</g>
			</g>
			<g>
				<rect x="-52.3" y="279.3" class="st12" width="11.6" height="3.5"/>
				<g>
					<path class="st12" d="M-40.7,282.8c0,1.4-2.6,2.6-5.8,2.6s-5.8-1.2-5.8-2.6s2.6-2.6,5.8-2.6C-43.3,280.2-40.7,281.4-40.7,282.8
						z"/>
					<path class="st13" d="M-40.7,279.3c0,1.4-2.6,2.6-5.8,2.6s-5.8-1.2-5.8-2.6s2.6-2.6,5.8-2.6C-43.3,276.7-40.7,277.9-40.7,279.3
						z"/>
				</g>
			</g>
		</g>
		<g class="st3">
			<g>
				<polygon class="st7" points="7.4,320.5 -13,332.7 -13,307.3 7.4,295.2 				"/>
				<polygon class="st8" points="-13,332.7 -52.8,320 -52.8,294.6 -13,307.3 				"/>
				<polygon class="st9" points="-13,307.3 -52.8,294.6 -32.3,282.5 7.4,295.2 				"/>
			</g>
			<g>
				<rect x="-43.8" y="291.1" class="st10" width="11.6" height="3.5"/>
				<g>
					<path class="st10" d="M-32.2,294.6c0,1.4-2.6,2.6-5.8,2.6s-5.8-1.2-5.8-2.6s2.6-2.6,5.8-2.6S-32.2,293.2-32.2,294.6z"/>
					<path class="st9" d="M-32.2,291.1c0,1.4-2.6,2.6-5.8,2.6s-5.8-1.2-5.8-2.6s2.6-2.6,5.8-2.6S-32.2,289.7-32.2,291.1z"/>
				</g>
			</g>
			<g>
				<rect x="-33.4" y="284.6" class="st10" width="11.6" height="3.5"/>
				<g>
					<path class="st10" d="M-21.8,288.1c0,1.4-2.6,2.6-5.8,2.6s-5.8-1.2-5.8-2.6s2.6-2.6,5.8-2.6S-21.8,286.7-21.8,288.1z"/>
					<path class="st9" d="M-21.8,284.6c0,1.4-2.6,2.6-5.8,2.6s-5.8-1.2-5.8-2.6s2.6-2.6,5.8-2.6S-21.8,283.2-21.8,284.6z"/>
				</g>
			</g>
			<g>
				<rect x="-22.6" y="298.1" class="st10" width="11.6" height="3.5"/>
				<g>
					<path class="st10" d="M-11,301.6c0,1.4-2.6,2.6-5.8,2.6s-5.8-1.2-5.8-2.6s2.6-2.6,5.8-2.6S-11,300.1-11,301.6z"/>
					<path class="st9" d="M-11,298.1c0,1.4-2.6,2.6-5.8,2.6s-5.8-1.2-5.8-2.6s2.6-2.6,5.8-2.6S-11,296.6-11,298.1z"/>
				</g>
			</g>
			<g>
				<rect x="-12.6" y="292" class="st10" width="11.6" height="3.5"/>
				<g>
					<path class="st10" d="M-0.9,295.5c0,1.4-2.6,2.6-5.8,2.6s-5.8-1.2-5.8-2.6s2.6-2.6,5.8-2.6S-0.9,294.1-0.9,295.5z"/>
					<path class="st9" d="M-0.9,292c0,1.4-2.6,2.6-5.8,2.6s-5.8-1.2-5.8-2.6s2.6-2.6,5.8-2.6S-0.9,290.6-0.9,292z"/>
				</g>
			</g>
		</g>
		<g class="st3">
			<g>
				<polygon class="st7" points="-12.9,288.6 -33.3,300.8 -33.3,275.4 -12.9,263.3 				"/>
				<polygon class="st8" points="-33.3,300.8 -73.1,288.1 -73.1,262.7 -33.3,275.4 				"/>
				<polygon class="st9" points="-33.3,275.4 -73.1,262.7 -52.6,250.6 -12.9,263.3 				"/>
			</g>
			<g>
				<rect x="-64.1" y="259.3" class="st10" width="11.6" height="3.5"/>
				<g>
					<path class="st10" d="M-52.5,262.8c0,1.4-2.6,2.6-5.8,2.6s-5.8-1.2-5.8-2.6s2.6-2.6,5.8-2.6C-55.1,260.1-52.5,261.3-52.5,262.8
						z"/>
					<path class="st9" d="M-52.5,259.3c0,1.4-2.6,2.6-5.8,2.6s-5.8-1.2-5.8-2.6s2.6-2.6,5.8-2.6C-55.1,256.6-52.5,257.8-52.5,259.3z
						"/>
				</g>
			</g>
			<g>
				<rect x="-53.7" y="252.7" class="st10" width="11.6" height="3.5"/>
				<g>
					<path class="st10" d="M-42.1,256.2c0,1.4-2.6,2.6-5.8,2.6s-5.8-1.2-5.8-2.6s2.6-2.6,5.8-2.6S-42.1,254.8-42.1,256.2z"/>
					<path class="st9" d="M-42.1,252.7c0,1.4-2.6,2.6-5.8,2.6s-5.8-1.2-5.8-2.6s2.6-2.6,5.8-2.6S-42.1,251.3-42.1,252.7z"/>
				</g>
			</g>
			<g>
				<rect x="-42.9" y="266.2" class="st10" width="11.6" height="3.5"/>
				<g>
					<path class="st10" d="M-31.3,269.7c0,1.4-2.6,2.6-5.8,2.6s-5.8-1.2-5.8-2.6s2.6-2.6,5.8-2.6C-33.9,267.1-31.3,268.3-31.3,269.7
						z"/>
					<path class="st9" d="M-31.3,266.2c0,1.4-2.6,2.6-5.8,2.6s-5.8-1.2-5.8-2.6s2.6-2.6,5.8-2.6C-33.9,263.6-31.3,264.8-31.3,266.2z
						"/>
				</g>
			</g>
			<g>
				<rect x="-32.8" y="260.1" class="st10" width="11.6" height="3.5"/>
				<g>
					<path class="st10" d="M-21.3,263.6c0,1.4-2.6,2.6-5.8,2.6s-5.8-1.2-5.8-2.6s2.6-2.6,5.8-2.6C-23.8,261-21.3,262.2-21.3,263.6z"
						/>
					<path class="st9" d="M-21.3,260.1c0,1.4-2.6,2.6-5.8,2.6s-5.8-1.2-5.8-2.6s2.6-2.6,5.8-2.6C-23.8,257.5-21.3,258.7-21.3,260.1z
						"/>
				</g>
			</g>
		</g>
		<g class="st3">
			<g>
				<polygon class="st4" points="-12.9,263.7 -33.3,275.8 -33.3,250.5 -12.9,238.4 				"/>
				<polygon class="st5" points="-33.3,275.8 -73.1,263.2 -73.1,237.8 -33.3,250.5 				"/>
				<polygon class="st6" points="-33.3,250.5 -73.1,237.8 -52.6,225.7 -12.9,238.4 				"/>
			</g>
			<g>
				<rect x="-64.1" y="234.3" class="st4" width="11.6" height="3.5"/>
				<g>
					<path class="st4" d="M-52.5,237.8c0,1.4-2.6,2.6-5.8,2.6s-5.8-1.2-5.8-2.6s2.6-2.6,5.8-2.6S-52.5,236.4-52.5,237.8z"/>
					<path class="st6" d="M-52.5,234.3c0,1.4-2.6,2.6-5.8,2.6s-5.8-1.2-5.8-2.6s2.6-2.6,5.8-2.6S-52.5,232.9-52.5,234.3z"/>
				</g>
			</g>
			<g>
				<rect x="-53.7" y="227.8" class="st4" width="11.6" height="3.5"/>
				<g>
					<path class="st4" d="M-42.1,231.3c0,1.4-2.6,2.6-5.8,2.6s-5.8-1.2-5.8-2.6s2.6-2.6,5.8-2.6S-42.1,229.9-42.1,231.3z"/>
					<path class="st6" d="M-42.1,227.8c0,1.4-2.6,2.6-5.8,2.6s-5.8-1.2-5.8-2.6s2.6-2.6,5.8-2.6C-44.7,225.2-42.1,226.4-42.1,227.8z
						"/>
				</g>
			</g>
			<g>
				<rect x="-42.9" y="241.3" class="st4" width="11.6" height="3.5"/>
				<g>
					<path class="st4" d="M-31.3,244.8c0,1.4-2.6,2.6-5.8,2.6s-5.8-1.2-5.8-2.6s2.6-2.6,5.8-2.6C-33.9,242.2-31.3,243.3-31.3,244.8z
						"/>
					<path class="st6" d="M-31.3,241.3c0,1.4-2.6,2.6-5.8,2.6s-5.8-1.2-5.8-2.6s2.6-2.6,5.8-2.6C-33.9,238.7-31.3,239.8-31.3,241.3z
						"/>
				</g>
			</g>
			<g>
				<rect x="-32.8" y="235.2" class="st4" width="11.6" height="3.5"/>
				<g>
					<path class="st4" d="M-21.3,238.7c0,1.4-2.6,2.6-5.8,2.6s-5.8-1.2-5.8-2.6s2.6-2.6,5.8-2.6C-23.8,236.1-21.3,237.3-21.3,238.7z
						"/>
					<path class="st6" d="M-21.3,235.2c0,1.4-2.6,2.6-5.8,2.6s-5.8-1.2-5.8-2.6s2.6-2.6,5.8-2.6C-23.8,232.6-21.3,233.8-21.3,235.2z
						"/>
				</g>
			</g>
		</g>
		<g class="st3">
			<g>
				<polygon class="st12" points="-12.8,238.4 -33.3,250.6 -33.3,225.2 -12.8,213.1 				"/>
				<polygon class="st11" points="-33.3,250.6 -73,237.9 -73,212.5 -33.3,225.2 				"/>
				<polygon class="st13" points="-33.3,225.2 -73,212.5 -52.6,200.4 -12.8,213.1 				"/>
			</g>
			<g>
				<rect x="-64.1" y="209.1" class="st12" width="11.6" height="3.5"/>
				<g>
					<path class="st12" d="M-52.5,212.5c0,1.4-2.6,2.6-5.8,2.6s-5.8-1.2-5.8-2.6s2.6-2.6,5.8-2.6S-52.5,211.1-52.5,212.5z"/>
					<path class="st13" d="M-52.5,209.1c0,1.4-2.6,2.6-5.8,2.6s-5.8-1.2-5.8-2.6s2.6-2.6,5.8-2.6C-55.1,206.4-52.5,207.6-52.5,209.1
						z"/>
				</g>
			</g>
			<g>
				<rect x="-53.7" y="202.5" class="st12" width="11.6" height="3.5"/>
				<g>
					<path class="st12" d="M-42,206c0,1.4-2.6,2.6-5.8,2.6s-5.8-1.2-5.8-2.6s2.6-2.6,5.8-2.6C-44.7,203.4-42,204.6-42,206z"/>
					<path class="st13" d="M-42,202.5c0,1.4-2.6,2.6-5.8,2.6s-5.8-1.2-5.8-2.6s2.6-2.6,5.8-2.6C-44.7,199.9-42,201.1-42,202.5z"/>
				</g>
			</g>
			<g>
				<rect x="-42.9" y="216" class="st12" width="11.6" height="3.5"/>
				<g>
					<path class="st12" d="M-31.3,219.5c0,1.4-2.6,2.6-5.8,2.6s-5.8-1.2-5.8-2.6s2.6-2.6,5.8-2.6C-33.9,216.9-31.3,218-31.3,219.5z"
						/>
					<path class="st13" d="M-31.3,216c0,1.4-2.6,2.6-5.8,2.6s-5.8-1.2-5.8-2.6s2.6-2.6,5.8-2.6C-33.9,213.4-31.3,214.6-31.3,216z"/>
				</g>
			</g>
			<g>
				<rect x="-32.8" y="209.9" class="st12" width="11.6" height="3.5"/>
				<g>
					<path class="st12" d="M-21.2,213.4c0,1.4-2.6,2.6-5.8,2.6s-5.8-1.2-5.8-2.6s2.6-2.6,5.8-2.6C-23.8,210.8-21.2,212-21.2,213.4z"
						/>
					<path class="st13" d="M-21.2,209.9c0,1.4-2.6,2.6-5.8,2.6s-5.8-1.2-5.8-2.6s2.6-2.6,5.8-2.6C-23.8,207.3-21.2,208.5-21.2,209.9
						z"/>
				</g>
			</g>
		</g>
		<g class="st3">
			<g>
				<polygon class="st14" points="-12.8,213.1 -33.2,225.2 -33.2,199.9 -12.8,187.8 				"/>
				<polygon class="st15" points="-33.2,225.2 -73,212.6 -73,187.2 -33.2,199.9 				"/>
				<polygon class="st16" points="-33.2,199.9 -73,187.2 -52.5,175.1 -12.8,187.8 				"/>
			</g>
			<g>
				<rect x="-64" y="183.7" class="st14" width="11.6" height="3.5"/>
				<g>
					<path class="st14" d="M-52.4,187.2c0,1.4-2.6,2.6-5.8,2.6s-5.8-1.2-5.8-2.6s2.6-2.6,5.8-2.6S-52.4,185.8-52.4,187.2z"/>
					<path class="st16" d="M-52.4,183.7c0,1.4-2.6,2.6-5.8,2.6s-5.8-1.2-5.8-2.6s2.6-2.6,5.8-2.6S-52.4,182.3-52.4,183.7z"/>
				</g>
			</g>
			<g>
				<rect x="-53.6" y="177.2" class="st14" width="11.6" height="3.5"/>
				<g>
					<path class="st14" d="M-42,180.7c0,1.4-2.6,2.6-5.8,2.6s-5.8-1.2-5.8-2.6s2.6-2.6,5.8-2.6S-42,179.3-42,180.7z"/>
					<path class="st16" d="M-42,177.2c0,1.4-2.6,2.6-5.8,2.6s-5.8-1.2-5.8-2.6s2.6-2.6,5.8-2.6S-42,175.8-42,177.2z"/>
				</g>
			</g>
			<g>
				<rect x="-42.8" y="190.7" class="st14" width="11.6" height="3.5"/>
				<g>
					<path class="st14" d="M-31.2,194.2c0,1.4-2.6,2.6-5.8,2.6s-5.8-1.2-5.8-2.6s2.6-2.6,5.8-2.6S-31.2,192.7-31.2,194.2z"/>
					<path class="st16" d="M-31.2,190.7c0,1.4-2.6,2.6-5.8,2.6s-5.8-1.2-5.8-2.6s2.6-2.6,5.8-2.6S-31.2,189.2-31.2,190.7z"/>
				</g>
			</g>
			<g>
				<rect x="-32.8" y="184.6" class="st14" width="11.6" height="3.5"/>
				<g>
					<path class="st14" d="M-21.2,188.1c0,1.4-2.6,2.6-5.8,2.6s-5.8-1.2-5.8-2.6s2.6-2.6,5.8-2.6S-21.2,186.6-21.2,188.1z"/>
					<path class="st16" d="M-21.2,184.6c0,1.4-2.6,2.6-5.8,2.6s-5.8-1.2-5.8-2.6s2.6-2.6,5.8-2.6S-21.2,183.1-21.2,184.6z"/>
				</g>
			</g>
		</g>
		<g class="st3">
			<g>
				<polygon class="st17" points="-12.8,187.8 -33.2,199.9 -33.2,174.5 -12.8,162.4 				"/>
				<polygon class="st18" points="-33.2,199.9 -73,187.2 -73,161.9 -33.2,174.5 				"/>
				<polygon class="st19" points="-33.2,174.5 -73,161.9 -52.5,149.8 -12.8,162.4 				"/>
			</g>
			<g>
				<rect x="-64" y="158.4" class="st17" width="11.6" height="3.5"/>
				<g>
					<path class="st17" d="M-52.4,161.9c0,1.4-2.6,2.6-5.8,2.6s-5.8-1.2-5.8-2.6s2.6-2.6,5.8-2.6C-55,159.3-52.4,160.4-52.4,161.9z"
						/>
					<path class="st19" d="M-52.4,158.4c0,1.4-2.6,2.6-5.8,2.6s-5.8-1.2-5.8-2.6s2.6-2.6,5.8-2.6C-55,155.8-52.4,156.9-52.4,158.4z"
						/>
				</g>
			</g>
			<g>
				<rect x="-53.6" y="151.8" class="st17" width="11.6" height="3.5"/>
				<g>
					<path class="st17" d="M-42,155.3c0,1.4-2.6,2.6-5.8,2.6s-5.8-1.2-5.8-2.6s2.6-2.6,5.8-2.6S-42,153.9-42,155.3z"/>
					<path class="st19" d="M-42,151.8c0,1.4-2.6,2.6-5.8,2.6s-5.8-1.2-5.8-2.6s2.6-2.6,5.8-2.6S-42,150.4-42,151.8z"/>
				</g>
			</g>
			<g>
				<rect x="-42.8" y="165.3" class="st17" width="11.6" height="3.5"/>
				<g>
					<path class="st17" d="M-31.2,168.8c0,1.4-2.6,2.6-5.8,2.6s-5.8-1.2-5.8-2.6s2.6-2.6,5.8-2.6S-31.2,167.4-31.2,168.8z"/>
					<path class="st19" d="M-31.2,165.3c0,1.4-2.6,2.6-5.8,2.6s-5.8-1.2-5.8-2.6s2.6-2.6,5.8-2.6S-31.2,163.9-31.2,165.3z"/>
				</g>
			</g>
			<g>
				<rect x="-32.8" y="159.2" class="st17" width="11.6" height="3.5"/>
				<g>
					<path class="st17" d="M-21.2,162.7c0,1.4-2.6,2.6-5.8,2.6s-5.8-1.2-5.8-2.6s2.6-2.6,5.8-2.6S-21.2,161.3-21.2,162.7z"/>
					<path class="st19" d="M-21.2,159.2c0,1.4-2.6,2.6-5.8,2.6s-5.8-1.2-5.8-2.6s2.6-2.6,5.8-2.6S-21.2,157.8-21.2,159.2z"/>
				</g>
			</g>
		</g>
		<g class="st3">
			<g>
				<polygon class="st7" points="-12.8,162.4 -33.2,174.6 -33.2,149.2 -12.8,137.1 				"/>
				<polygon class="st8" points="-33.2,174.6 -73,161.9 -73,136.5 -33.2,149.2 				"/>
				<polygon class="st9" points="-33.2,149.2 -73,136.5 -52.5,124.4 -12.8,137.1 				"/>
			</g>
			<g>
				<rect x="-64" y="133.1" class="st10" width="11.6" height="3.5"/>
				<g>
					<path class="st10" d="M-52.4,136.5c0,1.4-2.6,2.6-5.8,2.6s-5.8-1.2-5.8-2.6s2.6-2.6,5.8-2.6S-52.4,135.1-52.4,136.5z"/>
					<path class="st9" d="M-52.4,133.1c0,1.4-2.6,2.6-5.8,2.6s-5.8-1.2-5.8-2.6s2.6-2.6,5.8-2.6C-55,130.4-52.4,131.6-52.4,133.1z"
						/>
				</g>
			</g>
			<g>
				<rect x="-53.6" y="126.5" class="st10" width="11.6" height="3.5"/>
				<g>
					<path class="st10" d="M-42,130c0,1.4-2.6,2.6-5.8,2.6s-5.8-1.2-5.8-2.6s2.6-2.6,5.8-2.6S-42,128.6-42,130z"/>
					<path class="st9" d="M-42,126.5c0,1.4-2.6,2.6-5.8,2.6s-5.8-1.2-5.8-2.6s2.6-2.6,5.8-2.6C-44.6,123.9-42,125.1-42,126.5z"/>
				</g>
			</g>
			<g>
				<rect x="-42.8" y="140" class="st10" width="11.6" height="3.5"/>
				<g>
					<path class="st10" d="M-31.2,143.5c0,1.4-2.6,2.6-5.8,2.6s-5.8-1.2-5.8-2.6s2.6-2.6,5.8-2.6S-31.2,142-31.2,143.5z"/>
					<path class="st9" d="M-31.2,140c0,1.4-2.6,2.6-5.8,2.6s-5.8-1.2-5.8-2.6s2.6-2.6,5.8-2.6S-31.2,138.6-31.2,140z"/>
				</g>
			</g>
			<g>
				<rect x="-32.8" y="133.9" class="st10" width="11.6" height="3.5"/>
				<g>
					<path class="st10" d="M-21.2,137.4c0,1.4-2.6,2.6-5.8,2.6s-5.8-1.2-5.8-2.6s2.6-2.6,5.8-2.6S-21.2,136-21.2,137.4z"/>
					<path class="st9" d="M-21.2,133.9c0,1.4-2.6,2.6-5.8,2.6s-5.8-1.2-5.8-2.6s2.6-2.6,5.8-2.6S-21.2,132.5-21.2,133.9z"/>
				</g>
			</g>
		</g>
		<g class="st3">
			<g>
				<polygon class="st7" points="-30.9,131.3 -51.3,143.4 -51.3,118 -30.9,105.9 				"/>
				<polygon class="st8" points="-51.3,143.4 -91.1,130.7 -91.1,105.4 -51.3,118 				"/>
				<polygon class="st9" points="-51.3,118 -91.1,105.4 -70.7,93.3 -30.9,105.9 				"/>
			</g>
			<g>
				<rect x="-82.2" y="101.9" class="st10" width="11.6" height="3.5"/>
				<g>
					<path class="st10" d="M-70.6,105.4c0,1.4-2.6,2.6-5.8,2.6c-3.2,0-5.8-1.2-5.8-2.6s2.6-2.6,5.8-2.6
						C-73.1,102.8-70.6,103.9-70.6,105.4z"/>
					<path class="st9" d="M-70.6,101.9c0,1.4-2.6,2.6-5.8,2.6c-3.2,0-5.8-1.2-5.8-2.6s2.6-2.6,5.8-2.6
						C-73.1,99.3-70.6,100.4-70.6,101.9z"/>
				</g>
			</g>
			<g>
				<rect x="-71.7" y="95.3" class="st10" width="11.6" height="3.5"/>
				<g>
					<path class="st10" d="M-60.1,98.8c0,1.4-2.6,2.6-5.8,2.6c-3.2,0-5.8-1.2-5.8-2.6s2.6-2.6,5.8-2.6
						C-62.7,96.2-60.1,97.4-60.1,98.8z"/>
					<path class="st9" d="M-60.1,95.3c0,1.4-2.6,2.6-5.8,2.6c-3.2,0-5.8-1.2-5.8-2.6s2.6-2.6,5.8-2.6
						C-62.7,92.7-60.1,93.9-60.1,95.3z"/>
				</g>
			</g>
			<g>
				<rect x="-60.9" y="108.8" class="st10" width="11.6" height="3.5"/>
				<g>
					<path class="st10" d="M-49.3,112.3c0,1.4-2.6,2.6-5.8,2.6s-5.8-1.2-5.8-2.6s2.6-2.6,5.8-2.6C-51.9,109.7-49.3,110.9-49.3,112.3
						z"/>
					<path class="st9" d="M-49.3,108.8c0,1.4-2.6,2.6-5.8,2.6s-5.8-1.2-5.8-2.6s2.6-2.6,5.8-2.6C-51.9,106.2-49.3,107.4-49.3,108.8z
						"/>
				</g>
			</g>
			<g>
				<rect x="-50.9" y="102.7" class="st10" width="11.6" height="3.5"/>
				<g>
					<path class="st10" d="M-39.3,106.2c0,1.4-2.6,2.6-5.8,2.6s-5.8-1.2-5.8-2.6s2.6-2.6,5.8-2.6S-39.3,104.8-39.3,106.2z"/>
					<path class="st9" d="M-39.3,102.7c0,1.4-2.6,2.6-5.8,2.6s-5.8-1.2-5.8-2.6s2.6-2.6,5.8-2.6C-41.9,100.1-39.3,101.3-39.3,102.7z
						"/>
				</g>
			</g>
		</g>
		<g class="st3">
			<g>
				<polygon class="st4" points="9,144 -11.4,156.1 -11.4,130.8 9,118.7 				"/>
				<polygon class="st5" points="-11.4,156.1 -51.2,143.4 -51.2,118.1 -11.4,130.8 				"/>
				<polygon class="st6" points="-11.4,130.8 -51.2,118.1 -30.8,106 9,118.7 				"/>
			</g>
			<g>
				<rect x="-42.3" y="114.6" class="st4" width="11.6" height="3.5"/>
				<g>
					<path class="st4" d="M-30.6,118.1c0,1.4-2.6,2.6-5.8,2.6s-5.8-1.2-5.8-2.6s2.6-2.6,5.8-2.6C-33.3,115.5-30.6,116.6-30.6,118.1z
						"/>
					<path class="st6" d="M-30.6,114.6c0,1.4-2.6,2.6-5.8,2.6s-5.8-1.2-5.8-2.6s2.6-2.6,5.8-2.6C-33.3,112-30.6,113.2-30.6,114.6z"
						/>
				</g>
			</g>
			<g>
				<rect x="-31.8" y="108.1" class="st4" width="11.6" height="3.5"/>
				<g>
					<path class="st4" d="M-20.2,111.6c0,1.4-2.6,2.6-5.8,2.6s-5.8-1.2-5.8-2.6s2.6-2.6,5.8-2.6S-20.2,110.1-20.2,111.6z"/>
					<path class="st6" d="M-20.2,108.1c0,1.4-2.6,2.6-5.8,2.6s-5.8-1.2-5.8-2.6s2.6-2.6,5.8-2.6S-20.2,106.6-20.2,108.1z"/>
				</g>
			</g>
			<g>
				<rect x="-21" y="121.5" class="st4" width="11.6" height="3.5"/>
				<g>
					<path class="st4" d="M-9.4,125c0,1.4-2.6,2.6-5.8,2.6s-5.8-1.2-5.8-2.6s2.6-2.6,5.8-2.6S-9.4,123.6-9.4,125z"/>
					<path class="st6" d="M-9.4,121.5c0,1.4-2.6,2.6-5.8,2.6s-5.8-1.2-5.8-2.6s2.6-2.6,5.8-2.6S-9.4,120.1-9.4,121.5z"/>
				</g>
			</g>
			<g>
				<rect x="-11" y="115.5" class="st4" width="11.6" height="3.5"/>
				<g>
					<path class="st4" d="M0.6,118.9c0,1.4-2.6,2.6-5.8,2.6s-5.8-1.2-5.8-2.6s2.6-2.6,5.8-2.6S0.6,117.5,0.6,118.9z"/>
					<path class="st6" d="M0.6,115.5c0,1.4-2.6,2.6-5.8,2.6s-5.8-1.2-5.8-2.6s2.6-2.6,5.8-2.6S0.6,114,0.6,115.5z"/>
				</g>
			</g>
		</g>
		<g class="st3">
			<g>
				<polygon class="st4" points="47.2,333.2 26.7,345.3 26.7,319.9 47.2,307.8 				"/>
				<polygon class="st5" points="26.7,345.3 -13,332.6 -13,307.3 26.7,319.9 				"/>
				<polygon class="st6" points="26.7,319.9 -13,307.3 7.4,295.2 47.2,307.8 				"/>
			</g>
			<g>
				<rect x="-4.1" y="303.8" class="st4" width="11.6" height="3.5"/>
				<g>
					<path class="st4" d="M7.5,307.3c0,1.4-2.6,2.6-5.8,2.6s-5.8-1.2-5.8-2.6s2.6-2.6,5.8-2.6S7.5,305.8,7.5,307.3z"/>
					<path class="st6" d="M7.5,303.8c0,1.4-2.6,2.6-5.8,2.6s-5.8-1.2-5.8-2.6s2.6-2.6,5.8-2.6S7.5,302.3,7.5,303.8z"/>
				</g>
			</g>
			<g>
				<rect x="6.3" y="297.3" class="st4" width="11.6" height="3.5"/>
				<g>
					<path class="st4" d="M18,300.7c0,1.4-2.6,2.6-5.8,2.6s-5.8-1.2-5.8-2.6s2.6-2.6,5.8-2.6S18,299.3,18,300.7z"/>
					<path class="st6" d="M18,297.3c0,1.4-2.6,2.6-5.8,2.6s-5.8-1.2-5.8-2.6s2.6-2.6,5.8-2.6S18,295.8,18,297.3z"/>
				</g>
			</g>
			<g>
				<rect x="17.1" y="310.7" class="st4" width="11.6" height="3.5"/>
				<g>
					<path class="st4" d="M28.7,314.2c0,1.4-2.6,2.6-5.8,2.6s-5.8-1.2-5.8-2.6s2.6-2.6,5.8-2.6S28.7,312.8,28.7,314.2z"/>
					<path class="st6" d="M28.7,310.7c0,1.4-2.6,2.6-5.8,2.6s-5.8-1.2-5.8-2.6s2.6-2.6,5.8-2.6S28.7,309.3,28.7,310.7z"/>
				</g>
			</g>
			<g>
				<rect x="27.2" y="304.6" class="st4" width="11.6" height="3.5"/>
				<g>
					<path class="st4" d="M38.8,308.1c0,1.4-2.6,2.6-5.8,2.6s-5.8-1.2-5.8-2.6s2.6-2.6,5.8-2.6S38.8,306.7,38.8,308.1z"/>
					<path class="st6" d="M38.8,304.6c0,1.4-2.6,2.6-5.8,2.6s-5.8-1.2-5.8-2.6s2.6-2.6,5.8-2.6S38.8,303.2,38.8,304.6z"/>
				</g>
			</g>
		</g>
		<g class="st3">
			<g>
				<polygon class="st12" points="30.7,126 10.3,138.2 10.3,112.8 30.7,100.7 				"/>
				<polygon class="st11" points="10.3,138.2 -29.5,125.5 -29.5,100.1 10.3,112.8 				"/>
				<polygon class="st13" points="10.3,112.8 -29.5,100.1 -9,88 30.7,100.7 				"/>
			</g>
			<g>
				<rect x="-20.5" y="96.7" class="st12" width="11.6" height="3.5"/>
				<g>
					<path class="st12" d="M-8.9,100.2c0,1.4-2.6,2.6-5.8,2.6s-5.8-1.2-5.8-2.6s2.6-2.6,5.8-2.6S-8.9,98.7-8.9,100.2z"/>
					<path class="st13" d="M-8.9,96.7c0,1.4-2.6,2.6-5.8,2.6s-5.8-1.2-5.8-2.6s2.6-2.6,5.8-2.6S-8.9,95.2-8.9,96.7z"/>
				</g>
			</g>
			<g>
				<rect x="-10.1" y="90.1" class="st12" width="11.6" height="3.5"/>
				<g>
					<path class="st12" d="M1.5,93.6c0,1.4-2.6,2.6-5.8,2.6s-5.8-1.2-5.8-2.6S-7.5,91-4.3,91S1.5,92.2,1.5,93.6z"/>
					<path class="st13" d="M1.5,90.1c0,1.4-2.6,2.6-5.8,2.6s-5.8-1.2-5.8-2.6s2.6-2.6,5.8-2.6S1.5,88.7,1.5,90.1z"/>
				</g>
			</g>
			<g>
				<rect x="0.7" y="103.6" class="st12" width="11.6" height="3.5"/>
				<g>
					<path class="st12" d="M12.3,107.1c0,1.4-2.6,2.6-5.8,2.6s-5.8-1.2-5.8-2.6s2.6-2.6,5.8-2.6S12.3,105.7,12.3,107.1z"/>
					<path class="st13" d="M12.3,103.6c0,1.4-2.6,2.6-5.8,2.6s-5.8-1.2-5.8-2.6s2.6-2.6,5.8-2.6S12.3,102.2,12.3,103.6z"/>
				</g>
			</g>
			<g>
				<rect x="10.8" y="97.5" class="st12" width="11.6" height="3.5"/>
				<g>
					<path class="st12" d="M22.4,101c0,1.4-2.6,2.6-5.8,2.6s-5.8-1.2-5.8-2.6s2.6-2.6,5.8-2.6S22.4,99.6,22.4,101z"/>
					<path class="st13" d="M22.4,97.5c0,1.4-2.6,2.6-5.8,2.6s-5.8-1.2-5.8-2.6s2.6-2.6,5.8-2.6S22.4,96.1,22.4,97.5z"/>
				</g>
			</g>
		</g>
		<g class="st3">
			<g>
				<polygon class="st7" points="55.9,108.6 35.5,120.8 35.5,95.4 55.9,83.3 				"/>
				<polygon class="st8" points="35.5,120.8 -4.3,108.1 -4.3,82.7 35.5,95.4 				"/>
				<polygon class="st9" points="35.5,95.4 -4.3,82.7 16.2,70.6 55.9,83.3 				"/>
			</g>
			<g>
				<rect x="4.7" y="79.3" class="st10" width="11.6" height="3.5"/>
				<g>
					<path class="st10" d="M16.3,82.7c0,1.4-2.6,2.6-5.8,2.6s-5.8-1.2-5.8-2.6s2.6-2.6,5.8-2.6S16.3,81.3,16.3,82.7z"/>
					<path class="st9" d="M16.3,79.3c0,1.4-2.6,2.6-5.8,2.6s-5.8-1.2-5.8-2.6s2.6-2.6,5.8-2.6S16.3,77.8,16.3,79.3z"/>
				</g>
			</g>
			<g>
				<rect x="15.1" y="72.7" class="st10" width="11.6" height="3.5"/>
				<g>
					<path class="st10" d="M26.7,76.2c0,1.4-2.6,2.6-5.8,2.6s-5.8-1.2-5.8-2.6s2.6-2.6,5.8-2.6S26.7,74.8,26.7,76.2z"/>
					<path class="st9" d="M26.7,72.7c0,1.4-2.6,2.6-5.8,2.6s-5.8-1.2-5.8-2.6s2.6-2.6,5.8-2.6S26.7,71.3,26.7,72.7z"/>
				</g>
			</g>
			<g>
				<rect x="25.9" y="86.2" class="st10" width="11.6" height="3.5"/>
				<g>
					<path class="st10" d="M37.5,89.7c0,1.4-2.6,2.6-5.8,2.6s-5.8-1.2-5.8-2.6s2.6-2.6,5.8-2.6S37.5,88.2,37.5,89.7z"/>
					<path class="st9" d="M37.5,86.2c0,1.4-2.6,2.6-5.8,2.6s-5.8-1.2-5.8-2.6s2.6-2.6,5.8-2.6S37.5,84.8,37.5,86.2z"/>
				</g>
			</g>
			<g>
				<rect x="35.9" y="80.1" class="st10" width="11.6" height="3.5"/>
				<g>
					<path class="st10" d="M47.5,83.6c0,1.4-2.6,2.6-5.8,2.6s-5.8-1.2-5.8-2.6s2.6-2.6,5.8-2.6C45,81,47.5,82.2,47.5,83.6z"/>
					<path class="st9" d="M47.5,80.1c0,1.4-2.6,2.6-5.8,2.6s-5.8-1.2-5.8-2.6s2.6-2.6,5.8-2.6C45,77.5,47.5,78.7,47.5,80.1z"/>
				</g>
			</g>
		</g>
	</g>
</g>
<g id="DESIGNED_BY_FREEPIK" class="st0">
	<g class="st3">
		<g>
			<g>
				<path class="st20" d="M46.8,483.9v-0.2c-0.2,0.3-0.4,0.5-0.6,0.6c-0.2,0.2-0.4,0.3-0.7,0.4s-0.5,0.1-0.8,0.1
					c-0.4,0-0.8-0.1-1.1-0.3c-0.3-0.2-0.6-0.4-0.9-0.7c-0.2-0.3-0.4-0.7-0.5-1.1s-0.2-0.9-0.2-1.3c0-1,0.3-1.8,0.7-2.4
					s1.2-0.9,2-0.9c0.5,0,0.9,0.1,1.2,0.2s0.6,0.4,0.9,0.7v-2.4c0-0.3,0.1-0.6,0.2-0.8s0.3-0.3,0.6-0.3s0.4,0.1,0.6,0.2
					c0.1,0.2,0.2,0.4,0.2,0.7v7.1c0,0.3-0.1,0.5-0.2,0.7s-0.3,0.2-0.5,0.2s-0.4-0.1-0.5-0.2C46.8,484.5,46.8,484.2,46.8,483.9z
					 M43.6,481.5c0,0.4,0.1,0.8,0.2,1.1c0.1,0.3,0.3,0.5,0.6,0.7s0.5,0.2,0.8,0.2s0.5-0.1,0.8-0.2c0.2-0.1,0.4-0.4,0.6-0.7
					c0.1-0.3,0.2-0.7,0.2-1.1s-0.1-0.8-0.2-1.1s-0.3-0.5-0.6-0.7c-0.2-0.2-0.5-0.3-0.8-0.3s-0.6,0.1-0.8,0.3
					c-0.2,0.2-0.4,0.4-0.5,0.7C43.6,480.8,43.6,481.1,43.6,481.5z"/>
				<path class="st20" d="M53.9,482h-3.2c0,0.4,0.1,0.7,0.2,1s0.3,0.5,0.6,0.6c0.2,0.1,0.5,0.2,0.8,0.2c0.2,0,0.4,0,0.5-0.1
					c0.2,0,0.3-0.1,0.5-0.2s0.3-0.2,0.4-0.3c0.1-0.1,0.3-0.3,0.5-0.5c0.1-0.1,0.2-0.1,0.4-0.1s0.3,0,0.4,0.1
					c0.1,0.1,0.2,0.2,0.2,0.4c0,0.1-0.1,0.3-0.2,0.5c-0.1,0.2-0.3,0.4-0.5,0.6s-0.5,0.3-0.9,0.5c-0.3,0.1-0.8,0.2-1.2,0.2
					c-1,0-1.8-0.3-2.4-0.9c-0.6-0.6-0.9-1.4-0.9-2.4c0-0.5,0.1-0.9,0.2-1.3c0.1-0.4,0.3-0.8,0.6-1c0.3-0.3,0.6-0.5,1-0.7
					s0.8-0.2,1.3-0.2c0.6,0,1.2,0.1,1.6,0.4s0.8,0.6,1,1s0.3,0.9,0.3,1.3s-0.1,0.7-0.3,0.8C54.7,481.9,54.3,482,53.9,482z M50.7,481
					h2.9c0-0.5-0.2-1-0.5-1.2c-0.3-0.3-0.6-0.4-1-0.4s-0.7,0.1-1,0.4C51,480.1,50.8,480.5,50.7,481z"/>
				<path class="st20" d="M61.3,482.7c0,0.5-0.1,0.8-0.3,1.1s-0.5,0.6-1,0.7c-0.4,0.2-0.9,0.3-1.5,0.3s-1.1-0.1-1.5-0.3
					s-0.7-0.4-0.9-0.7c-0.2-0.3-0.3-0.5-0.3-0.8c0-0.2,0.1-0.3,0.2-0.5c0.1-0.1,0.3-0.2,0.5-0.2s0.3,0,0.4,0.1s0.2,0.2,0.3,0.4
					c0.2,0.3,0.4,0.5,0.6,0.6c0.2,0.1,0.5,0.2,1,0.2c0.3,0,0.6-0.1,0.8-0.2s0.3-0.3,0.3-0.5c0-0.3-0.1-0.5-0.3-0.6s-0.6-0.3-1.1-0.4
					c-0.6-0.1-1-0.3-1.4-0.4c-0.3-0.1-0.6-0.4-0.8-0.6S56,480.3,56,480s0.1-0.6,0.3-0.9s0.5-0.5,0.9-0.7s0.8-0.3,1.4-0.3
					c0.4,0,0.8,0,1.1,0.1s0.6,0.2,0.8,0.4c0.2,0.1,0.4,0.3,0.5,0.5s0.2,0.4,0.2,0.5c0,0.2-0.1,0.3-0.2,0.5c-0.1,0.1-0.3,0.2-0.5,0.2
					s-0.3,0-0.4-0.1c-0.1-0.1-0.3-0.2-0.4-0.4c-0.1-0.2-0.3-0.3-0.4-0.4c-0.2-0.1-0.4-0.1-0.7-0.1s-0.5,0.1-0.7,0.2
					s-0.3,0.3-0.3,0.5s0.1,0.3,0.2,0.4c0.1,0.1,0.3,0.2,0.6,0.3c0.2,0.1,0.6,0.2,1,0.3c0.5,0.1,0.9,0.3,1.2,0.4s0.6,0.4,0.7,0.6
					C61.2,482.2,61.3,482.4,61.3,482.7z"/>
				<path class="st20" d="M63,477.5c-0.2,0-0.4-0.1-0.6-0.2c-0.2-0.1-0.2-0.3-0.2-0.6c0-0.2,0.1-0.4,0.3-0.6
					c0.2-0.1,0.4-0.2,0.6-0.2s0.4,0.1,0.6,0.2s0.2,0.3,0.2,0.6c0,0.3-0.1,0.4-0.2,0.6C63.4,477.4,63.2,477.5,63,477.5z M63.8,479.2
					v4.7c0,0.3-0.1,0.6-0.2,0.7c-0.2,0.2-0.3,0.3-0.6,0.3s-0.4-0.1-0.6-0.3c-0.2-0.2-0.2-0.4-0.2-0.7v-4.6c0-0.3,0.1-0.6,0.2-0.7
					s0.3-0.2,0.6-0.2s0.4,0.1,0.6,0.2C63.7,478.7,63.8,478.9,63.8,479.2z"/>
				<path class="st20" d="M70.8,479.5v4.7c0,0.5-0.1,1-0.2,1.4s-0.3,0.7-0.6,1s-0.6,0.4-1,0.6c-0.4,0.1-0.9,0.2-1.5,0.2
					s-1.1-0.1-1.5-0.2c-0.4-0.2-0.8-0.4-1-0.6s-0.4-0.5-0.4-0.8c0-0.2,0.1-0.4,0.2-0.5s0.3-0.2,0.5-0.2s0.4,0.1,0.6,0.3
					c0.1,0.1,0.2,0.2,0.3,0.3c0.1,0.1,0.2,0.2,0.3,0.3s0.3,0.1,0.4,0.2s0.3,0.1,0.6,0.1c0.4,0,0.8-0.1,1-0.2s0.4-0.3,0.5-0.5
					s0.2-0.4,0.2-0.7c0-0.2,0-0.6,0-1.2c-0.3,0.4-0.5,0.6-0.9,0.8c-0.3,0.2-0.7,0.3-1.2,0.3s-1-0.1-1.4-0.4s-0.7-0.7-0.9-1.2
					c-0.2-0.5-0.3-1.1-0.3-1.7c0-0.5,0.1-0.9,0.2-1.3s0.3-0.7,0.6-1s0.5-0.5,0.8-0.6s0.7-0.2,1.1-0.2c0.5,0,0.9,0.1,1.2,0.3
					c0.3,0.2,0.7,0.5,0.9,0.8v-0.2c0-0.3,0.1-0.5,0.2-0.6s0.3-0.2,0.5-0.2c0.3,0,0.5,0.1,0.6,0.3C70.8,478.8,70.8,479.1,70.8,479.5z
					 M66.2,481.5c0,0.7,0.1,1.1,0.4,1.5s0.7,0.5,1.1,0.5c0.3,0,0.5-0.1,0.8-0.2c0.2-0.1,0.4-0.4,0.6-0.6c0.2-0.3,0.2-0.6,0.2-1.1
					c0-0.7-0.2-1.2-0.4-1.5c-0.3-0.4-0.7-0.5-1.2-0.5s-0.8,0.2-1.1,0.5C66.3,480.4,66.2,480.9,66.2,481.5z"/>
				<path class="st20" d="M73.4,479.2v0.2c0.3-0.4,0.6-0.6,0.9-0.8c0.3-0.2,0.7-0.3,1.2-0.3c0.4,0,0.8,0.1,1.2,0.3
					c0.3,0.2,0.6,0.5,0.8,0.8c0.1,0.2,0.2,0.4,0.2,0.6s0.1,0.5,0.1,0.9v3c0,0.3-0.1,0.6-0.2,0.7c-0.2,0.2-0.3,0.3-0.6,0.3
					c-0.2,0-0.4-0.1-0.6-0.3c-0.2-0.2-0.2-0.4-0.2-0.7v-2.7c0-0.5-0.1-0.9-0.2-1.2c-0.2-0.3-0.4-0.4-0.9-0.4c-0.3,0-0.6,0.1-0.8,0.3
					s-0.4,0.4-0.5,0.7c-0.1,0.2-0.1,0.7-0.1,1.4v2c0,0.3-0.1,0.6-0.2,0.7s-0.3,0.3-0.6,0.3c-0.2,0-0.4-0.1-0.6-0.3
					c-0.2-0.2-0.2-0.4-0.2-0.7v-4.7c0-0.3,0.1-0.5,0.2-0.7s0.3-0.2,0.6-0.2c0.1,0,0.3,0,0.4,0.1s0.2,0.2,0.3,0.3
					C73.4,478.8,73.4,479,73.4,479.2z"/>
				<path class="st20" d="M83.3,482h-3.2c0,0.4,0.1,0.7,0.2,1s0.3,0.5,0.6,0.6c0.2,0.1,0.5,0.2,0.8,0.2c0.2,0,0.4,0,0.5-0.1
					c0.2,0,0.3-0.1,0.5-0.2s0.3-0.2,0.4-0.3s0.3-0.3,0.5-0.5c0.1-0.1,0.2-0.1,0.4-0.1c0.2,0,0.3,0,0.4,0.1s0.2,0.2,0.2,0.4
					c0,0.1-0.1,0.3-0.2,0.5s-0.3,0.4-0.5,0.6s-0.5,0.3-0.9,0.5c-0.3,0.1-0.8,0.2-1.2,0.2c-1,0-1.8-0.3-2.4-0.9s-0.9-1.4-0.9-2.4
					c0-0.5,0.1-0.9,0.2-1.3s0.3-0.8,0.6-1c0.3-0.3,0.6-0.5,1-0.7s0.8-0.2,1.3-0.2c0.6,0,1.2,0.1,1.6,0.4s0.8,0.6,1,1
					s0.3,0.9,0.3,1.3s-0.1,0.7-0.3,0.8C84,481.9,83.7,482,83.3,482z M80.1,481H83c0-0.5-0.2-1-0.4-1.2c-0.3-0.3-0.6-0.4-1-0.4
					s-0.7,0.1-1,0.4C80.3,480.1,80.2,480.5,80.1,481z"/>
				<path class="st20" d="M89.9,483.9v-0.2c-0.2,0.3-0.4,0.5-0.6,0.6c-0.2,0.2-0.4,0.3-0.7,0.4s-0.5,0.1-0.8,0.1
					c-0.4,0-0.8-0.1-1.1-0.3c-0.3-0.2-0.6-0.4-0.9-0.7c-0.2-0.3-0.4-0.7-0.6-1.1c-0.1-0.4-0.2-0.9-0.2-1.3c0-1,0.3-1.8,0.7-2.4
					s1.2-0.9,1.9-0.9c0.5,0,0.9,0.1,1.2,0.2s0.6,0.4,0.9,0.7v-2.4c0-0.3,0.1-0.6,0.2-0.8s0.3-0.3,0.6-0.3s0.4,0.1,0.6,0.2
					c0.1,0.2,0.2,0.4,0.2,0.7v7.1c0,0.3-0.1,0.5-0.2,0.7s-0.3,0.2-0.6,0.2s-0.4-0.1-0.6-0.2C90,484.5,89.9,484.2,89.9,483.9z
					 M86.7,481.5c0,0.4,0.1,0.8,0.2,1.1c0.1,0.3,0.3,0.5,0.6,0.7s0.5,0.2,0.8,0.2s0.6-0.1,0.8-0.2c0.2-0.1,0.4-0.4,0.6-0.7
					c0.1-0.3,0.2-0.7,0.2-1.1s-0.1-0.8-0.2-1.1s-0.3-0.5-0.6-0.7s-0.5-0.3-0.8-0.3s-0.6,0.1-0.8,0.3c-0.2,0.2-0.4,0.4-0.5,0.7
					C86.8,480.8,86.7,481.1,86.7,481.5z"/>
				<path class="st20" d="M96.5,476.8v2.5c0.3-0.3,0.6-0.6,0.9-0.7c0.3-0.2,0.7-0.3,1.2-0.3s1,0.1,1.4,0.4s0.7,0.6,0.9,1.1
					c0.2,0.5,0.3,1.1,0.3,1.7c0,0.5-0.1,0.9-0.2,1.4c-0.1,0.4-0.3,0.8-0.5,1.1c-0.2,0.3-0.5,0.5-0.9,0.7c-0.3,0.2-0.7,0.3-1.1,0.3
					c-0.3,0-0.5,0-0.7-0.1s-0.4-0.1-0.6-0.2s-0.3-0.2-0.4-0.3c-0.1-0.1-0.3-0.3-0.4-0.5v0.2c0,0.3-0.1,0.5-0.2,0.7
					c-0.2,0.2-0.3,0.2-0.6,0.2c-0.2,0-0.4-0.1-0.6-0.2c-0.1-0.2-0.2-0.4-0.2-0.7V477c0-0.3,0.1-0.6,0.2-0.7c0.1-0.2,0.3-0.3,0.6-0.3
					c0.3,0,0.4,0.1,0.6,0.2C96.4,476.3,96.5,476.5,96.5,476.8z M96.6,481.6c0,0.6,0.2,1.1,0.4,1.5c0.3,0.4,0.7,0.5,1.2,0.5
					c0.4,0,0.8-0.2,1.1-0.5s0.4-0.9,0.4-1.5c0-0.4-0.1-0.8-0.2-1.1c-0.1-0.3-0.3-0.5-0.5-0.7s-0.5-0.3-0.8-0.3s-0.6,0.1-0.8,0.3
					c-0.2,0.2-0.4,0.4-0.6,0.7C96.7,480.8,96.6,481.2,96.6,481.6z"/>
				<path class="st20" d="M103.4,485.1l0.2-0.4l-2-5c-0.1-0.3-0.2-0.5-0.2-0.6s0-0.3,0.1-0.4s0.2-0.2,0.3-0.3
					c0.1-0.1,0.3-0.1,0.4-0.1c0.2,0,0.4,0.1,0.5,0.2s0.2,0.4,0.3,0.6l1.4,4l1.3-3.7c0.1-0.3,0.2-0.5,0.3-0.7
					c0.1-0.2,0.2-0.3,0.3-0.3c0.1-0.1,0.2-0.1,0.4-0.1c0.1,0,0.2,0,0.3,0.1s0.2,0.1,0.3,0.3c0.1,0.1,0.1,0.2,0.1,0.4
					c0,0.1,0,0.2-0.1,0.3s-0.1,0.3-0.1,0.4l-2.1,5.5c-0.2,0.5-0.4,0.9-0.5,1.1s-0.4,0.5-0.7,0.6c-0.3,0.1-0.7,0.2-1.2,0.2
					s-0.8,0-1.1-0.1s-0.4-0.3-0.4-0.6c0-0.2,0.1-0.3,0.2-0.4s0.3-0.1,0.5-0.1c0.1,0,0.2,0,0.3,0c0.1,0,0.2,0,0.3,0
					c0.2,0,0.3,0,0.4-0.1s0.2-0.1,0.3-0.3C103.2,485.5,103.3,485.3,103.4,485.1z"/>
			</g>
			<g>
				<path class="st20" d="M126.9,478.4h0.4v-0.5c0-0.5,0.1-0.9,0.2-1.2c0.1-0.3,0.3-0.5,0.7-0.6c0.3-0.1,0.7-0.2,1.3-0.2
					c0.9,0,1.4,0.2,1.4,0.7c0,0.1-0.1,0.3-0.1,0.4c-0.1,0.1-0.2,0.2-0.4,0.2c-0.1,0-0.2,0-0.3,0s-0.3,0-0.4,0
					c-0.3,0-0.5,0.1-0.6,0.3c-0.1,0.2-0.1,0.4-0.1,0.7v0.4h0.4c0.6,0,0.9,0.2,0.9,0.6c0,0.3-0.1,0.4-0.3,0.5s-0.4,0.1-0.7,0.1h-0.4
					v4.3c0,0.3-0.1,0.6-0.2,0.7s-0.4,0.3-0.6,0.3c-0.2,0-0.4-0.1-0.6-0.3s-0.2-0.4-0.2-0.7v-4.3h-0.4c-0.2,0-0.4,0-0.6-0.2
					c-0.1-0.1-0.2-0.3-0.2-0.4C126.1,478.6,126.3,478.4,126.9,478.4"/>
				<path class="st20" d="M132.2,482.5v1.4c0,0.3-0.1,0.6-0.2,0.7c-0.1,0.2-0.4,0.3-0.6,0.3c-0.2,0-0.4-0.1-0.6-0.3
					c-0.1-0.2-0.2-0.4-0.2-0.7v-4.5c0-0.7,0.3-1.1,0.8-1.1c0.3,0,0.5,0.1,0.6,0.3c0.1,0.2,0.2,0.4,0.2,0.8c0.2-0.3,0.4-0.6,0.6-0.8
					c0.2-0.2,0.5-0.3,0.8-0.3s0.7,0.1,1,0.3c0.3,0.2,0.5,0.4,0.5,0.7c0,0.2-0.1,0.4-0.2,0.5c-0.1,0.1-0.3,0.2-0.4,0.2
					c-0.1,0-0.2,0-0.4-0.1s-0.4-0.1-0.6-0.1c-0.2,0-0.4,0.1-0.6,0.2c-0.1,0.1-0.3,0.3-0.4,0.5c-0.1,0.3-0.1,0.5-0.2,0.9
					C132.2,481.6,132.2,482,132.2,482.5"/>
				<path class="st20" d="M139.6,482h-3.2c0,0.4,0.1,0.7,0.2,1c0.1,0.3,0.3,0.5,0.6,0.6c0.2,0.1,0.5,0.2,0.8,0.2
					c0.2,0,0.4,0,0.5-0.1c0.2,0,0.3-0.1,0.5-0.2c0.1-0.1,0.3-0.2,0.4-0.3s0.3-0.3,0.5-0.5c0.1-0.1,0.2-0.1,0.4-0.1s0.3,0,0.4,0.1
					c0.1,0.1,0.1,0.2,0.1,0.4c0,0.1-0.1,0.3-0.2,0.5c-0.1,0.2-0.3,0.4-0.5,0.6s-0.5,0.3-0.9,0.5c-0.4,0.1-0.8,0.2-1.2,0.2
					c-1,0-1.9-0.3-2.4-0.9c-0.6-0.6-0.9-1.4-0.9-2.4c0-0.5,0.1-0.9,0.2-1.3c0.1-0.4,0.4-0.8,0.6-1c0.3-0.3,0.6-0.5,1-0.7
					s0.8-0.2,1.3-0.2c0.6,0,1.2,0.1,1.6,0.4c0.4,0.3,0.8,0.6,1,1s0.3,0.9,0.3,1.3s-0.1,0.7-0.4,0.8C140.4,481.9,140.1,482,139.6,482
					 M136.5,481h2.9c0-0.5-0.2-1-0.4-1.2c-0.3-0.3-0.6-0.4-1-0.4s-0.7,0.1-1,0.4C136.7,480.1,136.5,480.5,136.5,481"/>
				<path class="st20" d="M146.4,482h-3.2c0,0.4,0.1,0.7,0.2,1s0.3,0.5,0.6,0.6c0.2,0.1,0.5,0.2,0.8,0.2c0.2,0,0.4,0,0.5-0.1
					c0.2,0,0.3-0.1,0.5-0.2c0.1-0.1,0.3-0.2,0.4-0.3c0.1-0.1,0.3-0.3,0.5-0.5c0.1-0.1,0.2-0.1,0.4-0.1s0.3,0,0.4,0.1
					c0.1,0.1,0.1,0.2,0.1,0.4c0,0.1-0.1,0.3-0.2,0.5c-0.1,0.2-0.3,0.4-0.5,0.6s-0.5,0.3-0.9,0.5c-0.4,0.1-0.8,0.2-1.2,0.2
					c-1,0-1.9-0.3-2.4-0.9c-0.6-0.6-0.9-1.4-0.9-2.4c0-0.5,0.1-0.9,0.2-1.3c0.1-0.4,0.4-0.8,0.6-1c0.3-0.3,0.6-0.5,1-0.7
					s0.8-0.2,1.3-0.2c0.6,0,1.2,0.1,1.6,0.4c0.4,0.3,0.8,0.6,1,1s0.3,0.9,0.3,1.3s-0.1,0.7-0.4,0.8C147.1,481.9,146.8,482,146.4,482
					 M143.2,481h2.9c0-0.5-0.2-1-0.4-1.2c-0.3-0.3-0.6-0.4-1-0.4s-0.7,0.1-1,0.4C143.4,480.1,143.3,480.5,143.2,481"/>
				<path class="st20" d="M149.9,479.2v0.2c0.3-0.4,0.6-0.6,0.9-0.8c0.3-0.2,0.7-0.3,1.1-0.3c0.5,0,1,0.1,1.4,0.4s0.8,0.6,1,1.1
					s0.4,1.1,0.4,1.8c0,0.5-0.1,1-0.2,1.4s-0.3,0.8-0.6,1c-0.3,0.3-0.5,0.5-0.9,0.6s-0.7,0.2-1.1,0.2c-0.5,0-0.9-0.1-1.2-0.3
					c-0.3-0.2-0.6-0.5-0.9-0.8v2.4c0,0.7-0.3,1.1-0.8,1.1c-0.3,0-0.5-0.1-0.6-0.3c-0.1-0.2-0.1-0.5-0.1-0.8v-7
					c0-0.3,0.1-0.5,0.2-0.7c0.1-0.1,0.3-0.2,0.6-0.2s0.4,0.1,0.6,0.2C149.9,478.6,149.9,478.9,149.9,479.2 M153.1,481.5
					c0-0.4-0.1-0.8-0.2-1.1c-0.1-0.3-0.3-0.5-0.5-0.7s-0.5-0.3-0.8-0.3c-0.4,0-0.8,0.2-1.1,0.5s-0.5,0.9-0.5,1.6
					c0,0.6,0.1,1.1,0.5,1.5c0.3,0.4,0.7,0.5,1.1,0.5c0.3,0,0.5-0.1,0.8-0.2c0.2-0.2,0.4-0.4,0.6-0.7
					C153.1,482.4,153.1,482,153.1,481.5"/>
				<path class="st20" d="M156.4,477.5c-0.2,0-0.4-0.1-0.6-0.2c-0.2-0.1-0.2-0.3-0.2-0.6c0-0.2,0.1-0.4,0.3-0.6
					c0.2-0.1,0.4-0.2,0.6-0.2c0.2,0,0.4,0.1,0.6,0.2c0.2,0.1,0.2,0.3,0.2,0.6c0,0.3-0.1,0.4-0.2,0.6
					C156.8,477.4,156.6,477.5,156.4,477.5 M157.2,479.2v4.7c0,0.3-0.1,0.6-0.2,0.7c-0.2,0.2-0.4,0.3-0.6,0.3c-0.2,0-0.4-0.1-0.6-0.3
					c-0.1-0.2-0.2-0.4-0.2-0.7v-4.6c0-0.3,0.1-0.6,0.2-0.7c0.1-0.2,0.3-0.2,0.6-0.2s0.4,0.1,0.6,0.2
					C157.1,478.7,157.2,478.9,157.2,479.2"/>
				<path class="st20" d="M162.4,484.1l-1.4-2.4l-0.9,0.8v1.3c0,0.3-0.1,0.5-0.3,0.7s-0.4,0.3-0.6,0.3c-0.3,0-0.4-0.1-0.6-0.3
					c-0.1-0.2-0.2-0.4-0.2-0.7V477c0-0.4,0.1-0.6,0.2-0.8s0.3-0.3,0.6-0.3s0.4,0.1,0.6,0.3c0.1,0.2,0.2,0.4,0.2,0.8v3.9l1.8-1.9
					c0.2-0.2,0.4-0.4,0.5-0.5s0.3-0.1,0.4-0.1c0.2,0,0.4,0.1,0.5,0.2s0.2,0.3,0.2,0.5s-0.2,0.6-0.7,1l-0.9,0.8l1.7,2.6
					c0.1,0.2,0.2,0.3,0.3,0.4s0.1,0.2,0.1,0.3c0,0.3-0.1,0.5-0.2,0.6s-0.3,0.2-0.6,0.2c-0.2,0-0.4,0-0.5-0.2
					C162.7,484.6,162.6,484.4,162.4,484.1"/>
				<path class="st20" d="M165.9,484.9c-0.2,0-0.4-0.1-0.6-0.2c-0.2-0.2-0.3-0.4-0.3-0.7c0-0.2,0.1-0.5,0.3-0.6
					c0.2-0.2,0.4-0.3,0.6-0.3s0.5,0.1,0.6,0.3c0.2,0.2,0.3,0.4,0.3,0.6c0,0.3-0.1,0.5-0.3,0.7C166.4,484.8,166.2,484.9,165.9,484.9"
					/>
				<path class="st20" d="M174,482.9c0,0.2-0.1,0.4-0.2,0.6c-0.1,0.2-0.3,0.5-0.6,0.7s-0.6,0.4-0.9,0.5c-0.4,0.1-0.8,0.2-1.3,0.2
					c-1,0-1.8-0.3-2.4-0.9c-0.6-0.6-0.8-1.4-0.8-2.4c0-0.7,0.1-1.3,0.4-1.8c0.3-0.5,0.6-0.9,1.1-1.2c0.5-0.3,1.1-0.4,1.8-0.4
					c0.4,0,0.8,0.1,1.2,0.2s0.6,0.3,0.9,0.5c0.2,0.2,0.4,0.4,0.6,0.6s0.2,0.4,0.2,0.6s-0.1,0.4-0.2,0.5c-0.1,0.1-0.3,0.2-0.5,0.2
					c-0.1,0-0.3,0-0.3-0.1c-0.1-0.1-0.2-0.2-0.3-0.3c-0.2-0.3-0.4-0.5-0.6-0.7c-0.2-0.1-0.5-0.2-0.8-0.2c-0.5,0-0.9,0.2-1.2,0.6
					s-0.4,0.9-0.4,1.5c0,0.3,0,0.6,0.1,0.8s0.2,0.5,0.3,0.6c0.1,0.2,0.3,0.3,0.5,0.4s0.4,0.1,0.7,0.1s0.6-0.1,0.8-0.2
					s0.4-0.4,0.6-0.7c0.1-0.2,0.2-0.3,0.3-0.4s0.3-0.2,0.4-0.2c0.2,0,0.4,0.1,0.5,0.2C173.9,482.5,174,482.7,174,482.9"/>
				<path class="st20" d="M181,481.6c0,0.5-0.1,0.9-0.2,1.3c-0.1,0.4-0.4,0.8-0.7,1c-0.3,0.3-0.6,0.5-1,0.7
					c-0.4,0.1-0.8,0.2-1.3,0.2s-0.9-0.1-1.3-0.2c-0.4-0.2-0.7-0.4-1-0.7c-0.3-0.3-0.5-0.6-0.7-1c-0.1-0.4-0.2-0.9-0.2-1.3
					c0-0.5,0.1-0.9,0.2-1.4c0.1-0.4,0.4-0.8,0.6-1c0.3-0.3,0.6-0.5,1-0.7s0.8-0.2,1.3-0.2s0.9,0.1,1.3,0.2s0.7,0.4,1,0.7
					c0.3,0.3,0.5,0.6,0.6,1C180.9,480.6,181,481.1,181,481.6 M179.4,481.6c0-0.7-0.1-1.2-0.4-1.5c-0.3-0.4-0.7-0.5-1.2-0.5
					c-0.3,0-0.6,0.1-0.8,0.3c-0.2,0.2-0.4,0.4-0.6,0.7s-0.2,0.7-0.2,1.1s0.1,0.8,0.2,1.1c0.1,0.3,0.3,0.6,0.6,0.7s0.5,0.3,0.9,0.3
					c0.5,0,0.9-0.2,1.2-0.6C179.2,482.7,179.4,482.2,179.4,481.6"/>
				<path class="st20" d="M187.2,481.7v2.1c0,0.3-0.1,0.6-0.2,0.8c-0.2,0.2-0.4,0.3-0.6,0.3s-0.4-0.1-0.6-0.3
					c-0.1-0.2-0.2-0.4-0.2-0.8v-2.6c0-0.4,0-0.7,0-1s-0.1-0.4-0.2-0.5c-0.1-0.1-0.3-0.2-0.6-0.2c-0.5,0-0.9,0.2-1.1,0.5
					c-0.2,0.4-0.3,0.9-0.3,1.6v2.2c0,0.3-0.1,0.6-0.2,0.8c-0.2,0.2-0.4,0.3-0.6,0.3s-0.4-0.1-0.6-0.3c-0.2-0.2-0.2-0.4-0.2-0.8v-4.6
					c0-0.3,0.1-0.5,0.2-0.7c0.1-0.2,0.3-0.2,0.6-0.2c0.2,0,0.4,0.1,0.6,0.2c0.1,0.1,0.2,0.4,0.2,0.6v0.1c0.3-0.3,0.6-0.6,0.9-0.7
					c0.3-0.2,0.7-0.2,1.1-0.2c0.4,0,0.8,0.1,1.1,0.2c0.3,0.2,0.5,0.4,0.7,0.7c0.3-0.3,0.6-0.6,0.9-0.7s0.7-0.2,1-0.2
					c0.4,0,0.8,0.1,1.1,0.3c0.3,0.2,0.6,0.4,0.7,0.8c0.1,0.3,0.2,0.8,0.2,1.4v3.2c0,0.3-0.1,0.6-0.2,0.8c-0.1,0.2-0.4,0.3-0.6,0.3
					s-0.4-0.1-0.6-0.3c-0.2-0.2-0.2-0.4-0.2-0.8v-2.7c0-0.4,0-0.6,0-0.8s-0.1-0.4-0.2-0.5c-0.1-0.1-0.3-0.2-0.6-0.2
					c-0.2,0-0.4,0.1-0.6,0.2s-0.3,0.3-0.4,0.5C187.2,480.5,187.2,481,187.2,481.7"/>
			</g>
			<g>
				<path class="st20" d="M111.7,481.2L111.7,481.2L111.7,481.2z"/>
				<path class="st20" d="M111.8,481.7L111.8,481.7c0-0.1-0.1-0.3-0.1-0.4C111.8,481.4,111.8,481.5,111.8,481.7z"/>
				<path class="st20" d="M112.3,483.2L112.3,483.2L112.3,483.2z"/>
				<path class="st20" d="M112.3,483.1C112.3,483.1,112.3,483,112.3,483.1C112.3,483,112.3,483.1,112.3,483.1z"/>
				<path class="st20" d="M112,482.3c0.1,0.3,0.2,0.5,0.3,0.7C112.1,482.8,112,482.5,112,482.3L112,482.3z"/>
				<path class="st20" d="M118,475c0.3,0,0.5,0,0.8,0.1l0.1-0.5c0,0-0.7-0.2-1.7-0.1l-0.1-0.3c0.3-0.1,0.5-0.3,0.5-0.6
					c0-0.4-0.3-0.7-0.7-0.7s-0.7,0.3-0.7,0.7c0,0.3,0.2,0.6,0.5,0.6l0.1,0.3c-1,0.1-1.8,0.5-1.8,0.5l0.1,0.4
					c0.6-0.2,1.2-0.3,1.6-0.4C117.3,475,117.7,475,118,475z"/>
				<path class="st20" d="M112.3,477.4L112.3,477.4C112.4,477.3,112.4,477.3,112.3,477.4l-0.1-0.2l-0.3-0.2c0,0-0.5,0.5-0.9,1.3
					c0,0,0,0-0.1-0.1s-0.3-0.2-0.5-0.2l0,0c-0.1,0-0.2,0-0.3-0.1c0.1-0.1,0.1-0.2,0.1-0.3c0-0.2-0.2-0.4-0.4-0.4
					c-0.2,0-0.4,0.2-0.4,0.4s0.2,0.4,0.4,0.4h0.1c0.1,0.1,0.3,0.2,0.5,0.2c0.1,0,0.2,0,0.3,0.1c0.1,0.1,0.1,0.2,0.1,0.3l0,0
					c-0.3,0.7-0.2,1.7-0.2,1.7h0.7c0-0.3,0.1-0.9,0.2-1.4C111.9,478,112.3,477.4,112.3,477.4z"/>
				<path class="st20" d="M123.8,475.5c-0.2,0-0.4,0.2-0.4,0.4v0.1c-0.1,0.1-0.2,0.3-0.2,0.5c0,0.1,0,0.2-0.1,0.3
					c-0.1,0-0.1,0.1-0.2,0.1c-0.5-0.7-1.1-1.1-1.1-1.1l-0.5,0.5c0.4,0.3,0.7,0.7,1.1,1.2c0.3,0.4,0.5,0.8,0.7,1.3l0.6-0.3
					c0,0-0.3-0.7-0.7-1.4c0.1,0,0.1-0.1,0.2-0.1c0.1-0.1,0.2-0.3,0.2-0.5c0-0.1,0-0.2,0.1-0.3c0.1,0,0.2,0.1,0.3,0.1
					c0.2,0,0.4-0.2,0.4-0.4C124.2,475.7,124,475.5,123.8,475.5z"/>
				<path class="st20" d="M122.1,481.3c-0.9,0.4-2.3,1-4.2,1.3c-0.8,0.1-1.5,0.1-2.1,0.1c-0.9,0-1.6-0.1-2.2-0.1
					c-0.7-0.1-1.2-0.2-1.5-0.3c0.1,0.2,0.2,0.5,0.3,0.7l0,0v0.1c0,0,0,0,0,0.1l0,0c0.2,0.4,0.4,0.7,0.7,1c0.9,1,1.8,1.1,1.8,1.1l0,0
					l0,0c0,0,0.8,0.3,2.1,0.3c1.2,0,2.4-0.3,3.6-0.7c0.8-0.4,1.6-1.1,2-1.7c0.3-0.5,0.5-0.9,0.7-1.4c0.1-0.3,0.1-0.7,0.1-1.1
					C123,480.8,122.6,481,122.1,481.3z"/>
				<path class="st20" d="M112.6,477.6c0,0-0.4,0.6-0.7,1.4c-0.2,0.6-0.2,1.5-0.2,1.5l0,0c0,0.2,0,0.4,0,0.6l0,0c0,0,0,0,0,0.1
					s0,0.3,0.1,0.4c0.4,0.1,3.1,0.7,6,0.3c1.8-0.3,3.2-0.8,4.1-1.2c0.7-0.3,1.2-0.6,1.3-0.8c-0.2-0.6-0.7-1.6-1.1-2.3
					c-1.3-1.8-2.6-2.3-3.3-2.4c-0.3,0-0.5-0.1-0.8-0.1s-0.6,0-1.1,0.1c-0.5,0-1,0.2-1.6,0.4c-0.8,0.3-1.6,0.7-2.2,1.3l0,0
					C113,477.1,112.8,477.3,112.6,477.6z M120.3,477.2c0.6,0,1.1,0.5,1.1,1.1s-0.5,1.1-1.1,1.1s-1.1-0.5-1.1-1.1
					S119.7,477.2,120.3,477.2z M115.1,477.1c1,0,1.8,0.8,1.8,1.8s-0.8,1.8-1.8,1.8s-1.8-0.8-1.8-1.8
					C113.4,477.9,114.2,477.1,115.1,477.1z"/>
			</g>
		</g>
	</g>
</g>
<g class="st0">
</g>
<g>
	
		<image style="overflow:visible;opacity:0.25;" width="228" height="502" xlink:href="FF5A61C0.png"  transform="matrix(1 0 0 1 -5.5039 4.4961)">
	</image>
	<g>
		<g>
			<g>
				<g>
					<g>
						<polygon class="st12" points="114.3,448.8 150.1,470 150.1,425.6 114.3,404.5 						"/>
						<polygon class="st12" points="150.1,470 219.5,447.8 219.5,403.5 150.1,425.6 						"/>
						<polygon class="st13" points="150.1,425.6 219.5,403.5 183.8,382.3 114.3,404.5 						"/>
					</g>
					<g>
						<rect x="183.6" y="397.4" class="st12" width="20.3" height="6.1"/>
						<g>
							<path class="st12" d="M183.6,403.5c0,2.5,4.5,4.6,10.1,4.6s10.1-2,10.1-4.6s-4.5-4.6-10.1-4.6S183.6,401,183.6,403.5z"/>
							<path class="st13" d="M183.6,397.4c0,2.5,4.5,4.6,10.1,4.6s10.1-2,10.1-4.6s-4.5-4.6-10.1-4.6S183.6,394.9,183.6,397.4z"/>
						</g>
					</g>
					<g>
						<rect x="165.4" y="386" class="st12" width="20.3" height="6.1"/>
						<g>
							<path class="st12" d="M165.4,392.1c0,2.5,4.5,4.6,10.1,4.6s10.1-2,10.1-4.6s-4.5-4.6-10.1-4.6S165.4,389.6,165.4,392.1z"/>
							<path class="st13" d="M165.4,386c0,2.5,4.5,4.6,10.1,4.6s10.1-2,10.1-4.6s-4.5-4.6-10.1-4.6S165.4,383.5,165.4,386z"/>
						</g>
					</g>
					<g>
						<rect x="146.5" y="409.5" class="st12" width="20.3" height="6.1"/>
						<g>
							<path class="st12" d="M146.5,415.6c0,2.5,4.5,4.6,10.1,4.6s10.1-2,10.1-4.6s-4.5-4.6-10.1-4.6
								C151.1,411.1,146.5,413.1,146.5,415.6z"/>
							<path class="st13" d="M146.5,409.5c0,2.5,4.5,4.6,10.1,4.6s10.1-2,10.1-4.6s-4.5-4.6-10.1-4.6
								C151.1,405,146.5,407,146.5,409.5z"/>
						</g>
					</g>
					<g>
						<rect x="128.9" y="398.9" class="st12" width="20.3" height="6.1"/>
						<g>
							<path class="st12" d="M128.9,405c0,2.5,4.5,4.6,10.1,4.6s10.1-2,10.1-4.6s-4.5-4.6-10.1-4.6
								C133.5,400.5,128.9,402.5,128.9,405z"/>
							<path class="st13" d="M128.9,398.9c0,2.5,4.5,4.6,10.1,4.6s10.1-2,10.1-4.6s-4.5-4.6-10.1-4.6S128.9,396.4,128.9,398.9z"/>
						</g>
					</g>
				</g>
				<g>
					<g>
						<polygon class="st5" points="44.9,471 80.7,492.2 80.7,447.9 44.9,426.7 						"/>
						<polygon class="st4" points="80.7,492.2 150.1,470 150.1,425.7 80.7,447.9 						"/>
						<polygon class="st6" points="80.7,447.9 150.1,425.7 114.4,404.6 44.9,426.7 						"/>
					</g>
					<g>
						<rect x="114.2" y="419.6" class="st4" width="20.3" height="6.1"/>
						<g>
							<path class="st4" d="M114.2,425.7c0,2.5,4.5,4.6,10.2,4.6c5.6,0,10.1-2,10.1-4.6s-4.5-4.6-10.2-4.6
								C118.8,421.2,114.2,423.2,114.2,425.7z"/>
							<path class="st6" d="M114.2,419.6c0,2.5,4.5,4.6,10.2,4.6c5.6,0,10.1-2,10.1-4.6s-4.5-4.6-10.2-4.6
								C118.8,415.1,114.2,417.1,114.2,419.6z"/>
						</g>
					</g>
					<g>
						<rect x="96" y="408.2" class="st4" width="20.3" height="6.1"/>
						<g>
							<path class="st4" d="M96,414.3c0,2.5,4.5,4.6,10.2,4.6c5.6,0,10.2-2,10.2-4.6s-4.5-4.6-10.2-4.6
								C100.5,409.8,96,411.8,96,414.3z"/>
							<path class="st6" d="M96,408.2c0,2.5,4.5,4.6,10.2,4.6c5.6,0,10.2-2,10.2-4.6s-4.5-4.6-10.2-4.6
								C100.5,403.7,96,405.7,96,408.2z"/>
						</g>
					</g>
					<g>
						<rect x="77.1" y="431.8" class="st4" width="20.3" height="6.1"/>
						<g>
							<path class="st4" d="M77.1,437.9c0,2.5,4.5,4.6,10.2,4.6c5.6,0,10.2-2,10.2-4.6s-4.5-4.6-10.2-4.6S77.1,435.4,77.1,437.9z"/>
							<path class="st6" d="M77.1,431.8c0,2.5,4.5,4.6,10.2,4.6c5.6,0,10.2-2,10.2-4.6s-4.5-4.6-10.2-4.6S77.1,429.3,77.1,431.8z"/>
						</g>
					</g>
					<g>
						<rect x="59.5" y="421.1" class="st4" width="20.3" height="6.1"/>
						<g>
							<path class="st4" d="M59.5,427.2c0,2.5,4.5,4.6,10.2,4.6c5.6,0,10.2-2,10.2-4.6s-4.5-4.6-10.2-4.6
								C64.1,422.7,59.5,424.7,59.5,427.2z"/>
							<path class="st6" d="M59.5,421.1c0,2.5,4.5,4.6,10.2,4.6c5.6,0,10.2-2,10.2-4.6s-4.5-4.6-10.2-4.6
								C64.1,416.6,59.5,418.6,59.5,421.1z"/>
						</g>
					</g>
				</g>
				<g>
					<g>
						<polygon class="st5" points="45,426.5 80.7,447.7 80.7,403.4 45,382.3 						"/>
						<polygon class="st4" points="80.7,447.7 150.2,425.6 150.2,381.3 80.7,403.4 						"/>
						<polygon class="st6" points="80.7,403.4 150.2,381.3 114.5,360.1 45,382.3 						"/>
					</g>
					<g>
						<rect x="114.3" y="375.2" class="st4" width="20.3" height="6.1"/>
						<g>
							<path class="st4" d="M114.3,381.3c0,2.5,4.5,4.6,10.2,4.6c5.6,0,10.2-2,10.2-4.6s-4.5-4.6-10.2-4.6S114.3,378.8,114.3,381.3z
								"/>
							<path class="st6" d="M114.3,375.2c0,2.5,4.5,4.6,10.2,4.6c5.6,0,10.2-2,10.2-4.6s-4.5-4.6-10.2-4.6S114.3,372.7,114.3,375.2z
								"/>
						</g>
					</g>
					<g>
						<rect x="96.1" y="363.8" class="st4" width="20.3" height="6.1"/>
						<g>
							<path class="st4" d="M96.1,369.9c0,2.5,4.5,4.6,10.2,4.6c5.6,0,10.2-2,10.2-4.6s-4.5-4.6-10.2-4.6S96.1,367.4,96.1,369.9z"/>
							<path class="st6" d="M96.1,363.8c0,2.5,4.5,4.6,10.2,4.6c5.6,0,10.2-2,10.2-4.6s-4.5-4.6-10.2-4.6
								C100.6,359.2,96.1,361.2,96.1,363.8z"/>
						</g>
					</g>
					<g>
						<rect x="77.2" y="387.3" class="st4" width="20.3" height="6.1"/>
						<g>
							<path class="st4" d="M77.2,393.4c0,2.5,4.5,4.6,10.2,4.6c5.6,0,10.2-2,10.2-4.6s-4.5-4.6-10.2-4.6
								C81.8,388.9,77.2,390.9,77.2,393.4z"/>
							<path class="st6" d="M77.2,387.3c0,2.5,4.5,4.6,10.2,4.6c5.6,0,10.2-2,10.2-4.6s-4.5-4.6-10.2-4.6
								C81.8,382.8,77.2,384.8,77.2,387.3z"/>
						</g>
					</g>
					<g>
						<rect x="59.6" y="376.7" class="st4" width="20.3" height="6.1"/>
						<g>
							<path class="st4" d="M59.6,382.8c0,2.5,4.5,4.6,10.1,4.6s10.2-2,10.2-4.6s-4.5-4.6-10.2-4.6S59.6,380.3,59.6,382.8z"/>
							<path class="st6" d="M59.6,376.7c0,2.5,4.5,4.6,10.1,4.6s10.2-2,10.2-4.6s-4.5-4.6-10.2-4.6S59.6,374.2,59.6,376.7z"/>
						</g>
					</g>
				</g>
				<g>
					<g>
						<polygon class="st11" points="45,382.2 80.7,403.4 80.7,359.1 45,337.9 						"/>
						<polygon class="st12" points="80.7,403.4 150.2,381.2 150.2,336.9 80.7,359.1 						"/>
						<polygon class="st13" points="80.7,359.1 150.2,336.9 114.5,315.8 45,337.9 						"/>
					</g>
					<g>
						<rect x="114.3" y="330.8" class="st12" width="20.3" height="6.1"/>
						<g>
							<path class="st12" d="M114.3,336.9c0,2.5,4.5,4.6,10.2,4.6c5.6,0,10.2-2,10.2-4.6s-4.5-4.6-10.2-4.6
								C118.8,332.4,114.3,334.4,114.3,336.9z"/>
							<path class="st13" d="M114.3,330.8c0,2.5,4.5,4.6,10.2,4.6c5.6,0,10.2-2,10.2-4.6s-4.5-4.6-10.2-4.6S114.3,328.3,114.3,330.8
								z"/>
						</g>
					</g>
					<g>
						<rect x="96.1" y="319.4" class="st12" width="20.3" height="6.1"/>
						<g>
							<path class="st12" d="M96.1,325.5c0,2.5,4.5,4.6,10.2,4.6c5.6,0,10.2-2,10.2-4.6s-4.5-4.6-10.2-4.6
								C100.6,321,96.1,323,96.1,325.5z"/>
							<path class="st13" d="M96.1,319.4c0,2.5,4.5,4.6,10.2,4.6c5.6,0,10.2-2,10.2-4.6s-4.5-4.6-10.2-4.6
								C100.6,314.9,96.1,316.9,96.1,319.4z"/>
						</g>
					</g>
					<g>
						<rect x="77.2" y="343" class="st12" width="20.3" height="6.1"/>
						<g>
							<path class="st12" d="M77.2,349.1c0,2.5,4.5,4.6,10.2,4.6c5.6,0,10.2-2,10.2-4.6s-4.5-4.6-10.2-4.6
								C81.8,344.5,77.2,346.5,77.2,349.1z"/>
							<path class="st13" d="M77.2,343c0,2.5,4.5,4.6,10.2,4.6c5.6,0,10.2-2,10.2-4.6s-4.5-4.6-10.2-4.6S77.2,340.4,77.2,343z"/>
						</g>
					</g>
					<g>
						<rect x="59.6" y="332.3" class="st12" width="20.3" height="6.1"/>
						<g>
							<path class="st12" d="M59.6,338.4c0,2.5,4.5,4.6,10.1,4.6s10.2-2,10.2-4.6s-4.5-4.6-10.2-4.6S59.6,335.9,59.6,338.4z"/>
							<path class="st13" d="M59.6,332.3c0,2.5,4.5,4.6,10.1,4.6s10.2-2,10.2-4.6s-4.5-4.6-10.2-4.6
								C64.2,327.8,59.6,329.8,59.6,332.3z"/>
						</g>
					</g>
				</g>
				<g>
					<g>
						<polygon class="st18" points="44.8,337.9 80.6,359.1 80.6,314.8 44.8,293.7 						"/>
						<polygon class="st17" points="80.6,359.1 150,337 150,292.6 80.6,314.8 						"/>
						<polygon class="st19" points="80.6,314.8 150,292.6 114.3,271.5 44.8,293.7 						"/>
					</g>
					<g>
						<rect x="114.1" y="286.6" class="st17" width="20.3" height="6.1"/>
						<g>
							<path class="st17" d="M114.1,292.7c0,2.5,4.5,4.6,10.2,4.6c5.6,0,10.2-2,10.2-4.6s-4.5-4.6-10.2-4.6
								C118.7,288.1,114.1,290.1,114.1,292.7z"/>
							<path class="st19" d="M114.1,286.6c0,2.5,4.5,4.6,10.2,4.6c5.6,0,10.2-2,10.2-4.6s-4.5-4.6-10.2-4.6
								C118.7,282,114.1,284,114.1,286.6z"/>
						</g>
					</g>
					<g>
						<rect x="95.9" y="275.1" class="st17" width="20.3" height="6.1"/>
						<g>
							<path class="st17" d="M95.9,281.3c0,2.5,4.5,4.6,10.2,4.6c5.6,0,10.2-2,10.2-4.6s-4.5-4.6-10.2-4.6S95.9,278.7,95.9,281.3z"
								/>
							<path class="st19" d="M95.9,275.1c0,2.5,4.5,4.6,10.2,4.6c5.6,0,10.2-2,10.2-4.6s-4.5-4.6-10.2-4.6
								C100.4,270.6,95.9,272.6,95.9,275.1z"/>
						</g>
					</g>
					<g>
						<rect x="77" y="298.7" class="st17" width="20.3" height="6.1"/>
						<g>
							<path class="st17" d="M77,304.8c0,2.5,4.5,4.6,10.2,4.6c5.6,0,10.2-2,10.2-4.6s-4.5-4.6-10.2-4.6
								C81.6,300.2,77,302.3,77,304.8z"/>
							<path class="st19" d="M77,298.7c0,2.5,4.5,4.6,10.2,4.6c5.6,0,10.2-2,10.2-4.6s-4.5-4.6-10.2-4.6
								C81.6,294.1,77,296.2,77,298.7z"/>
						</g>
					</g>
					<g>
						<rect x="59.4" y="288.1" class="st17" width="20.3" height="6.1"/>
						<g>
							<path class="st17" d="M59.4,294.2c0,2.5,4.5,4.6,10.1,4.6s10.2-2,10.2-4.6s-4.5-4.6-10.2-4.6C64,289.6,59.4,291.7,59.4,294.2
								z"/>
							<path class="st19" d="M59.4,288.1c0,2.5,4.5,4.6,10.1,4.6s10.2-2,10.2-4.6s-4.5-4.6-10.2-4.6C64,283.5,59.4,285.6,59.4,288.1
								z"/>
						</g>
					</g>
				</g>
				<g>
					<g>
						<polygon class="st15" points="82,282.1 117.7,303.3 117.7,259 82,237.9 						"/>
						<polygon class="st14" points="117.7,303.3 187.2,281.2 187.2,236.9 117.7,259 						"/>
						<polygon class="st16" points="117.7,259 187.2,236.9 151.5,215.7 82,237.9 						"/>
					</g>
					<g>
						<rect x="151.3" y="230.8" class="st14" width="20.3" height="6.1"/>
						<g>
							<path class="st14" d="M151.3,236.9c0,2.5,4.5,4.6,10.1,4.6s10.1-2,10.1-4.6s-4.5-4.6-10.1-4.6
								C155.8,232.3,151.3,234.4,151.3,236.9z"/>
							<path class="st16" d="M151.3,230.8c0,2.5,4.5,4.6,10.1,4.6s10.1-2,10.1-4.6s-4.5-4.6-10.1-4.6S151.3,228.3,151.3,230.8z"/>
						</g>
					</g>
					<g>
						<rect x="133" y="219.4" class="st14" width="20.3" height="6.1"/>
						<g>
							<path class="st14" d="M133,225.4c0,2.5,4.5,4.6,10.1,4.6s10.1-2,10.1-4.6s-4.5-4.6-10.1-4.6S133,222.9,133,225.4z"/>
							<path class="st16" d="M133,219.4c0,2.5,4.5,4.6,10.1,4.6s10.1-2,10.1-4.6s-4.5-4.6-10.1-4.6S133,216.8,133,219.4z"/>
						</g>
					</g>
					<g>
						<rect x="114.2" y="242.9" class="st14" width="20.3" height="6.1"/>
						<g>
							<path class="st14" d="M114.2,249c0,2.5,4.5,4.6,10.2,4.6c5.6,0,10.2-2,10.2-4.6s-4.5-4.6-10.2-4.6S114.2,246.5,114.2,249z"/>
							<path class="st16" d="M114.2,242.9c0,2.5,4.5,4.6,10.2,4.6c5.6,0,10.2-2,10.2-4.6s-4.5-4.6-10.2-4.6
								C118.7,238.3,114.2,240.4,114.2,242.9z"/>
						</g>
					</g>
					<g>
						<rect x="96.6" y="232.3" class="st14" width="20.3" height="6.1"/>
						<g>
							<path class="st14" d="M96.6,238.4c0,2.5,4.5,4.6,10.2,4.6c5.6,0,10.2-2,10.2-4.6s-4.5-4.6-10.2-4.6
								C101.2,233.8,96.6,235.9,96.6,238.4z"/>
							<path class="st16" d="M96.6,232.3c0,2.5,4.5,4.6,10.2,4.6c5.6,0,10.2-2,10.2-4.6s-4.5-4.6-10.2-4.6
								C101.2,227.7,96.6,229.8,96.6,232.3z"/>
						</g>
					</g>
				</g>
				<g>
					<g>
						<polygon class="st5" points="81.8,237.9 117.5,259 117.5,214.8 81.8,193.6 						"/>
						<polygon class="st4" points="117.5,259 187,236.9 187,192.6 117.5,214.8 						"/>
						<polygon class="st6" points="117.5,214.8 187,192.6 151.3,171.4 81.8,193.6 						"/>
					</g>
					<g>
						<rect x="151.1" y="186.5" class="st4" width="20.3" height="6.1"/>
						<g>
							<path class="st4" d="M151.1,192.6c0,2.5,4.5,4.6,10.1,4.6s10.1-2,10.1-4.6s-4.5-4.6-10.1-4.6
								C155.6,188.1,151.1,190.1,151.1,192.6z"/>
							<path class="st6" d="M151.1,186.5c0,2.5,4.5,4.6,10.1,4.6s10.1-2,10.1-4.6s-4.5-4.6-10.1-4.6S151.1,184,151.1,186.5z"/>
						</g>
					</g>
					<g>
						<rect x="132.8" y="175.1" class="st4" width="20.3" height="6.1"/>
						<g>
							<path class="st4" d="M132.8,181.2c0,2.5,4.5,4.6,10.1,4.6s10.1-2,10.1-4.6s-4.5-4.6-10.1-4.6
								C137.4,176.6,132.8,178.7,132.8,181.2z"/>
							<path class="st6" d="M132.8,175.1c0,2.5,4.5,4.6,10.1,4.6s10.1-2,10.1-4.6s-4.5-4.6-10.1-4.6
								C137.4,170.5,132.8,172.6,132.8,175.1z"/>
						</g>
					</g>
					<g>
						<rect x="114" y="198.6" class="st4" width="20.3" height="6.1"/>
						<g>
							<path class="st4" d="M114,204.7c0,2.5,4.5,4.6,10.2,4.6c5.6,0,10.1-2,10.1-4.6s-4.5-4.6-10.2-4.6
								C118.6,200.2,114,202.2,114,204.7z"/>
							<path class="st6" d="M114,198.6c0,2.5,4.5,4.6,10.2,4.6c5.6,0,10.1-2,10.1-4.6s-4.5-4.6-10.2-4.6
								C118.6,194.1,114,196.1,114,198.6z"/>
						</g>
					</g>
					<g>
						<rect x="96.4" y="188" class="st4" width="20.3" height="6.1"/>
						<g>
							<path class="st4" d="M96.4,194.1c0,2.5,4.5,4.6,10.2,4.6c5.6,0,10.2-2,10.2-4.6s-4.5-4.6-10.2-4.6
								C101,189.6,96.4,191.6,96.4,194.1z"/>
							<path class="st6" d="M96.4,188c0,2.5,4.5,4.6,10.2,4.6c5.6,0,10.2-2,10.2-4.6s-4.5-4.6-10.2-4.6
								C101,183.4,96.4,185.5,96.4,188z"/>
						</g>
					</g>
				</g>
				<g>
					<g>
						<polygon class="st8" points="81.7,193.7 117.4,214.9 117.4,170.6 81.7,149.4 						"/>
						<polygon class="st7" points="117.4,214.9 186.9,192.8 186.9,148.4 117.4,170.6 						"/>
						<polygon class="st9" points="117.4,170.6 186.9,148.4 151.2,127.3 81.7,149.4 						"/>
					</g>
					<g>
						<rect x="151" y="142.4" class="st10" width="20.3" height="6.1"/>
						<g>
							<path class="st10" d="M151,148.5c0,2.5,4.5,4.6,10.1,4.6s10.1-2,10.1-4.6s-4.5-4.6-10.1-4.6S151,145.9,151,148.5z"/>
							<path class="st9" d="M151,142.4c0,2.5,4.5,4.6,10.1,4.6s10.1-2,10.1-4.6s-4.5-4.6-10.1-4.6S151,139.8,151,142.4z"/>
						</g>
					</g>
					<g>
						<rect x="132.7" y="130.9" class="st10" width="20.3" height="6.1"/>
						<g>
							<path class="st10" d="M132.7,137c0,2.5,4.5,4.6,10.1,4.6s10.1-2,10.1-4.6s-4.5-4.6-10.1-4.6
								C137.3,132.5,132.7,134.5,132.7,137z"/>
							<path class="st9" d="M132.7,130.9c0,2.5,4.5,4.6,10.1,4.6s10.1-2,10.1-4.6s-4.5-4.6-10.1-4.6
								C137.3,126.4,132.7,128.4,132.7,130.9z"/>
						</g>
					</g>
					<g>
						<rect x="113.9" y="154.5" class="st10" width="20.3" height="6.1"/>
						<g>
							<path class="st10" d="M113.9,160.6c0,2.5,4.5,4.6,10.2,4.6c5.6,0,10.2-2,10.2-4.6s-4.5-4.6-10.2-4.6S113.9,158.1,113.9,160.6
								z"/>
							<path class="st9" d="M113.9,154.5c0,2.5,4.5,4.6,10.2,4.6c5.6,0,10.2-2,10.2-4.6s-4.5-4.6-10.2-4.6
								C118.4,149.9,113.9,152,113.9,154.5z"/>
						</g>
					</g>
					<g>
						<rect x="96.3" y="143.9" class="st10" width="20.3" height="6.1"/>
						<g>
							<path class="st10" d="M96.3,150c0,2.5,4.5,4.6,10.2,4.6c5.6,0,10.2-2,10.2-4.6s-4.5-4.6-10.2-4.6
								C100.9,145.4,96.3,147.4,96.3,150z"/>
							<path class="st9" d="M96.3,143.9c0,2.5,4.5,4.6,10.2,4.6c5.6,0,10.2-2,10.2-4.6s-4.5-4.6-10.2-4.6S96.3,141.3,96.3,143.9z"/>
						</g>
					</g>
				</g>
				<g>
					<g>
						<polygon class="st18" points="113.9,139.4 149.7,160.6 149.7,116.3 113.9,95.1 						"/>
						<polygon class="st17" points="149.7,160.6 219.1,138.4 219.1,94.1 149.7,116.3 						"/>
						<polygon class="st19" points="149.7,116.3 219.1,94.1 183.4,72.9 113.9,95.1 						"/>
					</g>
					<g>
						<rect x="183.2" y="88" class="st17" width="20.3" height="6.1"/>
						<g>
							<path class="st17" d="M183.2,94.1c0,2.5,4.5,4.6,10.1,4.6s10.1-2,10.1-4.6s-4.5-4.6-10.1-4.6
								C187.8,89.6,183.2,91.6,183.2,94.1z"/>
							<path class="st19" d="M183.2,88c0,2.5,4.5,4.6,10.1,4.6s10.1-2,10.1-4.6s-4.5-4.6-10.1-4.6C187.8,83.5,183.2,85.5,183.2,88z"
								/>
						</g>
					</g>
					<g>
						<rect x="165" y="76.6" class="st17" width="20.3" height="6.1"/>
						<g>
							<path class="st17" d="M165,82.7c0,2.5,4.5,4.6,10.1,4.6s10.1-2,10.1-4.6s-4.5-4.6-10.1-4.6S165,80.2,165,82.7z"/>
							<path class="st19" d="M165,76.6c0,2.5,4.5,4.6,10.1,4.6s10.1-2,10.1-4.6s-4.5-4.6-10.1-4.6S165,74.1,165,76.6z"/>
						</g>
					</g>
					<g>
						<rect x="146.1" y="100.1" class="st17" width="20.3" height="6.1"/>
						<g>
							<path class="st17" d="M146.1,106.2c0,2.5,4.5,4.6,10.1,4.6s10.1-2,10.1-4.6s-4.5-4.6-10.1-4.6
								C150.7,101.7,146.1,103.7,146.1,106.2z"/>
							<path class="st19" d="M146.1,100.1c0,2.5,4.5,4.6,10.1,4.6s10.1-2,10.1-4.6s-4.5-4.6-10.1-4.6
								C150.7,95.6,146.1,97.6,146.1,100.1z"/>
						</g>
					</g>
					<g>
						<rect x="128.6" y="89.5" class="st17" width="20.3" height="6.1"/>
						<g>
							<path class="st17" d="M128.6,95.6c0,2.5,4.5,4.6,10.1,4.6s10.1-2,10.1-4.6s-4.5-4.6-10.1-4.6
								C133.1,91.1,128.6,93.1,128.6,95.6z"/>
							<path class="st19" d="M128.6,89.5c0,2.5,4.5,4.6,10.1,4.6s10.1-2,10.1-4.6s-4.5-4.6-10.1-4.6S128.6,87,128.6,89.5z"/>
						</g>
					</g>
				</g>
				<g>
					<g>
						<polygon class="st14" points="78,106.5 113.7,127.7 113.7,83.4 78,62.3 						"/>
						<polygon class="st14" points="113.7,127.7 183.2,105.6 183.2,61.2 113.7,83.4 						"/>
						<polygon class="st16" points="113.7,83.4 183.2,61.2 147.5,40.1 78,62.3 						"/>
					</g>
					<g>
						<rect x="147.3" y="55.2" class="st14" width="20.3" height="6.1"/>
						<g>
							<path class="st14" d="M147.3,61.3c0,2.5,4.5,4.6,10.1,4.6s10.1-2,10.1-4.6s-4.5-4.6-10.1-4.6
								C151.8,56.7,147.3,58.7,147.3,61.3z"/>
							<path class="st16" d="M147.3,55.2c0,2.5,4.5,4.6,10.1,4.6s10.1-2,10.1-4.6s-4.5-4.6-10.1-4.6
								C151.8,50.6,147.3,52.6,147.3,55.2z"/>
						</g>
					</g>
					<g>
						<rect x="129" y="43.7" class="st14" width="20.3" height="6.1"/>
						<g>
							<ellipse class="st14" cx="139.2" cy="49.8" rx="10.1" ry="4.6"/>
							<path class="st16" d="M129,43.7c0,2.5,4.5,4.6,10.1,4.6s10.1-2,10.1-4.6s-4.5-4.6-10.1-4.6C133.6,39.2,129,41.2,129,43.7z"/>
						</g>
					</g>
					<g>
						<rect x="110.2" y="67.3" class="st14" width="20.3" height="6.1"/>
						<g>
							<path class="st14" d="M110.2,73.4c0,2.5,4.5,4.6,10.2,4.6c5.6,0,10.1-2,10.1-4.6s-4.5-4.6-10.2-4.6
								C114.8,68.8,110.2,70.9,110.2,73.4z"/>
							<path class="st16" d="M110.2,67.3c0,2.5,4.5,4.6,10.2,4.6c5.6,0,10.1-2,10.1-4.6s-4.5-4.6-10.2-4.6
								C114.8,62.7,110.2,64.8,110.2,67.3z"/>
						</g>
					</g>
					<g>
						<rect x="92.6" y="56.7" class="st14" width="20.3" height="6.1"/>
						<g>
							<path class="st14" d="M92.6,62.8c0,2.5,4.5,4.6,10.2,4.6c5.6,0,10.2-2,10.2-4.6s-4.5-4.6-10.2-4.6
								C97.2,58.2,92.6,60.2,92.6,62.8z"/>
							<path class="st16" d="M92.6,56.7c0,2.5,4.5,4.6,10.2,4.6c5.6,0,10.2-2,10.2-4.6s-4.5-4.6-10.2-4.6
								C97.2,52.1,92.6,54.1,92.6,56.7z"/>
						</g>
					</g>
				</g>
				<g>
					<g>
						<polygon class="st5" points="8.7,128.7 44.4,149.9 44.4,105.6 8.7,84.5 						"/>
						<polygon class="st4" points="44.4,149.9 113.9,127.8 113.9,83.5 44.4,105.6 						"/>
						<polygon class="st6" points="44.4,105.6 113.9,83.5 78.2,62.3 8.7,84.5 						"/>
					</g>
					<g>
						<rect x="78" y="77.4" class="st4" width="20.3" height="6.1"/>
						<g>
							<path class="st4" d="M78,83.5C78,86,82.5,88,88.1,88s10.2-2,10.2-4.6s-4.5-4.6-10.2-4.6C82.5,78.9,78,81,78,83.5z"/>
							<path class="st6" d="M78,77.4c0,2.5,4.5,4.6,10.2,4.6c5.6,0,10.2-2,10.2-4.6s-4.5-4.6-10.2-4.6S78,74.9,78,77.4z"/>
						</g>
					</g>
					<g>
						<rect x="59.7" y="66" class="st4" width="20.3" height="6.1"/>
						<g>
							<path class="st4" d="M59.7,72.1c0,2.5,4.5,4.6,10.1,4.6c5.6,0,10.2-2,10.2-4.6s-4.5-4.6-10.2-4.6
								C64.3,67.5,59.7,69.5,59.7,72.1z"/>
							<path class="st6" d="M59.7,66c0,2.5,4.5,4.6,10.1,4.6c5.6,0,10.2-2,10.2-4.6c0-2.5-4.5-4.6-10.2-4.6
								C64.3,61.4,59.7,63.4,59.7,66z"/>
						</g>
					</g>
					<g>
						<rect x="40.9" y="89.5" class="st4" width="20.3" height="6.1"/>
						<g>
							<path class="st4" d="M40.9,95.6c0,2.5,4.5,4.6,10.2,4.6c5.6,0,10.2-2,10.2-4.6S56.7,91,51,91C45.4,91,40.9,93.1,40.9,95.6z"
								/>
							<path class="st6" d="M40.9,89.5c0,2.5,4.5,4.6,10.2,4.6c5.6,0,10.2-2,10.2-4.6s-4.5-4.6-10.2-4.6S40.9,87,40.9,89.5z"/>
						</g>
					</g>
					<g>
						<rect x="23.3" y="78.9" class="st4" width="20.3" height="6.1"/>
						<g>
							<path class="st4" d="M23.3,85c0,2.5,4.5,4.6,10.1,4.6s10.2-2,10.2-4.6s-4.5-4.6-10.2-4.6C27.9,80.4,23.3,82.5,23.3,85z"/>
							<path class="st6" d="M23.3,78.9c0,2.5,4.5,4.6,10.1,4.6s10.2-2,10.2-4.6s-4.5-4.6-10.2-4.6C27.9,74.3,23.3,76.4,23.3,78.9z"
								/>
						</g>
					</g>
				</g>
				<g>
					<g>
						<polygon class="st11" points="38.4,75.1 74.2,96.3 74.2,52 38.4,30.9 						"/>
						<polygon class="st12" points="74.2,96.3 143.7,74.2 143.7,29.9 74.2,52 						"/>
						<polygon class="st13" points="74.2,52 143.7,29.9 107.9,8.7 38.4,30.9 						"/>
					</g>
					<g>
						<rect x="107.8" y="23.8" class="st12" width="20.3" height="6.1"/>
						<g>
							<path class="st12" d="M107.8,29.9c0,2.5,4.5,4.6,10.2,4.6c5.6,0,10.2-2,10.2-4.6s-4.5-4.6-10.2-4.6S107.8,27.4,107.8,29.9z"
								/>
							<path class="st13" d="M107.8,23.8c0,2.5,4.5,4.6,10.2,4.6c5.6,0,10.2-2,10.2-4.6s-4.5-4.6-10.2-4.6
								C112.3,19.2,107.8,21.3,107.8,23.8z"/>
						</g>
					</g>
					<g>
						<rect x="89.5" y="12.4" class="st12" width="20.3" height="6.1"/>
						<g>
							<path class="st12" d="M89.5,18.5C89.5,21,94,23,99.7,23s10.2-2,10.2-4.6s-4.5-4.6-10.2-4.6S89.5,15.9,89.5,18.5z"/>
							<path class="st13" d="M89.5,12.4c0,2.5,4.5,4.6,10.2,4.6s10.2-2,10.2-4.6s-4.5-4.6-10.2-4.6S89.5,9.8,89.5,12.4z"/>
						</g>
					</g>
					<g>
						<rect x="70.7" y="35.9" class="st12" width="20.3" height="6.1"/>
						<g>
							<path class="st12" d="M70.7,42c0,2.5,4.5,4.6,10.2,4.6c5.6,0,10.2-2,10.2-4.6s-4.5-4.6-10.2-4.6C75.2,37.5,70.7,39.5,70.7,42
								z"/>
							<path class="st13" d="M70.7,35.9c0,2.5,4.5,4.6,10.2,4.6c5.6,0,10.2-2,10.2-4.6s-4.5-4.6-10.2-4.6S70.7,33.4,70.7,35.9z"/>
						</g>
					</g>
					<g>
						<rect x="53.1" y="25.3" class="st12" width="20.3" height="6.1"/>
						<g>
							<path class="st12" d="M53.1,31.4c0,2.5,4.5,4.6,10.2,4.6c5.6,0,10.2-2,10.2-4.6s-4.5-4.6-10.2-4.6S53.1,28.9,53.1,31.4z"/>
							<path class="st13" d="M53.1,25.3c0,2.5,4.5,4.6,10.2,4.6c5.6,0,10.2-2,10.2-4.6s-4.5-4.6-10.2-4.6
								C57.6,20.7,53.1,22.8,53.1,25.3z"/>
						</g>
					</g>
				</g>
			</g>
		</g>
	</g>
</g>
</svg>
